<svg version="1.1" xmlns="http://www.w3.org/2000/svg" width="1024" height="768">
    <defs>
        <radialGradient cx="205.00" cy="205.00" fx="279.18" fy="130.80" r="200" gradientUnits="userSpaceOnUse" spreadMethod="pad" id="S1">
            <stop offset="0.00" stop-color="#FF0000" stop-opacity="1.00"/>
            <stop offset="1.00" stop-color="#FFFF00" stop-opacity="1.00"/>
        </radialGradient>
    </defs>
    <g transform="scale(1.85,1.85) translate(74.72,5.41)">
        <circle cx="279.18" cy="130.80" r="7" fill="#FF00FF"/>
		<circle cx="205.00" cy="205.00" r="200" fill="url(#S1)"/>
		<path fill="#FFFFFF" fill-opacity="1.00" d="M273.20,184.00 L274.05,181.35 L273.45,178.00 Q272.75,174.55 270.15,174.50 Q268.75,174.50 267.85,176.10 Q266.70,178.15 266.70,180.80 Q266.70,184.05 267.80,185.55 Q268.95,187.15 270.15,187.15 Q272.10,187.15 273.20,184.00 M270.15,172.25 Q274.70,172.15 275.60,176.90 L277.05,172.60 L279.45,172.60 L276.45,181.50 L277.00,184.70 Q277.15,185.40 277.65,186.00 Q278.25,186.70 278.75,186.70 L280.00,186.70 L280.00,189.00 L278.40,189.00 Q277.05,189.00 275.80,187.75 Q275.20,187.15 274.95,185.85 Q274.30,187.45 272.95,188.75 Q272.25,189.40 270.15,189.35 Q267.25,189.35 265.60,187.15 Q263.90,184.85 263.90,180.80 Q263.90,176.45 265.70,174.50 Q267.80,172.25 270.15,172.25 Z"/>
        <path stroke="#FFFFFF" stroke-width="1.50" stroke-opacity="1.00" stroke-linecap="square" stroke-linejoin="round" stroke-miterlimit="3.00" fill="transparent" d="M405.00,205.00 Q405.00,287.80 346.40,346.40 Q287.85,405.00 205.00,405.00 Q122.20,405.00 63.55,346.40 Q5.00,287.80 5.00,205.00 Q5.00,122.15 63.55,63.55 Q122.20,5.00 205.00,5.00 Q287.85,5.00 346.40,63.55 Q405.00,122.15 405.00,205.00"/>
        <path stroke="#FFFFFF" stroke-width="1.50" stroke-opacity="1.00" stroke-linecap="square" stroke-linejoin="round" stroke-miterlimit="3.00" fill="transparent" d="M195.20,203.00 Q195.65,200.15 197.80,197.95 Q200.15,195.60 203.25,195.15 L204.90,195.05 Q209.05,195.00 211.95,198.00 L212.10,197.90 L237.70,172.25 L275.65,134.35 Q274.15,132.80 274.15,130.80 Q274.20,128.75 275.65,127.25 Q277.15,125.75 279.15,125.80 Q281.20,125.80 282.70,127.25 Q284.10,128.70 284.15,130.85 Q284.15,132.80 282.70,134.35 Q281.25,135.80 279.15,135.75 Q277.05,135.80 275.65,134.35 M211.95,198.00 Q214.90,200.90 214.95,205.05 Q214.95,209.15 212.00,212.10 L209.40,214.05 M205.00,215.00 L202.10,214.60 Q199.70,213.95 197.85,212.15 Q194.85,209.15 195.00,205.00 M237.70,172.25 Q249.95,186.10 249.95,205.00"/>
        <path stroke="#FFFFFF" stroke-width="1.50" stroke-opacity="1.00" stroke-linecap="round" stroke-linejoin="round" stroke-miterlimit="3.00" fill="transparent" d="M381.00,205.00 L375.00,205.00 M393.00,205.00 L387.00,205.00 M333.00,205.00 L327.00,205.00 M345.00,205.00 L339.00,205.00 M357.00,205.00 L351.00,205.00 M369.00,205.00 L363.00,205.00 M405.00,205.00 L399.00,205.00 M211.65,197.50 L212.10,197.90 Q214.25,200.05 214.80,202.90 M200.65,196.00 Q201.85,195.40 203.25,195.15 L205.00,195.00 L206.45,195.10 M299.00,205.00 L305.00,205.00 Q305.00,202.90 306.50,201.45 Q307.30,200.65 308.30,200.30 M313.85,201.75 Q315.00,203.10 315.00,205.00 L321.00,205.00 M315.00,205.00 Q315.00,207.05 313.55,208.55 Q312.85,209.30 311.95,209.65 M306.30,208.35 Q305.00,206.90 305.00,205.00 M293.00,205.00 L287.00,205.00 M257.00,205.00 L251.00,205.00 M269.00,205.00 L263.00,205.00 M281.00,205.00 L275.00,205.00 M208.35,214.45 L205.00,215.00 M221.00,205.00 L215.00,205.00 Q215.00,208.25 213.15,210.85 M233.00,205.00 L227.00,205.00 M195.05,205.90 L195.00,205.00 L195.20,203.00 Q195.50,201.40 196.30,200.05 M202.10,214.60 Q199.80,213.90 198.00,212.10 L197.30,211.35 M245.00,205.00 L239.00,205.00"/>
    </g>
</svg>
