<svg version="1.1" xmlns="http://www.w3.org/2000/svg" width="1024" height="768">
    <g transform="scale(1.61,1.61) translate(67.45,6.21)">
        <path fill="#FFFFFF" fill-opacity="1.00" d="M331.50,219.80 L332.35,217.15 L331.75,213.80 Q331.05,210.35 328.45,210.30 Q327.05,210.30 326.15,211.90 Q325.00,213.95 325.00,216.60 Q325.00,219.85 326.10,221.35 Q327.25,222.95 328.45,222.95 Q330.40,222.95 331.50,219.80 M328.45,208.05 Q333.00,207.95 333.90,212.70 L335.35,208.40 L337.75,208.40 L334.75,217.30 L335.30,220.50 Q335.45,221.20 335.95,221.80 Q336.55,222.50 337.05,222.50 L338.30,222.50 L338.30,224.80 L336.70,224.80 Q335.35,224.80 334.10,223.55 Q333.50,222.95 333.25,221.65 Q332.60,223.25 331.25,224.55 Q330.55,225.20 328.45,225.15 Q325.55,225.15 323.90,222.95 Q322.20,220.65 322.20,216.60 Q322.20,212.25 324.00,210.30 Q326.10,208.05 328.45,208.05 Z"/>
        <path stroke="#FFFFFF" stroke-width="1.50" stroke-opacity="1.00" stroke-linecap="square" stroke-linejoin="round" stroke-miterlimit="3.00" fill="transparent" d="M426.40,134.90 L296.60,209.85 Q303.20,221.00 303.20,234.90 M80.00,334.90 L209.80,259.95 Q203.20,248.80 203.20,234.90 M209.80,259.95 L296.60,209.85"/>
        <path stroke="#FFFFFF" stroke-width="1.50" stroke-opacity="1.00" stroke-linecap="round" stroke-linejoin="round" stroke-miterlimit="3.00" fill="transparent" d="M5.00,205.00 L351.40,5.00 L426.40,134.90 L501.40,264.80 L155.00,464.80 L80.00,334.90 L5.00,205.00"/>
        <path stroke="#FFFFFF" stroke-width="1.50" stroke-opacity="1.00" stroke-linecap="round" stroke-linejoin="round" stroke-miterlimit="3.00" fill="transparent" d="M413.20,84.90 L419.20,84.90 M401.20,84.90 L407.20,84.90 M389.25,84.90 L395.25,84.90 M449.20,84.90 L453.20,84.90 L453.20,86.90 M437.20,84.90 L443.20,84.90 M425.20,84.90 L431.20,84.90 M257.25,84.90 L263.25,84.90 M245.25,84.90 L251.25,84.90 M233.25,84.90 L239.25,84.90 M293.25,84.90 L299.25,84.90 M281.25,84.90 L287.25,84.90 M269.25,84.90 L275.25,84.90 M329.25,84.90 L335.25,84.90 M317.25,84.90 L323.25,84.90 M305.25,84.90 L311.25,84.90 M377.25,84.90 L383.25,84.90 M365.25,84.90 L371.25,84.90 M353.25,84.90 L359.25,84.90 M341.25,84.90 L347.25,84.90 M293.20,234.90 L299.20,234.90 M281.20,234.90 L287.20,234.90 M269.20,234.90 L275.20,234.90 M257.20,234.90 L263.20,234.90 M245.20,234.90 L251.20,234.90 M233.20,234.90 L239.20,234.90 M377.20,234.90 L383.20,234.90 M365.20,234.90 L371.20,234.90 M353.20,234.90 L359.20,234.90 M329.20,234.90 L335.20,234.90 M317.20,234.90 L323.20,234.90 M305.20,234.90 L311.20,234.90 M341.20,234.90 L347.20,234.90 M453.20,128.90 L453.20,134.90 M453.20,116.90 L453.20,122.90 M453.20,104.90 L453.20,110.90 M453.20,176.90 L453.20,182.90 M453.20,188.90 L453.20,194.90 M453.20,164.90 L453.20,170.90 M453.20,152.90 L453.20,158.90 M453.20,140.90 L453.20,146.90 M449.20,234.90 L453.20,234.90 M437.20,234.90 L443.20,234.90 M453.20,236.90 L453.20,242.90 M453.20,224.90 L453.20,230.90 M453.20,212.90 L453.20,218.90 M453.20,200.90 L453.20,206.90 M413.20,234.90 L419.20,234.90 M401.20,234.90 L407.20,234.90 M389.20,234.90 L395.20,234.90 M453.20,284.90 L453.20,290.90 M453.20,272.90 L453.20,278.90 M453.20,260.90 L453.20,266.90 M453.20,248.90 L453.20,254.90 M425.20,234.90 L431.20,234.90 M453.20,92.90 L453.20,98.90 M453.20,332.90 L453.20,338.90 M453.20,320.90 L453.20,326.90 M453.20,308.90 L453.20,314.90 M453.20,296.90 L453.20,302.90 M397.20,384.90 L391.20,384.90 M409.20,384.90 L403.20,384.90 M421.20,384.90 L415.20,384.90 M433.20,384.90 L427.20,384.90 M445.20,384.90 L439.20,384.90 M453.20,380.90 L453.20,384.90 L451.20,384.90 M453.20,368.90 L453.20,374.90 M453.20,356.90 L453.20,362.90 M453.20,344.90 L453.20,350.90 M313.20,384.90 L307.20,384.90 M325.20,384.90 L319.20,384.90 M337.20,384.90 L331.20,384.90 M361.20,384.90 L355.20,384.90 M373.20,384.90 L367.20,384.90 M385.20,384.90 L379.20,384.90 M349.20,384.90 L343.20,384.90 M241.20,384.90 L235.20,384.90 M253.20,384.90 L247.20,384.90 M277.20,384.90 L271.20,384.90 M289.20,384.90 L283.20,384.90 M301.20,384.90 L295.20,384.90 M265.20,384.90 L259.20,384.90 M89.20,84.90 L95.20,84.90 M77.20,84.90 L83.20,84.90 M65.20,84.90 L71.20,84.90 M125.20,84.90 L131.20,84.90 M113.20,84.90 L119.20,84.90 M101.20,84.90 L107.20,84.90 M173.20,84.90 L179.20,84.90 M161.20,84.90 L167.20,84.90 M149.20,84.90 L155.20,84.90 M209.20,84.90 L215.25,84.90 M197.20,84.90 L203.20,84.90 M185.20,84.90 L191.20,84.90 M137.20,84.90 L143.20,84.90 M53.20,92.90 L53.20,86.90 M53.20,84.90 L59.20,84.90 M53.20,104.90 L53.20,98.90 M53.20,116.90 L53.20,110.90 M53.20,128.90 L53.20,122.90 M53.20,140.90 L53.20,134.90 M53.20,152.90 L53.20,146.90 M53.20,164.90 L53.20,158.90 M53.20,176.90 L53.20,170.90 M53.20,188.90 L53.20,182.90 M53.20,230.90 L53.20,234.90 L59.20,234.90 M53.20,212.90 L53.20,206.90 M53.20,224.90 L53.20,218.90 M53.20,236.90 L53.20,234.90 M53.20,260.90 L53.20,254.90 M53.20,272.90 L53.20,266.90 M53.20,284.90 L53.20,278.90 M53.20,248.90 L53.20,242.90 M53.20,200.90 L53.20,194.90 M125.20,234.90 L131.20,234.90 M113.20,234.90 L119.20,234.90 M89.20,234.90 L95.20,234.90 M77.20,234.90 L83.20,234.90 M65.20,234.90 L71.20,234.90 M101.20,234.90 L107.20,234.90 M209.20,234.90 L215.20,234.90 M197.20,234.90 L203.20,234.90 M185.20,234.90 L191.20,234.90 M173.20,234.90 L179.20,234.90 M161.20,234.90 L167.20,234.90 M149.20,234.90 L155.20,234.90 M137.20,234.90 L143.20,234.90 M157.20,384.90 L151.20,384.90 M169.20,384.90 L163.20,384.90 M181.20,384.90 L175.20,384.90 M193.20,384.90 L187.20,384.90 M205.20,384.90 L199.20,384.90 M217.20,384.90 L211.20,384.90 M73.20,384.90 L67.20,384.90 M85.20,384.90 L79.20,384.90 M97.20,384.90 L91.20,384.90 M109.20,384.90 L103.20,384.90 M121.20,384.90 L115.20,384.90 M133.20,384.90 L127.20,384.90 M145.20,384.90 L139.20,384.90 M53.20,308.90 L53.20,302.90 M53.20,320.90 L53.20,314.90 M53.20,332.90 L53.20,326.90 M53.20,356.90 L53.20,350.90 M53.20,368.90 L53.20,362.90 M53.20,380.90 L53.20,374.90 M61.20,384.90 L55.20,384.90 M53.20,344.90 L53.20,338.90 M53.20,296.90 L53.20,290.90 M221.20,234.90 L227.20,234.90 M229.20,384.90 L223.20,384.90 M221.25,84.90 L227.25,84.90"/>
    </g>
</svg>