<svg version="1.1" xmlns="http://www.w3.org/2000/svg" width="1024" height="768">
    <g transform="scale(1.85,1.85) translate(74.72,5.41)">
        <path fill="#FFFFFF" fill-opacity="1.00" d="M265.00,110.95 L264.05,110.95 L262.30,111.25 Q261.75,111.60 261.75,112.40 Q261.75,113.00 262.10,113.35 Q262.50,113.70 263.10,113.70 Q264.00,113.70 264.50,113.00 Q265.00,112.30 265.00,111.10 L265.00,110.95 M266.40,106.95 Q267.25,107.80 267.25,110.05 L267.25,115.05 L265.00,115.05 L265.00,114.05 Q264.55,114.65 263.90,114.95 L262.50,115.30 Q261.00,115.30 260.15,114.50 Q259.35,113.70 259.35,112.30 Q259.35,110.75 260.35,110.05 Q261.30,109.30 263.40,109.30 L265.00,109.30 L265.00,108.90 Q265.00,108.35 264.60,108.05 L263.40,107.80 L261.80,108.00 L260.20,108.65 L260.20,106.70 Q260.95,106.40 261.75,106.25 L263.40,106.10 Q265.55,106.10 266.40,106.95 M271.95,114.20 Q271.20,113.35 271.20,111.40 L271.20,104.65 L268.90,104.65 L268.90,102.90 L273.50,102.90 L273.50,111.40 Q273.50,112.45 273.85,112.85 Q274.15,113.30 274.90,113.30 L276.75,113.30 L276.75,115.05 L274.30,115.05 Q272.65,115.05 271.95,114.20 M298.75,108.05 L298.75,106.30 L303.25,106.30 L303.25,113.30 L306.10,113.30 L306.10,115.05 L298.10,115.05 L298.10,113.30 L300.95,113.30 L300.95,108.05 L298.75,108.05 M279.05,115.05 L279.05,103.40 L282.25,103.40 Q284.65,103.40 285.70,104.25 Q286.75,105.10 286.75,107.05 Q286.75,108.95 285.70,109.80 Q284.65,110.70 282.25,110.70 L281.35,110.70 L281.35,115.05 L279.05,115.05 M282.30,105.30 L281.35,105.30 L281.35,108.75 L282.30,108.75 Q283.45,108.75 283.90,108.35 Q284.35,108.00 284.35,107.05 Q284.35,106.10 283.90,105.70 Q283.45,105.30 282.30,105.30 M293.50,108.70 Q293.05,107.95 292.20,107.95 Q291.40,107.95 290.90,108.70 Q290.45,109.40 290.45,110.70 Q290.45,111.95 290.90,112.70 Q291.40,113.40 292.20,113.40 Q293.05,113.40 293.50,112.70 Q294.00,111.95 294.00,110.70 Q294.00,109.40 293.50,108.70 M289.25,114.05 Q288.15,112.80 288.15,110.70 Q288.15,108.55 289.25,107.35 Q290.35,106.10 292.20,106.10 Q294.05,106.10 295.15,107.35 Q296.25,108.55 296.25,110.70 Q296.25,112.80 295.15,114.05 Q294.05,115.30 292.20,115.30 Q290.35,115.30 289.25,114.05 M273.20,184.00 L274.05,181.35 L273.45,178.00 Q272.75,174.55 270.15,174.50 Q268.75,174.50 267.85,176.10 Q266.70,178.15 266.70,180.80 Q266.70,184.05 267.80,185.55 Q268.95,187.15 270.15,187.15 Q272.10,187.15 273.20,184.00 M270.15,172.25 Q274.70,172.15 275.60,176.90 L277.05,172.60 L279.45,172.60 L276.45,181.50 L277.00,184.70 Q277.15,185.40 277.65,186.00 Q278.25,186.70 278.75,186.70 L280.00,186.70 L280.00,189.00 L278.40,189.00 Q277.05,189.00 275.80,187.75 Q275.20,187.15 274.95,185.85 Q274.30,187.45 272.95,188.75 Q272.25,189.40 270.15,189.35 Q267.25,189.35 265.60,187.15 Q263.90,184.85 263.90,180.80 Q263.90,176.45 265.70,174.50 Q267.80,172.25 270.15,172.25 M300.95,104.70 L300.95,102.05 L303.25,102.05 L303.25,104.70 L300.95,104.70 M314.35,106.90 Q314.95,107.75 314.95,109.35 L314.95,115.05 L312.70,115.05 L312.70,109.70 L312.45,108.35 Q312.15,107.95 311.55,107.95 Q310.95,107.95 310.60,108.50 Q310.20,109.05 310.20,110.05 L310.20,115.05 L307.95,115.05 L307.95,106.30 L310.20,106.30 L310.20,107.60 Q310.45,106.90 311.05,106.50 L312.45,106.10 Q313.70,106.10 314.35,106.90 M319.30,103.80 L321.60,103.80 L321.60,106.30 L324.60,106.30 L324.60,108.05 L321.60,108.05 L321.60,112.20 Q321.60,112.80 321.90,113.05 L322.85,113.30 L324.60,113.30 L324.60,115.05 L322.65,115.05 Q320.70,115.05 320.00,114.45 Q319.30,113.80 319.30,112.10 L319.30,108.05 L317.05,108.05 L317.05,106.30 L319.30,106.30 L319.30,103.80 M245.50,108.70 Q245.05,107.95 244.20,107.95 Q243.40,107.95 242.90,108.70 Q242.45,109.40 242.45,110.70 Q242.45,111.95 242.90,112.70 Q243.40,113.40 244.20,113.40 Q245.05,113.40 245.50,112.70 Q246.00,111.95 246.00,110.70 Q246.00,109.40 245.50,108.70 M235.80,104.85 Q235.60,105.05 235.55,105.55 L235.55,106.30 L238.25,106.30 L238.25,108.05 L235.55,108.05 L235.55,115.05 L233.30,115.05 L233.30,108.05 L231.15,108.05 L231.15,106.30 L233.30,106.30 L233.30,105.70 Q233.30,104.10 233.95,103.50 Q234.60,102.90 236.40,102.90 L238.25,102.90 L238.25,104.65 L236.45,104.65 L235.80,104.85 M241.25,114.05 Q240.15,112.80 240.15,110.70 Q240.15,108.55 241.25,107.35 Q242.35,106.10 244.20,106.10 Q246.05,106.10 247.15,107.35 Q248.25,108.55 248.25,110.70 Q248.25,112.80 247.15,114.05 Q246.05,115.30 244.20,115.30 Q242.35,115.30 241.25,114.05 M257.30,112.50 L257.30,114.60 Q256.70,114.95 256.05,115.10 L254.60,115.30 Q252.60,115.30 251.45,114.05 Q250.30,112.85 250.30,110.70 Q250.30,108.50 251.45,107.30 Q252.60,106.05 254.65,106.05 L256.00,106.25 L257.30,106.75 L257.30,108.85 Q256.80,108.40 256.20,108.20 L254.95,107.95 Q253.85,107.95 253.25,108.65 Q252.65,109.35 252.65,110.70 Q252.65,112.00 253.25,112.70 Q253.85,113.40 254.95,113.40 L256.20,113.20 L257.30,112.50 Z"/>
        <path stroke="#FFFFFF" stroke-width="1.50" stroke-opacity="1.00" stroke-linecap="square" stroke-linejoin="round" stroke-miterlimit="3.00" fill="transparent" d="M195.20,203.00 Q195.65,200.15 197.80,197.95 Q200.15,195.60 203.25,195.15 L204.90,195.05 Q209.05,195.00 211.95,198.00 L237.70,172.25 L275.65,134.35 Q274.15,132.80 274.15,130.80 Q274.20,128.75 275.65,127.25 Q277.15,125.75 279.15,125.80 Q281.20,125.80 282.70,127.25 Q284.10,128.70 284.15,130.85 Q284.15,132.80 282.70,134.35 Q281.25,135.80 279.15,135.75 Q277.05,135.80 275.65,134.35 M405.00,205.00 Q405.00,287.80 346.40,346.40 Q287.85,405.00 205.00,405.00 Q122.20,405.00 63.55,346.40 Q5.00,287.80 5.00,205.00 Q5.00,122.15 63.55,63.55 Q122.20,5.00 205.00,5.00 Q287.85,5.00 346.40,63.55 Q405.00,122.15 405.00,205.00 M205.00,215.00 L202.10,214.60 Q199.70,213.95 197.85,212.15 Q194.85,209.15 195.00,205.00 M211.95,198.00 Q214.90,200.90 214.95,205.05 Q214.95,209.15 212.00,212.10 L209.40,214.05 M237.70,172.25 Q249.95,186.10 249.95,205.00"/>
        <path stroke="#FFFFFF" stroke-width="1.50" stroke-opacity="1.00" stroke-linecap="round" stroke-linejoin="round" stroke-miterlimit="3.00" fill="transparent" d="M269.00,205.00 L263.00,205.00 M281.00,205.00 L275.00,205.00 M293.00,205.00 L287.00,205.00 M306.30,208.35 Q305.00,206.90 305.00,205.00 L299.00,205.00 M321.00,205.00 L315.00,205.00 Q315.00,207.05 313.55,208.55 Q312.85,209.30 311.95,209.65 M333.00,205.00 L327.00,205.00 M313.85,201.75 Q315.00,203.10 315.00,205.00 M305.00,205.00 Q305.00,202.90 306.50,201.45 Q307.30,200.65 308.30,200.30 M345.00,205.00 L339.00,205.00 M357.00,205.00 L351.00,205.00 M369.00,205.00 L363.00,205.00 M393.00,205.00 L387.00,205.00 M405.00,205.00 L399.00,205.00 M381.00,205.00 L375.00,205.00 M211.65,197.50 L212.10,197.90 Q214.25,200.05 214.80,202.90 M200.65,196.00 Q201.85,195.40 203.25,195.15 L205.00,195.00 L206.45,195.10 M208.35,214.45 L205.00,215.00 M221.00,205.00 L215.00,205.00 Q215.00,208.25 213.15,210.85 M195.05,205.90 L195.00,205.00 L195.20,203.00 Q195.50,201.40 196.30,200.05 M202.10,214.60 Q199.80,213.90 198.00,212.10 L197.30,211.35 M233.00,205.00 L227.00,205.00 M245.00,205.00 L239.00,205.00 M257.00,205.00 L251.00,205.00"/>
    </g>
</svg>