<svg version="1.1" xmlns="http://www.w3.org/2000/svg" width="1024" height="768">
    <defs>
        <radialGradient cx="50.35" cy="100.25" fx="50.35" fy="100.25" r="27.64" gradientUnits="userSpaceOnUse" spreadMethod="pad" id="G1">
            <stop offset="0.46" stop-color="#F1E6B7" stop-opacity="1.00"/>
            <stop offset="0.76" stop-color="#D7B48F" stop-opacity="1.00"/>
            <stop offset="1.00" stop-color="#D4A893" stop-opacity="1.00"/>
        </radialGradient>
        <linearGradient x1="83.45" y1="34.26" x2="118.65" y2="52.64" gradientUnits="userSpaceOnUse" spreadMethod="pad" id="G2">
            <stop offset="0.25" stop-color="#BD2848" stop-opacity="1.00"/>
            <stop offset="1.00" stop-color="#BD2848" stop-opacity="1.00"/>
        </linearGradient>
        <radialGradient cx="43.55" cy="28.75" fx="43.55" fy="28.75" r="45.15" gradientUnits="userSpaceOnUse" spreadMethod="pad" id="G3">
            <stop offset="0.58" stop-color="#EC4D6F" stop-opacity="1.00"/>
            <stop offset="1.00" stop-color="#D63C5D" stop-opacity="1.00"/>
        </radialGradient>
        <linearGradient x1="68.35" y1="54.83" x2="123.35" y2="69.58" gradientUnits="userSpaceOnUse" spreadMethod="pad" id="G4">
            <stop offset="0.25" stop-color="#EC4D6F" stop-opacity="1.00"/>
            <stop offset="1.00" stop-color="#CD3656" stop-opacity="1.00"/>
        </linearGradient>
        <radialGradient cx="52.15" cy="133.90" fx="52.15" fy="133.90" r="29.40" gradientUnits="userSpaceOnUse" spreadMethod="pad" id="G5">
            <stop offset="0.25" stop-color="#FF813F" stop-opacity="1.00"/>
            <stop offset="1.00" stop-color="#FD6524" stop-opacity="1.00"/>
        </radialGradient>
    </defs>
    <g transform="scale(5.11,5.11) translate(32.83,1.96)">
        <path fill="#000000" fill-opacity="1.00" d="M125.65,43.60 Q130.45,46.90 132.80,52.40 Q134.60,56.50 133.95,60.40 L133.50,62.30 L132.90,63.85 L131.90,65.65 L130.30,67.05 L126.70,69.80 Q122.70,72.55 119.05,73.80 L111.90,76.20 L111.85,76.20 L111.90,76.25 L109.30,77.00 Q99.80,79.20 93.20,79.55 L91.75,79.60 Q89.05,79.65 86.95,80.30 Q83.65,81.30 81.95,83.80 L81.95,83.85 L81.70,84.25 L80.80,88.55 Q80.30,91.65 80.30,95.90 L80.40,98.10 Q82.60,98.55 84.50,100.10 Q87.85,102.85 87.85,107.60 Q87.85,109.50 87.40,111.20 L87.35,111.40 L88.95,109.50 L89.20,111.30 L89.20,111.40 L89.65,117.35 L89.65,120.00 L89.35,123.40 Q89.25,124.95 88.05,127.30 Q87.05,129.25 85.50,130.85 L84.90,131.45 L83.20,133.00 L81.50,134.40 L80.10,135.55 L78.00,136.95 L78.10,137.10 Q78.50,137.75 78.50,138.55 L78.50,139.05 Q78.40,140.40 77.70,141.85 Q77.10,143.15 76.10,144.20 L74.85,145.30 L74.70,145.40 L74.50,145.50 L73.95,145.75 L71.30,146.25 L69.25,146.00 Q68.50,145.60 68.40,144.60 L68.50,143.95 L68.55,143.60 L68.70,142.05 Q68.65,141.30 67.95,140.25 L65.05,140.75 L62.35,141.00 L58.50,141.15 L57.70,139.20 L54.25,139.00 L52.90,141.10 L51.80,141.05 L47.70,140.70 L45.70,140.40 L45.55,141.60 Q45.55,142.80 45.95,143.85 L46.20,144.65 L46.25,144.85 L46.25,145.00 Q46.15,145.50 45.45,145.85 L43.40,146.20 L41.25,145.95 L40.75,145.85 Q39.35,145.45 38.95,145.00 L38.35,144.15 L38.15,143.75 L37.95,143.15 Q37.45,141.45 37.05,137.70 L35.60,137.00 L32.75,135.50 L30.40,134.15 L28.80,133.05 L26.50,131.00 Q24.70,128.75 24.00,125.70 L23.40,122.70 Q22.40,116.55 22.60,109.75 L23.35,110.85 L23.10,107.90 Q23.10,105.50 23.50,103.55 Q23.95,101.20 25.00,99.45 Q26.90,96.25 31.00,94.35 L31.60,94.05 L32.05,93.85 L32.75,93.85 Q34.50,88.60 36.50,83.50 L38.05,79.60 L39.65,75.40 Q40.40,72.95 40.40,71.60 L40.30,70.70 L40.30,70.65 Q39.40,69.25 38.00,68.05 L35.90,66.55 L35.20,66.40 L34.80,66.25 L25.15,63.40 L24.10,63.05 Q18.15,61.10 14.20,59.40 L12.10,58.50 L8.65,56.60 Q5.75,54.75 4.95,53.00 L4.95,53.30 L4.15,52.50 L4.15,52.45 L3.95,52.30 L3.15,51.35 L2.40,50.45 L2.05,49.95 L1.80,49.55 L1.55,49.05 L1.50,49.00 Q-0.05,46.20 0.00,43.95 Q0.05,41.50 0.60,39.70 L0.65,39.50 Q1.20,37.60 2.60,35.85 Q3.30,34.95 4.90,33.95 Q5.90,33.30 7.25,32.60 L8.80,31.80 L10.40,31.00 L11.70,30.30 L13.00,29.65 L21.65,24.80 L21.70,24.75 L22.75,24.15 Q26.85,21.65 32.25,17.70 L43.20,9.20 L43.60,8.85 Q48.05,5.00 52.30,2.60 Q56.75,0.10 60.55,0.00 L62.95,0.05 Q65.85,0.25 69.45,1.15 L72.55,2.10 L73.85,2.60 L74.30,2.80 L76.05,4.10 L78.05,5.85 L80.10,8.00 L83.25,11.20 L95.80,23.50 Q99.20,27.05 107.45,32.70 Q115.65,38.30 122.75,41.85 Q124.30,42.65 125.65,43.60 M85.95,75.80 Q85.60,75.90 85.55,76.15 L86.40,76.05 L85.95,75.80 M45.15,9.80 L45.20,9.90 L45.25,9.85 L45.15,9.80 M53.40,4.75 L55.60,4.05 L56.60,3.65 L55.70,3.85 L53.30,4.65 L53.40,4.75 M129.75,63.00 L129.95,62.60 L129.45,62.55 L129.75,63.05 L129.75,63.00 M7.80,35.95 L7.75,36.00 L7.80,36.05 L7.85,36.05 L7.80,35.95 M48.90,70.70 Q48.80,71.05 48.85,71.35 L48.90,70.80 L48.90,70.70 M18.45,38.70 L18.15,38.60 L18.15,38.65 L18.45,38.70 M57.70,72.35 L57.70,72.45 L57.75,72.45 L57.70,72.35 M78.75,79.00 L78.85,79.00 L78.90,78.95 L78.75,79.00 M78.70,98.45 L78.65,98.45 L78.65,98.50 L78.70,98.45 M75.60,99.10 L75.60,99.05 Q75.15,99.15 75.60,99.10 Z"/>
        <path stroke="#000000" stroke-width="3.00" stroke-opacity="1.00" stroke-linecap="round" stroke-linejoin="round" stroke-miterlimit="3.00" fill="transparent" d="M125.65,43.60 Q130.45,46.90 132.80,52.40 Q134.60,56.50 133.95,60.40 L133.50,62.30 L132.90,63.85 L131.90,65.65 L130.30,67.05 L126.70,69.80 Q122.70,72.55 119.05,73.80 L111.90,76.20 L111.85,76.20 L111.90,76.25 L109.30,77.00 Q99.80,79.20 93.20,79.55 L91.75,79.60 Q89.05,79.65 86.95,80.30 Q83.65,81.30 81.95,83.80 L81.95,83.85 L81.70,84.25 L80.80,88.55 Q80.30,91.65 80.30,95.90 L80.40,98.10 Q82.60,98.55 84.50,100.10 Q87.85,102.85 87.85,107.60 Q87.85,109.50 87.40,111.20 L87.35,111.40 L88.95,109.50 L89.20,111.30 L89.20,111.40 L89.65,117.35 L89.65,120.00 L89.35,123.40 Q89.25,124.95 88.05,127.30 Q87.05,129.25 85.50,130.85 L84.90,131.45 L83.20,133.00 L81.50,134.40 L80.10,135.55 L78.00,136.95 L78.10,137.10 Q78.50,137.75 78.50,138.55 L78.50,139.05 Q78.40,140.40 77.70,141.85 Q77.10,143.15 76.10,144.20 L74.85,145.30 L74.70,145.40 L74.50,145.50 L73.95,145.75 L71.30,146.25 L69.25,146.00 Q68.50,145.60 68.40,144.60 L68.50,143.95 L68.55,143.60 L68.70,142.05 Q68.65,141.30 67.95,140.25 L65.05,140.75 L62.35,141.00 L58.50,141.15 L57.70,139.20 L54.25,139.00 L52.90,141.10 L51.80,141.05 L47.70,140.70 L45.70,140.40 L45.55,141.60 Q45.55,142.80 45.95,143.85 L46.20,144.65 L46.25,144.85 L46.25,145.00 Q46.15,145.50 45.45,145.85 L43.40,146.20 L41.25,145.95 L40.75,145.85 Q39.35,145.45 38.95,145.00 L38.35,144.15 L38.15,143.75 L37.95,143.15 Q37.45,141.45 37.05,137.70 L35.60,137.00 L32.75,135.50 L30.40,134.15 L28.80,133.05 L26.50,131.00 Q24.70,128.75 24.00,125.70 L23.40,122.70 Q22.40,116.55 22.60,109.75 L23.35,110.85 L23.10,107.90 Q23.10,105.50 23.50,103.55 Q23.95,101.20 25.00,99.45 Q26.90,96.25 31.00,94.35 L31.60,94.05 L32.05,93.85 L32.75,93.85 Q34.50,88.60 36.50,83.50 L38.05,79.60 L39.65,75.40 Q40.40,72.95 40.40,71.60 L40.30,70.70 L40.30,70.65 Q39.40,69.25 38.00,68.05 L35.90,66.55 L35.20,66.40 L34.80,66.25 L25.15,63.40 L24.10,63.05 Q18.15,61.10 14.20,59.40 L12.10,58.50 L8.65,56.60 Q5.75,54.75 4.95,53.00 L4.95,53.30 L4.15,52.50 L4.15,52.45 L3.95,52.30 L3.15,51.35 L2.40,50.45 L2.05,49.95 L1.80,49.55 L1.55,49.05 L1.50,49.00 Q-0.05,46.20 0.00,43.95 Q0.05,41.50 0.60,39.70 L0.65,39.50 Q1.20,37.60 2.60,35.85 Q3.30,34.95 4.90,33.95 Q5.90,33.30 7.25,32.60 L8.80,31.80 L10.40,31.00 L11.70,30.30 L13.00,29.65 L21.65,24.80 L21.70,24.75 L22.75,24.15 Q26.85,21.65 32.25,17.70 L43.20,9.20 L43.60,8.85 Q48.05,5.00 52.30,2.60 Q56.75,0.10 60.55,0.00 L62.95,0.05 Q65.85,0.25 69.45,1.15 L72.55,2.10 L73.85,2.60 L74.30,2.80 L76.05,4.10 L78.05,5.85 L80.10,8.00 L83.25,11.20 L95.80,23.50 Q99.20,27.05 107.45,32.70 Q115.65,38.30 122.75,41.85 Q124.30,42.65 125.65,43.60 M85.95,75.80 Q85.60,75.90 85.55,76.15 L86.40,76.05 L85.95,75.80 M129.75,63.00 L129.75,63.05 L129.45,62.55 L129.95,62.60 L129.75,63.00 M53.40,4.75 L53.30,4.65 L55.70,3.85 L56.60,3.65 L55.60,4.05 L53.40,4.75 M45.15,9.80 L45.25,9.85 L45.20,9.90 L45.15,9.80 M7.80,35.95 L7.75,36.00 L7.80,36.05 L7.85,36.05 L7.80,35.95 M18.45,38.70 L18.15,38.65 L18.15,38.60 L18.45,38.70 M48.90,70.70 L48.90,70.80 L48.85,71.35 Q48.80,71.05 48.90,70.70 M57.70,72.35 L57.70,72.45 L57.75,72.45 L57.70,72.35 M78.75,79.00 L78.90,78.95 L78.85,79.00 L78.75,79.00 M78.70,98.45 L78.65,98.45 L78.65,98.50 L78.70,98.45 M75.60,99.10 Q75.15,99.15 75.60,99.05 L75.60,99.10"/>
        <path fill="#A77363" fill-opacity="1.00" d="M65.15,97.55 Q61.70,97.50 60.00,96.35 Q58.35,95.20 57.10,91.00 L72.85,89.35 Q72.50,93.20 70.70,95.20 Q68.60,97.55 65.15,97.55 M39.75,94.15 Q37.30,92.35 37.30,89.15 L37.45,86.75 L38.05,86.90 L51.20,90.40 Q51.35,91.85 50.10,93.25 Q48.15,95.30 45.05,95.55 Q41.90,95.75 39.75,94.15 Z"/>
        <path fill="#8D5547" fill-opacity="1.00" d="M32.70,97.80 L32.65,98.10 Q32.15,100.35 31.75,103.55 L31.35,107.10 L31.30,107.60 Q29.85,116.55 27.15,116.55 L26.65,116.50 L26.70,114.75 Q26.75,113.45 27.10,111.75 L27.75,108.75 Q28.30,106.65 29.15,104.55 Q30.70,100.70 32.70,97.80 Z"/>
        <path fill="#B57666" fill-opacity="1.00" d="M32.70,97.80 Q30.70,100.70 29.15,104.55 Q28.30,106.65 27.75,108.75 L27.10,111.75 Q26.75,113.45 26.70,114.75 L26.65,116.50 Q26.05,116.40 25.60,116.00 L25.55,114.60 Q25.55,111.80 26.15,109.30 Q26.80,106.30 28.25,103.75 L28.35,103.55 L29.75,101.50 L29.85,101.05 L31.60,94.05 L32.05,93.85 L33.85,93.85 Q33.25,95.20 32.70,97.80 Z"/>
        <path fill="#D4A893" fill-opacity="1.00" d="M24.10,113.60 L24.00,112.30 Q24.00,107.50 25.70,103.70 Q26.45,101.95 27.55,100.45 L29.95,97.35 Q31.05,95.85 31.05,94.70 L31.00,94.35 L31.60,94.05 L29.85,101.05 L29.75,101.50 L28.35,103.55 L28.25,103.75 Q26.80,106.30 26.15,109.30 Q25.55,111.80 25.55,114.60 L25.60,116.00 Q24.70,115.25 24.10,113.60 Z"/>
        <path fill="#F1E6B7" fill-opacity="1.00" d="M24.10,113.60 L23.90,113.10 Q23.10,110.65 23.10,107.90 Q23.10,105.50 23.50,103.55 Q23.95,101.20 25.00,99.45 Q26.90,96.25 31.00,94.35 L31.05,94.70 Q31.05,95.85 29.95,97.35 L27.55,100.45 Q26.45,101.95 25.70,103.70 Q24.00,107.50 24.00,112.30 L24.10,113.60 Z"/>
        <path stroke="#412914" stroke-width="0.50" stroke-opacity="1.00" stroke-linecap="round" stroke-linejoin="round" stroke-miterlimit="3.00" fill="transparent" d="M24.10,113.60 Q24.70,115.25 25.60,116.00 M31.60,94.05 L31.00,94.35 Q26.90,96.25 25.00,99.45 Q23.95,101.20 23.50,103.55 Q23.10,105.50 23.10,107.90 Q23.10,110.65 23.90,113.10 L24.10,113.60 M32.70,97.80 Q33.25,95.20 33.85,93.85 L32.05,93.85 L31.60,94.05"/>
        <path fill="#9D545A" fill-opacity="1.00" d="M8.65,56.60 Q5.15,54.35 4.70,52.25 Q3.95,48.80 4.20,47.40 Q4.45,45.80 4.85,45.20 Q8.60,42.80 16.05,39.60 Q17.85,38.85 27.10,37.75 L40.90,36.65 Q47.00,36.65 53.15,38.55 Q55.45,39.25 65.70,43.25 Q70.95,45.35 76.35,48.75 L83.85,53.90 L96.20,62.90 Q101.70,66.85 111.90,76.25 L109.30,77.00 Q99.80,79.20 93.20,79.55 L90.10,79.20 L85.75,78.45 Q86.85,77.55 86.85,77.05 L86.55,76.25 L86.40,76.05 L85.95,75.80 Q85.60,75.90 85.55,76.15 Q83.85,76.25 82.25,77.05 L78.90,78.95 L82.05,74.65 L81.10,74.40 L80.50,74.20 L80.20,74.15 Q77.95,74.15 75.20,75.80 L72.25,77.40 L72.00,77.40 L72.10,77.15 L74.20,74.60 L75.75,72.55 L75.90,72.20 L73.25,71.15 L71.35,70.25 L69.70,71.45 L69.15,71.90 L69.15,71.95 L65.90,74.30 L65.90,74.15 L67.10,71.55 Q68.05,69.40 68.10,68.50 L67.25,67.90 L65.75,67.65 Q63.40,67.65 61.60,69.15 L57.75,72.45 L57.70,72.35 L58.95,69.60 Q59.55,68.10 59.60,66.10 L59.60,65.80 L59.25,63.65 L58.90,63.45 L57.05,62.45 Q55.00,61.50 53.65,61.10 Q53.60,63.75 52.90,66.95 L52.80,67.35 Q52.05,70.45 51.15,71.30 L51.40,67.80 L51.40,65.50 Q51.30,61.80 50.00,60.05 L49.05,59.35 Q48.20,58.80 47.40,58.50 L43.90,57.00 L40.40,55.65 L39.70,55.65 L39.70,55.75 Q42.35,58.40 43.65,61.30 Q44.30,62.80 45.80,68.15 L45.80,70.10 L44.45,66.40 Q43.60,63.95 42.60,62.40 L38.85,58.30 L34.25,53.65 L29.85,52.20 Q23.95,50.50 16.00,49.90 L14.55,49.90 Q16.20,53.25 20.75,56.55 L22.60,57.80 Q23.05,58.75 24.00,59.55 Q25.70,61.00 28.60,62.25 Q32.45,63.90 34.80,66.25 L25.15,63.40 Q23.95,61.90 22.45,60.65 L17.15,56.65 L13.40,53.80 Q11.55,52.40 9.90,52.40 Q9.05,52.40 8.75,53.00 Q8.45,53.55 8.45,54.90 L8.65,56.60 Z"/>
        <path fill="#B67867" fill-opacity="1.00" d="M93.20,79.55 L91.75,79.60 Q89.05,79.65 86.95,80.30 Q83.20,80.35 80.85,83.65 Q78.50,86.90 78.15,91.35 Q77.80,95.80 78.10,96.90 L78.65,98.45 L77.70,98.55 L75.60,99.05 Q74.20,88.40 68.95,83.40 L68.60,83.05 L66.40,81.15 L65.30,80.40 L64.05,79.55 Q59.35,76.75 54.25,76.70 Q46.40,76.60 43.00,78.20 Q39.60,79.80 36.50,83.50 L38.05,79.60 L39.65,75.40 Q40.40,72.95 40.40,71.60 L40.30,70.70 L40.30,70.65 Q39.40,69.25 38.00,68.05 Q37.55,66.70 36.40,65.30 L32.80,61.25 Q29.85,57.40 28.30,55.85 Q25.80,53.35 24.05,53.35 Q23.20,53.35 22.70,53.80 Q22.15,54.20 22.20,56.15 Q22.20,57.00 22.60,57.80 L20.75,56.55 Q16.20,53.25 14.55,49.90 L16.00,49.90 Q23.95,50.50 29.85,52.20 L34.25,53.65 L38.85,58.30 L42.60,62.40 Q43.60,63.95 44.45,66.40 L45.80,70.10 L45.80,68.15 Q44.30,62.80 43.65,61.30 Q42.35,58.40 39.70,55.75 L39.70,55.65 L40.40,55.65 L43.90,57.00 L47.40,58.50 Q48.20,58.80 49.05,59.35 L50.00,60.05 Q51.30,61.80 51.40,65.50 L51.40,67.80 L51.15,71.30 Q52.05,70.45 52.80,67.35 L52.90,66.95 Q53.60,63.75 53.65,61.10 Q55.00,61.50 57.05,62.45 L58.90,63.45 L59.25,63.65 L59.60,65.80 L59.60,66.10 Q59.55,68.10 58.95,69.60 L57.70,72.35 L57.70,72.45 L57.75,72.45 L61.60,69.15 Q63.40,67.65 65.75,67.65 L67.25,67.90 L68.10,68.50 Q68.05,69.40 67.10,71.55 L65.90,74.15 L65.90,74.30 L69.15,71.95 L69.15,71.90 L69.70,71.45 L71.35,70.25 L73.25,71.15 L75.90,72.20 L75.75,72.55 L74.20,74.60 L72.10,77.15 L72.00,77.40 L72.25,77.40 L75.20,75.80 Q77.95,74.15 80.20,74.15 L80.50,74.20 L81.10,74.40 L82.05,74.65 L78.90,78.95 L82.25,77.05 Q83.85,76.25 85.55,76.15 L86.40,76.05 L86.55,76.25 L86.85,77.05 Q86.85,77.55 85.75,78.45 L90.10,79.20 L93.20,79.55 M32.15,55.75 Q31.80,55.80 31.80,56.15 Q31.80,57.65 36.90,62.75 Q41.75,67.60 41.55,71.25 L41.85,70.70 L41.90,69.40 Q41.90,65.75 39.15,62.05 L36.05,57.70 Q34.50,55.75 32.65,55.75 L32.15,55.75 M48.90,70.70 L49.05,69.00 L49.05,68.75 Q49.00,66.25 48.15,62.65 Q47.80,61.25 46.55,59.70 Q45.25,58.15 44.45,58.15 Q44.10,58.15 43.65,58.50 Q43.10,58.85 43.10,59.30 Q43.10,60.65 46.00,64.25 Q48.00,66.75 48.65,68.95 L48.90,70.70 Q48.80,71.05 48.85,71.35 L48.90,70.80 L48.90,70.70 M64.30,68.85 Q62.80,68.85 61.55,73.15 Q62.25,72.95 63.35,72.15 Q65.05,70.95 65.05,69.75 Q65.05,68.85 64.30,68.85 M57.20,66.40 L56.85,65.25 Q56.45,64.60 55.95,64.60 Q54.60,64.60 54.10,67.00 L53.90,68.25 L53.55,72.75 L55.50,71.15 Q57.20,69.25 57.20,66.80 L57.20,66.40 M78.90,78.95 L78.75,79.00 L78.85,79.00 L78.90,78.95 Z"/>
        <path fill="#ABC9E7" fill-opacity="1.00" d="M86.95,80.30 Q83.65,81.30 81.95,83.80 L81.95,83.85 L81.70,84.25 L80.80,88.55 Q80.30,91.65 80.30,95.90 L80.40,98.35 L78.65,98.45 L78.10,96.90 Q77.80,95.80 78.15,91.35 Q78.50,86.90 80.85,83.65 Q83.20,80.35 86.95,80.30 Z"/>
        <path fill="#DABB8F" fill-opacity="1.00" d="M38.00,68.05 L35.90,66.55 L35.20,66.40 L34.80,66.25 Q32.45,63.90 28.60,62.25 Q25.70,61.00 24.00,59.55 Q23.05,58.75 22.60,57.80 Q22.20,57.00 22.20,56.15 Q22.15,54.20 22.70,53.80 Q23.20,53.35 24.05,53.35 Q25.80,53.35 28.30,55.85 Q29.85,57.40 32.80,61.25 L36.40,65.30 Q37.55,66.70 38.00,68.05 M24.10,63.05 Q18.15,61.10 14.20,59.40 L12.10,58.50 Q12.15,57.60 12.30,57.45 L13.15,57.35 Q15.40,57.35 19.60,59.50 Q23.35,61.40 24.10,63.05 M32.15,55.75 L32.65,55.75 Q34.50,55.75 36.05,57.70 L39.15,62.05 Q41.90,65.75 41.90,69.40 L41.85,70.70 L41.55,71.25 Q41.75,67.60 36.90,62.75 Q31.80,57.65 31.80,56.15 Q31.80,55.80 32.15,55.75 M64.30,68.85 Q65.05,68.85 65.05,69.75 Q65.05,70.95 63.35,72.15 Q62.25,72.95 61.55,73.15 Q62.80,68.85 64.30,68.85 M48.90,70.70 L48.65,68.95 Q48.00,66.75 46.00,64.25 Q43.10,60.65 43.10,59.30 Q43.10,58.85 43.65,58.50 Q44.10,58.15 44.45,58.15 Q45.25,58.15 46.55,59.70 Q47.80,61.25 48.15,62.65 Q49.00,66.25 49.05,68.75 L49.05,69.00 L48.90,70.70 M57.20,66.40 L57.20,66.80 Q57.20,69.25 55.50,71.15 L53.55,72.75 L53.90,68.25 L54.10,67.00 Q54.60,64.60 55.95,64.60 Q56.45,64.60 56.85,65.25 L57.20,66.40 Z"/>
        <path fill="#B57666" fill-opacity="1.00" d="M25.15,63.40 L24.10,63.05 Q23.35,61.40 19.60,59.50 Q15.40,57.35 13.15,57.35 L12.30,57.45 Q12.15,57.60 12.10,58.50 L8.65,56.60 L8.45,54.90 Q8.45,53.55 8.75,53.00 Q9.05,52.40 9.90,52.40 Q11.55,52.40 13.40,53.80 L17.15,56.65 L22.45,60.65 Q23.95,61.90 25.15,63.40 Z"/>
        <path fill="url(#G1)" d="M78.65,98.45 Q79.35,99.45 80.60,100.35 L81.30,103.75 L80.90,103.80 L79.00,104.05 L78.05,104.20 L78.50,105.30 L78.75,108.05 Q78.75,116.75 67.35,121.60 L65.35,122.40 L64.10,122.85 Q43.15,123.50 35.10,117.50 Q29.25,113.20 29.05,107.10 L29.35,105.50 L29.70,104.05 L30.80,99.90 Q33.35,91.45 36.50,83.50 Q39.60,79.80 43.00,78.20 Q46.40,76.60 54.25,76.70 Q59.35,76.75 64.05,79.55 L65.30,80.40 L66.40,81.15 L68.60,83.05 L68.95,83.40 Q74.20,88.40 75.60,99.05 L77.70,98.55 L78.65,98.45 M39.55,87.00 L39.70,87.25 Q40.45,88.60 41.90,89.45 L42.35,89.70 Q44.40,90.80 47.00,90.85 L47.30,90.85 Q51.45,90.85 51.45,87.85 L51.45,87.55 Q51.30,85.30 49.15,84.00 Q47.15,82.80 44.35,82.80 L43.60,82.85 L40.55,83.40 Q38.65,84.15 38.65,85.65 Q38.65,86.40 39.55,87.00 M59.40,91.00 L59.70,91.30 L59.95,91.30 L60.90,91.50 L61.45,91.60 L63.00,91.70 Q69.80,91.70 69.80,87.75 Q69.80,86.20 67.65,85.05 L66.60,84.60 Q65.35,84.10 64.05,84.05 L63.65,84.00 L63.45,84.00 L62.50,84.05 L60.85,84.25 L59.25,84.70 Q57.00,85.60 57.00,87.45 Q57.00,88.25 57.55,89.05 L57.90,89.50 L57.90,89.55 L59.15,90.75 L59.40,91.00 M75.60,99.05 Q75.15,99.15 75.60,99.10 L75.60,99.05 Z"/>
        <path fill="#EFE2B3" fill-opacity="1.00" d="M39.55,87.00 Q38.65,86.40 38.65,85.65 Q38.65,84.15 40.55,83.40 L43.60,82.85 L44.35,82.80 Q47.15,82.80 49.15,84.00 Q51.30,85.30 51.45,87.55 L51.45,87.85 Q51.45,90.85 47.30,90.85 L47.00,90.85 Q44.40,90.80 42.35,89.70 L41.90,89.45 Q40.45,88.60 39.70,87.25 L39.55,87.00 M42.40,83.75 Q41.90,84.05 41.90,84.55 Q41.90,85.15 42.05,85.25 L42.90,85.40 L43.05,85.40 L43.80,85.30 Q44.20,85.10 44.20,84.45 Q44.20,83.55 43.40,83.55 L42.40,83.75 M60.50,86.35 L60.50,86.45 Q60.55,87.00 61.60,87.00 L61.95,87.00 L62.55,86.75 L62.85,86.60 L63.15,86.05 L63.10,85.80 L62.90,85.55 L62.25,85.40 L61.35,85.55 L61.20,85.65 L60.70,85.85 L60.50,86.35 M59.40,91.00 L59.15,90.75 L57.90,89.55 L57.90,89.50 L57.55,89.05 Q57.00,88.25 57.00,87.45 Q57.00,85.60 59.25,84.70 L60.85,84.25 L62.50,84.05 L63.45,84.00 L63.65,84.00 L64.05,84.05 Q65.35,84.10 66.60,84.60 L67.65,85.05 Q69.80,86.20 69.80,87.75 Q69.80,91.70 63.00,91.70 L61.45,91.60 L60.90,91.50 L59.95,91.30 L59.70,91.30 L59.40,91.00 Z"/>
        <path fill="#FBFAFA" fill-opacity="1.00" d="M60.50,86.35 L60.70,85.85 L61.20,85.65 L61.35,85.55 L62.25,85.40 L62.90,85.55 L63.10,85.80 L63.15,86.05 L62.85,86.60 L62.55,86.75 L61.95,87.00 L61.60,87.00 Q60.55,87.00 60.50,86.45 L60.50,86.35 M42.40,83.75 L43.40,83.55 Q44.20,83.55 44.20,84.45 Q44.20,85.10 43.80,85.30 L43.05,85.40 L42.90,85.40 L42.05,85.25 Q41.90,85.15 41.90,84.55 Q41.90,84.05 42.40,83.75 Z"/>
        <path fill="#8D5547" fill-opacity="1.00" d="M81.30,103.75 L81.30,103.85 L82.05,103.85 Q86.55,105.55 86.55,114.10 L86.55,115.00 L84.75,113.85 L84.70,113.85 Q83.45,112.70 82.85,111.45 L81.55,107.90 Q80.85,105.35 80.85,104.35 L80.90,103.80 L81.30,103.75 Z"/>
        <path fill="#B47664" fill-opacity="1.00" d="M86.55,115.00 L86.55,116.25 L86.10,118.15 L85.65,119.00 L85.70,119.40 L84.90,119.70 L84.45,119.85 Q62.55,127.25 58.05,127.75 L51.45,128.15 Q39.05,128.15 27.35,123.75 Q27.55,114.70 29.05,107.10 Q29.25,113.20 35.10,117.50 Q43.15,123.50 64.10,122.85 L65.35,122.40 L67.35,121.60 Q78.75,116.75 78.75,108.05 L78.50,105.30 L78.05,104.20 L79.00,104.05 L80.90,103.80 L80.85,104.35 Q80.85,105.35 81.55,107.90 L82.85,111.45 Q83.45,112.70 84.70,113.85 L84.75,113.85 L86.55,115.00 Z"/>
        <path fill="#000000" fill-opacity="1.00" d="M38.50,86.55 Q38.55,86.45 38.70,86.45 L38.90,86.40 L42.10,87.40 L42.90,87.65 L42.90,87.60 L43.60,87.80 L46.30,88.35 L50.85,89.05 L51.05,89.15 L51.15,89.30 L51.15,89.50 Q50.75,91.70 49.25,93.15 L48.80,93.60 L48.55,93.75 L47.20,94.35 L45.10,94.65 Q42.40,94.70 40.25,93.45 Q38.25,92.35 37.95,90.10 L37.90,89.30 Q37.90,88.50 38.05,87.75 L38.50,86.55 M42.15,89.50 Q41.80,89.00 41.80,88.40 L41.85,88.00 L39.00,87.20 Q38.80,87.45 38.75,87.85 L38.75,87.90 L38.60,89.30 L38.65,89.95 Q38.85,91.90 40.60,92.85 Q42.60,94.00 45.10,93.95 L45.40,93.95 Q47.45,93.85 48.65,92.80 L48.75,92.65 Q49.95,91.45 50.40,89.70 L46.20,89.05 L45.65,89.85 L45.40,90.05 L44.05,90.45 L43.65,90.45 Q42.95,90.30 42.45,89.85 L42.15,89.50 M58.05,90.55 L58.20,90.50 L63.30,90.25 L64.05,90.20 L66.40,89.85 L67.05,89.75 L71.30,89.20 L71.50,89.25 L71.65,89.40 L72.00,91.10 Q72.00,92.30 71.45,93.65 Q70.90,94.95 69.10,96.10 L68.90,96.20 Q67.15,97.15 63.30,97.00 L63.10,96.95 Q60.45,96.80 59.15,94.80 L59.00,94.55 Q58.15,93.20 57.85,91.15 L57.85,90.85 L57.90,90.70 L58.05,90.55 M63.25,91.85 L63.10,91.10 L63.10,91.00 L58.60,91.20 Q58.80,92.55 59.25,93.55 Q60.40,96.05 63.15,96.25 L63.35,96.30 Q67.15,96.45 68.75,95.50 L69.75,94.80 L70.80,93.40 L70.80,93.35 Q71.30,92.20 71.30,91.15 L71.15,89.95 L67.50,90.45 L67.60,91.10 L67.45,91.95 L66.95,92.55 Q66.30,93.15 65.35,93.15 Q64.40,93.15 63.75,92.55 L63.25,91.85 M52.15,101.50 Q53.25,101.50 54.30,102.60 Q55.25,103.60 55.45,104.60 L55.40,104.85 L55.20,105.00 L54.95,104.95 L54.75,104.75 Q54.55,103.90 53.80,103.10 Q52.95,102.20 52.15,102.20 Q50.55,102.20 49.35,104.15 L49.15,104.30 L48.90,104.25 L48.70,104.05 Q48.65,103.90 48.75,103.80 Q50.15,101.50 52.15,101.50 Z"/>
        <path fill="#E3C6C7" fill-opacity="1.00" d="M38.65,89.95 L38.60,89.30 L38.75,87.90 L38.75,87.85 Q38.80,87.45 39.00,87.20 L41.85,88.00 L41.80,88.40 Q41.80,89.00 42.15,89.50 L42.00,89.50 L39.15,89.80 L38.65,89.95 M45.40,90.05 L45.65,89.85 L46.20,89.05 L50.40,89.70 Q49.95,91.45 48.75,92.65 L48.65,92.80 Q48.25,91.80 47.10,90.95 Q46.35,90.40 45.40,90.05 M59.25,93.55 Q58.80,92.55 58.60,91.20 L63.10,91.00 L63.10,91.10 L63.25,91.85 L61.75,92.15 Q59.85,92.65 59.25,93.55 M67.45,91.95 L67.60,91.10 L67.50,90.45 L71.15,89.95 L71.30,91.15 Q71.30,92.20 70.80,93.35 L70.80,93.40 L69.75,94.80 L69.75,94.45 Q69.75,93.25 68.70,92.50 Q68.15,92.10 67.45,91.95 Z"/>
        <path fill="#FFFFFF" fill-opacity="1.00" d="M67.45,91.95 Q68.15,92.10 68.70,92.50 Q69.75,93.25 69.75,94.45 L69.75,94.80 L68.75,95.50 Q67.15,96.45 63.35,96.30 L63.15,96.25 Q60.40,96.05 59.25,93.55 Q59.85,92.65 61.75,92.15 L63.25,91.85 L63.75,92.55 Q64.40,93.15 65.35,93.15 Q66.30,93.15 66.95,92.55 L67.45,91.95 M42.15,89.50 L42.45,89.85 Q42.95,90.30 43.65,90.45 L44.05,90.45 L45.40,90.05 Q46.35,90.40 47.10,90.95 Q48.25,91.80 48.65,92.80 Q47.45,93.85 45.40,93.95 L45.10,93.95 Q42.60,94.00 40.60,92.85 Q38.85,91.90 38.65,89.95 L39.15,89.80 L42.00,89.50 L42.15,89.50 M72.70,78.30 Q73.10,78.55 73.80,80.15 Q74.40,81.90 74.40,83.60 L74.05,85.80 Q73.60,87.20 73.00,87.20 Q72.55,87.20 72.10,86.20 Q71.65,85.20 71.65,82.85 Q71.65,80.50 72.70,78.30 Z"/>
        <path fill="#B3DEFD" fill-opacity="1.00" d="M72.70,78.30 Q71.65,80.50 71.65,82.85 Q71.65,85.20 72.10,86.20 Q72.55,87.20 73.00,87.20 Q73.60,87.20 74.05,85.80 L74.40,83.60 Q74.40,81.90 73.80,80.15 Q73.10,78.55 72.70,78.30 M72.70,76.40 Q74.00,77.75 74.90,80.60 Q75.75,83.40 75.60,86.05 Q75.40,88.65 73.20,88.65 Q72.10,88.65 71.40,87.45 Q70.75,86.30 70.75,84.60 Q70.75,82.75 71.30,80.45 Q71.85,78.05 72.70,76.40 Z"/>
        <path stroke="#787779" stroke-width="0.30" stroke-opacity="1.00" stroke-linecap="round" stroke-linejoin="round" stroke-miterlimit="3.00" fill="transparent" d="M72.70,76.40 Q71.85,78.05 71.30,80.45 Q70.75,82.75 70.75,84.60 Q70.75,86.30 71.40,87.45 Q72.10,88.65 73.20,88.65 Q75.40,88.65 75.60,86.05 Q75.75,83.40 74.90,80.60 Q74.00,77.75 72.70,76.40"/>
        <path fill="#FDA8AF" fill-opacity="1.00" d="M36.75,96.45 Q35.40,96.25 34.50,95.60 Q33.55,95.05 33.65,94.35 Q33.70,93.65 34.75,93.30 L37.20,93.15 Q38.60,93.30 39.50,93.95 Q40.40,94.50 40.35,95.20 Q40.25,95.90 39.25,96.25 L36.75,96.45 M70.25,96.35 Q71.85,96.35 73.00,96.90 Q74.15,97.45 74.15,98.25 Q74.15,99.05 73.00,99.60 Q71.85,100.15 70.25,100.15 Q68.65,100.15 67.50,99.60 Q66.35,99.05 66.35,98.25 Q66.35,97.45 67.50,96.90 Q68.65,96.35 70.25,96.35 Z"/>
        <path fill="#AFD7F6" fill-opacity="1.00" d="M129.95,62.60 L130.70,62.65 L130.80,62.70 L133.50,62.30 L132.90,63.85 L131.90,65.65 L130.30,67.05 L126.70,69.80 Q122.70,72.55 119.05,73.80 L111.90,76.20 L109.10,76.80 L103.40,77.30 L100.60,77.05 L99.05,76.95 Q79.65,73.70 69.45,67.60 Q58.80,61.20 49.65,56.50 L48.05,55.70 Q39.70,51.60 31.80,49.70 L24.60,48.05 L19.20,47.25 L10.15,47.85 L9.85,47.90 Q8.10,48.25 7.00,49.00 Q6.30,49.40 5.90,49.95 Q5.45,50.45 5.25,51.05 Q4.95,51.70 4.95,52.60 L4.95,53.30 L4.15,52.50 L4.15,52.45 L4.15,52.40 L4.25,51.05 Q4.40,49.95 4.80,49.15 L5.70,47.80 L6.30,47.10 Q7.40,46.10 9.35,45.65 L10.15,45.45 L10.25,45.45 L19.20,44.85 L23.40,45.45 L31.80,47.30 Q40.45,49.40 49.65,54.10 L49.75,54.15 Q58.85,58.85 69.45,65.20 Q77.75,70.15 92.15,73.25 L93.15,73.45 L96.30,74.25 L98.20,74.40 L99.05,74.45 L102.65,74.50 Q109.25,74.50 115.10,72.75 Q117.95,71.85 121.20,70.35 L125.40,68.20 L126.05,67.70 L127.40,66.50 L128.85,64.70 L129.75,63.05 L129.75,63.00 L129.95,62.60 M125.65,43.60 Q124.20,44.55 123.60,45.50 L123.50,45.70 Q115.20,39.95 110.05,37.45 Q104.80,34.85 96.95,27.80 Q89.10,20.70 86.80,17.35 Q84.50,14.00 83.25,11.20 L95.80,23.50 Q99.20,27.05 107.45,32.70 Q115.65,38.30 122.75,41.85 Q124.30,42.65 125.65,43.60 Z"/>
        <path fill="#D0E5FB" fill-opacity="1.00" d="M125.65,43.60 Q130.45,46.90 132.80,52.40 Q134.60,56.50 133.95,60.40 L133.50,62.30 L130.80,62.70 L130.70,62.65 L129.95,62.60 L130.40,61.35 Q130.95,59.40 130.95,57.40 Q130.95,56.30 130.20,53.85 L129.10,51.05 L127.10,48.70 L125.15,47.00 L123.75,45.90 L123.50,45.70 L123.60,45.50 Q124.20,44.55 125.65,43.60 Z"/>
        <path fill="#E07B89" fill-opacity="1.00" d="M123.50,45.70 L123.75,45.90 L125.15,47.00 L127.10,48.70 L129.10,51.05 L130.20,53.85 Q130.95,56.30 130.95,57.40 Q130.95,59.40 130.40,61.35 L129.95,62.60 L129.45,62.55 L127.15,61.75 L124.90,60.00 Q122.05,57.05 122.05,52.25 Q122.05,47.95 123.50,45.70 M78.05,5.85 Q77.90,7.10 77.35,8.20 L77.20,8.45 L76.50,7.55 L76.45,7.50 Q74.15,5.60 72.20,4.75 Q69.70,3.65 66.30,3.30 L62.65,3.10 L62.05,3.10 Q62.10,1.45 62.95,0.05 Q65.85,0.25 69.45,1.15 L72.55,2.10 L73.85,2.60 L74.30,2.80 L76.05,4.10 L78.05,5.85 M91.30,29.40 Q93.85,30.20 96.25,32.25 Q100.20,35.80 101.25,40.60 Q102.30,45.40 99.80,48.80 L97.75,50.90 L97.80,49.45 Q97.80,44.25 95.20,37.80 Q93.05,32.45 91.30,29.40 Z"/>
        <path fill="url(#G2)" d="M91.30,29.40 L90.55,28.25 L84.75,19.35 L77.20,8.45 L77.35,8.20 Q77.90,7.10 78.05,5.85 L80.10,8.00 L83.25,11.20 Q84.50,14.00 86.80,17.35 Q89.10,20.70 96.95,27.80 Q104.80,34.85 110.05,37.45 Q115.20,39.95 123.50,45.70 Q122.05,47.95 122.05,52.25 Q122.05,57.05 124.90,60.00 L127.15,61.75 Q125.75,64.05 122.80,65.45 Q119.55,67.05 117.05,67.20 Q114.50,67.35 108.65,67.10 Q96.70,65.75 82.05,59.15 L84.00,59.50 Q90.35,60.45 93.70,58.40 Q97.30,56.15 97.75,50.90 L99.80,48.80 Q102.30,45.40 101.25,40.60 Q100.20,35.80 96.25,32.25 Q93.85,30.20 91.30,29.40 Z"/>
        <path fill="url(#G3)" d="M83.75,29.85 Q82.15,30.70 81.00,32.25 Q78.65,35.80 79.70,40.60 Q80.70,45.10 84.10,48.40 Q83.00,50.50 81.50,52.10 Q79.80,53.95 77.10,54.55 L73.05,54.90 Q63.35,50.30 55.35,46.90 L48.80,44.20 L48.80,44.15 Q52.50,43.95 55.20,41.80 Q58.15,39.50 58.15,36.25 Q58.15,33.00 55.20,30.65 Q52.25,28.35 48.05,28.35 Q43.85,28.35 40.90,30.65 Q37.95,33.00 37.95,36.25 Q37.95,38.85 39.85,40.85 L37.50,40.00 L34.20,38.90 L28.25,37.25 L25.95,36.70 L21.30,35.80 L17.75,35.40 L17.25,35.35 L16.00,35.30 L15.15,35.25 Q11.05,35.10 8.00,35.90 L7.85,36.05 L7.80,35.95 Q10.10,33.50 10.40,31.00 L11.70,30.30 L13.00,29.65 Q23.15,24.80 29.75,20.65 L33.05,18.50 L33.50,18.90 Q35.90,20.85 39.35,20.85 L42.45,20.40 L41.80,21.05 Q39.60,23.20 34.20,25.75 L28.85,28.15 Q26.85,29.75 26.85,31.15 Q26.85,31.90 27.10,32.20 Q27.45,32.65 28.65,32.65 Q30.85,32.65 38.35,27.65 Q40.60,26.10 43.35,24.75 Q46.10,23.45 47.80,23.10 L55.90,21.25 Q61.75,18.95 61.75,13.80 Q61.75,11.15 60.40,9.75 Q59.00,8.30 56.35,8.30 Q54.50,8.30 52.85,9.10 L52.30,9.40 Q50.15,10.65 47.90,13.55 L47.60,14.00 Q47.40,11.65 45.25,9.85 L47.75,8.20 Q48.30,7.85 48.80,7.65 L49.35,7.35 L51.60,5.90 L53.40,4.75 L55.60,4.05 L56.60,3.65 L57.15,3.55 L62.05,3.10 L62.10,4.30 Q62.45,7.45 64.95,9.70 Q67.55,12.00 70.85,12.00 Q72.60,12.00 74.05,11.35 Q77.45,15.65 79.50,19.65 Q82.20,24.90 83.75,29.85 Z"/>
        <path fill="#ED8B98" fill-opacity="1.00" d="M83.75,29.85 Q85.70,36.25 85.70,42.15 Q85.70,44.90 84.35,47.80 L84.10,48.40 Q80.70,45.10 79.70,40.60 Q78.65,35.80 81.00,32.25 Q82.15,30.70 83.75,29.85 M74.05,11.35 Q72.60,12.00 70.85,12.00 Q67.55,12.00 64.95,9.70 Q62.45,7.45 62.10,4.30 L62.05,3.10 L62.65,3.10 L66.30,3.30 Q68.20,4.65 71.70,8.55 L74.05,11.35 Z"/>
        <path fill="#E88793" fill-opacity="1.00" d="M74.05,11.35 L71.70,8.55 Q68.20,4.65 66.30,3.30 Q69.70,3.65 72.20,4.75 Q74.15,5.60 76.45,7.50 L76.50,7.55 L77.20,8.45 L76.20,9.70 L74.05,11.35 M83.75,29.85 Q85.55,28.90 87.90,28.90 L91.30,29.40 Q93.05,32.45 95.20,37.80 Q97.80,44.25 97.80,49.45 L97.75,50.90 Q95.75,52.30 92.95,52.30 Q88.45,52.30 84.55,48.80 L84.10,48.40 L84.35,47.80 Q85.70,44.90 85.70,42.15 Q85.70,36.25 83.75,29.85 Z"/>
        <path fill="#CD3656" fill-opacity="1.00" d="M83.75,29.85 Q82.20,24.90 79.50,19.65 Q77.45,15.65 74.05,11.35 L76.20,9.70 L77.20,8.45 L84.75,19.35 L90.55,28.25 L91.30,29.40 L87.90,28.90 Q85.55,28.90 83.75,29.85 M97.75,50.90 Q97.30,56.15 93.70,58.40 Q90.35,60.45 84.00,59.50 L82.05,59.15 L77.55,57.05 L73.05,54.90 L77.10,54.55 Q79.80,53.95 81.50,52.10 Q83.00,50.50 84.10,48.40 L84.55,48.80 Q88.45,52.30 92.95,52.30 Q95.75,52.30 97.75,50.90 Z"/>
        <path fill="#9F1432" fill-opacity="1.00" d="M121.20,70.35 Q117.95,71.85 115.10,72.75 Q109.25,74.50 102.65,74.50 L99.05,74.45 L98.20,74.40 L93.15,73.45 L92.15,73.25 Q77.75,70.15 69.45,65.20 Q58.85,58.85 49.75,54.15 L49.65,54.10 Q40.45,49.40 31.80,47.30 L23.40,45.45 L19.20,44.85 L10.25,45.45 L10.15,45.45 L9.35,45.65 Q7.40,46.10 6.30,47.10 L5.70,47.80 L4.80,49.15 Q4.40,49.95 4.25,51.05 L4.15,52.40 L4.15,52.45 L3.95,52.30 L3.15,51.35 L2.40,50.45 L2.05,49.95 L1.80,49.55 L1.55,49.05 L1.50,49.00 L1.45,48.65 L1.65,46.30 L1.65,46.25 L1.85,44.65 Q2.00,43.40 2.60,42.45 Q3.60,40.70 6.00,39.75 Q6.95,39.35 8.00,39.10 L8.40,39.00 L15.15,38.45 L15.50,38.50 L18.15,38.65 L18.45,38.70 L21.65,39.10 L23.20,39.35 L25.95,39.90 Q31.30,41.15 34.20,42.10 L37.50,43.20 L45.05,45.95 Q49.05,47.45 53.65,49.40 L59.90,52.05 L69.35,56.35 L77.55,60.25 Q99.95,71.25 116.40,70.60 L121.20,70.35 Z"/>
        <path fill="url(#G4)" d="M121.20,70.35 L116.40,70.60 Q99.95,71.25 77.55,60.25 L69.35,56.35 L64.10,52.95 L62.65,52.05 L54.95,47.45 L48.80,44.20 L55.35,46.90 Q63.35,50.30 73.05,54.90 L77.55,57.05 L82.05,59.15 Q96.70,65.75 108.65,67.10 Q114.50,67.35 117.05,67.20 Q119.55,67.05 122.80,65.45 Q125.75,64.05 127.15,61.75 L129.45,62.55 L129.75,63.05 L128.85,64.70 L127.40,66.50 L126.05,67.70 L125.40,68.20 L121.20,70.35 Z"/>
        <path fill="#DE4263" fill-opacity="1.00" d="M62.05,3.10 L57.15,3.55 L56.60,3.65 L55.70,3.85 L53.30,4.65 L53.40,4.75 L51.60,5.90 L49.35,7.35 L48.80,7.65 Q48.30,7.85 47.75,8.20 L45.25,9.85 L45.15,9.80 L43.60,8.85 Q48.05,5.00 52.30,2.60 Q56.75,0.10 60.55,0.00 L62.95,0.05 Q62.10,1.45 62.05,3.10 M33.05,18.50 L29.75,20.65 Q23.15,24.80 13.00,29.65 L21.65,24.80 L21.70,24.75 L22.75,24.15 Q26.85,21.65 32.25,17.70 L33.05,18.50 Z"/>
        <path fill="#EF5473" fill-opacity="1.00" d="M47.60,14.00 L47.90,13.55 Q50.15,10.65 52.30,9.40 L52.85,9.10 Q54.50,8.30 56.35,8.30 Q59.00,8.30 60.40,9.75 Q61.75,11.15 61.75,13.80 Q61.75,18.95 55.90,21.25 L47.80,23.10 Q46.10,23.45 43.35,24.75 Q40.60,26.10 38.35,27.65 Q30.85,32.65 28.65,32.65 Q27.45,32.65 27.10,32.20 Q26.85,31.90 26.85,31.15 Q26.85,29.75 28.85,28.15 L34.20,25.75 Q39.60,23.20 41.80,21.05 L42.45,20.40 Q43.95,19.90 45.15,18.90 Q47.60,17.05 47.60,14.40 L47.60,14.00 M55.80,9.20 Q53.40,9.20 51.85,10.75 Q50.70,11.90 49.80,13.90 L49.75,14.15 Q49.35,15.45 49.35,16.70 Q49.35,19.05 53.00,19.05 Q56.75,19.05 58.90,16.35 Q60.45,14.40 60.45,12.55 Q60.45,11.15 59.25,10.20 Q57.95,9.20 55.80,9.20 Z"/>
        <path fill="#F2607F" fill-opacity="1.00" d="M55.80,9.20 Q57.95,9.20 59.25,10.20 Q60.45,11.15 60.45,12.55 Q60.45,14.40 58.90,16.35 Q56.75,19.05 53.00,19.05 Q49.35,19.05 49.35,16.70 Q49.35,15.45 49.75,14.15 L49.80,13.90 Q50.70,11.90 51.85,10.75 Q53.40,9.20 55.80,9.20 M55.75,9.90 Q54.30,9.90 53.05,11.75 Q51.95,13.35 51.95,14.45 Q51.95,17.25 55.45,17.25 Q57.20,17.25 58.30,15.55 Q59.15,14.20 59.15,12.95 Q59.15,11.55 58.35,10.70 Q57.65,9.95 56.45,9.95 L56.20,10.00 L55.75,9.90 Z"/>
        <path fill="#F76F8C" fill-opacity="1.00" d="M55.75,9.90 L56.20,10.00 L56.45,9.95 Q57.65,9.95 58.35,10.70 Q59.15,11.55 59.15,12.95 Q59.15,14.20 58.30,15.55 Q57.20,17.25 55.45,17.25 Q51.95,17.25 51.95,14.45 Q51.95,13.35 53.05,11.75 Q54.30,9.90 55.75,9.90 Z"/>
        <path fill="#E58490" fill-opacity="1.00" d="M43.60,8.85 L45.15,9.80 L45.20,9.90 L44.95,10.05 L40.25,13.45 L33.05,18.50 L32.25,17.70 L43.20,9.20 L43.60,8.85 Z"/>
        <path fill="#F5939F" fill-opacity="1.00" d="M45.25,9.85 Q47.40,11.65 47.60,14.00 L47.60,14.40 Q47.60,17.05 45.15,18.90 Q43.95,19.90 42.45,20.40 L39.35,20.85 Q35.90,20.85 33.50,18.90 L33.05,18.50 L40.25,13.45 L44.95,10.05 L45.20,9.90 L45.25,9.85 M39.85,40.85 Q37.95,38.85 37.95,36.25 Q37.95,33.00 40.90,30.65 Q43.85,28.35 48.05,28.35 Q52.25,28.35 55.20,30.65 Q58.15,33.00 58.15,36.25 Q58.15,39.50 55.20,41.80 Q52.50,43.95 48.80,44.15 L48.70,44.15 L45.05,42.75 L39.85,40.85 Z"/>
        <path fill="#FF938F" fill-opacity="1.00" d="M39.85,40.85 L45.05,42.75 L48.70,44.15 L48.80,44.20 L54.95,47.45 L62.65,52.05 L64.10,52.95 L69.35,56.35 L59.90,52.05 L53.65,49.40 Q49.05,47.45 45.05,45.95 L37.50,43.20 L34.20,42.10 Q31.30,41.15 25.95,39.90 L23.20,39.35 L24.10,39.35 L27.10,38.95 Q28.25,38.45 28.25,37.25 L34.20,38.90 L37.50,40.00 L39.85,40.85 M7.85,36.05 L8.00,35.90 Q11.05,35.10 15.15,35.25 L16.00,35.30 Q15.05,35.60 15.05,36.55 Q15.05,37.20 15.95,37.75 L18.15,38.60 L18.15,38.65 L15.50,38.50 L15.15,38.45 L8.40,39.00 L7.95,38.85 Q7.10,38.40 7.10,37.55 Q7.10,36.85 7.60,36.30 L7.80,36.05 L7.85,36.05 Z"/>
        <path fill="#FFD4C8" fill-opacity="1.00" d="M16.00,35.30 L17.25,35.35 L17.75,35.40 L21.30,35.80 L25.95,36.70 L28.25,37.25 Q28.25,38.45 27.10,38.95 L24.10,39.35 L23.20,39.35 L21.65,39.10 L18.45,38.70 L18.15,38.60 L15.95,37.75 Q15.05,37.20 15.05,36.55 Q15.05,35.60 16.00,35.30 Z"/>
        <path fill="#F595A1" fill-opacity="1.00" d="M10.40,31.00 Q10.10,33.50 7.80,35.95 L7.75,36.00 L7.55,36.20 L6.90,36.80 Q5.05,38.45 3.35,39.15 L2.45,39.45 L0.80,39.70 L0.60,39.70 L0.65,39.50 Q1.20,37.60 2.60,35.85 Q3.30,34.95 4.90,33.95 Q5.90,33.30 7.25,32.60 L8.80,31.80 L10.40,31.00 Z"/>
        <path fill="#E94A6C" fill-opacity="1.00" d="M8.40,39.00 L8.00,39.10 Q6.95,39.35 6.00,39.75 Q3.60,40.70 2.60,42.45 Q2.00,43.40 1.85,44.65 L1.65,46.25 L1.65,46.30 L1.45,48.65 L1.50,49.00 Q-0.05,46.20 0.00,43.95 Q0.05,41.50 0.60,39.70 L0.80,39.70 L2.45,39.45 L3.35,39.15 Q5.05,38.45 6.90,36.80 L7.55,36.20 L7.75,36.00 L7.80,36.05 L7.60,36.30 Q7.10,36.85 7.10,37.55 Q7.10,38.40 7.95,38.85 L8.40,39.00 Z"/>
        <path fill="#D4A893" fill-opacity="1.00" d="M85.15,112.85 Q84.25,112.10 83.30,109.90 Q81.60,106.00 80.50,104.95 L79.25,102.15 Q78.55,100.70 78.55,99.60 L78.60,98.60 L78.95,98.20 L81.35,99.60 Q83.20,100.95 84.40,103.15 Q85.55,105.30 85.70,106.90 L85.85,110.10 Q85.85,111.40 85.15,112.85 Z"/>
        <path fill="#AFD7F6" fill-opacity="1.00" d="M85.15,112.85 Q85.85,111.40 85.85,110.10 L85.70,106.90 Q85.55,105.30 84.40,103.15 Q83.20,100.95 81.35,99.60 L78.95,98.20 L78.10,97.85 L78.35,97.85 Q81.75,97.85 84.50,100.10 Q87.85,102.85 87.85,107.60 Q87.85,109.50 87.40,111.20 Q86.85,113.20 86.00,113.20 L85.15,112.85 Z"/>
        <path stroke="#412914" stroke-width="0.50" stroke-opacity="1.00" stroke-linecap="round" stroke-linejoin="round" stroke-miterlimit="3.00" fill="transparent" d="M78.10,97.85 L78.35,97.85 Q81.75,97.85 84.50,100.10 Q87.85,102.85 87.85,107.60 Q87.85,109.50 87.40,111.20 Q86.85,113.20 86.00,113.20 L85.15,112.85 Q84.25,112.10 83.30,109.90 Q81.60,106.00 80.50,104.95"/>
        <path fill="#D4A893" fill-opacity="1.00" d="M44.70,137.05 L44.60,137.40 L44.15,139.65 L44.20,140.35 Q44.35,142.35 45.65,144.00 L46.20,144.65 L46.25,144.85 L46.25,145.00 L45.00,143.75 L43.45,142.95 L42.70,142.80 L41.55,142.70 Q40.25,142.70 39.15,143.15 L38.15,143.75 L37.95,143.15 Q37.35,141.10 36.90,136.25 L44.70,137.05 M75.30,135.55 L75.70,136.10 L76.15,137.00 Q76.55,138.10 76.55,139.40 L76.55,139.95 Q76.40,142.35 74.95,144.75 L74.80,145.05 Q74.20,142.80 71.30,142.80 L70.40,142.95 L68.90,143.45 L68.55,143.60 L68.70,142.05 Q68.65,141.30 67.90,140.20 Q67.30,139.35 68.20,138.30 L68.45,138.00 L68.80,137.70 L71.65,136.15 Q73.05,135.50 74.45,135.50 L75.30,135.55 Z"/>
        <path fill="#B0BBD5" fill-opacity="1.00" d="M75.30,135.55 Q76.80,135.70 77.65,136.55 L78.10,137.10 Q78.50,137.75 78.50,138.55 L78.50,139.05 Q78.40,140.40 77.70,141.85 Q77.10,143.15 76.10,144.20 L74.85,145.30 L74.70,145.40 L74.50,145.50 L74.80,145.05 L74.95,144.75 Q76.40,142.35 76.55,139.95 L76.55,139.40 Q76.55,138.10 76.15,137.00 L75.70,136.10 L75.30,135.55 M46.20,144.65 L45.65,144.00 Q44.35,142.35 44.20,140.35 L44.15,139.65 L44.60,137.40 L44.70,137.05 L46.60,137.25 Q45.55,139.95 45.55,141.60 Q45.55,142.80 45.95,143.85 L46.20,144.65 Z"/>
        <path fill="#DBBE91" fill-opacity="1.00" d="M38.15,143.75 L39.15,143.15 Q40.25,142.70 41.55,142.70 L42.70,142.80 L43.45,142.95 L45.00,143.75 L46.25,145.00 Q46.15,145.50 45.45,145.85 L43.40,146.20 L41.25,145.95 L40.75,145.85 Q39.35,145.45 38.95,145.00 L38.35,144.15 L38.15,143.75 M68.55,143.60 L68.90,143.45 L70.40,142.95 L71.30,142.80 Q74.20,142.80 74.80,145.05 L74.50,145.50 L73.95,145.75 L71.30,146.25 L69.25,146.00 Q68.50,145.60 68.40,144.60 L68.50,143.95 L68.55,143.60 Z"/>
        <path fill="#FFC945" fill-opacity="1.00" d="M27.55,115.05 L29.00,116.00 L30.15,116.65 Q38.40,121.40 48.60,121.85 L66.30,121.25 Q70.60,120.60 74.75,119.15 L73.35,121.50 Q69.85,122.60 66.30,123.15 L48.60,123.75 Q38.40,123.30 30.15,118.60 L29.00,117.90 L27.95,117.20 L27.55,115.05 Z"/>
        <path fill="url(#G5)" d="M27.95,117.20 L29.00,117.90 L30.15,118.60 Q31.00,123.40 35.25,127.35 Q41.25,132.90 51.20,132.90 Q60.65,132.90 66.75,129.00 Q69.75,127.05 72.60,123.75 L72.95,123.40 L78.40,121.45 L78.50,126.30 Q78.50,131.05 77.90,134.50 L77.30,137.30 Q74.80,138.55 71.10,139.65 L65.05,140.75 L62.35,141.00 Q62.75,138.85 64.10,137.85 Q67.30,136.30 69.55,134.10 L63.05,135.10 L53.70,135.50 L46.50,134.80 L43.25,134.00 L45.80,136.10 L47.75,137.15 L47.65,139.55 L47.70,140.70 Q41.15,139.85 35.60,137.00 L32.75,135.50 Q31.65,133.10 29.90,126.00 L28.95,122.15 L27.95,117.20 M30.40,134.15 L28.80,133.05 Q27.25,131.15 26.40,127.95 Q25.55,124.75 24.80,121.00 Q24.15,117.60 24.05,113.60 L25.45,115.15 L25.85,115.50 Q26.25,118.15 27.20,122.35 L28.10,126.00 Q29.45,131.45 30.40,134.15 Z"/>
        <path fill="#EB5B15" fill-opacity="1.00" d="M85.50,130.85 L84.90,131.45 L83.20,133.00 L83.45,130.05 L83.90,122.70 L83.90,121.70 L83.70,117.10 L83.70,116.70 L86.05,114.65 L86.35,114.40 L86.50,117.35 L86.45,120.85 Q86.25,125.70 85.50,130.85 M81.50,134.40 L80.10,135.55 L77.30,137.30 L77.90,134.50 Q78.50,131.05 78.50,126.30 L78.40,121.45 L72.95,123.40 L74.75,121.05 L79.65,119.05 L82.05,117.75 L82.10,117.75 L82.10,119.55 L82.10,122.40 L81.85,129.80 L81.50,134.40 M62.35,141.00 L58.50,141.15 L57.70,139.20 L54.25,139.00 L52.90,141.10 L51.80,141.05 L47.70,140.70 L47.65,139.55 L47.75,137.15 L45.80,136.10 L43.25,134.00 L46.50,134.80 L53.70,135.50 L63.05,135.10 L69.55,134.10 Q67.30,136.30 64.10,137.85 Q62.75,138.85 62.35,141.00 Z"/>
        <path fill="#FF964A" fill-opacity="1.00" d="M30.15,118.60 Q38.40,123.30 48.60,123.75 L66.30,123.15 Q69.85,122.60 73.35,121.50 L74.75,119.15 L76.50,118.50 L79.65,117.15 L82.05,115.85 L82.10,117.75 L82.05,117.75 L79.65,119.05 L74.75,121.05 L72.95,123.40 L72.60,123.75 Q69.75,127.05 66.75,129.00 Q60.65,132.90 51.20,132.90 Q41.25,132.90 35.25,127.35 Q31.00,123.40 30.15,118.60 M24.05,111.70 L25.45,113.25 L25.75,115.05 L25.85,115.50 L25.45,115.15 L24.05,113.60 L24.05,112.70 L24.05,111.70 Z"/>
        <path fill="#FAEFE2" fill-opacity="1.00" d="M27.55,115.05 L27.95,117.20 L28.95,122.15 L29.90,126.00 Q31.65,133.10 32.75,135.50 L30.40,134.15 Q29.45,131.45 28.10,126.00 L27.20,122.35 Q26.25,118.15 25.85,115.50 L25.75,115.05 L25.45,113.25 L27.55,115.05 Z"/>
        <path fill="#E2DFDE" fill-opacity="1.00" d="M82.05,115.85 L83.55,114.85 L83.70,116.70 L83.70,117.10 L83.90,121.70 L83.90,122.70 L83.45,130.05 L83.20,133.00 L81.50,134.40 L81.85,129.80 L82.10,122.40 L82.10,119.55 L82.10,117.75 L82.05,115.85 M28.80,133.05 L26.50,131.00 Q24.70,128.75 24.00,125.70 L23.40,122.70 Q22.40,116.55 22.60,109.75 L24.05,111.70 L24.05,112.70 L24.05,113.60 Q24.15,117.60 24.80,121.00 Q25.55,124.75 26.40,127.95 Q27.25,131.15 28.80,133.05 Z"/>
        <path fill="#AFD7F6" fill-opacity="1.00" d="M86.05,112.75 L88.95,109.50 L89.20,111.30 L89.20,111.40 L89.65,117.35 L89.65,120.00 L89.35,123.40 Q89.25,124.95 88.05,127.30 Q87.05,129.25 85.50,130.85 Q86.25,125.70 86.45,120.85 L86.50,117.35 L86.35,114.40 L86.10,112.95 L86.05,112.75 Z"/>
        <path fill="#E68651" fill-opacity="1.00" d="M86.05,112.75 L86.10,112.95 L86.35,114.40 L86.05,114.65 L83.70,116.70 L83.55,114.85 L86.05,112.75 Z"/>
        <path stroke="#412914" stroke-width="0.50" stroke-opacity="1.00" stroke-linecap="round" stroke-linejoin="round" stroke-miterlimit="3.00" fill="transparent" d="M74.75,119.15 Q70.60,120.60 66.30,121.25 L48.60,121.85 Q38.40,121.40 30.15,116.65 L29.00,116.00 L27.55,115.05 M74.75,119.15 L76.50,118.50 L79.65,117.15 L82.05,115.85 L83.55,114.85 L86.05,112.75 L88.95,109.50 L89.20,111.30 L89.20,111.40 L89.65,117.35 L89.65,120.00 L89.35,123.40 Q89.25,124.95 88.05,127.30 Q87.05,129.25 85.50,130.85 L84.90,131.45 L83.20,133.00 L81.50,134.40 L80.10,135.55 L77.30,137.30 Q74.80,138.55 71.10,139.65 L65.05,140.75 L62.35,141.00 L58.50,141.15 L57.70,139.20 L54.25,139.00 L52.90,141.10 L51.80,141.05 L47.70,140.70 Q41.15,139.85 35.60,137.00 L32.75,135.50 L30.40,134.15 L28.80,133.05 L26.50,131.00 Q24.70,128.75 24.00,125.70 L23.40,122.70 Q22.40,116.55 22.60,109.75 L24.05,111.70 L25.45,113.25 L27.55,115.05"/>
    </g>
</svg>