<svg version="1.1" xmlns="http://www.w3.org/2000/svg" width="1024" height="768">
    <defs>
        <linearGradient x1="237.99" y1="187.20" x2="272.21" y2="234.80" gradientUnits="userSpaceOnUse" spreadMethod="pad" id="G1">
            <stop offset="0.23" stop-color="#4A664D" stop-opacity="1.00"/>
            <stop offset="1.00" stop-color="#4A664D" stop-opacity="0.46"/>
        </linearGradient>
        <linearGradient x1="238.30" y1="64.29" x2="257.00" y2="65.51" gradientUnits="userSpaceOnUse" spreadMethod="pad" id="G2">
            <stop offset="0.26" stop-color="#AC9988" stop-opacity="1.00"/>
            <stop offset="0.87" stop-color="#AEACA0" stop-opacity="1.00"/>
        </linearGradient>
        <linearGradient x1="64.69" y1="154.26" x2="73.81" y2="138.54" gradientUnits="userSpaceOnUse" spreadMethod="pad" id="G3">
            <stop offset="0.26" stop-color="#E6CDC6" stop-opacity="1.00"/>
            <stop offset="0.87" stop-color="#D3BAB3" stop-opacity="1.00"/>
        </linearGradient>
        <radialGradient cx="98.60" cy="127.65" fx="98.60" fy="127.65" r="18.94" gradientUnits="userSpaceOnUse" spreadMethod="pad" id="G4">
            <stop offset="0.26" stop-color="#FDFFA7" stop-opacity="1.00"/>
            <stop offset="0.87" stop-color="#FEA527" stop-opacity="1.00"/>
        </radialGradient>
        <radialGradient cx="98.05" cy="122.35" fx="98.05" fy="122.35" r="16.14" gradientUnits="userSpaceOnUse" spreadMethod="pad" id="G5">
            <stop offset="0.00" stop-color="#FFFB20" stop-opacity="1.00"/>
            <stop offset="1.00" stop-color="#FEC92B" stop-opacity="1.00"/>
        </radialGradient>
    </defs>
    <g transform="scale(2.52,2.52) translate(36.32,79.91)">
        <path fill="url(#G1)" d="M333.20,163.15 L327.20,173.55 L301.60,200.75 L222.40,219.55 L110.80,181.55 L73.60,189.95 L34.00,163.55 L160.00,80.75 L277.60,125.95 L333.20,163.15 Z"/>
        <path fill="#F9A90C" fill-opacity="1.00" d="M91.70,1.90 Q92.65,-1.50 94.35,-2.65 Q96.05,-3.85 97.80,-2.85 Q99.50,-1.85 100.30,0.75 Q101.05,3.35 100.70,5.30 L91.70,1.90 M102.90,6.55 Q103.55,3.15 103.10,0.75 L103.95,1.30 L106.05,1.95 L108.20,2.25 L112.30,1.70 L115.05,3.15 L117.35,4.45 Q116.90,6.05 114.35,7.55 Q111.10,9.45 106.85,9.10 L102.90,6.55 M97.40,-4.85 L92.20,-4.60 Q90.25,-5.25 90.20,-8.00 L97.40,-4.85 M86.60,-6.00 Q89.55,-5.80 90.65,-4.90 Q91.70,-4.05 91.70,-2.05 Q91.70,-0.65 90.70,1.55 L80.60,-2.25 L86.60,-6.00 M109.90,-14.35 L105.20,-16.60 L118.45,-23.10 Q118.45,-19.50 115.95,-16.90 Q113.45,-14.35 109.90,-14.35 M120.30,-23.90 L135.65,-30.15 Q136.40,-28.75 136.40,-27.85 Q136.40,-24.65 133.35,-22.85 Q130.80,-21.35 127.15,-21.35 Q122.55,-21.35 120.30,-23.90 M136.20,-30.35 L141.85,-31.65 L143.65,-31.90 L145.10,-31.70 Q144.40,-30.75 142.55,-29.65 Q140.90,-28.65 140.30,-28.65 L139.20,-28.95 L136.20,-30.35 M149.10,-29.85 L151.15,-28.85 Q150.10,-24.25 148.05,-22.35 Q146.15,-20.55 142.75,-20.55 L140.15,-20.80 Q137.55,-21.40 136.30,-23.15 L137.60,-26.45 Q142.15,-24.05 149.10,-29.85 M153.65,-27.55 L164.30,-21.10 Q161.55,-17.45 156.85,-17.45 Q153.80,-17.45 150.85,-20.40 Q152.50,-20.85 153.30,-23.55 Q154.00,-25.90 153.65,-27.55 M166.30,-19.75 L169.45,-17.55 L167.45,-16.15 Q165.65,-17.45 165.05,-18.40 L166.30,-19.75 M120.65,-19.45 L135.25,-19.45 L135.25,-12.05 L136.40,-13.90 Q138.00,-16.75 138.10,-17.70 L142.75,-17.35 Q147.00,-17.00 149.50,-19.35 L150.50,-16.25 L151.00,-14.20 Q151.00,-11.85 147.90,-10.05 Q144.55,-8.15 139.65,-8.15 Q136.60,-8.15 135.55,-8.70 L133.90,-10.50 L135.00,-11.65 L120.65,-11.65 L120.65,-19.45 M123.45,-7.80 L128.30,-8.05 Q130.55,-8.60 131.55,-9.35 Q132.20,-8.60 132.55,-6.90 L132.75,-5.15 L132.30,-2.10 L123.45,-7.80 M134.60,-0.60 Q136.10,-2.75 136.40,-4.10 L136.60,-5.85 L143.20,-4.90 Q144.35,-4.90 145.90,-5.50 Q147.35,-6.10 147.90,-6.65 L149.70,-3.55 L140.20,3.15 L134.60,-0.60 M152.60,-5.60 L149.55,-7.65 L151.90,-10.10 Q154.10,-12.70 154.40,-15.10 Q158.75,-14.60 160.15,-15.10 L164.25,-17.70 Q165.10,-15.65 165.20,-14.55 L152.60,-5.60 M117.35,15.90 L113.15,13.20 Q114.90,13.20 116.15,14.00 Q117.35,14.80 117.35,15.90 M127.10,12.45 L122.85,15.45 L119.35,13.65 Q116.55,12.05 116.25,11.45 L119.55,6.25 L127.10,12.45 Z"/>
        <path fill="#D56621" fill-opacity="1.00" d="M100.70,5.30 Q101.05,3.35 100.30,0.75 Q99.50,-1.85 97.80,-2.85 Q96.05,-3.85 94.35,-2.65 Q92.65,-1.50 91.70,1.90 L90.70,1.55 Q91.70,-0.65 91.70,-2.05 Q91.70,-4.05 90.65,-4.90 Q89.55,-5.80 86.60,-6.00 L90.00,-8.10 L90.20,-8.00 Q90.25,-5.25 92.20,-4.60 L97.40,-4.85 L112.30,1.70 L108.20,2.25 L106.05,1.95 L103.95,1.30 L103.10,0.75 Q103.55,3.15 102.90,6.55 L100.70,5.30 M119.50,17.80 L117.35,15.90 Q117.35,14.80 116.15,14.00 Q114.90,13.20 113.15,13.20 L106.85,9.10 Q111.10,9.45 114.35,7.55 Q116.90,6.05 117.35,4.45 L119.55,6.25 L116.25,11.45 Q116.55,12.05 119.35,13.65 L122.85,15.45 Q121.20,16.65 119.50,17.80 Z"/>
        <path fill="#773D0D" fill-opacity="1.00" d="M112.30,1.70 L97.40,-4.85 L90.20,-8.00 L90.00,-8.10 Q95.75,-10.75 105.20,-16.60 L109.90,-14.35 L123.45,-7.80 L132.30,-2.10 L134.60,-0.60 L140.20,3.15 L142.45,4.70 L150.90,11.10 L161.00,18.95 L163.60,21.00 L168.95,25.20 L171.20,26.95 L173.35,28.65 Q172.10,29.30 170.80,29.90 L166.35,32.15 L162.00,34.30 L159.65,35.05 L156.10,35.65 Q152.85,35.65 147.05,33.35 Q145.50,31.85 144.85,30.80 L136.95,20.70 L128.35,13.45 L127.10,12.45 L119.55,6.25 L117.35,4.45 L115.05,3.15 L112.30,1.70 Z"/>
        <path fill="#D46520" fill-opacity="1.00" d="M109.90,-14.35 Q113.45,-14.35 115.95,-16.90 Q118.45,-19.50 118.45,-23.10 L120.30,-23.90 Q122.55,-21.35 127.15,-21.35 Q130.80,-21.35 133.35,-22.85 Q136.40,-24.65 136.40,-27.85 Q136.40,-28.75 135.65,-30.15 L136.20,-30.35 L139.20,-28.95 L140.30,-28.65 Q140.90,-28.65 142.55,-29.65 Q144.40,-30.75 145.10,-31.70 L149.10,-29.85 Q142.15,-24.05 137.60,-26.45 L136.30,-23.15 Q137.55,-21.40 140.15,-20.80 L142.75,-20.55 Q146.15,-20.55 148.05,-22.35 Q150.10,-24.25 151.15,-28.85 L153.65,-27.55 Q154.00,-25.90 153.30,-23.55 Q152.50,-20.85 150.85,-20.40 Q153.80,-17.45 156.85,-17.45 Q161.55,-17.45 164.30,-21.10 L166.30,-19.75 L165.05,-18.40 Q165.65,-17.45 167.45,-16.15 L165.20,-14.55 Q165.10,-15.65 164.25,-17.70 L160.15,-15.10 Q158.75,-14.60 154.40,-15.10 Q154.10,-12.70 151.90,-10.10 L149.55,-7.65 L152.60,-5.60 L149.70,-3.55 L147.90,-6.65 Q147.35,-6.10 145.90,-5.50 Q144.35,-4.90 143.20,-4.90 L136.60,-5.85 L136.40,-4.10 Q136.10,-2.75 134.60,-0.60 L132.30,-2.10 L132.75,-5.15 L132.55,-6.90 Q132.20,-8.60 131.55,-9.35 Q130.55,-8.60 128.30,-8.05 L123.45,-7.80 L109.90,-14.35 M120.65,-19.45 L120.65,-11.65 L135.00,-11.65 L133.90,-10.50 L135.55,-8.70 Q136.60,-8.15 139.65,-8.15 Q144.55,-8.15 147.90,-10.05 Q151.00,-11.85 151.00,-14.20 L150.50,-16.25 L149.50,-19.35 Q147.00,-17.00 142.75,-17.35 L138.10,-17.70 Q138.00,-16.75 136.40,-13.90 L135.25,-12.05 L135.25,-19.45 L120.65,-19.45 Z"/>
        <path fill="#B45616" fill-opacity="1.00" d="M171.70,-15.90 L172.25,-15.45 L174.40,-13.75 Q172.30,-12.75 171.15,-12.75 Q169.90,-12.75 167.70,-13.70 L167.80,-12.95 Q167.85,-12.35 166.75,-10.00 Q165.55,-7.50 164.60,-6.65 Q165.60,-5.45 167.25,-4.60 Q169.35,-3.55 171.75,-3.55 Q175.00,-3.55 176.35,-4.65 Q178.00,-6.00 178.85,-10.15 L189.20,-0.95 L188.90,-0.90 L186.70,-1.15 Q185.25,-1.50 181.20,-3.20 L180.10,-3.95 Q181.40,-2.85 181.60,1.20 Q181.60,2.10 180.35,4.75 Q179.10,7.35 179.10,8.50 Q179.10,9.10 180.70,10.30 Q182.35,11.60 185.15,13.15 L183.15,14.65 L180.80,13.05 L182.25,15.30 L180.35,16.75 Q179.50,14.10 178.85,12.90 L177.20,10.40 L175.50,11.85 Q173.75,12.70 170.10,12.70 L168.45,12.55 L167.55,12.40 Q167.90,13.55 166.15,17.05 Q164.50,20.25 163.60,21.00 L161.00,18.95 Q162.70,17.40 163.90,15.15 Q164.90,13.20 164.90,12.10 Q164.90,10.45 164.40,9.20 L164.30,9.05 L163.65,9.00 Q160.05,9.00 156.40,10.15 Q152.90,11.20 150.90,11.10 L142.45,4.70 Q145.45,4.70 147.60,2.30 Q149.70,-0.15 149.70,-3.55 L152.60,-5.60 Q157.80,-5.60 161.50,-8.20 Q165.20,-10.85 165.20,-14.55 L167.45,-16.15 L171.70,-15.90 M152.45,-3.45 Q152.75,-1.80 151.15,1.75 Q149.45,5.45 148.00,5.75 L149.95,6.90 Q151.45,7.85 153.65,7.85 Q159.50,7.85 162.45,5.20 Q164.70,3.20 164.70,0.55 L164.05,-1.95 L162.90,-4.85 Q162.05,-3.10 158.10,-2.55 Q154.10,-2.00 152.45,-3.45 M178.20,-1.65 L166.30,-1.65 L166.30,7.80 L178.20,7.80 L178.20,-1.65 M189.00,106.30 L189.55,106.85 L188.50,110.20 L189.05,113.30 L187.65,114.15 Q187.25,113.00 186.95,110.70 L186.35,110.70 L179.25,109.70 L179.95,108.60 Q183.35,109.50 185.15,109.10 Q187.35,108.70 189.00,106.30 Z"/>
        <path fill="#FD9728" fill-opacity="1.00" d="M169.45,-17.55 L171.70,-15.90 L167.45,-16.15 L169.45,-17.55 M152.45,-3.45 Q154.10,-2.00 158.10,-2.55 Q162.05,-3.10 162.90,-4.85 L164.05,-1.95 L164.70,0.55 Q164.70,3.20 162.45,5.20 Q159.50,7.85 153.65,7.85 Q151.45,7.85 149.95,6.90 L148.00,5.75 Q149.45,5.45 151.15,1.75 Q152.75,-1.80 152.45,-3.45 M165.20,-14.55 Q165.20,-10.85 161.50,-8.20 Q157.80,-5.60 152.60,-5.60 L165.20,-14.55 M174.40,-13.75 L178.85,-10.15 Q178.00,-6.00 176.35,-4.65 Q175.00,-3.55 171.75,-3.55 Q169.35,-3.55 167.25,-4.60 Q165.60,-5.45 164.60,-6.65 Q165.55,-7.50 166.75,-10.00 Q167.85,-12.35 167.80,-12.95 L167.70,-13.70 Q169.90,-12.75 171.15,-12.75 Q172.30,-12.75 174.40,-13.75 M189.20,-0.95 L195.65,5.35 L185.15,13.15 Q182.35,11.60 180.70,10.30 Q179.10,9.10 179.10,8.50 Q179.10,7.35 180.35,4.75 Q181.60,2.10 181.60,1.20 Q181.40,-2.85 180.10,-3.95 L181.20,-3.20 Q185.25,-1.50 186.70,-1.15 L188.90,-0.90 L189.20,-0.95 M178.20,-1.65 L178.20,7.80 L166.30,7.80 L166.30,-1.65 L178.20,-1.65 M136.75,32.90 L130.50,27.45 Q130.50,24.65 132.40,22.70 Q134.30,20.70 136.95,20.70 L144.85,30.80 L140.95,32.95 Q140.05,33.30 136.75,32.90 M128.30,25.50 L119.55,17.85 L123.70,18.65 Q125.35,18.65 126.80,18.05 Q128.45,17.30 129.25,15.95 L130.05,16.40 L130.65,17.70 L131.00,19.45 Q131.00,22.65 130.25,23.55 Q129.15,24.35 128.30,25.50 M182.25,15.30 L180.80,13.05 L183.15,14.65 L182.25,15.30 M163.60,21.00 Q164.50,20.25 166.15,17.05 Q167.90,13.55 167.55,12.40 L168.45,12.55 L170.10,12.70 Q173.75,12.70 175.50,11.85 L177.20,10.40 L178.85,12.90 Q179.50,14.10 180.35,16.75 L168.95,25.20 L163.60,21.00 M150.90,11.10 Q152.90,11.20 156.40,10.15 Q160.05,9.00 163.65,9.00 L164.30,9.05 L164.40,9.20 Q164.90,10.45 164.90,12.10 Q164.90,13.20 163.90,15.15 Q162.70,17.40 161.00,18.95 L150.90,11.10 M168.00,133.15 Q171.55,133.15 174.05,134.60 Q176.55,136.05 176.55,138.10 L172.15,139.85 L169.70,140.60 L166.00,139.35 L168.00,133.15 M175.40,131.65 L174.40,129.05 Q173.70,127.15 173.70,124.95 L173.85,122.55 L177.55,121.30 Q179.95,120.30 180.75,119.70 L180.90,119.55 L180.90,119.60 Q180.95,121.50 184.95,129.15 L183.80,131.25 Q180.85,132.55 180.25,132.55 L177.75,132.20 L175.40,131.65 M149.70,-3.55 Q149.70,-0.15 147.60,2.30 Q145.45,4.70 142.45,4.70 L140.20,3.15 L149.70,-3.55 M127.10,12.45 L128.35,13.45 L125.85,14.50 L122.85,15.45 L127.10,12.45 Z"/>
        <path fill="#E86D0F" fill-opacity="1.00" d="M193.65,-75.15 L195.65,-75.95 L228.80,-64.25 L226.75,-63.15 L216.75,-66.80 L214.95,-67.45 L204.55,-71.20 L203.45,-71.60 L193.65,-75.15 Z"/>
        <path fill="#D76820" fill-opacity="1.00" d="M172.60,-55.45 L173.20,-56.60 Q176.10,-56.60 178.15,-59.40 Q180.20,-62.20 180.20,-66.15 L182.75,-68.45 Q185.15,-67.75 187.20,-67.75 Q190.80,-67.75 191.10,-69.45 Q191.10,-70.65 189.85,-73.30 L191.20,-74.00 Q191.75,-71.90 192.75,-70.95 Q194.10,-69.70 196.90,-69.70 Q200.05,-69.70 203.45,-71.60 L204.55,-71.20 L202.20,-69.70 Q203.80,-67.40 205.20,-66.50 Q206.80,-65.45 209.35,-65.45 L211.85,-66.20 Q214.35,-67.05 214.95,-67.45 L216.75,-66.80 L214.45,-65.00 Q215.25,-63.45 216.85,-62.45 Q219.30,-60.95 223.15,-61.30 Q222.55,-60.95 221.95,-60.65 L215.70,-61.65 Q214.75,-61.65 214.15,-60.55 Q213.70,-59.75 213.70,-59.05 Q213.70,-58.40 214.00,-57.85 L214.55,-56.80 L213.10,-55.30 Q212.40,-57.50 212.15,-59.65 L208.45,-58.75 L204.90,-58.10 L204.80,-56.25 Q204.80,-53.80 206.70,-52.60 Q208.35,-51.65 210.55,-51.85 L209.55,-50.50 L205.60,-50.80 Q204.55,-48.40 204.55,-47.40 Q204.55,-46.30 205.45,-44.90 L204.35,-43.40 Q204.25,-44.55 203.60,-45.85 Q202.75,-47.60 201.65,-47.80 Q205.25,-48.95 205.25,-52.10 Q205.25,-54.10 203.55,-55.40 Q201.85,-56.75 199.35,-56.75 Q196.90,-56.75 195.20,-55.40 Q193.45,-54.05 193.45,-52.10 Q193.45,-50.55 194.55,-49.20 Q196.05,-47.30 198.80,-47.45 L197.85,-46.40 Q197.05,-45.40 196.75,-44.60 L193.95,-44.70 L196.10,-46.45 Q194.80,-46.95 193.25,-48.70 Q191.40,-50.70 191.95,-51.95 L188.10,-51.10 L184.55,-50.70 L183.25,-51.05 Q179.85,-52.70 180.25,-56.45 L177.00,-55.65 L172.60,-55.45 M202.50,-63.10 Q202.50,-61.90 203.40,-61.00 Q204.55,-59.85 206.70,-59.85 Q207.80,-59.85 210.75,-60.85 L214.65,-62.30 Q213.15,-64.10 210.10,-64.75 L204.25,-65.15 Q203.50,-65.15 202.95,-64.30 Q202.50,-63.60 202.50,-63.10 M196.10,-62.80 Q193.65,-62.50 192.85,-61.85 L191.40,-60.35 Q192.50,-58.75 194.75,-57.80 Q196.70,-56.90 198.40,-56.90 L200.75,-57.50 Q203.05,-58.20 203.70,-58.60 Q201.85,-59.60 201.45,-60.45 Q201.20,-61.05 201.00,-62.80 L196.10,-62.80 M197.30,-63.80 Q199.70,-63.80 201.45,-64.60 Q203.15,-65.40 203.15,-66.50 Q203.15,-67.60 201.45,-68.40 Q199.70,-69.20 197.30,-69.20 Q194.90,-69.20 193.20,-68.40 Q191.45,-67.60 191.45,-66.50 Q191.45,-65.40 193.20,-64.60 Q194.90,-63.80 197.30,-63.80 M187.10,-67.05 Q184.80,-67.05 183.15,-66.05 Q181.50,-65.05 181.50,-63.65 Q181.50,-62.25 183.15,-61.25 Q184.80,-60.25 187.10,-60.25 Q189.40,-60.25 191.05,-61.25 Q192.70,-62.25 192.70,-63.65 Q192.70,-65.05 191.05,-66.05 Q189.40,-67.05 187.10,-67.05 M187.50,-59.55 Q185.05,-59.55 183.30,-58.45 Q181.55,-57.40 181.55,-55.90 Q181.55,-54.40 183.30,-53.30 Q185.05,-52.25 187.50,-52.25 Q189.95,-52.25 191.70,-53.30 Q193.45,-54.40 193.45,-55.90 Q193.45,-57.40 191.70,-58.45 Q189.95,-59.55 187.50,-59.55 Z"/>
        <path fill="#FD9524" fill-opacity="1.00" d="M182.75,-68.45 L189.85,-73.30 Q191.10,-70.65 191.10,-69.45 Q190.80,-67.75 187.20,-67.75 Q185.15,-67.75 182.75,-68.45 M191.20,-74.00 L193.65,-75.15 L203.45,-71.60 Q200.05,-69.70 196.90,-69.70 Q194.10,-69.70 192.75,-70.95 Q191.75,-71.90 191.20,-74.00 M223.15,-61.30 Q219.30,-60.95 216.85,-62.45 Q215.25,-63.45 214.45,-65.00 L216.75,-66.80 L226.75,-63.15 L223.15,-61.30 M214.95,-67.45 Q214.35,-67.05 211.85,-66.20 L209.35,-65.45 Q206.80,-65.45 205.20,-66.50 Q203.80,-67.40 202.20,-69.70 L204.55,-71.20 L214.95,-67.45 M202.50,-63.10 Q202.50,-63.60 202.95,-64.30 Q203.50,-65.15 204.25,-65.15 L210.10,-64.75 Q213.15,-64.10 214.65,-62.30 L210.75,-60.85 Q207.80,-59.85 206.70,-59.85 Q204.55,-59.85 203.40,-61.00 Q202.50,-61.90 202.50,-63.10 M214.55,-56.80 L214.00,-57.85 Q213.70,-58.40 213.70,-59.05 Q213.70,-59.75 214.15,-60.55 Q214.75,-61.65 215.70,-61.65 L221.95,-60.65 L214.55,-56.80 M197.30,-63.80 Q194.90,-63.80 193.20,-64.60 Q191.45,-65.40 191.45,-66.50 Q191.45,-67.60 193.20,-68.40 Q194.90,-69.20 197.30,-69.20 Q199.70,-69.20 201.45,-68.40 Q203.15,-67.60 203.15,-66.50 Q203.15,-65.40 201.45,-64.60 Q199.70,-63.80 197.30,-63.80 Z"/>
        <path fill="#F9A90A" fill-opacity="1.00" d="M171.85,-53.85 L172.60,-55.45 L177.00,-55.65 L180.25,-56.45 Q179.85,-52.70 183.25,-51.05 L182.30,-49.50 Q177.10,-51.65 171.85,-53.85 M173.20,-56.60 L180.20,-66.15 Q180.20,-62.20 178.15,-59.40 Q176.10,-56.60 173.20,-56.60 M210.55,-51.85 Q208.35,-51.65 206.70,-52.60 Q204.80,-53.80 204.80,-56.25 L204.90,-58.10 L208.45,-58.75 L212.15,-59.65 Q212.40,-57.50 213.10,-55.30 L210.55,-51.85 M196.75,-44.60 Q197.05,-45.40 197.85,-46.40 L198.80,-47.45 Q196.05,-47.30 194.55,-49.20 Q193.45,-50.55 193.45,-52.10 Q193.45,-54.05 195.20,-55.40 Q196.90,-56.75 199.35,-56.75 Q201.85,-56.75 203.55,-55.40 Q205.25,-54.10 205.25,-52.10 Q205.25,-48.95 201.65,-47.80 Q202.75,-47.60 203.60,-45.85 Q204.25,-44.55 204.35,-43.40 L202.65,-41.10 L196.70,-43.55 L196.75,-44.60 M205.45,-44.90 Q204.55,-46.30 204.55,-47.40 Q204.55,-48.40 205.60,-50.80 L209.55,-50.50 L205.90,-45.55 L205.45,-44.90 M196.10,-62.80 L201.00,-62.80 Q201.20,-61.05 201.45,-60.45 Q201.85,-59.60 203.70,-58.60 Q203.05,-58.20 200.75,-57.50 L198.40,-56.90 Q196.70,-56.90 194.75,-57.80 Q192.50,-58.75 191.40,-60.35 L192.85,-61.85 Q193.65,-62.50 196.10,-62.80 M187.10,-67.05 Q189.40,-67.05 191.05,-66.05 Q192.70,-65.05 192.70,-63.65 Q192.70,-62.25 191.05,-61.25 Q189.40,-60.25 187.10,-60.25 Q184.80,-60.25 183.15,-61.25 Q181.50,-62.25 181.50,-63.65 Q181.50,-65.05 183.15,-66.05 Q184.80,-67.05 187.10,-67.05 M187.50,-59.55 Q189.95,-59.55 191.70,-58.45 Q193.45,-57.40 193.45,-55.90 Q193.45,-54.40 191.70,-53.30 Q189.95,-52.25 187.50,-52.25 Q185.05,-52.25 183.30,-53.30 Q181.55,-54.40 181.55,-55.90 Q181.55,-57.40 183.30,-58.45 Q185.05,-59.55 187.50,-59.55 M184.55,-50.70 L188.10,-51.10 L191.95,-51.95 Q191.40,-50.70 193.25,-48.70 Q194.80,-46.95 196.10,-46.45 L193.95,-44.70 L183.45,-49.05 L184.55,-50.70 Z"/>
        <path fill="#C27229" fill-opacity="1.00" d="M228.80,-64.25 L233.00,-62.15 Q225.80,-56.85 216.95,-49.70 L209.35,-43.45 Q207.90,-43.45 206.90,-44.05 Q205.90,-44.70 205.90,-45.55 L209.55,-50.50 L210.55,-51.85 L213.10,-55.30 L214.55,-56.80 L221.95,-60.65 Q222.55,-60.95 223.15,-61.30 L226.75,-63.15 L228.80,-64.25 Z"/>
        <path fill="#716058" fill-opacity="1.00" d="M229.50,-54.65 L229.50,-50.30 Q221.60,-50.30 216.00,-43.75 Q210.40,-37.25 210.40,-28.00 L206.35,-25.90 Q205.35,-31.20 214.45,-42.55 Q223.55,-53.90 229.50,-54.65 M231.20,-26.25 L231.20,-21.35 L202.95,-8.75 L202.90,-9.55 L204.20,-12.45 L231.20,-26.25 Z"/>
        <path fill="#5B2E0D" fill-opacity="1.00" d="M233.00,-62.15 Q232.00,-57.90 231.45,-56.80 Q231.00,-55.90 229.50,-54.65 Q223.55,-53.90 214.45,-42.55 Q205.35,-31.20 206.35,-25.90 L205.70,-22.25 L202.50,-21.05 L205.50,-34.85 Q206.65,-38.90 209.35,-43.45 L216.95,-49.70 Q225.80,-56.85 233.00,-62.15 Z"/>
        <path fill="#D36621" fill-opacity="1.00" d="M167.55,-38.20 L167.90,-40.50 Q168.55,-39.35 169.65,-36.05 Q171.00,-33.30 173.75,-33.30 L175.60,-33.80 L176.30,-34.05 Q175.65,-33.30 175.20,-31.85 L169.10,-34.35 L167.55,-38.20 M168.05,-41.15 L168.25,-42.30 Q171.00,-41.95 173.20,-43.50 L174.90,-45.10 L175.80,-44.85 L176.40,-44.45 L177.70,-44.45 Q176.95,-44.25 176.00,-43.50 Q175.05,-42.80 175.05,-42.50 Q175.05,-41.15 176.10,-39.35 Q177.70,-36.65 180.70,-36.70 L180.70,-29.75 L189.60,-29.75 L187.05,-27.05 L180.35,-29.75 Q180.60,-30.80 180.20,-32.35 Q179.75,-33.90 178.80,-34.50 L178.15,-34.80 L178.45,-34.95 L179.10,-35.50 Q178.25,-36.05 176.50,-37.90 Q174.35,-40.20 173.95,-41.55 L171.10,-40.60 Q170.35,-40.45 168.05,-41.15 M170.70,-51.10 L171.85,-53.85 L171.75,-52.10 Q171.75,-51.40 172.05,-50.05 L172.50,-48.25 L170.70,-51.10 M196.75,-44.60 L196.70,-43.55 Q196.70,-41.60 198.15,-40.20 Q199.55,-38.85 201.60,-38.85 L201.40,-37.00 Q201.00,-36.40 197.55,-34.25 Q194.25,-32.15 193.40,-31.85 Q193.70,-28.55 195.85,-27.05 Q197.70,-25.75 200.25,-26.00 L200.10,-24.50 Q195.75,-23.75 193.60,-27.55 L191.95,-32.00 L191.50,-32.30 L189.85,-30.05 L189.85,-35.70 L192.10,-34.85 L193.65,-34.45 Q194.40,-34.45 196.30,-35.50 L199.50,-37.30 Q198.85,-37.40 196.95,-40.00 L195.00,-42.60 L187.75,-41.10 L188.85,-36.90 L182.80,-36.90 Q184.00,-37.35 185.00,-38.15 Q186.90,-39.50 187.20,-41.20 Q186.40,-41.45 183.75,-43.80 L180.75,-46.45 L182.30,-49.50 L183.25,-51.05 L184.55,-50.70 L183.45,-49.05 L182.10,-47.85 Q181.90,-45.10 184.90,-43.85 Q186.65,-43.15 188.35,-43.15 L190.90,-43.75 Q193.45,-44.45 193.95,-44.70 L196.75,-44.60 Z"/>
        <path fill="#FC9627" fill-opacity="1.00" d="M168.80,-34.45 Q168.15,-35.25 167.95,-35.80 Q167.50,-36.80 167.55,-38.20 L169.10,-34.35 L168.80,-34.45 M167.90,-40.50 L168.05,-41.15 Q170.35,-40.45 171.10,-40.60 L173.95,-41.55 Q174.35,-40.20 176.50,-37.90 Q178.25,-36.05 179.10,-35.50 L178.45,-34.95 L178.15,-34.80 L178.80,-34.50 Q179.75,-33.90 180.20,-32.35 Q180.60,-30.80 180.35,-29.75 L175.20,-31.85 Q175.65,-33.30 176.30,-34.05 L175.60,-33.80 L173.75,-33.30 Q171.00,-33.30 169.65,-36.05 Q168.55,-39.35 167.90,-40.50 M168.25,-42.30 L170.70,-51.10 L172.50,-48.25 L172.05,-50.05 Q171.75,-51.40 171.75,-52.10 L171.85,-53.85 Q177.10,-51.65 182.30,-49.50 L180.75,-46.45 L183.75,-43.80 Q186.40,-41.45 187.20,-41.20 Q186.90,-39.50 185.00,-38.15 Q184.00,-37.35 182.80,-36.90 L188.85,-36.90 L187.75,-41.10 L195.00,-42.60 L196.95,-40.00 Q198.85,-37.40 199.50,-37.30 L196.30,-35.50 Q194.40,-34.45 193.65,-34.45 L192.10,-34.85 L189.85,-35.70 L189.85,-30.05 L191.50,-32.30 L191.95,-32.00 L193.60,-27.55 Q195.75,-23.75 200.10,-24.50 L199.80,-21.85 L187.05,-27.05 L189.60,-29.75 L180.70,-29.75 L180.70,-36.70 Q177.70,-36.65 176.10,-39.35 Q175.05,-41.15 175.05,-42.50 Q175.05,-42.80 176.00,-43.50 Q176.95,-44.25 177.70,-44.45 L176.40,-44.45 L175.80,-44.85 L174.90,-45.10 L173.20,-43.50 Q171.00,-41.95 168.25,-42.30 M196.70,-43.55 L202.65,-41.10 L201.60,-38.85 Q199.55,-38.85 198.15,-40.20 Q196.70,-41.60 196.70,-43.55 M183.45,-49.05 L193.95,-44.70 Q193.45,-44.45 190.90,-43.75 L188.35,-43.15 Q186.65,-43.15 184.90,-43.85 Q181.90,-45.10 182.10,-47.85 L183.45,-49.05 M200.25,-26.00 Q197.70,-25.75 195.85,-27.05 Q193.70,-28.55 193.40,-31.85 Q194.25,-32.15 197.55,-34.25 Q201.00,-36.40 201.40,-37.00 L200.25,-26.00 M212.10,126.95 L214.30,128.10 L211.80,128.25 L212.10,126.95 M211.60,129.15 L216.00,129.00 L218.45,130.25 L218.80,136.50 L209.65,137.30 L211.60,129.15 M209.35,138.55 L210.85,138.75 L210.90,141.40 L211.05,146.00 L207.40,143.90 Q208.70,142.50 209.35,138.55 M206.50,144.25 L213.15,148.60 Q209.60,152.05 207.45,152.05 Q203.40,150.90 200.65,148.65 L206.50,144.25 M213.45,148.85 L218.50,151.15 L216.95,157.35 Q215.55,156.55 214.30,153.40 Q213.15,150.35 213.45,148.85 M218.80,149.85 Q214.75,149.70 213.15,146.75 Q211.80,144.35 211.70,138.85 L212.00,138.90 Q213.05,138.35 219.45,137.85 L222.20,140.95 L219.80,145.85 L218.80,149.85 M222.80,139.75 Q219.20,132.55 219.20,130.65 L225.60,133.95 L222.80,139.75 M172.15,120.95 L177.40,112.60 L178.75,113.10 Q182.30,114.40 182.95,115.85 L183.10,116.20 Q183.40,117.30 182.55,118.30 L181.95,118.45 L181.90,118.95 L181.85,119.00 L180.90,119.60 L180.90,119.55 L180.75,119.70 Q179.10,120.55 176.65,120.85 L172.15,120.95 M172.15,122.45 L174.40,130.05 Q173.65,130.80 172.20,131.10 L168.65,131.20 L171.50,122.35 L172.15,122.45 M177.90,138.90 L181.15,139.15 L192.70,145.30 L191.05,148.35 L188.25,150.20 L188.50,150.80 Q184.10,150.80 181.00,147.35 Q177.90,143.85 177.90,138.90 M215.20,164.40 L213.50,162.85 L214.55,160.50 L213.50,160.90 L211.00,161.75 L209.20,162.10 Q206.60,162.10 203.95,160.45 Q200.95,158.55 200.95,156.00 L202.60,153.80 L203.55,153.10 Q205.80,152.95 209.15,154.90 Q214.30,157.90 216.60,158.80 L215.20,164.40 Z"/>
        <path fill="#B26227" fill-opacity="1.00" d="M202.65,-41.10 L204.35,-43.40 L205.45,-44.90 L205.90,-45.55 Q205.90,-44.70 206.90,-44.05 Q207.90,-43.45 209.35,-43.45 Q206.65,-38.90 205.50,-34.85 L202.50,-21.05 L199.80,-21.85 L200.10,-24.50 L200.25,-26.00 L201.40,-37.00 L201.60,-38.85 L202.65,-41.10 Z"/>
        <path fill="#FEF9C2" fill-opacity="1.00" d="M171.60,-25.15 Q170.65,-25.60 169.55,-27.95 Q168.30,-30.65 168.80,-32.90 Q172.50,-29.60 186.05,-24.80 L205.10,-18.40 L204.20,-12.45 L171.60,-25.15 Z"/>
        <path fill="#A9A578" fill-opacity="1.00" d="M168.80,-32.90 L168.80,-34.45 L169.10,-34.35 L175.20,-31.85 L180.35,-29.75 L187.05,-27.05 L199.80,-21.85 L202.50,-21.05 L205.70,-22.25 L205.65,-21.80 L205.10,-18.40 L186.05,-24.80 Q172.50,-29.60 168.80,-32.90 Z"/>
        <path fill="#A7A376" fill-opacity="1.00" d="M172.25,-15.45 L172.05,-18.45 L186.75,-6.50 L203.30,8.05 L203.40,13.60 L199.10,8.90 L195.65,5.35 L189.20,-0.95 L178.85,-10.15 L174.40,-13.75 L172.25,-15.45 Z"/>
        <path fill="#DEDBA8" fill-opacity="1.00" d="M172.05,-18.45 L171.75,-22.85 L202.90,-9.55 L202.95,-8.75 L203.30,8.05 L186.75,-6.50 L172.05,-18.45 Z"/>
        <path fill="#948474" fill-opacity="1.00" d="M171.75,-22.85 L171.60,-25.15 L204.20,-12.45 L202.90,-9.55 L171.75,-22.85 M229.50,-50.30 L229.50,-41.85 L229.50,-37.95 L229.20,-37.75 Q219.80,-32.85 210.40,-28.00 Q210.40,-37.25 216.00,-43.75 Q221.60,-50.30 229.50,-50.30 M257.20,43.05 L257.20,45.70 Q254.05,47.50 250.85,49.25 L249.55,49.95 L238.90,55.85 L220.20,46.40 L220.20,43.95 L238.70,53.55 L238.90,53.45 L257.20,43.05 M161.10,185.35 L153.80,189.55 L153.80,131.00 L160.80,126.25 L156.40,137.35 Q156.80,139.00 158.00,140.35 Q159.25,141.75 161.10,142.45 L161.10,185.35 M106.10,51.85 L115.75,56.30 L94.80,67.35 L94.70,52.45 L106.10,51.85 Z"/>
        <path fill="#B09F8D" fill-opacity="1.00" d="M229.50,-41.85 L235.50,-38.55 L229.50,-37.80 L229.50,-37.95 L229.50,-41.85 M260.50,32.45 Q260.55,36.80 259.50,39.75 Q258.60,42.25 257.20,43.05 L238.90,53.45 L238.90,44.75 L260.50,32.45 Z"/>
        <path fill="#A18D82" fill-opacity="1.00" d="M235.50,-38.55 Q235.45,-33.90 235.10,-32.45 Q234.60,-30.45 231.20,-26.25 L204.20,-12.45 L205.10,-18.40 L205.65,-21.80 L235.50,-38.55 Z"/>
        <path fill="#BCAB97" fill-opacity="1.00" d="M235.50,-38.55 L205.65,-21.80 L205.70,-22.25 L206.35,-25.90 L210.40,-28.00 Q219.80,-32.85 229.20,-37.75 L229.50,-37.80 L235.50,-38.55 Z"/>
        <path fill="#89756C" fill-opacity="1.00" d="M231.20,-21.35 L231.20,24.40 L230.85,24.60 L229.70,25.20 L223.40,28.60 L215.60,32.85 Q215.75,35.70 217.60,39.75 Q219.30,43.30 220.20,43.95 L220.20,46.40 L220.20,65.45 L207.80,74.15 L207.25,74.05 Q204.95,74.15 197.75,76.50 L197.30,76.65 L196.40,81.55 L144.45,116.15 L144.40,116.15 L143.95,75.15 L147.65,77.10 L146.90,77.70 L148.75,77.70 Q149.05,77.85 149.15,77.95 L149.90,78.05 L153.65,77.70 L159.65,77.50 L159.65,96.95 L205.80,68.75 L205.80,55.60 L205.80,50.15 Q210.30,48.20 212.25,45.45 Q214.05,42.90 214.05,39.35 Q214.05,37.20 213.25,34.10 L211.90,30.05 Q211.75,29.30 207.05,19.30 L203.40,13.60 L203.30,8.05 L202.95,-8.75 L231.20,-21.35 Z"/>
        <path fill="#F6F3E0" fill-opacity="1.00" d="M253.50,28.95 L260.50,32.45 L238.90,44.75 L215.60,32.85 L223.40,28.60 Q224.60,31.95 225.65,33.10 Q226.65,34.15 230.60,36.50 L232.10,37.25 L238.45,40.40 Q241.15,39.00 243.80,37.55 L245.35,36.75 Q251.25,33.00 252.45,31.60 Q253.20,30.65 253.50,28.95 Z"/>
        <path fill="#A14202" fill-opacity="1.00" d="M253.50,28.95 Q253.20,30.65 252.45,31.60 Q251.25,33.00 245.35,36.75 L245.15,32.25 L252.35,28.40 L253.50,28.95 M243.60,33.05 L243.80,37.55 Q241.15,39.00 238.45,40.40 L238.45,35.80 L243.60,33.05 Z"/>
        <path fill="#842705" fill-opacity="1.00" d="M243.60,33.05 L245.15,32.25 L245.35,36.75 L243.80,37.55 L243.60,33.05 Z"/>
        <path fill="#B05C13" fill-opacity="1.00" d="M243.60,33.05 L240.15,31.10 L241.55,30.35 L245.15,32.25 L243.60,33.05 M230.85,24.60 L234.85,26.75 L233.65,27.50 L229.70,25.20 L230.85,24.60 Z"/>
        <path fill="#D87D0B" fill-opacity="1.00" d="M245.55,25.00 L252.35,28.40 L245.15,32.25 L241.55,30.35 L244.00,28.95 L241.40,27.35 L245.55,25.00 Z"/>
        <path fill="#C3BFB6" fill-opacity="1.00" d="M257.20,45.70 L257.20,49.45 L255.50,49.95 L253.55,50.25 Q252.30,50.25 250.85,49.25 Q254.05,47.50 257.20,45.70 Z"/>
        <path fill="#C0710A" fill-opacity="1.00" d="M244.25,24.35 L245.55,25.00 L241.40,27.35 L240.20,26.65 L244.25,24.35 Z"/>
        <path fill="#8D877B" fill-opacity="1.00" d="M257.20,49.45 L257.20,51.60 Q255.85,52.40 254.35,52.40 Q251.80,51.95 249.55,49.95 L250.85,49.25 Q252.30,50.25 253.55,50.25 L255.50,49.95 L257.20,49.45 Z"/>
        <path fill="url(#G2)" d="M257.20,51.60 L257.20,70.85 L238.90,81.55 L238.90,73.95 Q242.70,71.85 244.35,70.20 Q247.15,67.50 247.15,64.20 Q247.15,62.90 246.25,62.15 Q245.50,61.55 244.65,61.55 L238.90,64.90 L238.90,55.85 L249.55,49.95 Q251.80,51.95 254.35,52.40 Q255.85,52.40 257.20,51.60 Z"/>
        <path fill="#8E7D6B" fill-opacity="1.00" d="M238.90,64.90 L244.65,61.55 Q245.50,61.55 246.25,62.15 Q247.15,62.90 247.15,64.20 Q247.15,67.50 244.35,70.20 Q242.70,71.85 238.90,73.95 L238.90,71.85 L238.90,71.75 Q241.15,70.55 243.05,68.55 Q245.15,66.30 245.85,63.90 Q245.80,63.20 245.20,62.80 L244.55,62.55 L241.45,64.65 L240.95,65.05 Q240.15,65.45 239.70,65.95 L238.90,66.55 L238.90,65.10 L238.90,64.90 Z"/>
        <path fill="#E1D5C5" fill-opacity="1.00" d="M240.95,65.05 L241.45,64.65 L244.55,62.55 L245.20,62.80 Q245.80,63.20 245.85,63.90 Q242.95,63.90 240.95,65.05 M239.70,65.95 Q238.95,66.75 238.90,67.70 L238.90,66.55 L239.70,65.95 Z"/>
        <path fill="#D2C2B5" fill-opacity="1.00" d="M239.70,65.95 Q240.15,65.45 240.95,65.05 Q242.95,63.90 245.85,63.90 Q245.15,66.30 243.05,68.55 Q241.15,70.55 238.90,71.75 L238.90,67.75 L238.90,67.70 Q238.95,66.75 239.70,65.95 Z"/>
        <path fill="#7A6971" fill-opacity="1.00" d="M257.20,70.85 L259.90,72.75 L238.90,81.55 L257.20,70.85 Z"/>
        <path fill="#A39DAB" fill-opacity="1.00" d="M259.90,72.75 L260.15,72.95 L250.90,78.10 L249.10,77.45 L248.35,79.50 Q243.55,82.40 238.60,84.60 L225.80,78.65 L228.10,76.35 L238.90,81.55 L259.90,72.75 Z"/>
        <path fill="#413C52" fill-opacity="1.00" d="M248.35,79.50 L249.10,77.45 L250.90,78.10 L250.70,80.55 L248.35,79.50 Z"/>
        <path fill="#4B4961" fill-opacity="1.00" d="M248.35,79.50 L250.70,80.55 L250.90,78.10 L260.15,72.95 L260.80,81.90 Q260.90,84.35 258.25,87.65 Q255.35,91.30 250.85,93.65 L238.50,91.70 L238.60,84.60 Q243.55,82.40 248.35,79.50 Z"/>
        <path fill="#CB9238" fill-opacity="1.00" d="M259.20,98.20 L260.05,98.45 Q258.90,99.00 256.95,100.10 Q254.35,101.60 253.95,102.05 Q232.90,96.00 225.50,93.15 Q222.75,92.05 215.85,88.40 L216.35,87.95 Q226.30,93.30 237.85,96.50 Q247.65,99.20 253.60,99.20 L256.40,98.85 L259.20,98.20 M261.50,97.70 L260.65,97.55 L264.15,95.75 L265.00,95.85 L261.50,97.70 Z"/>
        <path fill="#39120D" fill-opacity="1.00" d="M261.50,97.70 L260.05,98.45 L259.20,98.20 L252.70,96.35 L260.65,97.55 L261.50,97.70 Z"/>
        <path fill="#9F5926" fill-opacity="1.00" d="M238.50,91.70 L250.85,93.65 L253.30,94.05 L264.15,95.75 L260.65,97.55 L252.70,96.35 L259.20,98.20 L256.40,98.85 L253.60,99.20 Q247.65,99.20 237.85,96.50 Q226.30,93.30 216.35,87.95 L220.80,83.70 L228.60,87.55 Q236.35,91.15 238.50,91.70 M266.30,180.80 L293.50,166.65 L293.90,171.55 L292.65,170.25 L268.40,182.55 L266.30,180.80 Z"/>
        <path fill="#3A130C" fill-opacity="1.00" d="M307.00,113.25 Q306.65,116.05 304.95,117.90 L298.40,123.35 L298.40,119.20 L302.40,116.75 L286.65,110.75 L281.00,108.75 L269.65,109.70 Q257.80,111.50 254.60,115.55 Q242.20,131.20 237.05,143.05 Q234.35,149.30 232.75,155.55 L230.95,157.30 Q233.85,148.90 238.20,139.30 Q246.85,120.25 254.60,112.65 L253.95,102.05 Q254.35,101.60 256.95,100.10 Q258.90,99.00 260.05,98.45 L261.50,97.70 L265.00,95.85 L265.35,101.70 L279.65,102.55 Q287.65,103.30 289.75,104.40 L307.00,113.25 Z"/>
        <path fill="#793913" fill-opacity="1.00" d="M260.80,81.90 L278.15,92.30 L269.30,91.55 L263.60,92.15 L253.30,94.05 L250.85,93.65 Q255.35,91.30 258.25,87.65 Q260.90,84.35 260.80,81.90 Z"/>
        <path fill="#C65E21" fill-opacity="1.00" d="M278.15,92.30 L310.00,111.35 L289.75,104.40 Q287.65,103.30 279.65,102.55 L265.35,101.70 L265.00,95.85 L264.15,95.75 L253.30,94.05 L263.60,92.15 L269.30,91.55 L278.15,92.30 Z"/>
        <path fill="#F2B316" fill-opacity="1.00" d="M231.20,24.40 Q235.80,22.90 237.65,22.90 Q241.95,22.90 244.25,24.35 L240.20,26.65 L237.60,25.05 L234.85,26.75 L230.85,24.60 L231.20,24.40 M223.40,28.60 L229.70,25.20 L233.65,27.50 L231.40,28.85 L233.85,30.25 L230.60,32.05 L223.40,28.60 Z"/>
        <path fill="#B55717" fill-opacity="1.00" d="M199.10,8.90 L203.40,13.60 L207.05,19.30 L203.15,18.90 Q200.40,18.30 199.55,17.20 L199.85,18.20 Q200.15,19.85 199.35,24.05 Q198.60,28.00 197.95,29.35 L205.50,31.10 L208.65,31.45 L209.45,31.45 L203.95,34.55 Q203.30,34.50 200.65,33.20 Q197.85,31.85 197.60,31.35 L199.00,37.35 L196.50,38.75 L196.85,35.65 L196.55,33.90 L195.90,31.30 L192.50,32.25 L189.70,32.75 L182.90,31.90 L183.00,32.25 L183.10,33.35 Q183.10,35.40 182.10,37.35 L177.60,44.00 L182.50,46.70 L180.15,48.00 L176.65,45.60 L177.80,49.35 L175.20,50.80 Q174.40,46.95 172.70,46.00 Q171.05,45.10 164.25,44.55 Q164.80,46.60 162.40,50.15 Q159.95,53.85 157.25,54.45 Q155.45,54.30 153.20,53.45 Q150.45,52.40 149.80,51.15 L154.45,51.65 Q161.50,51.65 161.50,43.75 Q161.50,39.95 159.80,39.95 L156.65,40.55 L154.20,41.15 L152.00,40.75 L149.40,39.75 L151.40,38.25 Q152.30,38.25 156.70,36.65 Q161.35,35.00 162.00,34.30 L166.35,32.15 Q166.20,34.10 164.85,36.05 Q163.70,37.65 162.85,38.05 Q163.25,41.15 166.80,42.65 Q169.15,43.65 171.45,43.65 Q175.25,43.65 177.25,41.60 Q179.20,39.60 179.20,35.75 Q179.20,34.50 178.50,32.10 Q177.80,29.65 177.15,28.65 Q175.85,29.75 174.35,30.05 L170.80,29.90 Q172.10,29.30 173.35,28.65 L171.20,26.95 Q175.00,26.95 177.70,24.00 Q180.35,21.00 180.35,16.75 L182.25,15.30 Q182.35,18.05 181.00,22.15 L179.60,26.30 Q179.60,28.40 182.40,29.45 Q184.70,30.35 187.90,30.35 Q193.55,30.35 196.15,27.05 Q197.80,24.95 197.80,22.50 Q197.80,19.10 196.80,16.90 Q196.00,15.20 195.35,15.20 L191.80,15.80 L188.85,16.35 Q184.35,15.40 183.15,14.65 L185.15,13.15 Q187.30,13.95 188.05,13.95 Q191.40,13.95 193.00,12.80 Q196.95,10.00 199.10,8.90 Z"/>
        <path fill="#E08723" fill-opacity="1.00" d="M209.45,31.45 L208.65,31.45 L205.50,31.10 L197.95,29.35 Q198.60,28.00 199.35,24.05 Q200.15,19.85 199.85,18.20 L199.55,17.20 Q200.40,18.30 203.15,18.90 L207.05,19.30 Q211.75,29.30 211.90,30.05 L209.45,31.45 M199.00,37.35 L197.60,31.35 Q197.85,31.85 200.65,33.20 Q203.30,34.50 203.95,34.55 L199.00,37.35 Z"/>
        <path fill="#B35716" fill-opacity="1.00" d="M199.00,37.35 L197.50,42.05 Q196.10,46.05 195.50,46.45 Q197.95,47.50 199.65,47.85 L201.65,48.00 Q205.75,48.00 208.95,46.30 Q212.70,44.30 212.70,40.95 Q212.70,34.25 207.35,34.25 L203.95,34.55 L209.45,31.45 L211.90,30.05 L213.25,34.10 Q214.05,37.20 214.05,39.35 Q214.05,42.90 212.25,45.45 Q210.30,48.20 205.80,50.15 L201.70,51.20 L199.60,50.85 L194.00,49.25 Q194.15,52.85 193.80,54.70 Q193.50,55.70 191.95,57.90 L189.75,60.55 Q188.60,61.55 184.10,62.95 L179.30,64.20 L174.90,63.95 Q174.50,64.15 169.70,68.45 L169.85,68.25 Q172.15,65.65 171.75,62.75 L169.25,62.70 L166.10,62.90 L161.60,61.75 Q161.20,63.45 159.50,65.85 Q157.60,68.50 156.20,68.75 Q159.00,70.75 163.40,71.00 Q166.40,71.00 168.55,69.45 L164.10,73.00 L159.65,73.25 L157.10,72.60 L154.20,71.75 L154.60,66.15 Q156.30,66.15 157.50,64.40 Q158.65,62.65 158.65,60.15 L156.40,59.15 L154.45,58.35 L154.10,58.20 Q154.85,60.45 154.85,62.50 L154.80,63.00 L152.60,59.70 L138.35,41.80 L137.10,40.05 L135.70,38.80 Q119.30,21.00 109.70,15.00 Q105.10,12.10 97.70,8.80 L80.60,1.30 L80.60,-2.25 L90.70,1.55 L91.70,1.90 L100.70,5.30 L102.90,6.55 L106.85,9.10 L113.15,13.20 L117.35,15.90 L119.50,17.80 L119.55,17.85 L128.30,25.50 L130.50,27.45 L136.75,32.90 L139.00,34.85 L141.00,36.75 L144.85,43.10 L145.00,43.25 L146.70,46.10 L149.80,51.15 Q150.45,52.40 153.20,53.45 Q155.45,54.30 157.25,54.45 Q157.70,55.45 161.30,58.70 Q165.35,59.95 167.55,59.95 Q171.25,59.95 172.85,58.20 Q174.75,56.20 175.20,50.80 L177.80,49.35 Q177.80,52.70 175.90,59.45 Q175.90,60.35 176.75,60.65 L181.40,61.05 Q185.85,61.05 188.70,58.05 Q191.40,55.25 191.40,51.40 L191.25,49.35 Q187.00,49.65 184.60,49.45 Q181.45,49.15 180.15,48.00 L182.50,46.70 Q188.30,46.70 192.40,44.40 Q196.50,42.05 196.50,38.75 L199.00,37.35 Z"/>
        <path fill="#CA791E" fill-opacity="1.00" d="M199.00,37.35 L203.95,34.55 L207.35,34.25 Q212.70,34.25 212.70,40.95 Q212.70,44.30 208.95,46.30 Q205.75,48.00 201.65,48.00 L199.65,47.85 Q197.95,47.50 195.50,46.45 Q196.10,46.05 197.50,42.05 L199.00,37.35 M196.50,38.75 Q196.50,42.05 192.40,44.40 Q188.30,46.70 182.50,46.70 L196.50,38.75 M180.15,48.00 Q181.45,49.15 184.60,49.45 Q187.00,49.65 191.25,49.35 L191.40,51.40 Q191.40,55.25 188.70,58.05 Q185.85,61.05 181.40,61.05 L176.75,60.65 Q175.90,60.35 175.90,59.45 Q177.80,52.70 177.80,49.35 L180.15,48.00 M168.55,69.45 Q166.40,71.00 163.40,71.00 Q159.00,70.75 156.20,68.75 Q157.60,68.50 159.50,65.85 Q161.20,63.45 161.60,61.75 L166.10,62.90 L169.25,62.70 L171.75,62.75 Q172.15,65.65 169.85,68.25 L169.70,68.45 L169.60,68.50 L168.55,69.45 M154.80,63.00 L154.85,62.50 L158.65,60.15 Q158.65,62.65 157.50,64.40 Q156.30,66.15 154.60,66.15 L154.65,65.20 L154.80,63.00 Z"/>
        <path fill="#F6F7BE" fill-opacity="1.00" d="M220.20,43.95 Q219.30,43.30 217.60,39.75 Q215.75,35.70 215.60,32.85 L238.90,44.75 L238.90,53.45 L238.70,53.55 L220.20,43.95 Z"/>
        <path fill="#B65310" fill-opacity="1.00" d="M241.55,30.35 L240.15,31.10 L237.70,32.45 L237.60,25.05 L240.20,26.65 L241.40,27.35 L244.00,28.95 L241.55,30.35 Z"/>
        <path fill="#9A3D12" fill-opacity="1.00" d="M234.85,26.75 L237.60,25.05 L237.70,32.45 L235.15,31.00 L233.85,30.25 L231.40,28.85 L233.65,27.50 L234.85,26.75 Z"/>
        <path fill="#E1A418" fill-opacity="1.00" d="M240.15,31.10 L243.60,33.05 L238.45,35.80 L232.10,32.80 L235.15,31.00 L237.70,32.45 L240.15,31.10 Z"/>
        <path fill="#C5720C" fill-opacity="1.00" d="M235.15,31.00 L232.10,32.80 L230.60,32.05 L233.85,30.25 L235.15,31.00 Z"/>
        <path fill="#C67410" fill-opacity="1.00" d="M230.60,32.05 L232.10,32.80 L232.10,37.25 L230.60,36.50 L230.60,32.05 Z"/>
        <path fill="#E38513" fill-opacity="1.00" d="M230.60,32.05 L230.60,36.50 Q226.65,34.15 225.65,33.10 Q224.60,31.95 223.40,28.60 L230.60,32.05 M232.10,32.80 L238.45,35.80 L238.45,40.40 L232.10,37.25 L232.10,32.80 Z"/>
        <path fill="#E08721" fill-opacity="1.00" d="M195.65,5.35 L199.10,8.90 Q196.95,10.00 193.00,12.80 Q191.40,13.95 188.05,13.95 Q187.30,13.95 185.15,13.15 L195.65,5.35 M144.85,43.10 L141.00,36.75 L142.55,36.30 L144.20,40.10 Q144.75,41.35 144.95,43.00 L144.85,43.10 M180.35,16.75 Q180.35,21.00 177.70,24.00 Q175.00,26.95 171.20,26.95 L168.95,25.20 L180.35,16.75 M162.00,34.30 Q161.35,35.00 156.70,36.65 Q152.30,38.25 151.40,38.25 L148.55,36.25 L145.95,34.25 L147.05,33.35 Q152.85,35.65 156.10,35.65 L159.65,35.05 L162.00,34.30 M146.60,41.80 L145.55,38.05 L149.40,39.75 L146.60,41.80 Z"/>
        <path fill="#E06A10" fill-opacity="1.00" d="M146.60,41.80 L149.40,39.75 L152.00,40.75 L154.20,41.15 L156.65,40.55 L159.80,39.95 Q161.50,39.95 161.50,43.75 Q161.50,51.65 154.45,51.65 L149.80,51.15 L146.70,46.10 L146.60,41.80 M183.15,14.65 Q184.35,15.40 188.85,16.35 L191.80,15.80 L195.35,15.20 Q196.00,15.20 196.80,16.90 Q197.80,19.10 197.80,22.50 Q197.80,24.95 196.15,27.05 Q193.55,30.35 187.90,30.35 Q184.70,30.35 182.40,29.45 Q179.60,28.40 179.60,26.30 L181.00,22.15 Q182.35,18.05 182.25,15.30 L183.15,14.65 M170.80,29.90 L174.35,30.05 Q175.85,29.75 177.15,28.65 Q177.80,29.65 178.50,32.10 Q179.20,34.50 179.20,35.75 Q179.20,39.60 177.25,41.60 Q175.25,43.65 171.45,43.65 Q169.15,43.65 166.80,42.65 Q163.25,41.15 162.85,38.05 Q163.70,37.65 164.85,36.05 Q166.20,34.10 166.35,32.15 L170.80,29.90 M177.80,49.35 L176.65,45.60 L180.15,48.00 L177.80,49.35 M182.50,46.70 L177.60,44.00 L182.10,37.35 Q183.10,35.40 183.10,33.35 L183.00,32.25 L182.90,31.90 L189.70,32.75 L192.50,32.25 L195.90,31.30 L196.55,33.90 L196.85,35.65 L196.50,38.75 L182.50,46.70 Z"/>
        <path fill="#DF8622" fill-opacity="1.00" d="M161.30,58.70 Q157.70,55.45 157.25,54.45 Q159.95,53.85 162.40,50.15 Q164.80,46.60 164.25,44.55 Q171.05,45.10 172.70,46.00 Q174.40,46.95 175.20,50.80 L161.30,58.70 Z"/>
        <path fill="#3A1D0D" fill-opacity="1.00" d="M201.70,55.75 L201.70,51.20 L205.80,50.15 L205.80,55.60 L201.70,55.75 Z"/>
        <path fill="#375464" fill-opacity="1.00" d="M201.70,55.75 Q198.45,55.75 196.15,58.00 Q193.85,60.20 193.80,63.25 L193.80,54.70 Q194.15,52.85 194.00,49.25 L199.60,50.85 L201.70,51.20 L201.70,55.75 Z"/>
        <path fill="#43667A" fill-opacity="1.00" d="M201.70,55.75 L201.70,62.95 L193.80,67.80 L193.80,63.65 L193.80,63.25 Q193.85,60.20 196.15,58.00 Q198.45,55.75 201.70,55.75 M189.75,66.45 L189.75,70.30 L179.30,76.70 L179.30,68.70 Q185.35,69.55 189.75,66.45 M174.90,71.55 L174.90,79.40 L164.10,86.05 L164.10,79.15 L164.10,78.80 L174.90,71.55 Z"/>
        <path fill="#391C0A" fill-opacity="1.00" d="M174.90,71.55 L174.90,63.95 L179.30,64.20 L179.30,68.70 Q178.95,68.80 177.15,70.05 L174.90,71.55 M193.80,54.70 L193.80,63.25 L193.80,63.65 L189.75,66.45 L189.75,60.55 L191.95,57.90 Q193.50,55.70 193.80,54.70 Z"/>
        <path fill="#7D3C12" fill-opacity="1.00" d="M179.30,76.70 L189.75,70.30 Q189.00,72.00 187.15,73.50 L179.30,79.05 L179.30,76.70 M193.80,67.80 L201.70,62.95 Q201.15,64.50 199.70,65.75 L193.80,70.00 L193.80,67.80 M174.90,79.40 Q173.20,82.30 170.90,84.00 L164.10,88.55 L164.10,86.05 L174.90,79.40 Z"/>
        <path fill="#462310" fill-opacity="1.00" d="M174.90,79.40 L174.90,71.55 L177.15,70.05 Q178.95,68.80 179.30,68.70 L179.30,76.70 L179.30,79.05 L187.15,73.50 Q189.00,72.00 189.75,70.30 L189.75,66.45 L193.80,63.65 L193.80,67.80 L193.80,70.00 L199.70,65.75 Q201.15,64.50 201.70,62.95 L201.70,55.75 L205.80,55.60 L205.80,68.75 L159.65,96.95 L159.65,77.50 L163.75,79.05 L164.10,79.15 L164.10,86.05 L164.10,88.55 L170.90,84.00 Q173.20,82.30 174.90,79.40 Z"/>
        <path fill="#385364" fill-opacity="1.00" d="M189.75,60.55 L189.75,66.45 Q185.35,69.55 179.30,68.70 L179.30,64.20 L184.10,62.95 Q188.60,61.55 189.75,60.55 M169.70,68.45 Q174.50,64.15 174.90,63.95 L174.90,71.55 L164.10,78.80 L164.10,73.00 L168.55,69.45 L169.60,68.50 L169.70,68.45 Z"/>
        <path fill="#CB7A1F" fill-opacity="1.00" d="M175.20,50.80 Q174.75,56.20 172.85,58.20 Q171.25,59.95 167.55,59.95 Q165.35,59.95 161.30,58.70 L175.20,50.80 Z"/>
        <path fill="#391C0E" fill-opacity="1.00" d="M163.75,79.05 L159.65,77.50 L159.65,73.25 L164.10,73.00 L164.10,78.80 L163.75,79.05 Z"/>
        <path fill="#582B0E" fill-opacity="1.00" d="M196.40,81.55 L197.30,76.65 L215.85,88.40 L210.20,91.85 L202.40,86.65 L201.55,85.05 L196.40,81.55 M94.00,48.10 Q97.40,47.90 100.75,48.10 L108.85,48.85 L117.40,53.55 L123.50,61.20 Q129.15,68.60 129.50,69.45 L130.40,72.75 L130.40,103.10 L129.80,103.35 L89.80,80.35 L89.00,53.75 L94.00,48.10 M115.75,56.30 L106.10,51.85 L92.50,51.60 L92.50,79.05 L94.90,80.35 L126.70,97.05 L126.70,95.95 L126.70,93.85 L126.70,91.60 L126.70,78.45 L126.70,76.20 L126.60,71.35 L125.10,65.15 L124.50,64.00 L115.75,56.30 Z"/>
        <path fill="#71411D" fill-opacity="1.00" d="M197.75,76.50 Q204.95,74.15 207.25,74.05 L207.80,74.15 L216.40,80.50 L220.80,83.70 L216.35,87.95 L197.75,76.50 M196.40,81.55 L201.55,85.05 Q193.85,90.40 185.45,97.70 Q179.55,102.80 178.05,104.45 L171.10,105.75 Q173.35,102.80 183.35,93.35 Q192.85,84.30 196.40,81.55 Z"/>
        <path fill="#7F5120" fill-opacity="1.00" d="M216.35,87.95 L215.85,88.40 L197.30,76.65 L197.75,76.50 L216.35,87.95 Z"/>
        <path fill="#A77009" fill-opacity="1.00" d="M202.40,86.65 L210.20,91.85 L205.20,95.80 Q202.30,95.80 200.30,94.05 Q198.25,92.25 198.25,89.70 L202.40,86.65 M186.85,98.10 L188.40,98.50 L187.15,102.50 Q186.05,102.85 183.65,104.60 Q180.65,106.80 179.95,108.60 L178.20,108.20 L180.80,103.90 L182.30,102.05 Q183.60,100.70 186.85,98.10 M188.15,102.35 L188.55,99.15 L198.20,98.30 L199.10,97.95 L197.90,100.95 L188.15,102.35 M198.85,100.90 Q199.25,100.40 200.45,96.80 L202.95,97.60 L198.85,100.90 M200.30,96.70 L193.80,97.25 L188.50,97.55 L187.70,97.50 L196.60,90.95 Q197.30,93.20 200.30,96.70 Z"/>
        <path fill="#B45618" fill-opacity="1.00" d="M200.30,96.70 L200.45,96.80 Q199.25,100.40 198.85,100.90 Q199.00,104.00 201.65,105.15 Q203.30,105.90 206.55,105.90 L210.35,105.25 L209.05,101.40 Q209.15,100.00 209.85,97.40 L211.65,96.95 Q209.10,102.65 212.35,104.65 Q214.05,105.70 218.00,105.70 Q220.60,105.70 222.95,104.70 L228.25,102.05 L229.20,102.40 Q228.70,103.90 226.80,107.20 L226.85,108.20 L226.75,108.10 Q224.45,106.75 221.25,106.75 Q218.05,106.75 215.80,108.10 Q213.50,109.45 213.50,111.35 L213.70,112.45 Q212.60,109.95 212.15,107.15 L208.50,108.15 L205.25,108.90 L202.20,108.05 L199.15,107.20 L194.85,108.45 L193.70,108.25 L193.00,108.00 Q194.95,108.40 196.70,105.95 Q198.45,103.45 197.90,100.95 L199.10,97.95 L198.20,98.30 L188.55,99.15 L188.15,102.35 Q188.25,103.20 188.95,104.75 Q189.80,106.95 190.90,107.40 L189.55,106.85 L189.00,106.30 L187.15,102.50 L188.40,98.50 L186.85,98.10 L187.70,97.50 L188.50,97.55 L193.80,97.25 L200.30,96.70 M141.00,36.75 L139.00,34.85 L136.75,32.90 Q140.05,33.30 140.95,32.95 L144.85,30.80 Q145.50,31.85 147.05,33.35 L145.95,34.25 L142.55,36.30 L141.00,36.75 M130.50,27.45 L128.30,25.50 Q129.15,24.35 130.25,23.55 Q131.00,22.65 131.00,19.45 L130.65,17.70 L130.05,16.40 L129.25,15.95 Q128.45,17.30 126.80,18.05 Q125.35,18.65 123.70,18.65 L119.55,17.85 L119.50,17.80 Q121.20,16.65 122.85,15.45 L125.85,14.50 L128.35,13.45 L136.95,20.70 Q134.30,20.70 132.40,22.70 Q130.50,24.65 130.50,27.45 M213.65,116.25 L216.00,115.90 Q215.20,115.50 214.10,113.25 L213.90,112.80 Q214.40,113.80 215.80,114.60 Q218.05,115.95 221.25,115.95 Q224.45,115.95 226.75,114.60 Q228.60,113.50 228.95,112.05 Q231.25,113.85 236.10,113.85 Q238.10,113.85 240.95,112.90 L237.95,115.95 L230.20,114.65 L229.30,119.65 Q229.30,120.30 230.10,121.20 L231.50,122.55 L230.35,124.20 L228.25,122.50 Q227.55,121.25 227.80,117.10 L224.20,117.95 L221.40,118.40 L218.40,117.65 L216.90,117.20 L214.15,117.50 L213.65,116.25 Z"/>
        <path fill="#41210C" fill-opacity="1.00" d="M201.55,85.05 L202.40,86.65 L198.25,89.70 L196.60,90.95 L187.70,97.50 L186.85,98.10 Q183.60,100.70 182.30,102.05 L180.80,103.90 L178.05,104.45 Q179.55,102.80 185.45,97.70 Q193.85,90.40 201.55,85.05 Z"/>
        <path fill="#B55815" fill-opacity="1.00" d="M211.65,96.95 L209.85,97.40 L202.95,97.60 L200.45,96.80 L200.30,96.70 Q197.30,93.20 196.60,90.95 L198.25,89.70 Q198.25,92.25 200.30,94.05 Q202.30,95.80 205.20,95.80 Q206.30,96.00 209.35,95.20 Q212.30,94.45 213.10,93.85 L214.25,94.60 Q214.25,95.55 213.50,96.25 Q212.75,96.95 211.65,96.95 Z"/>
        <path fill="#7B3C13" fill-opacity="1.00" d="M65.10,99.75 Q61.10,99.75 58.25,95.15 Q55.40,90.55 55.40,84.05 L70.85,93.80 L65.10,99.75 M144.45,116.15 L196.40,81.55 Q192.85,84.30 183.35,93.35 Q173.35,102.80 171.10,105.75 L169.15,109.00 L159.30,116.15 L153.40,116.75 L144.45,116.15 M162.80,139.45 L162.60,142.95 L161.10,142.45 Q159.25,141.75 158.00,140.35 Q156.80,139.00 156.40,137.35 L162.80,139.45 M115.75,56.30 L124.50,64.00 L96.10,78.20 L94.90,77.55 L94.80,67.35 L115.75,56.30 M125.10,65.15 L126.60,71.35 L103.70,78.85 L113.35,84.20 L116.00,85.65 L126.70,91.60 L126.70,93.85 L97.90,79.10 L125.10,65.15 M129.10,107.80 L144.35,116.15 L138.95,114.45 L133.50,112.55 L133.45,112.55 L129.10,110.25 L129.10,107.80 M141.90,128.75 L141.90,139.50 Q141.65,139.75 140.60,139.25 L125.90,130.00 Q125.30,122.00 124.95,121.35 L124.80,118.95 L141.90,128.75 Z"/>
        <path fill="#FFFFF7" fill-opacity="1.00" d="M238.90,67.70 L238.90,67.75 L236.40,66.15 Q235.20,65.40 234.70,65.40 L233.55,65.50 L233.45,67.05 L233.25,65.60 L233.30,64.75 Q233.40,64.30 234.05,64.30 L236.10,65.15 L238.90,66.55 L238.90,67.70 Z"/>
        <path fill="#C4BCA7" fill-opacity="1.00" d="M238.90,71.85 L238.90,73.95 Q235.60,72.85 233.50,70.85 Q230.95,68.55 230.95,65.65 Q230.95,62.65 233.40,62.65 Q234.05,62.65 235.60,63.50 L238.90,65.10 L238.90,66.55 L236.10,65.15 L234.05,64.30 Q233.40,64.30 233.30,64.75 L233.25,65.60 L233.45,67.05 L236.00,69.35 L238.80,71.80 L238.90,71.85 Z"/>
        <path fill="#F3F0BB" fill-opacity="1.00" d="M238.90,55.85 L238.90,64.90 L238.90,65.10 L235.60,63.50 Q234.05,62.65 233.40,62.65 Q230.95,62.65 230.95,65.65 Q230.95,68.55 233.50,70.85 Q235.60,72.85 238.90,73.95 L238.90,81.55 L228.10,76.35 L222.65,73.55 L220.20,71.70 L220.20,65.45 L220.20,46.40 L238.90,55.85 Z"/>
        <path fill="#FDFEF8" fill-opacity="1.00" d="M238.90,67.75 L238.90,71.75 L238.80,71.80 L236.00,69.35 L233.45,67.05 L233.55,65.50 L234.70,65.40 Q235.20,65.40 236.40,66.15 L238.90,67.75 Z"/>
        <path fill="#AAA5A9" fill-opacity="1.00" d="M220.20,71.70 L222.65,73.55 L228.10,76.35 L225.80,78.65 L216.80,74.45 L220.20,71.70 Z"/>
        <path fill="#7A3C13" fill-opacity="1.00" d="M220.20,71.70 L216.80,74.45 Q216.60,75.05 216.40,80.50 L207.80,74.15 L220.20,65.45 L220.20,71.70 Z"/>
        <path fill="#767A86" fill-opacity="1.00" d="M238.60,84.60 L238.50,91.70 Q236.35,91.15 228.60,87.55 L220.80,83.70 L216.40,80.50 Q216.60,75.05 216.80,74.45 L225.80,78.65 L238.60,84.60 Z"/>
        <path fill="#E08625" fill-opacity="1.00" d="M179.95,108.60 Q180.65,106.80 183.65,104.60 Q186.05,102.85 187.15,102.50 L189.00,106.30 Q187.35,108.70 185.15,109.10 Q183.35,109.50 179.95,108.60 M189.55,106.85 L190.90,107.40 Q189.80,106.95 188.95,104.75 Q188.25,103.20 188.15,102.35 L197.90,100.95 Q198.45,103.45 196.70,105.95 Q194.95,108.40 193.00,108.00 L193.70,108.25 L194.85,108.45 L199.15,107.20 L202.20,108.05 L205.25,108.90 L208.50,108.15 L212.15,107.15 Q212.60,109.95 213.70,112.45 L213.50,111.35 Q213.50,109.45 215.80,108.10 Q218.05,106.75 221.25,106.75 Q224.45,106.75 226.75,108.10 L226.85,108.20 L226.80,107.20 Q228.70,103.90 229.20,102.40 L245.30,108.45 L240.95,112.90 Q238.10,113.85 236.10,113.85 Q231.25,113.85 228.95,112.05 Q228.60,113.50 226.75,114.60 Q224.45,115.95 221.25,115.95 Q218.05,115.95 215.80,114.60 Q214.40,113.80 213.90,112.80 L214.10,113.25 Q215.20,115.50 216.00,115.90 L213.65,116.25 Q211.85,114.55 210.95,113.15 L209.90,111.70 Q209.15,111.20 198.65,109.05 Q197.65,109.15 194.65,110.40 Q191.05,111.85 189.05,113.30 L188.50,110.20 L189.55,106.85 M228.25,102.05 L222.95,104.70 Q220.60,105.70 218.00,105.70 Q214.05,105.70 212.35,104.65 Q209.10,102.65 211.65,96.95 Q212.75,96.95 213.50,96.25 Q214.25,95.55 214.25,94.60 Q214.85,95.30 220.10,98.05 L228.25,102.05 M209.85,97.40 Q209.15,100.00 209.05,101.40 L210.35,105.25 L206.55,105.90 Q203.30,105.90 201.65,105.15 Q199.00,104.00 198.85,100.90 L202.95,97.60 L209.85,97.40 M205.20,95.80 L210.20,91.85 L213.10,93.85 Q212.30,94.45 209.35,95.20 Q206.30,96.00 205.20,95.80 M231.50,122.55 L230.10,121.20 Q229.30,120.30 229.30,119.65 L230.20,114.65 L237.95,115.95 L231.50,122.55 M218.40,117.65 L221.40,118.40 L224.20,117.95 L227.80,117.10 Q227.55,121.25 228.25,122.50 L230.35,124.20 L229.10,126.75 Q222.85,128.20 220.05,125.25 Q218.15,123.20 218.15,119.80 L218.40,117.65 M179.25,109.70 L186.35,110.70 L186.95,110.70 Q187.25,113.00 187.65,114.15 L187.20,114.45 L178.55,111.95 L178.50,110.90 L179.25,109.70 Z"/>
        <path fill="#7C3D12" fill-opacity="1.00" d="M215.85,88.40 Q222.75,92.05 225.50,93.15 Q232.90,96.00 253.95,102.05 L254.60,112.65 L251.40,110.15 L245.30,108.45 L229.20,102.40 L228.25,102.05 L220.10,98.05 Q214.85,95.30 214.25,94.60 L213.10,93.85 L210.20,91.85 L215.85,88.40 Z"/>
        <path fill="#9F5928" fill-opacity="1.00" d="M144.40,116.15 L144.45,116.15 L153.40,116.75 L159.30,116.15 L148.90,123.70 L145.20,125.00 L142.35,125.55 Q140.70,125.55 137.10,124.35 L138.30,121.15 Q137.10,121.90 135.85,121.90 L133.55,121.65 L125.40,118.70 L126.05,118.45 L128.55,117.20 L133.50,112.55 L138.95,114.45 L144.35,116.15 L144.40,116.15 M240.95,112.90 L245.30,108.45 L251.40,110.15 Q246.45,113.65 236.50,128.35 Q227.45,141.70 225.20,147.25 L219.80,145.85 L222.20,140.95 L222.80,139.75 L225.60,133.95 L228.45,128.10 L229.10,126.75 L230.35,124.20 L231.50,122.55 L237.95,115.95 L240.95,112.90 M169.15,109.00 L171.10,105.75 L178.05,104.45 L169.60,118.25 L164.70,116.35 L169.15,109.00 M135.60,42.55 L137.10,40.05 L138.35,41.80 L154.65,65.20 L154.60,66.15 L154.20,71.75 L135.60,42.55 M125.20,113.65 L126.70,112.75 L129.10,110.25 L133.45,112.55 L127.65,115.05 L125.20,113.65 Z"/>
        <path fill="#B45817" fill-opacity="1.00" d="M218.40,117.65 L218.15,119.80 Q218.15,123.20 220.05,125.25 Q222.85,128.20 229.10,126.75 L228.45,128.10 L227.15,128.45 L225.35,128.65 L223.20,128.75 Q220.90,128.50 219.65,127.00 L219.20,130.65 Q219.20,132.55 222.80,139.75 L222.20,140.95 L219.45,137.85 Q213.05,138.35 212.00,138.90 L211.70,138.85 Q211.80,144.35 213.15,146.75 Q214.75,149.70 218.80,149.85 L218.50,151.15 L213.45,148.85 L213.15,148.60 L206.50,144.25 L206.60,144.15 L207.40,143.90 L211.05,146.00 L210.90,141.40 L210.85,138.75 L209.35,138.55 L209.65,137.30 L218.80,136.50 L218.45,130.25 L218.55,128.00 Q216.95,128.90 216.00,129.00 L211.60,129.15 L211.80,128.25 L214.30,128.10 L216.70,127.30 Q218.45,126.60 218.75,126.30 Q217.70,125.25 217.15,123.15 Q216.70,121.40 216.70,119.55 L216.90,117.20 L218.40,117.65 M198.65,109.05 Q209.15,111.20 209.90,111.70 L210.95,113.15 Q211.85,114.55 213.65,116.25 L214.15,117.50 L213.50,121.00 L206.40,127.30 Q206.40,122.70 201.55,119.45 Q196.85,116.30 190.30,116.20 L189.85,116.20 L186.10,120.15 L185.30,117.85 L185.20,116.40 L186.35,114.95 Q188.50,114.95 193.10,112.55 Q197.05,110.45 198.65,109.05 M171.00,120.20 L172.15,120.95 L171.50,122.35 L170.55,121.75 L171.00,120.20 Z"/>
        <path fill="#DE8624" fill-opacity="1.00" d="M214.15,117.50 L216.90,117.20 L216.70,119.55 Q216.70,121.40 217.15,123.15 Q217.70,125.25 218.75,126.30 Q218.45,126.60 216.70,127.30 L214.30,128.10 L212.10,126.95 L212.50,125.20 L213.50,121.00 L214.15,117.50 M216.00,129.00 Q216.95,128.90 218.55,128.00 L218.45,130.25 L216.00,129.00 M219.20,130.65 L219.65,127.00 Q220.90,128.50 223.20,128.75 L225.35,128.65 L227.15,128.45 L228.45,128.10 L225.60,133.95 L219.20,130.65 Z"/>
        <path fill="#867970" fill-opacity="1.00" d="M212.50,125.20 L212.10,126.95 L211.80,128.25 L211.60,129.15 L209.65,137.30 L209.35,138.55 Q208.70,142.50 207.40,143.90 L206.60,144.15 L206.40,140.35 L206.40,129.90 L212.50,125.20 Z"/>
        <path fill="#69605B" fill-opacity="1.00" d="M212.50,125.20 L206.40,129.90 L206.40,127.30 L213.50,121.00 L212.50,125.20 Z"/>
        <path fill="#41190D" fill-opacity="1.00" d="M206.40,129.90 L206.40,140.35 L205.25,139.85 Q205.25,130.05 200.75,123.15 Q196.40,116.45 190.30,116.20 Q196.85,116.30 201.55,119.45 Q206.40,122.70 206.40,127.30 L206.40,129.90 Z"/>
        <path fill="#A05A29" fill-opacity="1.00" d="M55.40,84.05 L80.25,71.85 Q80.15,75.95 81.40,79.30 Q82.55,82.35 84.30,83.40 Q73.50,91.40 70.85,93.80 L55.40,84.05 M205.25,139.85 L206.40,140.35 L200.35,145.25 L180.45,134.75 L185.50,131.30 L185.55,131.25 L205.25,139.85 M126.60,71.35 L126.70,76.20 L113.35,84.20 L103.70,78.85 L126.60,71.35 M126.70,78.45 L126.70,91.60 L116.00,85.65 L126.70,78.45 Z"/>
        <path fill="#ABAEBD" fill-opacity="1.00" d="M203.00,131.00 L203.15,138.00 L203.00,137.95 L199.05,133.45 L199.00,127.00 L203.00,131.00 M189.35,122.50 L191.65,119.65 L192.70,120.70 L195.40,123.40 L195.30,129.25 L190.95,124.30 L189.35,122.50 Z"/>
        <path fill="#66391C" fill-opacity="1.00" d="M205.25,139.85 L185.55,131.25 L185.50,131.30 L185.45,130.10 L185.45,129.45 L185.45,127.20 Q185.70,121.35 186.10,120.15 L189.85,116.20 L190.30,116.20 Q196.40,116.45 200.75,123.15 Q205.25,130.05 205.25,139.85 M203.00,137.95 L203.15,138.00 L203.00,131.00 L202.30,127.30 L198.95,121.45 L197.95,120.15 L194.80,119.30 L191.30,118.60 Q190.05,118.60 189.10,120.80 Q187.55,124.45 189.55,132.15 L191.20,132.85 L195.25,134.60 L197.45,135.55 L199.05,136.25 L203.00,137.95 Z"/>
        <path fill="#3B140D" fill-opacity="1.00" d="M168.50,192.60 L166.10,191.35 L166.10,141.10 L168.50,142.00 L168.50,149.65 L168.50,179.55 L168.50,182.25 L168.50,192.60 M153.80,189.55 L146.60,185.20 L146.60,143.75 L146.60,135.90 L153.80,131.00 L153.80,189.55 M206.60,144.15 L206.50,144.25 L200.65,148.65 L199.90,149.20 L199.90,145.55 L200.35,145.25 L206.40,140.35 L206.60,144.15 M189.55,132.15 Q187.55,124.45 189.10,120.80 Q190.05,118.60 191.30,118.60 L194.80,119.30 L197.95,120.15 L197.50,120.10 L195.40,119.90 L191.65,119.65 L189.35,122.50 L189.55,132.15 Z"/>
        <path fill="#6B3E27" fill-opacity="1.00" d="M166.10,191.35 Q164.20,190.30 162.75,188.45 Q161.45,186.75 161.10,185.35 L161.10,142.45 L162.60,142.95 L164.80,139.95 L166.10,141.10 L166.10,191.35 M118.30,176.95 L100.20,165.15 L110.55,148.40 L118.30,150.25 L118.30,176.95 M238.30,144.50 L237.80,146.95 L254.80,137.25 Q245.85,134.70 243.20,134.70 L242.45,134.75 L242.25,134.90 L240.50,137.90 Q239.50,140.00 238.30,144.50 M232.75,155.55 Q234.35,149.30 237.05,143.05 Q242.20,131.20 254.60,115.55 Q257.80,111.50 269.65,109.70 L281.00,108.75 L286.65,110.75 L302.40,116.75 L298.40,119.20 L289.80,124.35 L287.45,125.65 L232.75,155.55 M262.35,129.60 L262.35,132.95 L286.80,118.95 L284.20,117.20 Q277.85,113.25 275.80,112.90 L274.65,112.60 L271.40,121.00 Q269.45,124.80 264.00,129.55 L264.30,128.45 L268.60,113.05 Q265.85,113.60 264.05,118.75 Q262.40,123.50 262.35,129.60 M255.55,134.35 L257.85,135.40 Q258.20,135.30 258.20,116.75 L255.95,117.95 L247.10,128.75 L255.55,134.35 M123.70,140.40 L140.60,150.00 L140.60,156.30 L133.05,151.95 L123.70,146.50 L123.70,140.40 Z"/>
        <path fill="#573220" fill-opacity="1.00" d="M242.25,134.90 L242.45,134.75 L243.20,134.70 Q245.85,134.70 254.80,137.25 L237.80,146.95 L238.30,144.50 L250.90,137.75 L242.25,134.90 Z"/>
        <path fill="#796E6A" fill-opacity="1.00" d="M242.25,134.90 L250.90,137.75 L238.30,144.50 Q239.50,140.00 240.50,137.90 L242.25,134.90 M255.55,134.35 L247.10,128.75 L255.95,117.95 L255.55,134.35 Z"/>
        <path fill="#823F12" fill-opacity="1.00" d="M225.20,147.25 Q227.45,141.70 236.50,128.35 Q246.45,113.65 251.40,110.15 L254.60,112.65 Q246.85,120.25 238.20,139.30 Q233.85,148.90 230.95,157.30 L228.95,160.95 L228.95,164.55 Q227.90,167.90 225.60,169.85 Q223.70,171.40 221.95,171.40 L225.20,147.25 Z"/>
        <path fill="#874C22" fill-opacity="1.00" d="M225.20,147.25 L221.95,171.40 L221.45,171.45 L215.80,168.05 Q215.60,167.85 215.35,166.95 L215.00,165.30 L215.20,164.40 L216.60,158.80 L216.95,157.35 L218.50,151.15 L218.80,149.85 L219.80,145.85 L225.20,147.25 M268.40,200.70 L265.80,201.25 Q266.00,184.25 266.30,180.80 L268.40,182.55 L268.40,200.70 M254.70,192.55 L254.70,171.25 L256.25,172.15 L256.70,191.55 L254.70,192.55 Z"/>
        <path fill="#FBB90D" fill-opacity="1.00" d="M189.05,113.30 Q191.05,111.85 194.65,110.40 Q197.65,109.15 198.65,109.05 Q197.05,110.45 193.10,112.55 Q188.50,114.95 186.35,114.95 L187.20,114.45 L187.65,114.15 L189.05,113.30 Z"/>
        <path fill="#FC9829" fill-opacity="1.00" d="M186.35,114.95 L185.20,116.40 L183.10,116.20 L182.95,115.85 Q182.30,114.40 178.75,113.10 L178.55,111.95 L187.20,114.45 L186.35,114.95 Z"/>
        <path fill="#B65818" fill-opacity="1.00" d="M213.15,148.60 L213.45,148.85 Q213.15,150.35 214.30,153.40 Q215.55,156.55 216.95,157.35 L216.60,158.80 Q214.30,157.90 209.15,154.90 Q205.80,152.95 203.55,153.10 L203.80,152.80 L199.90,149.20 L200.65,148.65 Q203.40,150.90 207.45,152.05 Q209.60,152.05 213.15,148.60 M185.20,116.40 L185.30,117.85 L185.20,117.65 L182.55,118.30 Q183.40,117.30 183.10,116.20 L185.20,116.40 M178.50,110.90 L178.55,111.95 L178.75,113.10 L177.40,112.60 L178.50,110.90 M181.90,118.95 Q181.75,121.00 182.95,123.55 Q184.10,126.05 185.45,127.20 L185.45,129.45 L184.95,129.15 Q180.95,121.50 180.90,119.60 L181.85,119.00 L181.90,118.95 M164.80,139.95 L165.10,138.95 L166.00,139.35 L169.70,140.60 L172.15,139.85 L176.55,138.10 L177.90,138.90 Q177.90,143.85 181.00,147.35 Q184.10,150.80 188.50,150.80 Q189.30,152.15 191.80,153.65 Q194.35,155.20 195.95,155.20 L201.10,154.90 Q201.75,154.70 202.60,153.80 L200.95,156.00 Q200.95,158.55 203.95,160.45 Q206.60,162.10 209.20,162.10 L211.00,161.75 L213.50,160.90 L214.55,160.50 L213.50,162.85 L215.20,164.40 L215.00,165.30 L213.35,163.85 Q212.70,163.15 212.00,163.15 L210.10,163.55 L208.15,163.95 Q205.10,163.95 203.75,163.25 Q203.00,162.80 201.95,161.30 Q199.35,157.60 192.30,155.25 Q183.55,153.15 180.65,151.55 Q176.10,149.10 175.20,141.40 L171.85,141.85 L168.50,142.00 L166.10,141.10 L164.80,139.95 M173.85,122.55 L172.15,122.45 L171.50,122.35 L172.15,120.95 L176.65,120.85 Q179.10,120.55 180.75,119.70 Q179.95,120.30 177.55,121.30 L173.85,122.55 M192.70,145.30 L194.25,146.15 L191.05,148.35 L192.70,145.30 Z"/>
        <path fill="#FF9527" fill-opacity="1.00" d="M185.30,117.85 L186.10,120.15 Q185.70,121.35 185.45,127.20 Q184.10,126.05 182.95,123.55 Q181.75,121.00 181.90,118.95 L181.95,118.45 L182.55,118.30 L185.20,117.65 L185.30,117.85 Z"/>
        <path fill="#492211" fill-opacity="1.00" d="M199.00,127.00 L199.05,133.45 L199.05,136.25 L197.45,135.55 L197.50,120.10 L197.95,120.15 L198.95,121.45 L199.00,127.00 Z"/>
        <path fill="#5F3117" fill-opacity="1.00" d="M197.45,135.55 L195.25,134.60 L195.30,129.25 L195.40,123.40 L195.40,120.85 L195.40,119.90 L197.50,120.10 L197.45,135.55 Z"/>
        <path fill="#445C82" fill-opacity="1.00" d="M191.20,132.85 L189.55,132.15 L189.35,122.50 L190.95,124.30 L191.20,132.85 M191.65,119.65 L195.40,119.90 L195.40,120.85 L192.70,120.70 L191.65,119.65 Z"/>
        <path fill="#8B90A6" fill-opacity="1.00" d="M199.05,133.45 L203.00,137.95 L199.05,136.25 L199.05,133.45 M195.25,134.60 L191.20,132.85 L190.95,124.30 L195.30,129.25 L195.25,134.60 M195.40,123.40 L192.70,120.70 L195.40,120.85 L195.40,123.40 Z"/>
        <path fill="#BA6D1D" fill-opacity="1.00" d="M179.25,109.70 L178.50,110.90 L177.40,112.60 L172.15,120.95 L171.00,120.20 Q171.65,119.80 177.70,109.00 L179.25,109.70 Z"/>
        <path fill="#B55F12" fill-opacity="1.00" d="M179.25,109.70 L177.70,109.00 L178.20,108.20 L179.95,108.60 L179.25,109.70 Z"/>
        <path fill="#5D2C0C" fill-opacity="1.00" d="M180.80,103.90 L178.20,108.20 L177.70,109.00 Q171.65,119.80 171.00,120.20 L170.55,121.75 L167.85,130.20 L167.15,132.55 L165.10,138.95 L164.80,139.95 L162.60,142.95 L162.80,139.45 L169.60,118.25 L178.05,104.45 L180.80,103.90 Z"/>
        <path fill="#B96E1D" fill-opacity="1.00" d="M167.85,130.20 L170.55,121.75 L171.50,122.35 L168.65,131.20 L167.85,130.20 Z"/>
        <path fill="#864C24" fill-opacity="1.00" d="M169.60,118.25 L162.80,139.45 L156.40,137.35 L160.80,126.25 L164.70,116.35 L169.60,118.25 Z"/>
        <path fill="#BF611B" fill-opacity="1.00" d="M172.15,122.45 L173.85,122.55 L173.70,124.95 Q173.70,127.15 174.40,129.05 L175.40,131.65 Q175.40,134.30 176.85,136.20 Q178.25,138.05 180.30,138.05 L181.15,139.15 L177.90,138.90 L176.55,138.10 Q176.55,136.05 174.05,134.60 Q171.55,133.15 168.00,133.15 L168.65,131.20 L172.20,131.10 Q173.65,130.80 174.40,130.05 L172.15,122.45 M183.80,131.25 L184.95,129.15 L185.45,129.45 L185.45,130.10 L183.80,131.25 Z"/>
        <path fill="#FB9728" fill-opacity="1.00" d="M183.80,131.25 L185.45,130.10 L185.50,131.30 L180.45,134.75 L180.00,135.05 L180.30,138.05 Q178.25,138.05 176.85,136.20 Q175.40,134.30 175.40,131.65 L177.75,132.20 L180.25,132.55 Q180.85,132.55 183.80,131.25 Z"/>
        <path fill="#AD6228" fill-opacity="1.00" d="M180.45,134.75 L200.35,145.25 L199.90,145.55 L180.00,135.05 L180.45,134.75 Z"/>
        <path fill="#B45819" fill-opacity="1.00" d="M167.15,132.55 L167.85,130.20 L168.65,131.20 L168.00,133.15 L167.15,132.55 Z"/>
        <path fill="#BB6E1E" fill-opacity="1.00" d="M167.15,132.55 L168.00,133.15 L166.00,139.35 L165.10,138.95 L167.15,132.55 Z"/>
        <path fill="#633923" fill-opacity="1.00" d="M168.50,142.00 L171.85,141.85 L175.20,141.40 Q176.10,149.10 180.65,151.55 Q183.55,153.15 192.30,155.25 Q199.35,157.60 201.95,161.30 Q203.00,162.80 203.75,163.25 Q205.10,163.95 208.15,163.95 L210.10,163.55 L212.00,163.15 Q212.70,163.15 213.35,163.85 L215.00,165.30 L215.35,166.95 Q215.60,167.85 215.80,168.05 L215.80,175.50 L200.15,166.95 L196.35,164.90 Q194.30,163.55 192.30,162.65 L168.50,149.65 L168.50,142.00 Z"/>
        <path fill="#63270F" fill-opacity="1.00" d="M181.15,139.15 L180.30,138.05 L180.00,135.05 L199.90,145.55 L199.90,149.20 L194.25,146.15 L192.70,145.30 L181.15,139.15 Z"/>
        <path fill="#FE9627" fill-opacity="1.00" d="M202.60,153.80 Q201.75,154.70 201.10,154.90 L195.95,155.20 Q194.35,155.20 191.80,153.65 Q189.30,152.15 188.50,150.80 L188.25,150.20 L191.05,148.35 L194.25,146.15 L199.90,149.20 L203.80,152.80 L203.55,153.10 L202.60,153.80 Z"/>
        <path fill="#8D90A1" fill-opacity="1.00" d="M203.00,131.00 L199.00,127.00 L198.95,121.45 L202.30,127.30 L203.00,131.00 Z"/>
        <path fill="#653618" fill-opacity="1.00" d="M192.30,162.65 Q194.30,163.55 196.35,164.90 L198.70,166.65 L203.80,174.05 L203.80,196.35 L182.20,186.05 L182.20,165.90 L184.95,163.55 Q186.30,162.75 187.90,162.35 Q190.35,161.75 192.30,162.65 M191.85,166.90 Q190.20,165.55 188.60,164.55 L188.30,164.85 L187.25,168.80 L187.15,169.35 L185.90,171.75 L185.90,175.55 L185.90,177.20 Q185.40,181.85 185.40,183.15 L185.60,184.60 L185.90,185.40 L193.10,188.20 L195.15,189.00 L201.70,191.55 L201.50,183.15 L201.40,179.35 Q201.40,174.60 199.60,171.25 Q197.75,167.85 195.15,167.85 L193.10,167.20 L191.85,166.90 Z"/>
        <path fill="#371202" fill-opacity="1.00" d="M191.85,166.90 Q189.90,166.90 188.55,167.65 Q187.55,168.15 187.25,168.80 L188.30,164.85 L188.60,164.55 Q190.20,165.55 191.85,166.90 M185.90,185.40 L185.60,184.60 L185.40,183.15 Q185.40,181.85 185.90,177.20 L185.90,185.40 Z"/>
        <path fill="#B5B38A" fill-opacity="1.00" d="M168.50,149.65 L192.30,162.65 Q190.35,161.75 187.90,162.35 Q186.30,162.75 184.95,163.55 L171.30,157.65 L171.30,181.05 L168.50,179.55 L168.50,149.65 M196.35,164.90 L200.15,166.95 L215.80,175.50 Q216.50,178.45 216.40,182.45 L207.90,178.25 L206.70,197.35 L203.80,196.35 L205.30,195.85 L205.30,173.75 L200.15,166.95 L198.70,166.65 L196.35,164.90 Z"/>
        <path fill="#76BCC6" fill-opacity="1.00" d="M191.85,166.90 L193.10,167.20 L193.10,175.30 L185.90,171.75 L187.15,169.35 L187.25,168.80 Q187.55,168.15 188.55,167.65 Q189.90,166.90 191.85,166.90 Z"/>
        <path fill="#381502" fill-opacity="1.00" d="M198.70,166.65 L200.15,166.95 L205.30,173.75 L205.30,195.85 L203.80,196.35 L203.80,174.05 L198.70,166.65 Z"/>
        <path fill="#78BCC5" fill-opacity="1.00" d="M195.15,167.85 Q197.75,167.85 199.60,171.25 Q201.40,174.60 201.40,179.35 L195.15,176.30 L195.15,167.85 Z"/>
        <path fill="#572B10" fill-opacity="1.00" d="M195.15,167.85 L195.15,176.30 L193.10,175.30 L193.10,167.20 L195.15,167.85 M195.15,189.00 L193.10,188.20 L193.10,179.05 L195.15,180.05 L195.15,189.00 Z"/>
        <path fill="#9B9D6C" fill-opacity="1.00" d="M215.90,217.40 L168.50,192.60 L168.50,182.25 L216.05,207.55 L215.90,217.40 M125.90,130.00 L140.60,139.25 L140.60,139.95 L140.60,150.00 L123.70,140.40 L123.70,129.80 L125.15,129.75 L125.90,130.00 Z"/>
        <path fill="#D5CF93" fill-opacity="1.00" d="M171.30,181.05 L216.10,205.20 L216.05,207.55 L168.50,182.25 L168.50,179.55 L171.30,181.05 Z"/>
        <path fill="#66371B" fill-opacity="1.00" d="M201.40,179.35 L201.50,183.15 L195.15,180.05 L193.10,179.05 L185.90,175.55 L185.90,171.75 L193.10,175.30 L195.15,176.30 L201.40,179.35 Z"/>
        <path fill="#40587E" fill-opacity="1.00" d="M201.50,183.15 L201.70,191.55 L195.15,189.00 L195.15,180.05 L201.50,183.15 M193.10,188.20 L185.90,185.40 L185.90,177.20 L185.90,175.55 L193.10,179.05 L193.10,188.20 Z"/>
        <path fill="#F3EEB7" fill-opacity="1.00" d="M203.80,196.35 L206.70,197.35 L207.90,178.25 L216.40,182.45 L216.10,205.20 L171.30,181.05 L171.30,157.65 L184.95,163.55 L182.20,165.90 L182.20,186.05 L203.80,196.35 Z"/>
        <path fill="#645653" fill-opacity="1.00" d="M228.95,160.95 L230.95,157.30 L232.75,155.55 L287.45,125.65 L287.45,129.40 L228.95,160.95 Z"/>
        <path fill="#7B6E68" fill-opacity="1.00" d="M228.95,160.95 L287.45,129.40 L287.15,164.55 L284.10,161.45 L283.70,150.05 L280.20,147.35 L280.20,142.25 L275.10,139.75 L239.80,157.95 L239.80,194.55 L242.85,197.30 L228.95,204.95 L228.95,164.55 L228.95,160.95 Z"/>
        <path fill="#3B150C" fill-opacity="1.00" d="M228.95,215.10 Q228.80,215.90 228.15,216.45 L221.75,220.50 L221.75,171.65 L221.45,171.45 L221.95,171.40 Q223.70,171.40 225.60,169.85 Q227.90,167.90 228.95,164.55 L228.95,204.95 L228.95,206.15 L228.95,207.25 L228.95,215.10 Z"/>
        <path fill="#6B3E29" fill-opacity="1.00" d="M221.75,220.50 L215.90,217.40 L216.05,207.55 L216.10,205.20 L216.40,182.45 Q216.50,178.45 215.80,175.50 L215.80,168.05 L221.45,171.45 L221.75,171.65 L221.75,220.50 M141.90,139.50 L146.60,135.90 L146.60,143.75 L140.60,139.95 L140.60,139.25 Q141.65,139.75 141.90,139.50 Z"/>
        <path fill="#25609A" fill-opacity="1.00" d="M242.85,197.30 L239.80,194.55 L239.80,157.95 L243.60,161.25 L243.60,193.45 L246.40,192.40 L246.40,192.75 L249.65,193.50 L242.85,197.30 Z"/>
        <path fill="#522F1C" fill-opacity="1.00" d="M310.00,111.35 L307.00,113.25 L289.75,104.40 L310.00,111.35 M123.70,171.35 Q123.20,172.35 121.10,174.50 L118.30,176.95 L118.30,150.25 L123.70,146.50 L123.70,171.35 Z"/>
        <path fill="#492D17" fill-opacity="1.00" d="M298.40,123.35 L298.40,173.95 L296.85,174.50 L296.80,174.45 L293.90,171.55 L293.50,166.65 L291.40,166.05 Q289.75,165.80 288.95,166.40 L289.80,124.35 L298.40,119.20 L298.40,123.35 Z"/>
        <path fill="#54311D" fill-opacity="1.00" d="M284.20,117.20 L286.80,118.95 L262.35,132.95 L262.35,129.60 L264.30,128.45 L264.00,129.55 Q269.45,124.80 271.40,121.00 L274.65,112.60 L275.80,112.90 L272.90,123.75 L284.20,117.20 Z"/>
        <path fill="#542F1C" fill-opacity="1.00" d="M287.15,164.55 L287.45,129.40 L287.45,125.65 L289.80,124.35 L288.95,166.40 L287.15,164.55 Z"/>
        <path fill="#786E65" fill-opacity="1.00" d="M284.20,117.20 L272.90,123.75 L275.80,112.90 Q277.85,113.25 284.20,117.20 M264.30,128.45 L262.35,129.60 Q262.40,123.50 264.05,118.75 Q265.85,113.60 268.60,113.05 L264.30,128.45 Z"/>
        <path fill="#53301A" fill-opacity="1.00" d="M255.95,117.95 L258.20,116.75 Q258.20,135.30 257.85,135.40 L255.55,134.35 L255.95,117.95 Z"/>
        <path fill="#4384C6" fill-opacity="1.00" d="M280.20,147.35 L283.70,150.05 L249.85,166.70 L246.40,163.70 L279.80,147.05 L280.20,147.35 Z"/>
        <path fill="#2D435A" fill-opacity="1.00" d="M280.20,147.35 L279.80,147.05 L246.40,163.70 L243.60,161.25 L280.20,142.25 L280.20,147.35 Z"/>
        <path fill="#3F83CA" fill-opacity="1.00" d="M239.80,157.95 L275.10,139.75 L280.20,142.25 L243.60,161.25 L239.80,157.95 Z"/>
        <path fill="#B78D21" fill-opacity="1.00" d="M253.00,167.15 L281.60,153.15 L283.30,154.85 L254.70,168.45 L253.00,167.15 Z"/>
        <path fill="#2E425B" fill-opacity="1.00" d="M253.00,167.15 L253.00,169.40 L253.00,169.45 L249.85,166.70 L283.70,150.05 L284.10,161.45 L283.30,160.60 L283.30,154.85 L281.60,153.15 L253.00,167.15 Z"/>
        <path fill="#A05828" fill-opacity="1.00" d="M254.70,168.45 L283.30,154.85 L283.30,160.60 L281.50,158.75 L256.20,171.45 L256.25,172.15 L254.70,171.25 L254.70,168.45 Z"/>
        <path fill="#B88C1F" fill-opacity="1.00" d="M284.10,161.45 L287.15,164.55 L288.95,166.40 L277.55,172.00 L256.20,171.45 L281.50,158.75 L283.30,160.60 L284.10,161.45 Z"/>
        <path fill="#27394D" fill-opacity="1.00" d="M253.00,169.45 L252.70,189.05 L249.80,190.45 L249.85,166.70 L253.00,169.45 M243.60,161.25 L246.40,163.70 L246.40,192.40 L243.60,193.45 L243.60,161.25 Z"/>
        <path fill="#275E97" fill-opacity="1.00" d="M246.40,163.70 L249.85,166.70 L249.80,190.45 L249.80,193.40 L249.65,193.50 L246.40,192.75 L246.40,192.40 L246.40,163.70 Z"/>
        <path fill="#CD9325" fill-opacity="1.00" d="M253.00,167.15 L254.70,168.45 L254.70,171.25 L253.00,169.40 L253.00,167.15 Z"/>
        <path fill="#B1811D" fill-opacity="1.00" d="M253.00,169.45 L253.00,169.40 L254.70,171.25 L254.70,192.55 L254.20,192.80 L254.10,192.85 L252.65,192.10 L252.70,189.05 L253.00,169.45 Z"/>
        <path fill="#BA631C" fill-opacity="1.00" d="M256.25,172.15 L256.20,171.45 L263.85,178.75 Q263.60,181.10 263.40,195.40 Q262.30,194.60 260.50,193.50 Q257.85,191.85 256.70,191.55 L256.25,172.15 Z"/>
        <path fill="#5B3522" fill-opacity="1.00" d="M252.65,192.10 L254.10,192.85 L228.95,206.15 L228.95,204.95 L242.85,197.30 L249.65,193.50 L249.80,193.40 L252.65,192.10 Z"/>
        <path fill="#224E7D" fill-opacity="1.00" d="M252.65,192.10 L249.80,193.40 L249.80,190.45 L252.70,189.05 L252.65,192.10 Z"/>
        <path fill="#5D341E" fill-opacity="1.00" d="M263.40,196.20 L260.90,197.75 L254.20,193.45 L254.20,192.80 L254.70,192.55 L256.70,191.55 Q257.85,191.85 260.50,193.50 Q262.30,194.60 263.40,195.40 L263.40,196.20 Z"/>
        <path fill="#9C5E2B" fill-opacity="1.00" d="M254.10,192.85 L254.20,192.80 L254.20,193.45 L228.95,207.25 L228.95,206.15 L254.10,192.85 Z"/>
        <path fill="#6D3F27" fill-opacity="1.00" d="M260.90,197.75 L228.95,215.10 L228.95,207.25 L254.20,193.45 L260.90,197.75 Z"/>
        <path fill="#CF9F23" fill-opacity="1.00" d="M277.55,172.00 L288.95,166.40 Q289.75,165.80 291.40,166.05 L293.50,166.65 L266.30,180.80 L263.85,178.75 L277.55,172.00 Z"/>
        <path fill="#B1841D" fill-opacity="1.00" d="M265.80,201.25 Q263.70,199.85 263.40,196.20 L263.40,195.40 Q263.60,181.10 263.85,178.75 L266.30,180.80 Q266.00,184.25 265.80,201.25 Z"/>
        <path fill="#7E2714" fill-opacity="1.00" d="M276.30,206.60 L268.40,200.70 L268.40,182.55 L270.45,184.25 L275.55,188.55 L276.30,189.20 L276.30,206.60 Z"/>
        <path fill="#942E18" fill-opacity="1.00" d="M270.45,184.25 L268.40,182.55 L292.65,170.25 L293.90,171.55 L296.80,174.45 L270.45,184.25 Z"/>
        <path fill="#992F17" fill-opacity="1.00" d="M299.25,176.95 L299.85,177.60 L276.35,189.20 L276.30,189.20 L275.55,188.55 L299.25,176.95 Z"/>
        <path fill="#AC3316" fill-opacity="1.00" d="M278.30,212.95 Q277.35,212.30 276.75,209.75 L276.30,206.60 L276.30,189.20 L276.35,189.20 L278.30,190.75 L278.30,212.95 Z"/>
        <path fill="#CF3C1A" fill-opacity="1.00" d="M296.85,174.50 L299.25,176.95 L275.55,188.55 L270.45,184.25 L296.80,174.45 L296.85,174.50 M299.85,177.60 L301.40,179.15 L278.30,190.75 L276.35,189.20 L299.85,177.60 Z"/>
        <path fill="#E3C330" fill-opacity="1.00" d="M256.20,171.45 L277.55,172.00 L263.85,178.75 L256.20,171.45 Z"/>
        <path fill="#801215" fill-opacity="1.00" d="M301.40,179.15 Q300.25,183.90 300.05,189.50 Q299.90,194.35 299.15,196.20 Q297.95,199.30 293.60,202.80 Q289.05,206.50 278.30,212.95 L278.30,190.75 L301.40,179.15 Z"/>
        <path fill="#C1712A" fill-opacity="1.00" d="M69.00,3.95 Q74.85,1.95 76.45,1.55 L78.05,1.35 Q98.50,10.65 116.75,23.55 Q128.60,31.90 135.70,38.80 L137.10,40.05 L135.60,42.55 Q123.80,31.40 101.85,18.60 Q79.55,5.60 69.00,3.95 Z"/>
        <path fill="#B55616" fill-opacity="1.00" d="M146.70,46.10 L145.00,43.25 L144.95,43.00 Q144.75,41.35 144.20,40.10 L142.55,36.30 L145.95,34.25 L148.55,36.25 L151.40,38.25 L149.40,39.75 L145.55,38.05 L146.60,41.80 L146.70,46.10 Z"/>
        <path fill="#864C26" fill-opacity="1.00" d="M108.85,48.85 L103.50,47.25 L100.20,46.40 L97.75,47.05 L94.30,47.80 Q95.40,46.90 97.30,45.95 Q99.45,44.95 100.55,44.95 Q113.10,44.95 121.60,51.50 Q130.35,58.30 132.40,70.35 L130.40,71.95 L129.50,69.45 Q129.50,62.85 125.95,58.20 Q122.40,53.55 117.40,53.55 L108.85,48.85 Z"/>
        <path fill="#F2EDB6" fill-opacity="1.00" d="M80.25,71.85 L80.15,23.65 Q84.90,26.60 94.75,31.55 Q104.80,36.50 110.10,39.80 Q128.75,51.45 143.95,73.75 L143.95,75.15 L144.40,116.15 L144.35,116.15 L129.10,107.80 L124.00,105.05 L117.80,101.65 L93.95,88.65 L90.05,86.55 L84.30,83.40 Q82.55,82.35 81.40,79.30 Q80.15,75.95 80.25,71.85 M94.30,47.80 L94.00,48.10 L89.00,53.75 L89.80,80.35 L129.80,103.35 L130.40,103.10 L133.80,104.15 L134.90,71.55 L132.40,70.35 Q130.35,58.30 121.60,51.50 Q113.10,44.95 100.55,44.95 Q99.45,44.95 97.30,45.95 Q95.40,46.90 94.30,47.80 Z"/>
        <path fill="#D17A2A" fill-opacity="1.00" d="M94.30,47.80 L97.75,47.05 L100.20,46.40 L103.50,47.25 L108.85,48.85 L100.75,48.10 Q97.40,47.90 94.00,48.10 L94.30,47.80 M129.50,69.45 Q129.15,68.60 123.50,61.20 L117.40,53.55 Q122.40,53.55 125.95,58.20 Q129.50,62.85 129.50,69.45 Z"/>
        <path fill="#B5B289" fill-opacity="1.00" d="M143.85,66.15 L143.95,73.75 Q128.75,51.45 110.10,39.80 Q104.80,36.50 94.75,31.55 Q84.90,26.60 80.15,23.65 L85.60,18.50 Q92.90,23.30 102.55,28.35 L116.00,35.80 Q129.65,44.60 143.85,66.15 Z"/>
        <path fill="#5B2C0E" fill-opacity="1.00" d="M143.85,66.15 Q129.65,44.60 116.00,35.80 L102.55,28.35 Q92.90,23.30 85.60,18.50 L80.30,16.50 L73.40,13.90 L71.65,14.00 Q70.05,14.30 69.00,15.35 L69.00,3.95 Q79.55,5.60 101.85,18.60 Q123.80,31.40 135.60,42.55 L154.20,71.75 L149.40,74.55 L143.85,66.15 Z"/>
        <path fill="#7B3B15" fill-opacity="1.00" d="M78.05,1.35 L80.60,1.30 L97.70,8.80 Q105.10,12.10 109.70,15.00 Q119.30,21.00 135.70,38.80 Q128.60,31.90 116.75,23.55 Q98.50,10.65 78.05,1.35 M138.35,41.80 L152.60,59.70 L154.80,63.00 L154.65,65.20 L138.35,41.80 Z"/>
        <path fill="#472210" fill-opacity="1.00" d="M94.90,80.35 L92.50,79.05 L92.50,51.60 L106.10,51.85 L94.70,52.45 L94.80,67.35 L94.90,77.55 L94.90,79.35 L94.90,80.35 M130.40,71.95 L132.40,70.35 L133.55,88.85 Q133.65,99.35 130.40,103.10 L130.40,72.75 L130.40,71.95 Z"/>
        <path fill="#C87624" fill-opacity="1.00" d="M126.70,95.95 L126.70,97.05 L94.90,80.35 L94.90,79.35 L126.70,95.95 Z"/>
        <path fill="#7E4921" fill-opacity="1.00" d="M126.70,95.95 L94.90,79.35 L94.90,77.55 L96.10,78.20 L97.90,79.10 L126.70,93.85 L126.70,95.95 Z"/>
        <path fill="#582B0C" fill-opacity="1.00" d="M124.50,64.00 L125.10,65.15 L97.90,79.10 L96.10,78.20 L124.50,64.00 Z"/>
        <path fill="#FCB616" fill-opacity="1.00" d="M48.10,133.30 Q51.65,127.65 53.15,122.95 Q55.00,117.25 65.10,99.75 L70.85,93.80 Q73.50,91.40 84.30,83.40 L90.05,86.55 L78.70,94.85 Q75.60,96.05 68.85,104.90 Q62.70,113.05 62.25,114.90 L60.30,122.30 Q58.00,129.40 54.15,135.20 L51.45,136.35 L49.85,136.75 L48.35,136.55 L48.10,133.30 Z"/>
        <path fill="#A24E08" fill-opacity="1.00" d="M45.50,171.40 L39.40,167.30 L39.05,160.15 L39.45,157.35 L39.95,154.10 Q40.15,153.35 42.40,149.65 Q44.60,146.00 45.15,145.45 L49.95,140.20 L54.15,135.20 Q58.00,129.40 60.30,122.30 L62.25,114.90 Q68.45,105.70 71.85,101.95 L78.70,94.85 L90.05,86.55 L93.95,88.65 L94.55,92.80 L92.50,94.20 Q84.35,98.35 74.35,112.60 Q64.65,126.45 63.85,134.10 Q63.20,140.50 55.25,150.05 L45.80,160.75 L45.45,162.90 L45.50,171.40 Z"/>
        <path fill="#924615" fill-opacity="1.00" d="M94.55,92.80 L96.50,91.45 L116.55,102.45 L113.15,104.80 L94.90,95.45 L92.50,94.20 L94.55,92.80 Z"/>
        <path fill="#7E7D61" fill-opacity="1.00" d="M92.50,94.20 L94.90,95.45 L90.10,98.30 Q85.10,101.40 81.45,105.00 L80.05,106.55 L77.35,109.95 L75.90,112.10 L73.10,117.20 Q64.40,138.60 60.00,144.50 L55.30,150.35 Q51.75,154.90 47.50,161.90 L45.80,160.75 L55.25,150.05 Q63.20,140.50 63.85,134.10 Q64.65,126.45 74.35,112.60 Q84.35,98.35 92.50,94.20 Z"/>
        <path fill="#692903" fill-opacity="1.00" d="M93.95,88.65 L117.80,101.65 L116.55,102.45 L96.50,91.45 L94.55,92.80 L93.95,88.65 Z"/>
        <path fill="#E6CDC6" fill-opacity="1.00" d="M81.45,105.00 Q85.10,101.40 90.10,98.30 L94.90,95.45 L113.15,104.80 L103.50,112.45 L99.40,116.50 L81.45,105.00 Z"/>
        <path fill="#7B3D16" fill-opacity="1.00" d="M126.70,76.20 L126.70,78.45 L116.00,85.65 L113.35,84.20 L126.70,76.20 Z"/>
        <path fill="#DA8221" fill-opacity="1.00" d="M154.85,62.50 Q154.85,60.45 154.10,58.20 L154.45,58.35 L156.40,59.15 L158.65,60.15 L154.85,62.50 Z"/>
        <path fill="#725F58" fill-opacity="1.00" d="M159.65,77.50 L153.65,77.70 L149.90,78.05 L149.15,77.95 Q149.05,77.85 148.75,77.70 L147.65,77.10 L143.95,75.15 L143.95,73.75 L143.85,66.15 L149.40,74.55 L154.20,71.75 L157.10,72.60 L159.65,73.25 L159.65,77.50 Z"/>
        <path fill="#A7A37E" fill-opacity="1.00" d="M132.40,70.35 L134.90,71.55 L133.80,104.15 L130.40,103.10 Q133.65,99.35 133.55,88.85 L132.40,70.35 Z"/>
        <path fill="#745D3E" fill-opacity="1.00" d="M148.75,77.70 L146.90,77.70 L147.65,77.10 L148.75,77.70 Z"/>
        <path fill="#5A2B0D" fill-opacity="1.00" d="M80.15,23.65 Q77.35,23.65 75.40,20.80 Q73.40,17.95 73.40,13.90 L80.30,16.50 Q81.05,18.95 81.05,19.70 Q81.05,20.70 80.15,23.65 Z"/>
        <path fill="#FDFF97" fill-opacity="1.00" d="M78.70,94.85 L71.85,101.95 Q68.45,105.70 62.25,114.90 Q62.70,113.05 68.85,104.90 Q75.60,96.05 78.70,94.85 Z"/>
        <path fill="url(#G3)" d="M47.50,161.90 Q51.75,154.90 55.30,150.35 L60.00,144.50 Q64.40,138.60 73.10,117.20 L77.40,115.95 Q86.40,115.95 86.40,128.30 Q86.40,135.50 83.80,143.30 Q82.40,147.45 80.00,152.70 L68.70,165.60 Q67.05,169.30 66.75,170.85 L66.25,175.10 L47.50,161.90 Z"/>
        <path fill="#E0C8BE" fill-opacity="1.00" d="M73.10,117.20 L75.90,112.10 L93.65,123.40 Q89.45,129.90 87.80,133.65 Q86.95,135.65 86.70,137.05 Q86.25,139.90 84.40,144.70 Q82.20,150.40 80.00,152.70 Q82.40,147.45 83.80,143.30 Q86.40,135.50 86.40,128.30 Q86.40,115.95 77.40,115.95 L73.10,117.20 Z"/>
        <path fill="#FAFAFA" fill-opacity="1.00" d="M77.35,109.95 L80.05,106.55 L97.15,118.95 L95.00,121.60 L86.25,115.95 L77.35,109.95 Z"/>
        <path fill="#F1E2DB" fill-opacity="1.00" d="M77.35,109.95 L86.25,115.95 L95.00,121.60 L93.65,123.40 L75.90,112.10 L77.35,109.95 M80.05,106.55 L81.45,105.00 L99.40,116.50 L97.15,118.95 L80.05,106.55 Z"/>
        <path fill="#FEBF10" fill-opacity="1.00" d="M38.05,144.25 Q39.90,142.95 41.80,140.90 L48.10,133.30 L48.35,136.55 L49.85,136.75 L51.45,136.35 L54.15,135.20 L49.95,140.20 L45.15,145.45 L41.55,146.35 Q41.40,146.35 40.00,145.55 L38.05,144.25 Z"/>
        <path fill="#FFFB20" fill-opacity="1.00" d="M38.05,144.25 L40.00,145.55 Q41.40,146.35 41.55,146.35 L45.15,145.45 Q44.60,146.00 42.40,149.65 Q40.15,153.35 39.95,154.10 L37.30,152.35 L35.90,152.60 L34.55,153.15 L38.05,144.25 Z"/>
        <path fill="#F8AD13" fill-opacity="1.00" d="M39.40,167.30 Q36.65,165.60 35.15,163.65 Q34.15,162.35 34.15,161.80 Q34.75,155.70 34.55,153.15 L35.90,152.60 L37.30,152.35 L39.95,154.10 L39.45,157.35 L39.05,160.15 L39.40,167.30 Z"/>
        <path fill="#FBB927" fill-opacity="1.00" d="M68.70,165.60 L80.00,152.70 Q79.90,155.70 81.20,157.15 Q82.05,158.15 83.15,158.15 Q84.35,158.15 85.35,157.25 L74.65,169.70 Q72.20,169.70 70.45,168.50 Q68.70,167.30 68.70,165.60 Z"/>
        <path fill="#FFF332" fill-opacity="1.00" d="M68.70,165.60 Q68.70,167.30 70.45,168.50 Q72.20,169.70 74.65,169.70 L74.50,173.10 Q74.05,176.85 72.55,179.15 Q72.55,177.70 70.70,176.70 Q68.85,175.65 66.25,175.65 L66.25,175.10 L66.75,170.85 Q67.05,169.30 68.70,165.60 Z"/>
        <path fill="#8D450A" fill-opacity="1.00" d="M74.65,169.70 L85.35,157.25 L88.15,153.15 Q92.70,140.60 98.90,129.75 Q105.75,117.75 111.75,113.60 L113.60,112.45 L123.25,105.55 Q126.30,107.25 127.70,108.65 Q128.50,109.55 128.50,109.95 L128.05,110.85 Q127.30,111.65 126.70,112.75 L125.20,113.65 L124.05,114.35 L123.95,114.30 L123.95,116.35 L123.25,117.60 L123.50,121.80 Q123.70,122.60 124.75,123.50 Q122.90,123.50 118.35,125.85 Q112.75,128.65 111.00,132.05 Q108.00,129.25 108.00,128.25 Q108.00,127.35 109.20,126.35 Q110.20,125.55 110.50,125.55 L111.30,125.75 L111.55,125.90 L111.60,126.95 L113.20,125.85 L113.20,122.25 L110.30,122.25 L104.15,130.90 Q102.90,132.60 102.90,133.15 Q102.90,133.95 104.85,137.30 Q106.80,140.65 106.80,141.25 Q105.05,144.05 101.90,145.95 Q100.90,142.35 100.90,141.75 Q100.90,141.25 101.65,140.45 Q102.40,139.65 102.40,139.15 Q102.40,138.50 102.05,138.00 L101.30,137.05 L100.90,137.95 Q98.55,142.25 98.10,145.95 Q98.10,146.45 98.55,146.60 L99.50,147.05 Q100.90,148.05 100.90,152.65 Q93.95,160.20 91.40,161.05 L93.20,166.65 L81.60,180.25 L79.50,177.45 L79.50,173.55 L82.20,173.55 L82.20,171.45 L76.80,171.45 L76.20,176.35 L75.90,178.85 Q75.90,179.20 76.20,179.65 Q76.75,180.60 77.70,183.75 L73.00,186.75 L72.55,179.15 Q74.05,176.85 74.50,173.10 L74.65,169.70 Z"/>
        <path fill="#F9F7FC" fill-opacity="1.00" d="M45.80,160.75 L47.50,161.90 L66.25,175.10 L66.25,175.65 L66.20,177.35 L45.45,162.90 L45.80,160.75 Z"/>
        <path fill="#BAAF93" fill-opacity="1.00" d="M67.10,185.95 L45.50,171.40 L45.45,162.90 L66.20,177.35 L67.10,185.95 Z"/>
        <path fill="#867362" fill-opacity="1.00" d="M100.20,165.15 Q91.25,176.60 81.85,184.45 Q76.25,189.10 73.60,190.35 L73.00,186.75 L77.70,183.75 Q76.75,180.60 76.20,179.65 Q75.90,179.20 75.90,178.85 L76.20,176.35 L76.80,171.45 L82.20,171.45 L82.20,173.55 L79.50,173.55 L79.50,177.45 L81.60,180.25 L93.20,166.65 L91.40,161.05 Q93.95,160.20 100.90,152.65 Q100.90,148.05 99.50,147.05 L98.55,146.60 Q98.10,146.45 98.10,145.95 Q98.55,142.25 100.90,137.95 L101.30,137.05 L102.05,138.00 Q102.40,138.50 102.40,139.15 Q102.40,139.65 101.65,140.45 Q100.90,141.25 100.90,141.75 Q100.90,142.35 101.90,145.95 Q105.05,144.05 106.80,141.25 Q106.80,140.65 104.85,137.30 Q102.90,133.95 102.90,133.15 Q102.90,132.60 104.15,130.90 L110.30,122.25 L113.20,122.25 L113.20,125.85 L111.60,126.95 L111.55,125.90 L111.30,125.75 L110.50,125.55 Q110.20,125.55 109.20,126.35 Q108.00,127.35 108.00,128.25 Q108.00,129.25 111.00,132.05 Q112.75,128.65 118.35,125.85 Q122.90,123.50 124.75,123.50 L125.15,129.75 L123.70,129.80 Q122.45,130.40 121.70,131.20 L118.30,135.85 L110.55,148.40 L100.20,165.15 Z"/>
        <path fill="#FBB925" fill-opacity="1.00" d="M73.60,190.35 L67.10,185.95 L66.20,177.35 L66.25,175.65 Q68.85,175.65 70.70,176.70 Q72.55,177.70 72.55,179.15 L73.00,186.75 L73.60,190.35 Z"/>
        <path fill="#673213" fill-opacity="1.00" d="M124.00,105.05 L129.10,107.80 L129.10,110.25 L126.70,112.75 Q127.30,111.65 128.05,110.85 L128.50,109.95 Q128.50,109.55 127.70,108.65 Q126.30,107.25 123.25,105.55 L124.00,105.05 M124.75,123.50 Q123.70,122.60 123.50,121.80 L123.25,117.60 L123.95,116.35 L124.10,118.65 Q124.35,121.05 124.95,121.35 Q125.30,122.00 125.90,130.00 L125.15,129.75 L124.75,123.50 Z"/>
        <path fill="#FBA325" fill-opacity="1.00" d="M117.80,101.65 L124.00,105.05 L123.25,105.55 L113.60,112.45 L111.75,113.60 L110.95,114.05 L107.10,114.40 L103.50,112.45 L113.15,104.80 L116.55,102.45 L117.80,101.65 M85.35,157.25 Q84.35,158.15 83.15,158.15 Q82.05,158.15 81.20,157.15 Q79.90,155.70 80.00,152.70 Q82.20,150.40 84.40,144.70 Q86.25,139.90 86.70,137.05 L90.40,135.50 L91.20,136.20 L92.55,137.95 Q90.35,143.70 89.45,147.45 L88.15,153.15 L85.35,157.25 Z"/>
        <path fill="#5B2C12" fill-opacity="1.00" d="M123.95,116.35 L123.95,114.30 L124.05,114.35 L126.15,115.20 L126.05,118.45 L125.40,118.70 L124.80,118.95 L124.95,121.35 Q124.35,121.05 124.10,118.65 L123.95,116.35 M133.45,112.55 L133.50,112.55 L128.55,117.20 L127.05,115.35 L127.65,115.05 L133.45,112.55 Z"/>
        <path fill="#7B3C11" fill-opacity="1.00" d="M127.05,115.35 L128.55,117.20 L126.05,118.45 L126.15,115.20 L127.05,115.35 Z"/>
        <path fill="#B87830" fill-opacity="1.00" d="M127.05,115.35 L126.15,115.20 L124.05,114.35 L125.20,113.65 L127.65,115.05 L127.05,115.35 Z"/>
        <path fill="#CF9436" fill-opacity="1.00" d="M125.40,118.70 L133.55,121.65 L135.85,121.90 Q137.10,121.90 138.30,121.15 L137.10,124.35 Q140.70,125.55 142.35,125.55 L145.20,125.00 L148.90,123.70 L141.90,128.75 L124.80,118.95 L125.40,118.70 Z"/>
        <path fill="#3A2216" fill-opacity="1.00" d="M123.70,129.80 L123.70,140.40 L123.70,146.50 L118.30,150.25 L118.30,135.85 L121.70,131.20 Q122.45,130.40 123.70,129.80 Z"/>
        <path fill="#A05925" fill-opacity="1.00" d="M146.60,185.20 L140.60,181.55 L140.60,170.95 L140.60,156.30 L140.60,150.00 L140.60,139.95 L146.60,143.75 L146.60,185.20 Z"/>
        <path fill="url(#G4)" d="M111.75,113.60 Q105.75,117.75 98.90,129.75 Q92.70,140.60 88.15,153.15 L89.45,147.45 Q90.35,143.70 92.55,137.95 Q94.40,132.15 99.20,125.35 Q105.00,117.00 110.95,114.05 L111.75,113.60 Z"/>
        <path fill="url(#G5)" d="M86.70,137.05 Q86.95,135.65 87.80,133.65 Q89.45,129.90 93.65,123.40 L95.00,121.60 L97.15,118.95 L99.40,116.50 L103.50,112.45 L107.10,114.40 L110.95,114.05 Q105.00,117.00 99.20,125.35 Q94.40,132.15 92.55,137.95 L91.20,136.20 L90.40,135.50 L86.70,137.05 Z"/>
        <path fill="#4C311E" fill-opacity="1.00" d="M118.30,135.85 L118.30,150.25 L110.55,148.40 L118.30,135.85 Z"/>
        <path fill="#F2EDB5" fill-opacity="1.00" d="M140.60,156.30 L140.60,170.95 Q135.40,168.05 134.40,167.35 Q132.85,166.20 132.70,164.90 Q133.75,160.00 133.05,151.95 L140.60,156.30 Z"/>
        <path fill="#999D6B" fill-opacity="1.00" d="M140.60,181.55 L123.70,171.35 L123.70,146.50 L133.05,151.95 Q133.75,160.00 132.70,164.90 Q132.85,166.20 134.40,167.35 Q135.40,168.05 140.60,170.95 L140.60,181.55 Z"/>
        <path fill="#A05826" fill-opacity="1.00" d="M85.60,18.50 L80.15,23.65 Q81.05,20.70 81.05,19.70 Q81.05,18.95 80.30,16.50 L85.60,18.50 Z"/>
        <path stroke="#199BD5" stroke-width="5.00" stroke-opacity="1.00" stroke-linecap="butt" stroke-linejoin="round" stroke-miterlimit="3.00" fill="transparent" d="M80.40,-27.00 L82.10,-25.75 L87.80,-22.30 Q89.55,-21.20 89.60,-19.40 L89.60,-18.65 L89.35,-17.50 L89.05,-17.15 Q88.40,-16.65 87.30,-16.65 Q85.95,-16.65 84.70,-18.35 L84.50,-18.65 Q83.60,-20.00 83.60,-21.05 L81.40,-18.65 L81.45,-18.45 Q81.60,-15.65 83.05,-14.00 Q84.60,-12.25 87.30,-12.25 Q91.50,-12.25 92.40,-16.30 L92.60,-18.15 L92.65,-18.65 Q92.95,-25.00 88.20,-26.55 L84.90,-27.45 Q82.75,-28.15 81.90,-29.45 Q80.95,-30.80 80.40,-32.35 Q79.60,-34.60 79.60,-37.30 Q79.60,-45.25 83.30,-45.25 Q85.35,-45.25 86.45,-43.00 L87.80,-38.95 L89.50,-40.55 Q88.60,-44.40 86.95,-46.50 Q84.80,-49.10 81.55,-48.95 L80.50,-48.85 Q74.15,-45.95 76.00,-33.85 Q77.65,-29.40 80.40,-27.00 M94.75,-26.00 L94.60,-25.10 L94.55,-24.60 L94.35,-23.45 L94.30,-20.55 L94.35,-18.65 L94.45,-16.70 L94.60,-15.80 Q94.85,-14.40 95.40,-12.85 Q95.75,-11.80 96.75,-10.85 L97.45,-10.25 Q98.90,-9.10 101.25,-10.20 Q101.75,-9.05 102.80,-8.35 Q103.80,-7.65 104.90,-7.65 L105.80,-7.80 L105.95,-7.90 L106.40,-9.15 L105.80,-10.05 L105.15,-10.80 L105.10,-10.85 Q104.00,-12.10 103.60,-12.85 Q103.20,-13.60 102.95,-16.20 Q102.70,-18.55 102.70,-20.80 L102.80,-23.30 L100.00,-24.15 L100.05,-22.50 L100.10,-17.65 Q99.95,-12.95 98.70,-12.95 Q97.45,-12.95 97.10,-15.75 Q96.95,-16.70 96.95,-18.65 L96.90,-20.65 L96.95,-24.30 L97.00,-25.05 L97.00,-25.20 L94.75,-26.00 M113.30,-19.65 L114.25,-17.40 Q114.50,-17.70 115.35,-17.90 L115.90,-18.00 L117.00,-18.15 Q118.30,-18.15 119.30,-16.25 L119.70,-15.45 L120.15,-14.30 L121.00,-10.65 L121.30,-7.65 Q121.60,-1.15 123.30,1.75 L123.30,2.05 L123.20,3.20 L122.60,3.70 L120.70,1.90 Q119.30,0.45 119.00,-0.50 L118.90,-1.05 L119.00,-2.05 L119.05,-2.35 L119.20,-3.70 L119.05,-5.45 L119.00,-5.70 L118.80,-7.05 L117.60,-12.40 Q116.80,-15.30 115.50,-15.15 Q114.20,-15.05 114.55,-13.10 L115.55,-8.10 L116.05,-5.45 L116.15,-4.45 L115.80,-3.55 Q115.45,-3.15 114.55,-3.15 Q113.05,-3.15 112.70,-5.05 L112.70,-5.45 L112.50,-9.55 Q112.00,-15.85 110.80,-17.65 Q110.35,-18.35 109.75,-18.35 L109.10,-18.25 Q109.90,-14.05 110.10,-10.85 L110.20,-8.50 L110.05,-5.80 L110.00,-5.45 L109.90,-4.55 L106.80,-6.05 L106.95,-10.85 L107.00,-13.50 Q107.00,-16.10 106.05,-20.05 L105.70,-21.25 L106.30,-22.05 L107.05,-22.25 L107.85,-21.75 L108.30,-21.25 L108.45,-21.15 Q109.10,-21.95 110.20,-21.95 L110.80,-21.85 Q111.85,-21.60 112.75,-20.45 L113.05,-20.05 L113.30,-19.65 M123.40,-12.65 Q124.05,-12.60 125.15,-10.95 Q126.10,-9.50 126.65,-9.20 L127.00,-9.40 L127.80,-9.45 L127.90,-9.45 Q129.50,-9.45 130.80,-8.35 L131.15,-8.05 L131.80,-7.30 Q133.30,-5.30 133.70,-2.20 Q134.00,-2.50 134.85,-2.75 L135.55,-2.90 L135.60,-2.95 L136.50,-3.05 Q138.50,-3.05 139.55,-1.35 L139.80,-0.90 L139.95,-0.65 Q140.65,0.95 141.00,4.35 L141.30,11.25 L141.35,11.75 L141.60,14.05 L141.90,11.75 L142.00,11.15 Q142.30,9.75 142.90,8.60 L143.20,8.05 Q143.50,7.55 143.95,7.25 Q145.00,6.30 146.80,6.20 Q149.65,6.05 152.25,9.45 L152.45,9.70 L153.70,11.75 L154.20,13.10 Q154.55,14.30 154.40,15.40 L154.20,16.35 Q153.80,18.15 153.25,18.90 Q152.55,19.80 151.45,19.80 Q150.35,19.80 148.85,18.85 L147.40,17.70 L145.70,15.85 L145.50,18.40 Q145.50,21.05 146.40,22.95 Q146.85,23.95 147.40,24.40 L148.30,24.75 Q150.00,24.75 152.40,22.95 L152.75,22.65 L152.90,22.65 L152.95,22.50 L153.00,22.20 L153.50,20.35 L154.20,18.25 L154.30,17.95 L154.90,15.60 L155.00,15.35 L155.25,15.05 Q155.60,14.75 156.20,14.75 L156.90,14.95 L157.65,15.95 Q158.15,17.00 158.00,17.75 L159.15,17.65 L160.00,18.00 Q161.80,18.75 162.70,20.05 L164.00,22.20 L164.75,23.50 Q164.05,25.25 162.95,25.25 Q162.25,25.25 160.80,23.75 L160.00,23.05 Q158.95,22.25 158.00,22.25 L157.15,22.30 Q156.85,22.40 156.70,23.05 L156.70,24.15 L156.80,24.15 L156.20,33.75 L151.00,31.15 L151.00,27.50 L150.10,27.55 L147.40,27.25 L145.60,26.55 Q143.10,25.35 142.30,22.95 L142.00,21.75 L141.90,20.35 L142.00,19.10 Q140.25,18.05 139.15,16.05 Q137.90,13.75 138.10,11.95 L138.10,11.75 L138.25,5.80 Q138.25,1.45 136.95,1.25 Q136.10,1.10 135.60,1.90 Q135.30,2.30 135.10,3.05 L134.80,4.25 Q134.55,5.40 134.60,6.15 L134.60,6.35 L134.80,8.60 L135.00,10.25 L134.80,11.10 L134.70,11.30 L134.30,11.75 L132.75,11.75 L131.90,11.15 Q131.20,10.40 131.20,9.60 L131.45,7.55 L131.60,6.35 L131.70,4.05 Q131.75,2.25 131.10,-1.85 Q130.45,-5.95 129.05,-5.95 Q128.20,-5.95 127.80,-3.55 Q127.50,-1.85 127.50,0.40 Q127.50,3.10 127.65,4.75 L127.80,6.25 L127.20,6.10 L126.20,5.65 Q125.30,5.25 124.80,4.75 L124.60,4.55 L124.75,-3.25 Q124.70,-9.45 123.35,-12.20 L123.15,-12.65 L123.40,-12.65 M149.90,11.75 Q149.25,10.80 148.30,10.80 Q146.75,10.80 146.60,12.30 L147.40,13.65 L148.55,15.10 Q149.65,16.20 150.20,16.20 Q150.60,16.20 150.60,15.00 Q150.60,12.90 149.90,11.80 L149.90,11.75"/>
        <path fill="#06D3FF" fill-opacity="1.00" d="M86.95,-46.50 Q88.60,-44.40 89.50,-40.55 L87.80,-38.95 L86.45,-43.00 Q85.35,-45.25 83.30,-45.25 Q79.60,-45.25 79.60,-37.30 Q79.60,-34.60 80.40,-32.35 Q80.95,-30.80 81.90,-29.45 Q82.75,-28.15 84.90,-27.45 L88.20,-26.55 Q92.95,-25.00 92.65,-18.65 L92.60,-18.15 L92.40,-16.30 Q91.50,-12.25 87.30,-12.25 Q84.60,-12.25 83.05,-14.00 Q81.60,-15.65 81.45,-18.45 L81.40,-18.65 L83.60,-21.05 Q83.60,-20.00 84.50,-18.65 L84.70,-18.35 Q85.95,-16.65 87.30,-16.65 Q88.40,-16.65 89.05,-17.15 L89.35,-17.50 L89.60,-18.65 L89.60,-19.40 Q89.55,-21.20 87.80,-22.30 L82.10,-25.75 L80.40,-27.00 Q77.65,-29.40 76.00,-33.85 Q74.15,-45.95 80.50,-48.85 L81.55,-48.95 L81.50,-48.70 Q81.50,-47.50 83.30,-46.85 Q84.65,-46.35 86.05,-46.35 L86.95,-46.50 Z"/>
        <path fill="#FBFFFF" fill-opacity="1.00" d="M86.95,-46.50 L86.05,-46.35 Q84.65,-46.35 83.30,-46.85 Q81.50,-47.50 81.50,-48.70 L81.55,-48.95 Q84.80,-49.10 86.95,-46.50 Z"/>
        <path fill="#EBFEFC" fill-opacity="1.00" d="M94.55,-24.60 L94.60,-25.10 L94.75,-26.00 L97.00,-25.20 L97.00,-25.05 L96.95,-24.30 Q96.25,-23.85 95.60,-23.85 L94.95,-24.10 L94.60,-24.55 L94.55,-24.60 M100.05,-22.50 L100.00,-24.15 L102.80,-23.30 L102.80,-22.90 L102.40,-22.40 Q101.85,-21.95 101.15,-21.95 Q100.45,-21.95 100.05,-22.50 M108.30,-21.25 L108.45,-21.15 Q109.10,-21.95 110.20,-21.95 L110.80,-21.85 Q111.85,-21.60 112.75,-20.45 L113.05,-20.05 L113.30,-19.65 Q112.85,-18.55 112.25,-18.55 Q111.85,-18.55 111.35,-19.40 L110.85,-20.05 L110.80,-20.10 L110.50,-20.25 L108.75,-20.30 Q108.30,-20.35 108.30,-21.25 M115.90,-18.00 L117.00,-18.15 Q118.30,-18.15 119.30,-16.25 Q119.00,-15.85 118.50,-15.85 Q118.00,-15.85 117.75,-16.10 L116.90,-16.35 L116.00,-16.30 Q115.60,-16.35 115.60,-16.85 L115.90,-18.00 M123.35,-12.20 L123.15,-12.65 L123.40,-12.65 Q124.05,-12.60 125.15,-10.95 Q126.10,-9.50 126.65,-9.20 L127.00,-9.40 L127.80,-9.45 L127.90,-9.45 Q129.50,-9.45 130.80,-8.35 L130.65,-8.05 Q130.30,-7.45 129.75,-7.45 Q129.20,-7.45 128.75,-7.80 L128.45,-8.05 L127.80,-8.35 L126.65,-8.30 Q126.05,-8.25 125.90,-8.55 L124.90,-10.75 Q124.30,-11.95 123.35,-12.20 M135.55,-2.90 L135.60,-2.95 L136.50,-3.05 Q138.50,-3.05 139.55,-1.35 L139.30,-1.00 L139.00,-0.65 L138.50,-0.35 Q138.10,-0.35 137.75,-0.65 L137.65,-0.75 L136.90,-1.35 L135.85,-1.45 L135.60,-1.50 L135.40,-2.00 Q135.40,-2.55 135.55,-2.90 M143.95,7.25 Q145.00,6.30 146.80,6.20 Q149.65,6.05 152.25,9.45 L152.45,9.70 Q152.20,10.75 151.40,10.75 Q150.80,10.75 149.55,9.55 L147.80,8.15 L145.30,8.10 Q144.10,8.05 143.95,7.25 M155.00,15.35 L155.25,15.05 Q155.60,14.75 156.20,14.75 L156.90,14.95 Q156.20,17.25 155.70,17.25 L155.25,17.05 L155.00,16.75 L155.00,15.35 M158.25,17.75 L159.15,17.65 L160.00,18.00 Q161.80,18.75 162.70,20.05 L164.00,22.20 L163.05,22.65 L161.85,21.70 Q160.95,20.65 160.50,20.55 L160.00,20.50 L158.65,20.30 Q157.60,20.00 157.60,19.05 Q157.60,18.55 158.00,18.00 L158.25,17.75 Z"/>
        <path fill="#05D6FF" fill-opacity="1.00" d="M96.95,-24.30 L96.90,-20.65 L96.95,-18.65 Q96.95,-16.70 97.10,-15.75 Q97.45,-12.95 98.70,-12.95 Q99.95,-12.95 100.10,-17.65 L100.05,-22.50 Q100.45,-21.95 101.15,-21.95 Q101.85,-21.95 102.40,-22.40 L102.80,-22.90 L102.70,-20.80 Q102.70,-18.55 102.95,-16.20 Q103.20,-13.60 103.60,-12.85 Q104.00,-12.10 105.10,-10.85 L105.15,-10.80 L105.80,-10.05 L106.40,-9.15 L105.95,-7.90 L105.80,-7.80 L104.90,-7.65 Q103.80,-7.65 102.80,-8.35 Q101.75,-9.05 101.25,-10.20 Q98.90,-9.10 97.45,-10.25 L96.75,-10.85 Q95.75,-11.80 95.40,-12.85 Q94.85,-14.40 94.60,-15.80 L94.45,-16.70 L94.35,-18.65 L94.30,-20.55 L94.35,-23.45 L94.55,-24.60 L94.60,-24.55 L94.95,-24.10 L95.60,-23.85 Q96.25,-23.85 96.95,-24.30 M113.30,-19.65 L114.25,-17.40 Q114.50,-17.70 115.35,-17.90 L115.90,-18.00 L115.60,-16.85 Q115.60,-16.35 116.00,-16.30 L116.90,-16.35 L117.75,-16.10 Q118.00,-15.85 118.50,-15.85 Q119.00,-15.85 119.30,-16.25 L119.70,-15.45 L120.15,-14.30 L121.00,-10.65 L121.30,-7.65 Q121.60,-1.15 123.30,1.75 L123.30,2.05 L123.20,3.20 L122.60,3.70 L120.70,1.90 Q119.30,0.45 119.00,-0.50 L118.90,-1.05 L119.00,-2.05 L119.05,-2.35 L119.20,-3.70 L119.05,-5.45 L119.00,-5.70 L118.80,-7.05 L117.60,-12.40 Q116.80,-15.30 115.50,-15.15 Q114.20,-15.05 114.55,-13.10 L115.55,-8.10 L116.05,-5.45 L116.15,-4.45 L115.80,-3.55 Q115.45,-3.15 114.55,-3.15 Q113.05,-3.15 112.70,-5.05 L112.70,-5.45 L112.50,-9.55 Q112.00,-15.85 110.80,-17.65 Q110.35,-18.35 109.75,-18.35 L109.10,-18.25 Q109.90,-14.05 110.10,-10.85 L110.20,-8.50 L110.05,-5.80 L110.00,-5.45 L109.90,-4.55 L106.80,-6.05 L106.95,-10.85 L107.00,-13.50 Q107.00,-16.10 106.05,-20.05 L105.70,-21.25 L106.30,-22.05 L107.05,-22.25 L107.85,-21.75 L108.30,-21.25 Q108.30,-20.35 108.75,-20.30 L110.50,-20.25 L110.80,-20.10 L110.85,-20.05 L111.35,-19.40 Q111.85,-18.55 112.25,-18.55 Q112.85,-18.55 113.30,-19.65 M130.80,-8.35 L131.15,-8.05 L131.80,-7.30 Q133.30,-5.30 133.70,-2.20 Q134.00,-2.50 134.85,-2.75 L135.55,-2.90 Q135.40,-2.55 135.40,-2.00 L135.60,-1.50 L135.85,-1.45 L136.90,-1.35 L137.65,-0.75 L137.75,-0.65 Q138.10,-0.35 138.50,-0.35 L139.00,-0.65 L139.30,-1.00 L139.55,-1.35 L139.80,-0.90 L139.95,-0.65 Q140.65,0.95 141.00,4.35 L141.30,11.25 L141.35,11.75 L141.60,14.05 L141.90,11.75 L142.00,11.15 Q142.30,9.75 142.90,8.60 L143.20,8.05 Q143.50,7.55 143.95,7.25 Q144.10,8.05 145.30,8.10 L147.80,8.15 L149.55,9.55 Q150.80,10.75 151.40,10.75 Q152.20,10.75 152.45,9.70 L153.70,11.75 L154.20,13.10 Q154.55,14.30 154.40,15.40 L154.20,16.35 Q153.80,18.15 153.25,18.90 Q152.55,19.80 151.45,19.80 Q150.35,19.80 148.85,18.85 L147.40,17.70 L145.70,15.85 L145.50,18.40 Q145.50,21.05 146.40,22.95 Q146.85,23.95 147.40,24.40 L148.30,24.75 Q150.00,24.75 152.40,22.95 L152.75,22.65 L152.90,22.65 L152.95,22.50 L153.00,22.20 L153.50,20.35 L154.20,18.25 L154.30,17.95 L154.90,15.60 L155.00,15.35 L155.00,16.75 L155.25,17.05 L155.70,17.25 Q156.20,17.25 156.90,14.95 L157.65,15.95 Q158.15,17.00 158.00,17.75 L158.25,17.75 L158.00,18.00 Q157.60,18.55 157.60,19.05 Q157.60,20.00 158.65,20.30 L160.00,20.50 L160.50,20.55 Q160.95,20.65 161.85,21.70 L163.05,22.65 L164.00,22.20 L164.75,23.50 Q164.05,25.25 162.95,25.25 Q162.25,25.25 160.80,23.75 L160.00,23.05 Q158.95,22.25 158.00,22.25 L157.15,22.30 Q156.85,22.40 156.70,23.05 L156.70,24.15 L156.80,24.15 L156.20,33.75 L151.00,31.15 L151.00,27.50 L150.10,27.55 L147.40,27.25 L145.60,26.55 Q143.10,25.35 142.30,22.95 L142.00,21.75 L141.90,20.35 L142.00,19.10 Q140.25,18.05 139.15,16.05 Q137.90,13.75 138.10,11.95 L138.10,11.75 L138.25,5.80 Q138.25,1.45 136.95,1.25 Q136.10,1.10 135.60,1.90 Q135.30,2.30 135.10,3.05 L134.80,4.25 Q134.55,5.40 134.60,6.15 L134.60,6.35 L134.80,8.60 L135.00,10.25 L134.80,11.10 L134.70,11.30 L134.30,11.75 L132.75,11.75 L131.90,11.15 Q131.20,10.40 131.20,9.60 L131.45,7.55 L131.60,6.35 L131.70,4.05 Q131.75,2.25 131.10,-1.85 Q130.45,-5.95 129.05,-5.95 Q128.20,-5.95 127.80,-3.55 Q127.50,-1.85 127.50,0.40 Q127.50,3.10 127.65,4.75 L127.80,6.25 L127.20,6.10 L126.20,5.65 Q125.30,5.25 124.80,4.75 L124.60,4.55 L124.75,-3.25 Q124.70,-9.45 123.35,-12.20 Q124.30,-11.95 124.90,-10.75 L125.90,-8.55 Q126.05,-8.25 126.65,-8.30 L127.80,-8.35 L128.45,-8.05 L128.75,-7.80 Q129.20,-7.45 129.75,-7.45 Q130.30,-7.45 130.65,-8.05 L130.80,-8.35 M149.90,11.75 Q149.25,10.80 148.30,10.80 Q146.75,10.80 146.60,12.30 L147.40,13.65 L148.55,15.10 Q149.65,16.20 150.20,16.20 Q150.60,16.20 150.60,15.00 Q150.60,12.90 149.90,11.80 L149.90,11.75 Z"/>
    </g>
</svg>
