<svg version="1.1" xmlns="http://www.w3.org/2000/svg" width="1024" height="768">
    <g transform="scale(17.35,17.35) translate(1.60,0.98)">
        <path fill="#52B70D" fill-opacity="1.00" d="M11.10,22.50 Q11.20,23.05 10.95,23.65 Q9.60,23.05 8.00,23.30 Q9.55,23.25 10.85,23.80 L10.75,24.00 Q10.95,23.35 10.25,25.05 L7.85,25.70 Q5.00,24.35 1.95,24.30 L10.75,24.00 L1.95,24.30 L1.95,24.25 L11.10,22.50 M10.25,25.40 Q10.00,24.50 10.50,27.25 Q9.30,26.40 8.10,25.85 L10.25,25.40 M42.85,21.10 L47.25,20.90 Q48.30,21.85 47.90,21.55 Q45.95,22.00 44.35,23.15 L47.95,21.60 L48.35,22.30 Q48.75,22.95 47.55,24.60 Q42.75,28.25 39.00,28.85 Q38.25,28.30 38.10,27.90 Q39.00,27.85 38.05,27.75 Q37.60,25.60 37.80,26.35 Q38.55,26.90 39.95,26.80 Q38.70,26.80 37.80,26.15 L38.20,25.20 Q39.55,27.20 42.30,26.80 Q39.65,27.00 38.25,25.15 Q38.50,24.85 39.15,24.50 Q42.70,22.70 42.85,21.10 M51.55,20.95 Q54.70,21.30 55.80,22.35 Q53.55,21.85 51.05,22.80 L51.50,21.50 Q51.60,20.70 51.55,20.95 M39.20,30.50 Q41.85,32.50 42.10,32.85 Q42.10,32.35 42.00,33.80 Q40.90,33.05 39.50,33.20 Q40.90,33.30 41.95,33.90 L41.80,34.45 Q35.60,32.80 35.10,32.50 Q35.60,32.80 41.80,34.45 Q40.85,35.65 41.15,35.25 L40.15,34.20 L41.05,35.40 L39.60,36.00 Q38.70,35.20 38.35,34.10 Q38.35,35.35 39.50,36.05 Q40.30,35.75 37.90,36.55 Q28.25,34.50 29.85,31.45 Q29.85,32.50 30.90,33.45 Q30.00,32.30 30.10,31.30 Q30.70,30.75 31.60,30.75 Q30.40,32.85 32.35,34.20 Q30.85,32.65 31.70,30.75 Q31.90,30.80 31.90,30.45 Q32.40,29.60 34.30,29.90 Q31.85,30.35 34.90,30.00 L35.45,30.05 Q31.40,31.10 36.75,30.25 Q37.00,30.20 39.20,30.50 M44.35,35.40 Q46.80,38.80 47.05,42.70 L44.35,40.10 Q44.30,41.10 44.55,38.20 Q44.70,39.00 44.55,37.70 L44.50,36.60 L44.35,35.40 M19.80,34.85 L15.20,35.40 L11.80,34.70 Q13.95,34.65 15.15,32.90 Q13.35,34.60 10.85,34.60 Q12.20,34.15 13.25,33.25 L10.05,34.55 L9.80,34.55 L11.40,33.35 L8.65,34.70 L7.75,34.85 Q9.75,33.30 7.10,34.95 Q2.70,36.20 1.75,38.00 L0.00,39.45 Q3.40,34.45 9.05,32.70 L8.90,32.70 L13.05,32.60 Q12.00,31.70 10.10,32.30 L12.40,31.50 Q12.45,32.55 13.90,32.70 Q13.65,32.65 14.35,32.75 L15.10,32.70 Q15.65,32.75 16.15,32.55 Q15.45,32.75 16.95,32.70 L16.90,32.70 L16.90,32.65 L16.95,32.70 Q15.30,34.15 13.40,34.65 Q16.20,34.15 17.10,32.75 L18.35,33.05 Q17.25,33.95 15.70,34.30 Q17.65,34.30 18.70,33.20 Q18.95,33.30 19.25,33.45 Q19.20,33.35 19.40,33.45 Q18.70,34.20 19.55,33.55 Q20.10,33.90 19.80,34.85 M9.50,24.20 Q10.20,23.80 8.05,24.75 Q9.30,24.95 9.50,24.20 M35.05,32.50 Q33.75,32.05 31.90,30.45 Q33.75,32.05 35.05,32.50 Q34.85,34.70 36.85,35.70 Q35.30,34.40 35.10,32.50 L35.10,32.20 L35.05,32.50 M32.55,31.20 Q31.95,33.35 33.60,34.75 Q32.45,33.00 32.55,31.20 M45.00,21.80 Q43.40,21.95 42.00,23.60 Q40.35,24.60 45.00,21.80 M43.30,24.35 Q43.10,25.40 44.65,25.10 Q43.60,25.25 43.30,24.35 M45.70,24.75 L45.10,25.00 L45.75,24.75 L45.70,24.75 M45.30,23.65 L45.25,23.65 Q50.25,24.65 45.30,23.65 M45.00,25.75 Q42.15,26.50 40.80,24.70 Q42.15,27.00 45.00,25.75 M35.90,31.25 Q34.65,31.35 34.65,31.75 Q35.25,31.50 38.25,31.10 Q37.15,30.85 35.90,31.25 M48.35,22.30 Q45.00,24.25 39.15,24.50 Q45.00,24.25 48.35,22.30 M55.20,21.90 L51.50,21.50 L55.20,21.90 M41.30,33.10 Q39.60,30.95 36.35,32.40 Q39.00,31.60 41.30,33.10 M44.90,37.15 L44.50,36.60 L44.90,37.15 Q45.65,39.35 45.45,38.00 Q44.70,36.55 44.90,37.15 M47.05,42.70 Q46.50,39.90 45.45,38.00 Q46.50,39.90 47.05,42.70 M34.05,32.05 Q33.25,34.00 35.25,35.35 Q33.70,33.90 34.05,32.05 M36.65,33.25 Q36.40,35.20 38.40,36.15 Q37.10,35.10 36.65,33.25 M1.65,37.30 Q4.45,34.10 13.90,32.70 Q4.45,34.10 1.65,37.30 M15.90,32.60 L15.90,32.60 M13.25,32.60 L13.15,32.60 L13.25,32.65 L13.25,32.60 M10.55,34.70 L10.55,34.70 M6.90,35.05 L6.90,35.05 Z"/>
        <path fill="#337D06" fill-opacity="1.00" d="M6.90,35.05 L6.90,35.05 M19.00,24.95 Q18.60,23.60 17.45,23.15 Q18.40,23.85 18.85,24.90 L17.20,24.60 L18.85,24.90 Q18.05,27.10 15.30,27.00 Q17.25,26.80 18.00,25.35 Q16.20,27.00 14.70,26.95 Q18.15,27.30 19.00,25.30 L19.05,25.45 Q19.05,25.35 19.00,24.95 L20.75,25.30 L19.00,24.95 M20.90,25.40 Q20.20,23.80 19.20,23.45 L20.75,25.30 L20.85,25.50 Q19.35,25.65 18.45,26.80 Q21.00,25.80 21.10,26.15 Q21.20,26.05 20.90,25.40 L22.50,25.85 L20.90,25.40 M22.70,25.90 Q22.10,24.80 21.40,24.35 Q21.80,25.20 22.50,25.85 Q22.65,26.00 22.70,25.90 L23.55,26.20 L22.70,25.90 M23.70,26.25 Q23.40,25.25 22.75,24.90 L23.55,26.20 L23.75,26.40 L23.70,26.25 Q24.85,26.70 25.70,27.25 Q24.85,26.70 23.70,26.25 M11.10,22.50 Q21.55,21.20 25.70,27.25 Q21.95,26.05 18.30,28.10 Q14.65,30.15 10.50,27.25 Q10.00,24.50 10.25,25.40 Q11.95,23.90 12.50,24.75 Q12.45,24.60 11.60,24.00 L10.95,23.65 Q11.20,23.05 11.10,22.50 M15.90,24.45 L11.60,24.00 L15.90,24.45 Q13.05,26.00 10.25,25.55 Q13.70,26.50 16.10,24.45 L16.15,24.35 L15.90,24.45 M17.15,24.60 L16.10,24.45 L17.15,24.60 Q17.20,24.80 17.20,24.60 Q16.95,23.00 15.40,22.85 Q16.65,23.35 17.15,24.60 M12.05,22.80 L12.00,22.80 Q14.00,23.30 15.05,24.25 Q14.00,22.65 12.05,22.80 M10.75,24.00 L11.40,24.00 L10.75,24.00 L10.85,23.80 Q11.40,24.00 11.80,24.25 L10.25,25.05 Q10.95,23.35 10.75,24.00 M25.70,27.25 L27.75,27.25 Q32.85,20.95 42.85,21.10 Q42.70,22.70 39.15,24.50 Q35.35,24.55 33.00,25.45 Q35.35,24.55 39.15,24.50 Q38.50,24.85 38.25,25.15 Q37.60,24.15 38.20,25.20 L37.80,26.15 Q37.15,25.70 36.80,24.85 Q37.05,25.85 37.80,26.35 Q37.60,25.60 38.05,27.75 Q35.45,27.50 34.35,25.20 Q35.10,27.90 38.10,27.90 Q38.25,28.30 39.00,28.85 L36.40,29.05 Q37.85,29.65 39.20,30.50 Q37.00,30.20 36.75,30.25 Q36.90,29.75 35.45,30.05 L34.90,30.00 L35.40,29.60 L34.30,29.90 Q32.40,29.60 31.90,30.45 Q31.90,30.80 31.70,30.75 Q31.95,30.20 31.60,30.75 Q30.70,30.75 30.10,31.30 Q30.10,30.40 30.85,29.50 Q30.00,30.20 29.85,31.45 Q28.25,34.50 37.90,36.55 Q37.50,36.70 37.35,36.80 Q26.90,35.35 29.00,27.35 Q24.05,34.90 19.80,34.85 Q20.10,33.90 19.55,33.55 Q20.75,32.40 20.75,30.80 Q20.25,32.55 19.40,33.45 Q19.20,33.35 19.25,33.45 Q18.95,33.30 18.70,33.20 L19.55,31.65 L18.35,33.05 L17.10,32.75 L17.30,32.35 L16.95,32.70 Q15.45,32.75 16.15,32.55 L18.50,31.95 L16.15,32.55 Q15.65,32.75 15.10,32.70 L14.35,32.75 Q13.65,32.65 13.90,32.70 Q12.45,32.55 12.40,31.50 Q22.95,27.05 25.70,27.25 M15.20,35.40 Q7.50,35.25 5.70,36.05 Q5.70,36.10 5.60,36.15 L5.60,36.10 Q3.55,36.75 1.75,38.00 Q2.70,36.20 7.10,34.95 Q5.55,36.00 7.75,34.85 L8.65,34.70 Q6.45,35.50 9.80,34.55 L10.05,34.55 Q8.90,34.80 11.80,34.70 L15.20,35.40 M12.30,26.40 Q16.10,27.00 17.30,24.85 Q15.15,26.75 12.30,26.40 M21.85,30.25 Q16.80,29.55 16.55,30.40 Q19.35,29.60 21.80,30.30 Q21.65,30.45 20.75,31.00 Q21.65,30.45 21.80,30.30 L22.05,30.35 L21.85,30.25 Q23.05,29.45 23.10,29.50 Q23.05,29.45 21.85,30.25 M15.25,31.30 L15.20,31.35 Q16.10,31.40 17.45,30.85 L16.80,30.80 Q17.20,30.70 15.25,31.30 M14.40,31.45 Q13.65,31.45 12.65,32.10 L18.05,31.85 L14.40,31.45 M23.20,29.40 Q22.15,27.80 18.15,29.70 Q15.50,29.75 23.10,29.50 Q23.25,29.60 23.20,29.40 L25.15,28.30 L23.20,29.40 M25.30,28.20 L25.35,28.10 Q25.20,28.30 24.65,28.20 L25.15,28.30 Q23.30,30.00 23.05,32.50 Q24.45,28.70 25.55,28.30 L25.25,28.30 L25.30,28.20 L26.25,27.80 L25.30,28.20 M26.45,27.75 L26.55,27.50 L26.25,27.80 Q24.65,29.60 24.65,31.75 L26.45,27.75 L27.75,27.25 L26.45,27.75 M29.00,27.35 L27.75,27.25 L29.00,27.35 Q30.95,26.15 32.85,25.50 Q30.95,26.15 29.00,27.35 Q30.50,29.20 31.90,30.45 Q30.50,29.20 29.00,27.35 Q33.10,27.65 36.40,29.05 Q33.10,27.65 29.00,27.35 M33.00,25.45 Q33.90,23.75 36.10,23.00 Q33.40,23.50 32.85,25.50 L32.85,25.60 L33.00,25.45 M22.10,28.05 Q20.40,28.60 24.95,28.15 Q23.25,27.70 22.10,28.05 M18.50,31.90 Q19.45,31.60 20.65,31.00 Q19.45,31.60 18.50,31.90 Q18.40,31.90 18.50,31.95 L18.55,31.95 L18.50,32.00 Q18.60,32.00 18.50,31.90 M20.25,31.10 Q20.30,30.95 20.00,31.00 L20.25,31.10 M32.95,28.65 Q30.40,29.10 35.45,28.85 Q32.40,28.50 32.95,28.65 M23.50,29.30 Q21.95,31.20 21.70,33.65 Q22.40,31.30 23.50,29.30 M21.95,30.65 Q21.35,32.95 20.15,34.55 Q21.75,33.10 21.95,30.65 M29.30,31.00 Q29.45,29.45 29.75,28.85 Q28.65,30.10 29.20,31.75 L29.30,31.00 M40.70,22.50 Q38.70,23.00 36.85,24.60 L40.70,22.50 M41.90,22.50 Q40.45,22.95 38.75,24.05 L41.90,22.50 M37.50,23.35 Q36.60,23.55 35.35,24.60 Q34.20,25.25 37.50,23.35 M16.90,32.70 L16.95,32.70 L16.90,32.65 L16.90,32.70 M15.90,32.60 L15.90,32.60 L15.10,32.70 L15.90,32.60 M13.25,32.60 L13.25,32.65 L13.15,32.60 L13.25,32.60 M10.55,34.70 L10.55,34.70 Z"/>
        <path fill="#8FBA2C" fill-opacity="1.00" d="M18.50,31.90 Q18.60,32.00 18.50,32.00 L18.55,31.95 L18.50,31.95 Q18.40,31.90 18.50,31.90 Z"/>
        <path fill="#9DEB69" fill-opacity="1.00" d="M47.25,20.90 L51.55,20.95 Q51.60,20.70 51.50,21.50 Q49.80,21.55 48.35,22.30 Q49.80,21.55 51.50,21.50 L51.05,22.80 Q49.35,23.35 47.55,24.60 Q48.75,22.95 48.35,22.30 L47.95,21.60 L48.20,21.45 L47.90,21.55 Q48.30,21.85 47.25,20.90 M42.10,32.85 L44.35,35.40 L44.50,36.60 Q43.35,35.15 41.80,34.45 Q43.35,35.15 44.50,36.60 L44.55,37.70 Q44.15,36.35 43.20,35.80 Q44.15,36.95 44.55,38.20 Q44.30,41.10 44.35,40.10 Q41.05,37.35 37.35,36.80 Q37.50,36.70 37.90,36.55 Q40.30,35.75 39.50,36.05 L39.70,36.15 L39.60,36.00 L41.05,35.40 L41.55,36.05 Q41.60,35.95 41.15,35.25 Q40.85,35.65 41.80,34.45 L41.95,33.90 Q44.00,35.65 42.00,33.80 Q42.10,32.35 42.10,32.85 Z"/>
        <path fill="#8AA714" fill-opacity="1.00" d="M18.85,24.90 Q18.40,23.85 17.45,23.15 Q18.60,23.60 19.00,24.95 Q19.05,25.35 19.05,25.45 L19.00,25.30 Q18.15,27.30 14.70,26.95 Q16.20,27.00 18.00,25.35 Q17.25,26.80 15.30,27.00 Q18.05,27.10 18.85,24.90 M20.75,25.30 L19.20,23.45 Q20.20,23.80 20.90,25.40 Q21.20,26.05 21.10,26.15 Q21.00,25.80 18.45,26.80 Q19.35,25.65 20.85,25.50 L20.75,25.30 M22.50,25.85 Q21.80,25.20 21.40,24.35 Q22.10,24.80 22.70,25.90 Q22.65,26.00 22.50,25.85 M23.55,26.20 L22.75,24.90 Q23.40,25.25 23.70,26.25 L23.75,26.40 L23.55,26.20 M10.95,23.65 L11.60,24.00 Q12.45,24.60 12.50,24.75 Q11.95,23.90 10.25,25.40 L8.10,25.85 L7.35,25.75 L7.85,25.70 L10.25,25.05 L11.80,24.25 Q11.40,24.00 10.85,23.80 Q9.55,23.25 8.00,23.30 Q9.60,23.05 10.95,23.65 M15.90,24.45 L16.15,24.35 L16.10,24.45 Q13.70,26.50 10.25,25.55 Q13.05,26.00 15.90,24.45 M17.15,24.60 Q16.65,23.35 15.40,22.85 Q16.95,23.00 17.20,24.60 Q17.20,24.80 17.15,24.60 M12.05,22.80 Q14.00,22.65 15.05,24.25 Q14.00,23.30 12.00,22.80 L12.05,22.80 M9.05,32.70 Q8.45,32.85 10.10,32.30 Q12.00,31.70 13.05,32.60 L8.90,32.70 L9.05,32.70 M9.50,24.20 Q9.30,24.95 8.05,24.75 Q10.20,23.80 9.50,24.20 M12.30,26.40 Q15.15,26.75 17.30,24.85 Q16.10,27.00 12.30,26.40 M14.40,31.45 L18.05,31.85 L12.65,32.10 Q13.65,31.45 14.40,31.45 M15.25,31.30 Q17.20,30.70 16.80,30.80 L17.45,30.85 Q16.10,31.40 15.20,31.35 L15.25,31.30 M21.80,30.30 Q19.35,29.60 16.55,30.40 Q16.80,29.55 21.85,30.25 L22.05,30.35 L21.80,30.30 M23.10,29.50 Q15.50,29.75 18.15,29.70 Q22.15,27.80 23.20,29.40 Q23.25,29.60 23.10,29.50 M25.15,28.30 L24.65,28.20 Q25.20,28.30 25.35,28.10 L25.30,28.20 L25.25,28.30 L25.55,28.30 Q24.45,28.70 23.05,32.50 Q23.30,30.00 25.15,28.30 M26.25,27.80 L26.55,27.50 L26.45,27.75 L24.65,31.75 Q24.65,29.60 26.25,27.80 M32.85,25.50 Q33.40,23.50 36.10,23.00 Q33.90,23.75 33.00,25.45 L32.85,25.60 L32.85,25.50 M22.10,28.05 Q23.25,27.70 24.95,28.15 Q20.40,28.60 22.10,28.05 M19.40,33.45 Q20.25,32.55 20.75,30.80 Q20.75,32.40 19.55,33.55 Q18.70,34.20 19.40,33.45 M16.95,32.70 L17.30,32.35 L17.10,32.75 Q16.20,34.15 13.40,34.65 Q15.30,34.15 16.95,32.70 M18.35,33.05 L19.55,31.65 L18.70,33.20 Q17.65,34.30 15.70,34.30 Q17.25,33.95 18.35,33.05 M20.25,31.10 L20.00,31.00 Q20.30,30.95 20.25,31.10 M21.95,30.65 Q21.75,33.10 20.15,34.55 Q21.35,32.95 21.95,30.65 M23.50,29.30 Q22.40,31.30 21.70,33.65 Q21.95,31.20 23.50,29.30 M32.95,28.65 Q32.40,28.50 35.45,28.85 Q30.40,29.10 32.95,28.65 M29.85,31.45 Q30.00,30.20 30.85,29.50 Q30.10,30.40 30.10,31.30 Q30.00,32.30 30.90,33.45 Q29.85,32.50 29.85,31.45 M31.60,30.75 Q31.95,30.20 31.70,30.75 Q30.85,32.65 32.35,34.20 Q30.40,32.85 31.60,30.75 M34.90,30.00 Q31.85,30.35 34.30,29.90 L35.40,29.60 L34.90,30.00 M35.05,32.50 L35.10,32.20 L35.10,32.50 Q35.30,34.40 36.85,35.70 Q34.85,34.70 35.05,32.50 M41.95,33.90 Q40.90,33.30 39.50,33.20 Q40.90,33.05 42.00,33.80 Q44.00,35.65 41.95,33.90 M32.55,31.20 Q32.45,33.00 33.60,34.75 Q31.95,33.35 32.55,31.20 M29.30,31.00 L29.20,31.75 Q28.65,30.10 29.75,28.85 Q29.45,29.45 29.30,31.00 M47.95,21.60 L44.35,23.15 Q45.95,22.00 47.90,21.55 L48.20,21.45 L47.95,21.60 M45.00,21.80 Q40.35,24.60 42.00,23.60 Q43.40,21.95 45.00,21.80 M41.90,22.50 L38.75,24.05 Q40.45,22.95 41.90,22.50 M40.70,22.50 L36.85,24.60 Q38.70,23.00 40.70,22.50 M38.25,25.15 Q39.65,27.00 42.30,26.80 Q39.55,27.20 38.20,25.20 Q37.60,24.15 38.25,25.15 M37.80,26.15 Q38.70,26.80 39.95,26.80 Q38.55,26.90 37.80,26.35 Q37.05,25.85 36.80,24.85 Q37.15,25.70 37.80,26.15 M38.05,27.75 Q39.00,27.85 38.10,27.90 Q35.10,27.90 34.35,25.20 Q35.45,27.50 38.05,27.75 M37.50,23.35 Q34.20,25.25 35.35,24.60 Q36.60,23.55 37.50,23.35 M36.75,30.25 Q31.40,31.10 35.45,30.05 Q36.90,29.75 36.75,30.25 M35.90,31.25 Q37.15,30.85 38.25,31.10 Q35.25,31.50 34.65,31.75 Q34.65,31.35 35.90,31.25 M45.00,25.75 Q42.15,27.00 40.80,24.70 Q42.15,26.50 45.00,25.75 M45.30,23.65 Q50.25,24.65 45.25,23.65 L45.30,23.65 M45.70,24.75 L45.75,24.75 L45.10,25.00 L45.70,24.75 M43.30,24.35 Q43.60,25.25 44.65,25.10 Q43.10,25.40 43.30,24.35 M41.30,33.10 Q39.00,31.60 36.35,32.40 Q39.60,30.95 41.30,33.10 M41.15,35.25 Q41.60,35.95 41.55,36.05 L41.05,35.40 L40.15,34.20 L41.15,35.25 M39.60,36.00 L39.70,36.15 L39.50,36.05 Q38.35,35.35 38.35,34.10 Q38.70,35.20 39.60,36.00 M44.55,38.20 Q44.15,36.95 43.20,35.80 Q44.15,36.35 44.55,37.70 Q44.70,39.00 44.55,38.20 M44.90,37.15 Q44.70,36.55 45.45,38.00 Q45.65,39.35 44.90,37.15 M36.65,33.25 Q37.10,35.10 38.40,36.15 Q36.40,35.20 36.65,33.25 M34.05,32.05 Q33.70,33.90 35.25,35.35 Q33.25,34.00 34.05,32.05 M10.05,34.55 L13.25,33.25 Q12.20,34.15 10.85,34.60 Q13.35,34.60 15.15,32.90 Q13.95,34.65 11.80,34.70 Q8.90,34.80 10.05,34.55 M8.65,34.70 L11.40,33.35 L9.80,34.55 Q6.45,35.50 8.65,34.70 M7.75,34.85 Q5.55,36.00 7.10,34.95 Q9.75,33.30 7.75,34.85 Z"/>
        <path stroke="#1C8A0F" stroke-width="0.05" stroke-opacity="1.00" stroke-linecap="butt" stroke-linejoin="round" stroke-miterlimit="3.00" fill="transparent" d="M25.70,27.25 Q21.55,21.20 11.10,22.50 M1.95,24.25 L11.10,22.50 M1.95,24.30 Q5.00,24.35 7.85,25.70 M10.50,27.25 Q14.65,30.15 18.30,28.10 Q21.95,26.05 25.70,27.25 L27.75,27.25 Q32.85,20.95 42.85,21.10 L47.25,20.90 L51.55,20.95 Q54.70,21.30 55.80,22.35 Q53.55,21.85 51.05,22.80 Q49.35,23.35 47.55,24.60 Q42.75,28.25 39.00,28.85 L36.40,29.05 Q37.85,29.65 39.20,30.50 Q41.85,32.50 42.10,32.85 L44.35,35.40 Q46.80,38.80 47.05,42.70 L44.35,40.10 Q41.05,37.35 37.35,36.80 Q26.90,35.35 29.00,27.35 Q24.05,34.90 19.80,34.85 L15.20,35.40 Q7.50,35.25 5.70,36.05 M5.60,36.10 Q3.55,36.75 1.75,38.00 L0.00,39.45 Q3.40,34.45 9.05,32.70 M10.10,32.30 L12.40,31.50 Q22.95,27.05 25.70,27.25 M8.10,25.85 Q9.30,26.40 10.50,27.25 M27.75,27.25 L29.00,27.35 Q33.10,27.65 36.40,29.05 M1.95,24.25 L1.85,24.30 L1.95,24.30"/>
        <path stroke="#A4CD19" stroke-width="0.05" stroke-opacity="1.00" stroke-linecap="butt" stroke-linejoin="round" stroke-miterlimit="3.00" fill="transparent" d="M13.90,32.70 Q4.45,34.10 1.65,37.30"/>
        <path stroke="#95C316" stroke-width="0.05" stroke-opacity="1.00" stroke-linecap="butt" stroke-linejoin="round" stroke-miterlimit="3.00" fill="transparent" d="M19.00,24.95 L20.75,25.30 M20.90,25.40 L22.50,25.85 M22.70,25.90 L23.55,26.20 M23.70,26.25 Q24.85,26.70 25.70,27.25 M11.60,24.00 L15.90,24.45 M16.10,24.45 L17.15,24.60 M17.20,24.60 L18.85,24.90 M11.40,24.00 L10.75,24.00 L1.95,24.30 M29.00,27.35 Q30.95,26.15 32.85,25.50 M33.00,25.45 Q35.35,24.55 39.15,24.50 Q45.00,24.25 48.35,22.30 Q49.80,21.55 51.50,21.50 L55.20,21.90 M31.90,30.45 Q30.50,29.20 29.00,27.35 M31.90,30.45 Q33.75,32.05 35.05,32.50 M35.10,32.50 Q35.60,32.80 41.80,34.45 Q43.35,35.15 44.50,36.60 L44.90,37.15 M45.45,38.00 Q46.50,39.90 47.05,42.70"/>
        <path stroke="#8AA714" stroke-width="0.05" stroke-opacity="1.00" stroke-linecap="butt" stroke-linejoin="round" stroke-miterlimit="3.00" fill="transparent" d="M21.85,30.25 Q23.05,29.45 23.10,29.50 M23.20,29.40 L25.15,28.30 M25.30,28.20 L26.25,27.80 M26.45,27.75 L27.75,27.25 M20.65,31.00 Q19.45,31.60 18.50,31.90 M18.55,31.95 L18.50,31.95 L16.15,32.55 M21.80,30.30 Q21.65,30.45 20.75,31.00 M15.10,32.70 L14.35,32.75 M15.90,32.60 L15.10,32.70"/>
        <path fill="#FAD7D3" fill-opacity="1.00" d="M41.75,20.10 L41.90,19.90 L41.80,20.20 L41.75,20.10 Z"/>
        <path fill="#ED6C5F" fill-opacity="1.00" d="M31.40,2.85 Q28.75,2.60 29.20,3.90 Q26.75,3.10 28.15,5.10 Q25.40,4.45 25.75,4.65 Q27.10,1.50 22.70,0.05 Q28.30,2.20 31.40,2.85 M25.50,5.10 Q27.90,9.00 22.35,4.85 Q22.35,8.90 19.75,6.15 Q16.10,8.10 16.80,6.05 Q16.50,6.05 13.05,8.10 Q14.10,6.30 15.50,5.05 Q18.20,3.80 16.25,5.55 Q24.85,4.50 19.50,1.15 Q20.25,-0.40 21.50,0.70 L23.45,2.20 Q24.70,3.10 25.50,5.10 Z"/>
        <path fill="#F2A59D" fill-opacity="1.00" d="M25.50,5.10 L25.50,5.00 Q28.95,7.80 29.30,9.70 Q29.35,12.00 26.90,8.90 Q25.10,6.65 22.75,7.65 Q19.35,11.65 15.70,8.30 Q14.20,7.25 11.20,12.40 Q11.90,9.95 13.05,8.10 Q16.50,6.05 16.80,6.05 Q16.10,8.10 19.75,6.15 Q22.35,8.90 22.35,4.85 Q27.90,9.00 25.50,5.10 M36.10,5.10 Q30.70,2.30 31.25,4.75 Q31.50,6.05 30.30,5.50 Q29.05,4.90 29.35,7.05 Q26.05,5.00 25.75,4.65 Q25.40,4.45 28.15,5.10 Q26.75,3.10 29.20,3.90 Q28.75,2.60 31.40,2.85 Q33.95,3.25 36.10,5.10 M32.15,24.40 Q35.60,22.25 37.70,23.25 Q40.40,23.55 41.75,20.10 L41.80,20.20 L40.50,23.30 Q35.50,23.75 30.40,25.90 L32.15,24.40 M10.70,17.90 Q14.40,24.70 22.45,24.20 Q21.80,23.55 30.75,24.60 Q30.35,25.70 30.10,25.90 Q24.10,25.65 22.95,27.65 Q21.00,29.45 17.20,29.10 Q11.60,26.75 10.70,17.90 Z"/>
        <path fill="#CF2727" fill-opacity="1.00" d="M25.50,5.00 L25.50,5.10 Q24.70,3.10 23.45,2.20 L21.50,0.70 Q22.20,0.10 22.70,0.05 Q27.10,1.50 25.75,4.65 L25.50,5.00 L25.20,4.80 L25.50,5.00 M19.50,1.15 Q24.85,4.50 16.25,5.55 Q18.20,3.80 15.50,5.05 Q18.60,2.65 19.50,1.15 M26.05,3.30 Q24.90,3.10 23.45,2.20 Q24.90,3.10 26.05,3.30 Z"/>
        <path fill="#E66F6F" fill-opacity="1.00" d="M25.75,4.65 Q26.05,5.00 29.35,7.05 Q34.30,16.20 32.15,24.40 L30.40,25.90 L30.10,25.90 Q30.35,25.70 30.75,24.60 Q31.90,18.15 30.05,11.85 L29.30,9.70 Q28.95,7.80 25.50,5.00 L25.75,4.65 Z"/>
        <path fill="#EEA2A2" fill-opacity="1.00" d="M29.35,7.05 Q36.80,13.75 32.15,24.40 Q34.30,16.20 29.35,7.05 Z"/>
        <path fill="#FFF1EE" fill-opacity="1.00" d="M34.80,5.55 Q42.70,11.15 40.00,19.00 Q37.10,22.10 38.10,17.40 Q39.65,14.70 34.80,5.55 Z"/>
        <path fill="#F3B176" fill-opacity="1.00" d="M22.90,18.90 L22.90,18.95 L22.80,18.85 L22.90,18.90 Z"/>
        <path fill="#EDE689" fill-opacity="1.00" d="M30.40,25.90 Q35.50,23.75 40.50,23.30 Q39.05,25.75 36.75,26.45 Q32.55,26.95 30.40,25.90 M25.35,29.30 Q21.20,31.00 17.20,29.10 Q21.00,29.45 22.95,27.65 Q24.10,25.65 30.10,25.90 Q25.95,28.45 25.35,29.30 Z"/>
        <path fill="#D6C63A" fill-opacity="1.00" d="M25.35,29.30 Q25.95,28.45 30.10,25.90 L30.40,25.90 Q32.55,26.95 36.75,26.45 Q28.70,27.35 25.35,29.30 Z"/>
        <path fill="#FDD2D0" fill-opacity="1.00" d="M34.80,5.55 Q39.65,14.70 38.10,17.40 Q37.10,22.10 40.00,19.00 Q42.70,11.15 34.80,5.55 M29.35,7.05 Q29.05,4.90 30.30,5.50 Q31.50,6.05 31.25,4.75 Q30.70,2.30 36.10,5.10 Q43.80,12.60 41.90,19.90 L41.75,20.10 Q40.40,23.55 37.70,23.25 Q35.60,22.25 32.15,24.40 Q36.80,13.75 29.35,7.05 M11.20,12.40 Q14.20,7.25 15.70,8.30 Q19.35,11.65 22.75,7.65 Q25.10,6.65 26.90,8.90 Q29.35,12.00 29.30,9.70 L30.05,11.85 Q31.90,18.15 30.75,24.60 Q21.80,23.55 22.45,24.20 Q14.40,24.70 10.70,17.90 Q10.45,14.95 11.20,12.40 M28.30,11.15 Q29.70,16.65 29.90,22.40 Q32.00,16.15 28.30,11.15 M22.90,18.90 L22.80,18.85 L22.90,18.95 L22.90,18.90 Z"/>
        <path fill="#FFE2E1" fill-opacity="1.00" d="M28.30,11.15 Q32.00,16.15 29.90,22.40 Q29.70,16.65 28.30,11.15 Z"/>
        <path stroke="#E18484" stroke-width="0.05" stroke-opacity="1.00" stroke-linecap="butt" stroke-linejoin="round" stroke-miterlimit="3.00" fill="transparent" d="M36.10,5.10 Q33.95,3.25 31.40,2.85 Q28.30,2.20 22.70,0.05 Q22.20,0.10 21.50,0.70 Q20.25,-0.40 19.50,1.15 Q18.60,2.65 15.50,5.05 Q14.10,6.30 13.05,8.10 Q11.90,9.95 11.20,12.40 Q10.45,14.95 10.70,17.90 M41.75,20.10 L41.90,19.90 Q43.80,12.60 36.10,5.10 M40.50,23.30 L41.80,20.20 M30.05,11.85 L29.30,9.70 Q28.95,7.80 25.50,5.00 L25.20,4.80 M36.75,26.45 Q28.70,27.35 25.35,29.30 Q21.20,31.00 17.20,29.10 Q11.60,26.75 10.70,17.90 M36.75,26.45 Q39.05,25.75 40.50,23.30 M41.90,19.90 L41.80,20.20 M23.45,2.20 L21.50,0.70 M23.45,2.20 Q24.90,3.10 26.05,3.30"/>
        <path fill="#881D1A" fill-opacity="0.20" d="M19.50,1.10 Q22.30,-0.15 16.25,8.65 Q11.60,23.30 22.95,27.65 Q24.80,29.10 26.65,27.80 Q30.70,25.45 33.30,27.25 Q29.35,26.90 28.25,27.95 Q15.75,34.30 11.35,21.60 Q8.00,10.45 19.50,1.10 Z"/>
    </g>
</svg>
