<svg version="1.1" xmlns="http://www.w3.org/2000/svg" width="1024" height="768">
    <defs>
        <radialGradient cx="84.15" cy="-8.60" fx="84.15" fy="-8.60" r="80.53" gradientUnits="userSpaceOnUse" spreadMethod="pad" id="G1">
            <stop offset="0.05" stop-color="#3C7FD6" stop-opacity="1.00"/>
            <stop offset="0.97" stop-color="#2C5CAA" stop-opacity="1.00"/>
        </radialGradient>
        <radialGradient cx="35.35" cy="10.80" fx="35.35" fy="10.80" r="37.36" gradientUnits="userSpaceOnUse" spreadMethod="pad" id="G2">
            <stop offset="0.05" stop-color="#368AC0" stop-opacity="1.00"/>
            <stop offset="0.97" stop-color="#2680B5" stop-opacity="1.00"/>
        </radialGradient>
        <radialGradient cx="51.15" cy="10.40" fx="51.15" fy="10.40" r="75.63" gradientUnits="userSpaceOnUse" spreadMethod="pad" id="G3">
            <stop offset="0.05" stop-color="#53CDFC" stop-opacity="1.00"/>
            <stop offset="0.97" stop-color="#2F93E9" stop-opacity="1.00"/>
        </radialGradient>
        <linearGradient x1="68.30" y1="5.20" x2="166.90" y2="5.20" gradientUnits="userSpaceOnUse" spreadMethod="pad" id="G4">
            <stop offset="0.00" stop-color="#54C9E8" stop-opacity="1.00"/>
            <stop offset="0.51" stop-color="#59D5EE" stop-opacity="1.00"/>
            <stop offset="1.00" stop-color="#35B3DA" stop-opacity="1.00"/>
        </linearGradient>
        <linearGradient x1="101.72" y1="-58.15" x2="185.67" y2="-58.15" gradientUnits="userSpaceOnUse" spreadMethod="pad" id="G5">
            <stop offset="0.05" stop-color="#0C52A8" stop-opacity="1.00"/>
            <stop offset="0.97" stop-color="#0F5EAC" stop-opacity="1.00"/>
        </linearGradient>
        <linearGradient x1="95.97" y1="-17.10" x2="167.92" y2="-17.10" gradientUnits="userSpaceOnUse" spreadMethod="pad" id="G6">
            <stop offset="0.05" stop-color="#6268B4" stop-opacity="1.00"/>
            <stop offset="0.97" stop-color="#374EA7" stop-opacity="1.00"/>
        </linearGradient>
        <radialGradient cx="189.75" cy="88.50" fx="189.75" fy="88.50" r="13.65" gradientUnits="userSpaceOnUse" spreadMethod="pad" id="G7">
            <stop offset="0.05" stop-color="#8E4678" stop-opacity="1.00"/>
            <stop offset="0.97" stop-color="#762059" stop-opacity="1.00"/>
        </radialGradient>
        <linearGradient x1="202.60" y1="129.00" x2="214.10" y2="129.00" gradientUnits="userSpaceOnUse" spreadMethod="pad" id="G8">
            <stop offset="0.07" stop-color="#5F5D6F" stop-opacity="1.00"/>
            <stop offset="0.99" stop-color="#49465B" stop-opacity="1.00"/>
        </linearGradient>
        <linearGradient x1="203.05" y1="129.55" x2="223.15" y2="129.55" gradientUnits="userSpaceOnUse" spreadMethod="pad" id="G9">
            <stop offset="0.05" stop-color="#7A4726" stop-opacity="1.00"/>
            <stop offset="0.99" stop-color="#673D23" stop-opacity="1.00"/>
        </linearGradient>
        <linearGradient x1="161.92" y1="138.80" x2="177.78" y2="138.80" gradientUnits="userSpaceOnUse" spreadMethod="pad" id="G10">
            <stop offset="0.05" stop-color="#BC865D" stop-opacity="1.00"/>
            <stop offset="0.99" stop-color="#D0A464" stop-opacity="1.00"/>
        </linearGradient>
        <linearGradient x1="187.60" y1="181.45" x2="191.80" y2="177.25" gradientUnits="userSpaceOnUse" spreadMethod="pad" id="G11">
            <stop offset="0.07" stop-color="#D4BD8E" stop-opacity="1.00"/>
            <stop offset="0.99" stop-color="#AB784B" stop-opacity="1.00"/>
        </linearGradient>
        <linearGradient x1="126.99" y1="89.44" x2="124.11" y2="100.16" gradientUnits="userSpaceOnUse" spreadMethod="pad" id="G12">
            <stop offset="0.05" stop-color="#6F3063" stop-opacity="1.00"/>
            <stop offset="0.99" stop-color="#783458" stop-opacity="1.00"/>
        </linearGradient>
        <linearGradient x1="61.30" y1="78.83" x2="68.40" y2="93.98" gradientUnits="userSpaceOnUse" spreadMethod="pad" id="G13">
            <stop offset="0.00" stop-color="#CD436B" stop-opacity="1.00"/>
            <stop offset="1.00" stop-color="#D25789" stop-opacity="1.00"/>
        </linearGradient>
        <linearGradient x1="50.75" y1="125.90" x2="74.25" y2="125.90" gradientUnits="userSpaceOnUse" spreadMethod="pad" id="G14">
            <stop offset="0.00" stop-color="#C17B2C" stop-opacity="1.00"/>
            <stop offset="1.00" stop-color="#CC8D22" stop-opacity="1.00"/>
        </linearGradient>
        <linearGradient x1="114.32" y1="105.89" x2="157.57" y2="141.01" gradientUnits="userSpaceOnUse" spreadMethod="pad" id="G15">
            <stop offset="0.05" stop-color="#A06232" stop-opacity="1.00"/>
            <stop offset="0.37" stop-color="#C7A35E" stop-opacity="1.00"/>
        </linearGradient>
        <linearGradient x1="101.43" y1="138.90" x2="129.38" y2="138.90" gradientUnits="userSpaceOnUse" spreadMethod="pad" id="G16">
            <stop offset="0.05" stop-color="#837664" stop-opacity="1.00"/>
            <stop offset="0.99" stop-color="#A3A599" stop-opacity="1.00"/>
        </linearGradient>
        <radialGradient cx="141.95" cy="183.30" fx="141.95" fy="183.30" r="21.90" gradientUnits="userSpaceOnUse" spreadMethod="pad" id="G17">
            <stop offset="0.07" stop-color="#966039" stop-opacity="1.00"/>
            <stop offset="0.99" stop-color="#894D24" stop-opacity="1.00"/>
        </radialGradient>
    </defs>
    <g transform="scale(2.43,2.43) translate(79.52,88.12)">
        <path fill="#329AEA" fill-opacity="1.00" d="M42.80,-66.60 L42.80,-77.55 L68.15,-77.20 L68.15,-75.20 L42.80,-66.60 Z"/>
        <path fill="#2C82BB" fill-opacity="1.00" d="M42.80,-66.60 L68.15,-69.40 L68.15,-75.20 L68.15,-77.20 L42.80,-77.55 L42.80,-66.60 M29.55,-38.80 L31.55,-59.60 L42.80,-77.55 L43.55,-78.80 L68.95,-80.00 L76.60,-72.85 L77.35,-67.00 L73.10,-59.35 L69.15,-61.00 L62.15,-68.00 L44.15,-64.40 L38.45,-54.40 L38.45,-44.45 L29.55,-38.80 Z"/>
        <path fill="#2D599B" fill-opacity="1.00" d="M38.45,-44.45 L38.45,-54.40 L44.15,-64.40 L62.15,-68.00 L59.90,-67.10 L45.35,-61.60 L41.00,-51.60 L41.00,-45.80 L39.95,-45.40 L38.45,-44.45 Z"/>
        <path fill="#316FB5" fill-opacity="1.00" d="M76.60,-72.85 L78.35,-71.20 L82.45,-57.10 L81.85,-57.00 L79.50,-56.75 L73.10,-59.35 L77.35,-67.00 L76.60,-72.85 Z"/>
        <path fill="#2B4A8C" fill-opacity="1.00" d="M69.15,-61.00 L73.10,-59.35 L79.50,-56.75 L66.50,-55.20 L64.75,-55.00 L62.75,-54.20 L54.35,-50.95 L66.55,-57.20 L67.75,-57.80 L69.15,-61.00 Z"/>
        <path fill="#2A7FB7" fill-opacity="1.00" d="M69.15,-61.00 L67.75,-57.80 L66.55,-57.20 L66.55,-61.20 L59.90,-67.10 L62.15,-68.00 L69.15,-61.00 Z"/>
        <path fill="url(#G1)" d="M82.45,-57.10 L87.60,-57.70 L96.00,-40.55 L96.05,-40.45 L97.05,-37.65 L84.75,-55.00 L84.75,-47.20 L99.35,-20.80 L114.35,-7.60 L134.95,3.20 L159.75,10.40 L162.60,10.35 L163.15,13.80 L156.75,12.80 L164.60,29.20 L165.85,30.10 L166.40,33.55 L161.15,33.80 L131.15,27.00 L104.35,12.80 L83.15,-6.00 L70.35,-25.20 L70.00,-26.35 L64.75,-42.40 L64.75,-43.20 L64.75,-55.00 L66.50,-55.20 L67.95,-52.00 L81.85,-57.00 L82.45,-57.10 M80.55,-51.90 L80.55,-55.00 L74.15,-51.90 L67.75,-48.80 L80.55,-48.80 L80.55,-51.90 M69.45,-36.90 L69.95,-34.20 L79.55,-47.20 L76.40,-46.70 L67.75,-45.35 L69.45,-36.90 M75.30,-35.50 L73.35,-33.00 L87.15,-34.00 L86.30,-35.90 L82.35,-44.60 L75.30,-35.50 M83.10,-27.95 L73.15,-27.00 L79.70,-17.10 L81.35,-14.60 L85.55,-28.20 L83.20,-27.95 L83.10,-27.95 M92.15,-26.60 L90.95,-28.20 L86.35,-13.40 L99.15,-17.00 L97.75,-18.90 L92.15,-26.60 M96.30,2.05 L99.15,4.80 L99.95,-12.80 L85.35,-8.60 L87.80,-6.20 L96.30,2.05 M119.15,-1.25 Q114.15,-4.05 109.75,-7.90 Q107.15,-10.15 104.75,-12.80 L103.95,8.00 L107.95,10.80 L124.15,1.20 L119.15,-1.25 M138.05,7.85 L134.55,6.80 L136.75,24.00 L152.15,12.00 L148.45,10.90 L138.05,7.85 M128.15,20.65 L131.55,22.20 L128.55,4.20 L113.35,13.80 L116.30,15.15 L128.15,20.65 M146.55,26.00 L156.45,28.35 L160.15,29.20 L154.35,18.20 L143.15,25.20 L146.55,26.00 Z"/>
        <path fill="#2FA6D1" fill-opacity="1.00" d="M62.75,-54.20 L64.75,-55.00 L64.75,-43.20 L62.75,-41.60 L62.75,-53.20 L62.75,-54.20 Z"/>
        <path fill="#3E89B5" fill-opacity="1.00" d="M62.75,-54.20 L62.75,-53.20 L60.70,-51.10 L30.35,-36.60 L30.20,-37.10 L29.55,-38.80 L38.45,-44.45 L39.95,-45.40 L41.00,-45.80 L54.35,-50.95 L62.75,-54.20 Z"/>
        <path fill="#619DB7" fill-opacity="1.00" d="M66.50,-55.20 L79.50,-56.75 L81.85,-57.00 L67.95,-52.00 L66.50,-55.20 Z"/>
        <path fill="#E5AA55" fill-opacity="1.00" d="M74.15,-51.90 L80.55,-55.00 L80.55,-51.90 L74.15,-51.90 Z"/>
        <path fill="#53B1BD" fill-opacity="1.00" d="M74.15,-51.90 L80.55,-51.90 L80.55,-48.80 L67.75,-48.80 L74.15,-51.90 Z"/>
        <path fill="#3673C1" fill-opacity="1.00" d="M60.70,-51.10 L62.75,-53.20 L62.75,-41.60 L68.30,-24.55 L68.95,-22.60 L81.75,-5.00 L104.15,15.80 L130.15,29.00 L164.35,36.80 L166.90,36.70 L179.80,36.00 L180.85,39.05 L167.95,39.40 L128.75,30.40 L103.35,18.20 L80.15,-3.40 L67.15,-22.20 L60.75,-41.60 L61.75,-51.60 L60.70,-51.10 Z"/>
        <path fill="#349EED" fill-opacity="1.00" d="M60.70,-51.10 L61.75,-51.60 L60.75,-41.60 L30.35,-30.20 L30.35,-36.60 L60.70,-51.10 Z"/>
        <path fill="#F8FEFE" fill-opacity="1.00" d="M42.80,-66.60 L68.15,-75.20 L68.15,-69.40 L42.80,-66.60 Z"/>
        <path fill="#EFDE3E" fill-opacity="1.00" d="M12.30,43.45 L9.15,32.00 L10.35,8.80 L17.95,-21.20 L29.55,-38.80 L30.20,-37.10 L19.55,-20.80 L12.50,9.35 L12.50,34.60 L17.50,45.60 L13.15,46.60 L12.30,43.45 Z"/>
        <path fill="url(#G2)" d="M30.35,-30.20 L30.35,-10.60 L37.15,8.40 L44.55,17.40 L64.95,37.05 L63.15,37.40 L54.75,32.20 L52.60,34.50 L49.90,38.55 L33.90,44.60 L31.75,45.40 L27.15,43.40 L17.50,45.60 L12.50,34.60 L12.50,9.35 L19.55,-20.80 L30.20,-37.10 L30.35,-36.60 L30.35,-30.20 Z"/>
        <path fill="url(#G3)" d="M30.35,-30.20 L60.75,-41.60 L67.15,-22.20 L80.15,-3.40 L103.35,18.20 L128.75,30.40 L167.95,39.40 L167.95,53.40 L164.50,61.15 L163.75,61.40 L124.75,62.80 L112.95,61.40 L106.35,60.60 L75.95,47.60 L64.95,37.05 L44.55,17.40 L37.15,8.40 L30.35,-10.60 L30.35,-30.20 M43.95,-14.60 L33.55,-9.20 L42.55,7.40 L53.95,-0.40 L43.95,-14.60 M55.95,21.00 L63.95,16.80 L58.55,9.80 L51.75,14.40 L55.95,21.00 Z"/>
        <path fill="#40A5CD" fill-opacity="1.00" d="M76.40,-46.70 L79.55,-47.20 L69.95,-34.20 L69.45,-36.90 L76.40,-46.70 Z"/>
        <path fill="#47B4DA" fill-opacity="1.00" d="M68.30,-24.55 L62.75,-41.60 L64.75,-43.20 L64.75,-42.40 L70.00,-26.35 L68.30,-24.55 Z"/>
        <path fill="url(#G4)" d="M68.30,-24.55 L70.00,-26.35 L70.35,-25.20 L83.15,-6.00 L104.35,12.80 L131.15,27.00 L161.15,33.80 L166.40,33.55 L166.90,36.70 L164.35,36.80 L130.15,29.00 L104.15,15.80 L81.75,-5.00 L68.95,-22.60 L68.30,-24.55 Z"/>
        <path fill="#43B2D7" fill-opacity="1.00" d="M86.30,-35.90 L87.15,-34.00 L73.35,-33.00 L75.30,-35.50 L86.30,-35.90 Z"/>
        <path fill="#E6B159" fill-opacity="1.00" d="M76.40,-46.70 L69.45,-36.90 L67.75,-45.35 L76.40,-46.70 Z"/>
        <path fill="#FEFEFE" fill-opacity="1.00" d="M43.95,-14.60 L53.95,-0.40 L42.55,7.40 L33.55,-9.20 L43.95,-14.60 M55.95,21.00 L51.75,14.40 L58.55,9.80 L63.95,16.80 L55.95,21.00 Z"/>
        <path fill="#FEE154" fill-opacity="1.00" d="M79.70,-17.10 L73.15,-27.00 L83.10,-27.95 L79.70,-17.10 Z"/>
        <path fill="#339AEA" fill-opacity="1.00" d="M91.95,-72.00 L94.95,-76.80 L97.75,-78.20 L104.15,-84.00 L126.75,-84.00 L153.35,-72.60 L161.75,-67.80 L182.75,-47.80 L186.45,-41.80 Q184.50,-42.50 183.95,-42.80 L183.55,-42.80 L182.75,-43.70 Q181.00,-45.60 180.00,-45.60 L179.35,-45.30 L179.05,-45.05 L168.95,-56.20 L150.55,-68.80 L127.95,-79.20 L110.15,-79.20 L103.95,-76.20 L101.75,-68.00 L102.75,-63.60 L102.80,-63.40 L102.75,-62.90 L102.80,-60.85 Q102.95,-59.40 103.55,-58.20 L103.55,-56.60 Q103.30,-56.70 99.80,-58.85 L96.05,-60.80 L94.20,-60.30 L93.90,-60.15 L91.95,-72.00 Z"/>
        <path fill="url(#G5)" d="M163.70,-49.90 L155.55,-57.80 L124.15,-72.60 L108.35,-71.60 L102.85,-63.70 L102.75,-63.60 L101.75,-68.00 L103.95,-76.20 L110.15,-79.20 L127.95,-79.20 L150.55,-68.80 L168.95,-56.20 L179.05,-45.05 L183.30,-40.35 L184.55,-39.00 L185.50,-37.35 L185.70,-37.05 L185.65,-37.10 L185.50,-37.30 L182.80,-40.30 Q179.75,-43.35 175.25,-46.60 Q168.30,-51.60 165.95,-51.60 Q164.90,-51.60 164.00,-50.40 L163.70,-49.90 Z"/>
        <path fill="#1B2C72" fill-opacity="1.00" d="M163.70,-49.90 L163.30,-49.15 L135.15,-65.00 L118.95,-63.60 L121.20,-49.90 L133.95,-35.20 L148.80,-24.15 L152.50,-21.40 L145.95,-21.40 Q145.50,-21.20 144.70,-19.80 L127.75,-29.20 L104.95,-53.80 L102.80,-63.40 L102.85,-63.70 L108.35,-71.60 L124.15,-72.60 L155.55,-57.80 L163.70,-49.90 Z"/>
        <path fill="#1E468E" fill-opacity="1.00" d="M87.60,-57.70 L87.95,-57.80 L89.30,-62.60 L97.15,-41.40 L123.75,-14.20 L160.55,-0.60 L162.50,-0.90 L166.90,4.95 L159.15,3.40 L123.55,-11.00 L96.00,-40.55 L87.60,-57.70 Z"/>
        <path fill="#3CB2FB" fill-opacity="1.00" d="M102.80,-63.40 L104.95,-53.80 L127.75,-29.20 L144.70,-19.80 L144.60,-19.70 L143.75,-18.20 L144.85,-17.20 L146.05,-16.40 L146.95,-16.60 L147.85,-16.80 Q150.80,-16.80 153.85,-13.20 L156.95,-8.40 L157.65,-7.45 L125.15,-18.40 L110.25,-32.90 L113.35,-34.60 L107.35,-41.20 L104.60,-38.40 L102.95,-40.00 L105.55,-42.60 L101.15,-49.40 L98.95,-46.90 L94.95,-53.80 L93.90,-60.15 L94.20,-60.30 L96.05,-60.80 L99.80,-58.85 Q103.30,-56.70 103.55,-56.60 L103.55,-58.20 Q102.95,-59.40 102.80,-60.85 L102.75,-62.90 L102.80,-63.40 Z"/>
        <path fill="#0779D1" fill-opacity="1.00" d="M89.30,-62.60 L91.95,-72.00 L93.90,-60.15 L94.95,-53.80 L98.95,-46.90 L102.95,-40.00 L104.60,-38.40 L110.25,-32.90 L125.15,-18.40 L157.65,-7.45 L162.50,-0.90 L160.55,-0.60 L123.75,-14.20 L97.15,-41.40 L89.30,-62.60 Z"/>
        <path fill="#1F377A" fill-opacity="1.00" d="M133.95,-35.20 L121.20,-49.90 L118.95,-63.60 L135.15,-65.00 L163.30,-49.15 L163.70,-49.90 L180.55,-33.60 L184.75,-21.20 L183.65,-18.50 L182.25,-19.00 L180.60,-18.65 L177.55,-27.80 L160.95,-45.40 L153.50,-48.40 L148.15,-50.60 L138.55,-43.40 L133.95,-35.20 Z"/>
        <path fill="#F6FBFC" fill-opacity="1.00" d="M102.95,-40.00 L98.95,-46.90 L101.15,-49.40 L105.55,-42.60 L102.95,-40.00 Z"/>
        <path fill="#FBFDFD" fill-opacity="1.00" d="M104.60,-38.40 L107.35,-41.20 L113.35,-34.60 L110.25,-32.90 L104.60,-38.40 Z"/>
        <path fill="url(#G6)" d="M97.05,-37.65 L96.05,-40.45 L96.00,-40.55 L123.55,-11.00 L159.15,3.40 L166.90,4.95 L167.95,6.40 L161.95,6.40 L160.15,6.40 L124.75,-6.80 L98.95,-32.40 L97.05,-37.65 Z"/>
        <path fill="#4AC2E8" fill-opacity="1.00" d="M79.70,-17.10 L83.10,-27.95 L83.20,-27.95 L85.55,-28.20 L81.35,-14.60 L79.70,-17.10 Z"/>
        <path fill="#55D4EC" fill-opacity="1.00" d="M97.75,-18.90 L99.15,-17.00 L86.35,-13.40 L90.95,-28.20 L92.15,-26.60 L89.35,-16.40 L97.75,-18.90 Z"/>
        <path fill="#F9CD53" fill-opacity="1.00" d="M75.30,-35.50 L82.35,-44.60 L86.30,-35.90 L75.30,-35.50 Z"/>
        <path fill="#3299EA" fill-opacity="1.00" d="M162.60,10.35 L159.75,10.40 L134.95,3.20 L114.35,-7.60 L99.35,-20.80 L84.75,-47.20 L84.75,-55.00 L97.05,-37.65 L98.95,-32.40 L124.75,-6.80 L160.15,6.40 L161.95,6.40 L162.60,10.35 Z"/>
        <path fill="#5DDDEF" fill-opacity="1.00" d="M87.80,-6.20 L85.35,-8.60 L99.95,-12.80 L99.15,4.80 L96.30,2.05 L96.95,-8.80 L87.80,-6.20 Z"/>
        <path fill="#FFE562" fill-opacity="1.00" d="M87.80,-6.20 L96.95,-8.80 L96.30,2.05 L87.80,-6.20 Z"/>
        <path fill="#FDE153" fill-opacity="1.00" d="M97.75,-18.90 L89.35,-16.40 L92.15,-26.60 L97.75,-18.90 Z"/>
        <path fill="#56CFEA" fill-opacity="1.00" d="M109.75,-7.90 L107.95,4.20 L119.15,-1.25 L124.15,1.20 L107.95,10.80 L103.95,8.00 L104.75,-12.80 Q107.15,-10.15 109.75,-7.90 Z"/>
        <path fill="#FEDE55" fill-opacity="1.00" d="M109.75,-7.90 Q114.15,-4.05 119.15,-1.25 L107.95,4.20 L109.75,-7.90 Z"/>
        <path fill="#0E66AE" fill-opacity="1.00" d="M152.50,-21.40 L148.80,-24.15 L153.50,-48.40 L160.95,-45.40 L177.55,-27.80 L180.60,-18.65 L179.60,-18.40 L178.40,-18.05 L174.15,-22.40 L167.15,-18.80 L160.75,-22.60 L158.95,-21.40 L152.50,-21.40 Z"/>
        <path fill="#165A97" fill-opacity="1.00" d="M148.80,-24.15 L133.95,-35.20 L138.55,-43.40 L148.15,-50.60 L153.50,-48.40 L148.80,-24.15 Z"/>
        <path fill="#DBF8F9" fill-opacity="1.00" d="M188.70,0.55 Q189.70,2.15 190.35,4.00 L190.15,4.00 Q188.00,0.55 184.20,-2.95 Q180.05,-6.75 175.75,-9.00 L176.45,-5.15 Q176.85,-2.95 177.55,-1.60 L179.55,1.60 Q180.95,3.80 181.35,5.40 L177.45,-0.25 Q175.35,-3.05 174.15,-3.60 Q166.15,-7.60 164.25,-7.60 Q163.50,-7.60 163.15,-6.50 Q162.85,-5.40 161.75,-5.40 Q161.15,-5.40 159.25,-6.55 L157.65,-7.45 L156.95,-8.40 L153.85,-13.20 Q150.80,-16.80 147.85,-16.80 L146.95,-16.60 L146.05,-16.40 L144.85,-17.20 L143.75,-18.20 L144.60,-19.70 L144.70,-19.80 Q145.50,-21.20 145.95,-21.40 L152.50,-21.40 L158.95,-21.40 L160.75,-22.60 L167.15,-18.80 L174.15,-22.40 L178.40,-18.05 L179.60,-18.40 L180.60,-18.65 L182.25,-19.00 L183.65,-18.50 L185.35,-17.40 Q187.55,-15.80 187.55,-15.10 Q187.55,-14.65 184.55,-14.15 L179.75,-13.20 L179.55,-13.00 Q179.75,-12.45 183.85,-10.15 L186.40,-8.45 Q187.75,-7.30 187.75,-6.30 Q187.75,-4.85 187.45,-4.55 L185.80,-3.70 L185.40,-3.65 L187.85,-0.70 L188.70,0.55 Z"/>
        <path fill="#2BD7F1" fill-opacity="1.00" d="M190.35,4.00 L200.85,25.25 L206.35,41.25 L209.00,61.60 Q206.80,61.30 204.40,53.95 Q201.65,45.55 200.75,44.80 L199.85,46.10 L199.65,46.45 L199.75,45.80 L198.75,45.80 L197.80,47.00 L197.40,47.65 L196.95,46.65 L196.95,46.40 L198.10,44.15 L198.15,42.30 L197.85,40.70 L197.55,38.80 L197.15,38.60 L196.60,41.80 Q196.25,43.50 195.75,44.00 L192.25,36.30 Q188.80,28.55 188.35,26.60 L188.35,28.30 L188.55,30.60 Q188.70,31.80 190.35,35.60 L191.90,40.10 L192.60,42.50 L192.05,42.40 Q191.75,42.40 191.30,42.80 L190.95,43.20 L190.55,43.20 L190.05,39.80 L189.35,36.20 L189.15,36.20 Q188.50,32.90 186.40,29.60 Q183.70,25.30 182.75,22.80 Q180.75,17.45 178.10,12.20 Q174.65,5.45 172.35,3.60 L172.35,3.80 Q177.00,12.80 179.95,24.85 L183.05,38.95 Q182.20,39.85 182.05,41.85 L182.05,42.55 L181.45,40.80 L180.85,39.05 L179.80,36.00 L178.70,32.85 L177.65,29.80 L174.45,20.60 L172.45,14.85 L171.15,11.10 L171.95,10.20 L167.95,6.40 L166.90,4.95 L162.50,-0.90 L157.65,-7.45 L159.25,-6.55 Q161.15,-5.40 161.75,-5.40 Q162.85,-5.40 163.15,-6.50 Q163.50,-7.60 164.25,-7.60 Q166.15,-7.60 174.15,-3.60 Q175.35,-3.05 177.45,-0.25 L181.35,5.40 Q180.95,3.80 179.55,1.60 L177.55,-1.60 Q176.85,-2.95 176.45,-5.15 L175.75,-9.00 Q180.05,-6.75 184.20,-2.95 Q188.00,0.55 190.15,4.00 L190.35,4.00 Z"/>
        <path fill="#1580C9" fill-opacity="1.00" d="M163.70,-49.90 L164.00,-50.40 Q164.90,-51.60 165.95,-51.60 Q168.30,-51.60 175.25,-46.60 Q179.75,-43.35 182.80,-40.30 L185.50,-37.30 L185.65,-37.10 L185.70,-37.05 L188.30,-32.45 L188.35,-32.40 L191.05,-14.30 L186.40,-8.45 L183.85,-10.15 Q179.75,-12.45 179.55,-13.00 L179.75,-13.20 L184.55,-14.15 Q187.55,-14.65 187.55,-15.10 Q187.55,-15.80 185.35,-17.40 L183.65,-18.50 L184.75,-21.20 L180.55,-33.60 L163.70,-49.90 Z"/>
        <path fill="#3198EB" fill-opacity="1.00" d="M186.45,-41.80 L192.15,-32.40 L195.35,-14.80 L194.35,-8.20 L194.15,-7.95 L191.15,-4.80 L185.80,-3.70 L187.45,-4.55 Q187.75,-4.85 187.75,-6.30 Q187.75,-7.30 186.40,-8.45 L191.05,-14.30 L188.35,-32.40 L188.30,-32.45 L189.05,-32.30 Q189.65,-32.30 189.65,-32.75 Q187.45,-38.50 186.70,-38.50 Q186.35,-38.50 185.95,-38.10 L185.50,-37.35 L184.55,-39.00 L183.30,-40.35 L183.65,-40.50 Q184.45,-40.75 184.45,-41.15 Q184.45,-41.70 183.55,-42.80 L183.95,-42.80 Q184.50,-42.50 186.45,-41.80 Z"/>
        <path fill="#DEEDF7" fill-opacity="1.00" d="M183.30,-40.35 L179.05,-45.05 L179.35,-45.30 L180.00,-45.60 Q181.00,-45.60 182.75,-43.70 L183.55,-42.80 Q184.45,-41.70 184.45,-41.15 Q184.45,-40.75 183.65,-40.50 L183.30,-40.35 Z"/>
        <path fill="#CBE9F4" fill-opacity="1.00" d="M185.70,-37.05 L185.50,-37.35 L185.95,-38.10 Q186.35,-38.50 186.70,-38.50 Q187.45,-38.50 189.65,-32.75 Q189.65,-32.30 189.05,-32.30 L188.30,-32.45 L185.70,-37.05 Z"/>
        <path fill="#3078B8" fill-opacity="1.00" d="M194.15,-7.95 L188.70,0.55 L187.85,-0.70 L185.40,-3.65 L185.80,-3.70 L191.15,-4.80 L194.15,-7.95 Z"/>
        <path fill="#4E9EE8" fill-opacity="1.00" d="M183.05,38.95 L179.95,24.85 Q177.00,12.80 172.35,3.80 L172.35,3.60 Q174.65,5.45 178.10,12.20 Q180.75,17.45 182.75,22.80 Q183.70,25.30 186.40,29.60 Q188.50,32.90 189.15,36.20 L188.75,36.20 L189.10,40.15 Q189.40,43.85 188.60,43.50 Q187.75,43.15 186.20,40.50 Q184.65,37.75 183.45,38.65 L183.05,38.95 M192.60,42.50 L191.90,40.10 L190.35,35.60 Q188.70,31.80 188.55,30.60 L188.35,28.30 L188.35,26.60 Q188.80,28.55 192.25,36.30 L195.75,44.00 L195.25,44.20 L194.10,43.30 Q193.35,42.65 192.60,42.50 Z"/>
        <path fill="#2876B7" fill-opacity="1.00" d="M171.95,10.20 L162.60,10.35 L161.95,6.40 L167.95,6.40 L171.95,10.20 Z"/>
        <path fill="#1F4C9A" fill-opacity="1.00" d="M171.95,10.20 L171.15,11.10 L172.45,14.85 L169.30,14.50 L163.15,13.80 L162.60,10.35 L171.95,10.20 Z"/>
        <path fill="#37B5E1" fill-opacity="1.00" d="M165.85,30.10 L164.60,29.20 L156.75,12.80 L163.15,13.80 L164.90,24.45 L165.85,30.10 Z"/>
        <path fill="#91724C" fill-opacity="1.00" d="M169.30,14.50 L164.90,24.45 L163.15,13.80 L169.30,14.50 Z"/>
        <path fill="#2667B7" fill-opacity="1.00" d="M169.30,14.50 L172.45,14.85 L165.85,30.10 L164.90,24.45 L169.30,14.50 Z"/>
        <path fill="#1B4090" fill-opacity="1.00" d="M166.40,33.55 L165.85,30.10 L172.45,14.85 L174.45,20.60 L171.75,29.80 L177.65,29.80 L178.70,32.85 L166.40,33.55 Z"/>
        <path fill="#2A75B6" fill-opacity="1.00" d="M166.40,33.55 L178.70,32.85 L179.80,36.00 L166.90,36.70 L166.40,33.55 Z"/>
        <path fill="#36A7DB" fill-opacity="1.00" d="M181.45,40.80 L182.05,42.55 L182.15,44.50 L176.55,47.00 L172.55,56.40 L171.75,47.40 L175.75,42.20 L181.45,40.80 Z"/>
        <path fill="#2F3396" fill-opacity="1.00" d="M182.15,44.50 L182.85,49.20 Q183.80,54.20 184.25,54.20 L184.30,54.20 L183.20,54.60 L179.15,49.80 L172.55,56.40 L176.55,47.00 L182.15,44.50 Z"/>
        <path fill="#286DB5" fill-opacity="1.00" d="M167.95,39.40 L180.85,39.05 L181.45,40.80 L175.75,42.20 L171.75,47.40 L172.55,56.40 L179.15,49.80 L183.20,54.60 L164.50,61.15 L167.95,53.40 L167.95,39.40 Z"/>
        <path fill="#D9F7F9" fill-opacity="1.00" d="M189.15,36.20 L189.35,36.20 L190.05,39.80 L190.55,43.20 L190.95,43.20 L191.30,42.80 Q191.75,42.40 192.05,42.40 L192.60,42.50 Q193.35,42.65 194.10,43.30 L195.25,44.20 L195.75,44.00 Q196.25,43.50 196.60,41.80 L197.15,38.60 L197.55,38.80 L197.85,40.70 L198.15,42.30 L198.10,44.15 L196.95,46.40 L196.95,46.65 L196.95,48.20 L197.35,48.20 Q197.30,47.95 197.40,47.65 L197.80,47.00 L198.75,45.80 L199.75,45.80 L199.65,46.45 L199.45,47.85 L199.15,49.70 Q198.20,53.40 196.55,53.40 L196.05,53.30 L195.45,52.90 Q195.00,52.50 194.55,52.45 L194.25,52.40 Q192.70,52.40 191.70,55.35 L191.20,57.00 Q190.25,61.10 187.85,62.40 L187.45,61.90 L187.60,57.80 Q187.55,53.60 185.95,53.60 Q185.55,53.60 185.15,53.90 L184.30,54.20 L184.25,54.20 Q183.80,54.20 182.85,49.20 L182.15,44.50 L182.05,42.55 L182.05,41.85 Q182.20,39.85 183.05,38.95 L183.45,38.65 Q184.65,37.75 186.20,40.50 Q187.75,43.15 188.60,43.50 Q189.40,43.85 189.10,40.15 L188.75,36.20 L189.15,36.20 Z"/>
        <path fill="#90664C" fill-opacity="1.00" d="M174.45,20.60 L177.65,29.80 L171.75,29.80 L174.45,20.60 Z"/>
        <path fill="#59AEEA" fill-opacity="1.00" d="M209.00,61.60 L212.60,89.75 L212.55,89.75 L212.35,89.85 L210.75,90.70 L208.45,78.25 Q206.55,68.15 205.75,66.60 Q204.80,68.05 205.00,73.60 Q205.30,81.80 204.95,86.40 L204.75,86.40 Q200.90,66.80 199.15,53.40 Q198.80,53.95 198.35,56.20 Q198.00,58.15 197.35,58.40 Q197.00,57.90 196.40,55.20 L196.05,53.30 L196.55,53.40 Q198.20,53.40 199.15,49.70 L199.45,47.85 L199.65,46.45 L199.85,46.10 L200.75,44.80 Q201.65,45.55 204.40,53.95 Q206.80,61.30 209.00,61.60 M191.70,55.35 Q192.70,52.40 194.25,52.40 L194.55,52.45 L195.10,57.00 L195.15,61.50 L194.85,66.35 Q194.55,69.60 194.55,74.20 L194.35,74.20 Q193.80,72.15 192.95,64.80 L191.70,55.35 Z"/>
        <path fill="#2EDDF2" fill-opacity="1.00" d="M191.70,55.35 L192.95,64.80 Q193.80,72.15 194.35,74.20 L194.55,74.20 Q194.55,69.60 194.85,66.35 L195.15,61.50 L195.10,57.00 L194.55,52.45 Q195.00,52.50 195.45,52.90 L196.05,53.30 L196.40,55.20 Q197.00,57.90 197.35,58.40 Q198.00,58.15 198.35,56.20 Q198.80,53.95 199.15,53.40 Q200.90,66.80 204.75,86.40 L204.95,86.40 Q205.30,81.80 205.00,73.60 Q204.80,68.05 205.75,66.60 Q206.55,68.15 208.45,78.25 L210.75,90.70 L210.55,90.85 L208.45,88.65 L204.70,93.65 L202.20,90.90 L197.70,96.40 L197.70,100.75 Q197.70,99.85 196.90,98.10 Q196.20,96.40 195.60,96.15 Q195.40,92.95 194.35,91.15 L193.95,90.55 L190.35,81.00 L185.15,76.35 L189.55,73.40 L188.85,63.60 L187.85,62.40 Q190.25,61.10 191.20,57.00 L191.70,55.35 Z"/>
        <path fill="#2B42A4" fill-opacity="1.00" d="M163.75,61.40 L164.50,61.15 L183.20,54.60 L184.30,54.20 L185.15,53.90 Q185.55,53.60 185.95,53.60 Q187.55,53.60 187.60,57.80 L187.45,61.90 L186.45,60.70 L169.55,60.70 L167.20,62.60 Q164.05,64.75 160.55,65.90 L158.85,66.35 L161.85,63.30 L163.75,61.40 Z"/>
        <path fill="#692C21" fill-opacity="1.00" d="M187.45,61.90 L187.85,62.40 L188.85,63.60 L189.55,73.40 L185.15,76.35 L184.60,75.85 L183.75,73.20 L175.85,71.25 Q178.10,66.35 173.15,63.30 L167.20,62.60 L169.55,60.70 L186.45,60.70 L187.45,61.90 Z"/>
        <path fill="#6A3D23" fill-opacity="1.00" d="M167.20,62.60 L173.15,63.30 Q178.10,66.35 175.85,71.25 L169.25,69.60 L158.40,69.80 L156.75,69.85 L145.00,70.10 L143.30,70.10 L158.85,66.35 L160.55,65.90 Q164.05,64.75 167.20,62.60 Z"/>
        <path fill="#CD7948" fill-opacity="1.00" d="M158.40,69.80 L169.25,69.60 L175.85,71.25 L168.25,74.80 L167.55,74.55 Q161.65,72.30 158.40,69.80 Z"/>
        <path fill="#913E32" fill-opacity="1.00" d="M168.25,74.80 Q172.50,76.35 175.70,76.80 L176.50,76.90 L175.75,77.30 L175.15,77.60 L174.25,77.90 L174.10,77.95 Q170.00,76.85 166.65,75.55 L168.25,74.80 Z"/>
        <path fill="#61251B" fill-opacity="1.00" d="M174.50,82.55 L174.25,77.90 L175.15,77.60 L175.75,77.30 L176.25,81.85 L175.15,82.40 L174.50,82.55 Z"/>
        <path fill="#572014" fill-opacity="1.00" d="M174.50,82.55 L148.65,88.20 L145.20,88.60 L143.50,88.75 L142.75,85.40 L143.10,85.10 L143.95,84.20 L144.75,84.10 L155.75,82.75 L157.65,82.50 L158.35,82.40 L174.10,77.95 L174.25,77.90 L174.50,82.55 M183.75,73.20 L184.60,75.85 L184.95,77.00 L176.25,81.85 L175.75,77.30 L176.50,76.90 L183.75,73.20 Z"/>
        <path fill="#CD5644" fill-opacity="1.00" d="M183.75,73.20 L176.50,76.90 L175.70,76.80 Q172.50,76.35 168.25,74.80 L175.85,71.25 L183.75,73.20 Z"/>
        <path fill="#542314" fill-opacity="1.00" d="M148.65,88.20 L174.50,82.55 L175.15,82.40 L176.25,81.85 L184.95,77.00 L184.95,77.90 L178.35,81.60 L177.65,82.00 L176.65,82.30 L165.35,85.60 L153.10,89.15 L149.40,90.30 L148.65,88.20 Z"/>
        <path fill="#64194C" fill-opacity="1.00" d="M176.65,82.30 L177.65,82.00 L178.35,81.60 L185.50,92.80 L183.85,93.35 L176.65,82.30 Z"/>
        <path fill="#985A33" fill-opacity="1.00" d="M168.25,74.80 L166.65,75.55 Q160.45,73.15 156.75,69.85 L158.40,69.80 Q161.65,72.30 167.55,74.55 L168.25,74.80 Z"/>
        <path fill="#611A4D" fill-opacity="1.00" d="M172.35,98.15 L168.95,93.70 L162.65,96.40 L165.90,101.50 L164.15,103.15 L163.40,101.75 L160.75,96.80 L147.65,103.40 L145.85,101.40 L143.65,101.90 L140.45,93.70 L142.00,93.10 L146.55,100.70 L157.25,96.00 L153.10,89.15 L165.35,85.60 L173.80,97.40 L172.35,98.15 Z"/>
        <path fill="#7C275E" fill-opacity="1.00" d="M172.35,98.15 L168.90,99.90 L166.10,101.30 L165.90,101.50 L162.65,96.40 L168.95,93.70 L172.35,98.15 Z"/>
        <path fill="#6E5779" fill-opacity="1.00" d="M172.35,98.15 L173.80,97.40 L176.85,95.80 L183.85,93.35 L185.50,92.80 L189.50,91.40 L189.30,93.15 Q189.30,95.05 189.80,96.75 L179.85,99.05 L173.30,102.15 L168.90,99.90 L172.35,98.15 Z"/>
        <path fill="#772359" fill-opacity="1.00" d="M173.80,97.40 L165.35,85.60 L176.65,82.30 L183.85,93.35 L176.85,95.80 L173.80,97.40 Z"/>
        <path fill="#CD5847" fill-opacity="1.00" d="M174.10,77.95 L158.35,82.40 L157.65,82.50 L155.50,80.75 L157.30,79.90 L166.65,75.55 Q170.00,76.85 174.10,77.95 Z"/>
        <path fill="url(#G7)" d="M184.60,75.85 L185.15,76.35 L190.35,81.00 L193.95,90.55 Q192.95,89.30 191.60,89.30 Q190.80,89.30 190.00,89.80 Q189.25,90.30 189.40,91.05 L189.50,91.35 L189.50,91.40 L185.50,92.80 L178.35,81.60 L184.95,77.90 L184.95,77.00 L184.60,75.85 Z"/>
        <path fill="#DBF9F9" fill-opacity="1.00" d="M193.95,90.55 L194.35,91.15 Q195.40,92.95 195.60,96.15 L195.60,97.55 L195.35,101.05 Q195.05,101.90 194.00,101.90 Q192.50,101.90 191.10,99.70 L190.90,99.40 L190.60,98.80 L189.80,96.75 Q189.30,95.05 189.30,93.15 L189.50,91.40 L189.50,91.35 L189.40,91.05 Q189.25,90.30 190.00,89.80 Q190.80,89.30 191.60,89.30 Q192.95,89.30 193.95,90.55 Z"/>
        <path fill="#413857" fill-opacity="1.00" d="M189.80,96.75 L190.60,98.80 L190.55,99.65 L190.55,99.85 L190.60,101.10 L191.30,102.65 L191.00,102.85 Q190.05,102.15 188.75,101.55 L187.15,100.85 Q184.40,99.75 183.80,100.05 L182.55,100.65 Q182.05,101.00 181.60,102.05 L181.65,102.50 L173.85,104.80 L165.95,109.65 L164.95,116.15 L162.70,117.90 L162.70,109.05 L172.70,102.40 L173.30,102.15 L179.85,99.05 L189.80,96.75 Z"/>
        <path fill="#B2F4FD" fill-opacity="1.00" d="M195.60,96.15 Q196.20,96.40 196.90,98.10 Q197.70,99.85 197.70,100.75 L197.70,105.90 L198.20,105.90 Q198.15,107.50 197.75,108.65 L197.05,110.00 Q196.70,110.35 196.25,110.35 Q195.45,110.35 194.25,108.85 L193.35,107.35 L193.25,106.45 L193.25,106.15 Q193.00,104.30 191.00,102.85 L191.30,102.65 L190.60,101.10 L190.55,99.85 L190.55,99.65 L190.60,98.80 L190.90,99.40 L191.10,99.70 Q192.50,101.90 194.00,101.90 Q195.05,101.90 195.35,101.05 L195.60,97.55 L195.60,96.15 Z"/>
        <path fill="#DCF8F9" fill-opacity="1.00" d="M197.70,100.75 L197.70,96.40 L202.20,90.90 L204.70,93.65 L208.45,88.65 L210.55,90.85 L211.20,91.50 L202.35,105.75 L199.85,109.75 L199.85,105.90 L198.20,105.90 L197.70,105.90 L197.70,100.75 Z"/>
        <path fill="#64CBE3" fill-opacity="1.00" d="M212.60,89.75 L213.80,89.75 L215.00,90.15 L209.45,97.15 L210.95,98.40 L217.35,91.85 L217.40,91.85 Q217.95,92.90 217.95,95.10 L217.95,97.10 L217.90,97.30 L217.10,99.00 L216.60,99.20 Q214.75,99.95 211.50,102.55 Q208.80,104.75 206.55,107.20 L206.25,107.50 L206.15,107.60 L205.20,108.30 L203.95,108.35 Q202.20,108.35 202.20,106.85 L202.35,105.75 L211.20,91.50 L210.55,90.85 L210.75,90.70 L212.35,89.85 L212.55,89.75 L212.60,89.75 Z"/>
        <path fill="#E2FCF8" fill-opacity="1.00" d="M215.00,90.15 Q216.60,90.75 217.30,91.75 L217.35,91.85 L210.95,98.40 L209.45,97.15 L215.00,90.15 Z"/>
        <path fill="#7C9DB8" fill-opacity="1.00" d="M217.40,91.85 L219.00,92.15 L225.25,96.15 L231.85,103.65 L233.35,108.90 L222.20,124.80 L202.85,132.45 L202.15,132.40 L176.10,130.30 L158.95,118.95 L158.25,110.55 L159.35,107.65 L164.15,103.15 L165.90,101.50 L166.10,101.30 L168.90,99.90 L173.30,102.15 L172.70,102.40 L162.70,109.05 L162.70,117.90 L177.45,127.15 L200.10,128.65 L218.10,122.30 L226.45,113.25 L228.70,110.80 L225.60,101.15 L217.95,97.10 L217.95,95.10 Q217.95,92.90 217.40,91.85 Z"/>
        <path fill="#49415B" fill-opacity="1.00" d="M217.10,99.00 L217.90,97.30 L217.95,97.10 L225.60,101.15 L228.70,110.80 L226.45,113.25 L226.25,110.90 L224.10,103.90 L218.90,100.70 L218.80,100.50 L217.55,99.20 L216.95,99.20 L217.10,99.00 Z"/>
        <path fill="#519FE7" fill-opacity="1.00" d="M218.90,100.70 L224.10,103.90 L226.25,110.90 L221.05,115.50 L221.30,114.00 L220.95,111.95 Q220.95,111.15 222.20,109.80 Q223.40,108.50 223.40,107.50 Q223.40,106.50 222.90,105.85 Q222.40,105.20 221.50,105.20 Q220.15,105.20 213.05,108.60 Q205.95,111.95 202.10,111.95 L198.35,111.60 Q197.30,111.20 197.05,110.00 L197.75,108.65 Q198.15,107.50 198.20,105.90 L199.85,105.90 L199.85,109.75 L202.35,105.75 L202.20,106.85 Q202.20,108.35 203.95,108.35 L205.20,108.30 L206.15,107.60 Q209.25,107.35 212.85,106.40 Q219.05,104.70 219.05,101.85 L218.90,100.70 Z"/>
        <path fill="#62D2DE" fill-opacity="1.00" d="M197.05,110.00 Q197.30,111.20 198.35,111.60 L202.10,111.95 Q205.95,111.95 213.05,108.60 Q220.15,105.20 221.50,105.20 Q222.40,105.20 222.90,105.85 Q223.40,106.50 223.40,107.50 Q223.40,108.50 222.20,109.80 Q220.95,111.15 220.95,111.95 L221.30,114.00 L221.05,115.50 L220.70,116.05 Q219.90,117.05 217.95,117.65 L200.75,124.55 L183.60,124.55 L171.60,119.40 Q168.25,116.60 170.35,113.40 L175.45,107.55 L182.00,103.70 Q182.75,105.50 184.95,107.30 Q188.45,110.15 191.20,110.15 Q192.70,110.15 193.20,109.40 Q193.45,108.95 193.35,107.35 L194.25,108.85 Q195.45,110.35 196.25,110.35 Q196.70,110.35 197.05,110.00 M187.45,109.85 Q183.70,107.90 183.70,110.95 L184.90,112.90 Q186.55,114.85 189.20,114.85 Q190.20,114.85 190.75,114.30 L191.20,112.95 Q191.20,111.75 187.45,109.85 Z"/>
        <path fill="#4D6DBD" fill-opacity="1.00" d="M226.45,113.25 L218.10,122.30 L200.10,128.65 L177.45,127.15 L162.70,117.90 L164.95,116.15 L165.95,109.65 L173.85,104.80 L181.65,102.50 L182.00,103.70 L175.45,107.55 L170.35,113.40 Q168.25,116.60 171.60,119.40 L183.60,124.55 L200.75,124.55 L217.95,117.65 Q219.90,117.05 220.70,116.05 L221.05,115.50 L226.25,110.90 L226.45,113.25 Z"/>
        <path fill="url(#G8)" d="M233.35,108.90 L234.00,114.15 L232.75,115.80 L223.10,128.55 L202.40,136.45 L202.10,136.55 L202.15,132.40 L202.85,132.45 L222.20,124.80 L233.35,108.90 Z"/>
        <path fill="url(#G9)" d="M232.75,115.80 L232.90,121.30 L224.00,130.20 L210.05,135.75 L205.40,137.55 L202.85,138.55 L202.40,138.50 L202.40,136.45 L223.10,128.55 L232.75,115.80 Z"/>
        <path fill="#B4F3FC" fill-opacity="1.00" d="M218.90,100.70 L219.05,101.85 Q219.05,104.70 212.85,106.40 Q209.25,107.35 206.15,107.60 L206.25,107.50 L206.55,107.20 Q208.80,104.75 211.50,102.55 Q214.75,99.95 216.60,99.20 L216.95,99.20 L217.55,99.20 L218.80,100.50 L218.90,100.70 Z"/>
        <path fill="#C89353" fill-opacity="1.00" d="M205.40,137.55 L205.50,138.60 Q205.70,140.10 206.10,140.75 Q206.30,141.15 207.00,141.15 Q207.65,141.20 207.80,141.50 L208.35,142.50 L209.30,142.75 Q209.85,142.75 210.50,142.20 L210.60,143.95 L208.00,145.55 L208.00,149.90 L202.80,153.55 L202.40,138.50 L202.85,138.55 L205.40,137.55 Z"/>
        <path fill="#B67B52" fill-opacity="1.00" d="M205.40,137.55 L210.05,135.75 L210.50,142.20 Q209.85,142.75 209.30,142.75 L208.35,142.50 L207.80,141.50 Q207.65,141.20 207.00,141.15 Q206.30,141.15 206.10,140.75 Q205.70,140.10 205.50,138.60 L205.40,137.55 Z"/>
        <path fill="#BEB097" fill-opacity="1.00" d="M208.00,145.55 L210.60,143.95 L220.50,149.40 L218.35,150.80 L208.00,145.55 Z"/>
        <path fill="#8F562D" fill-opacity="1.00" d="M232.90,121.30 L233.35,140.65 L224.95,134.90 L215.25,141.05 L210.60,143.95 L210.50,142.20 L210.05,135.75 L224.00,130.20 L232.90,121.30 Z"/>
        <path fill="#717997" fill-opacity="1.00" d="M210.60,143.95 L215.25,141.05 L232.95,140.95 L220.50,149.40 L210.60,143.95 Z"/>
        <path fill="#403758" fill-opacity="1.00" d="M215.25,141.05 L224.95,134.90 L233.35,140.65 L232.95,140.95 L215.25,141.05 Z"/>
        <path fill="#433E57" fill-opacity="1.00" d="M233.35,140.65 L235.05,142.10 L242.25,148.20 L238.70,149.90 L231.85,146.55 L224.75,151.10 L222.85,152.30 L222.85,159.45 L209.10,168.80 L204.90,166.30 L204.10,165.85 L199.10,162.85 L199.65,159.90 L199.75,159.30 L209.75,165.15 L210.80,164.50 L218.35,159.80 L218.35,150.80 L220.50,149.40 L232.95,140.95 L233.35,140.65 Z"/>
        <path fill="#A96D42" fill-opacity="1.00" d="M235.05,142.10 L242.35,137.95 L250.85,142.90 L249.25,142.45 L249.25,144.95 L245.75,146.05 L245.75,148.55 L242.75,147.95 L242.25,148.20 L235.05,142.10 Z"/>
        <path fill="#74370F" fill-opacity="1.00" d="M250.85,142.90 L252.50,143.30 L253.80,151.75 L250.25,153.85 L245.75,156.55 L194.95,186.80 L194.95,190.70 L189.70,192.95 L189.35,183.30 L194.95,179.95 L194.95,177.70 L209.10,168.80 L222.85,159.45 L229.70,163.05 L243.85,154.05 L238.70,149.90 L242.25,148.20 L242.75,147.95 L245.75,148.55 L245.75,146.05 L249.25,144.95 L249.25,142.45 L250.85,142.90 Z"/>
        <path fill="#DEF9F8" fill-opacity="1.00" d="M193.35,107.35 Q193.45,108.95 193.20,109.40 Q192.70,110.15 191.20,110.15 Q188.45,110.15 184.95,107.30 Q182.75,105.50 182.00,103.70 L181.65,102.50 L181.60,102.05 Q182.05,101.00 182.55,100.65 L183.80,100.05 Q184.40,99.75 187.15,100.85 L188.75,101.55 Q190.05,102.15 191.00,102.85 Q193.00,104.30 193.25,106.15 L193.25,106.45 L193.35,107.35 M187.45,109.85 Q191.20,111.75 191.20,112.95 L190.75,114.30 Q190.20,114.85 189.20,114.85 Q186.55,114.85 184.90,112.90 L183.70,110.95 Q183.70,107.90 187.45,109.85 Z"/>
        <path fill="#C64D7F" fill-opacity="1.00" d="M163.40,101.75 L164.15,103.15 L159.35,107.65 L158.25,110.55 L158.10,110.85 L155.95,111.90 L149.85,105.10 L163.40,101.75 Z"/>
        <path fill="url(#G10)" d="M169.30,132.15 L175.35,135.90 L176.35,136.00 L176.35,143.90 L177.80,149.95 L165.00,143.70 L164.10,143.25 L161.95,135.15 L162.10,127.70 L167.55,131.10 L167.55,134.65 L169.30,143.55 L169.30,132.15 Z"/>
        <path fill="#66371A" fill-opacity="1.00" d="M169.30,132.15 L167.55,131.10 L162.10,127.70 L161.10,127.10 L159.85,126.30 L157.70,123.45 L175.00,132.15 L202.10,136.55 L202.40,136.45 L202.40,138.50 L200.70,138.35 L189.85,137.35 L187.85,137.15 L177.85,136.15 L176.35,136.00 L175.35,135.90 L169.30,132.15 Z"/>
        <path fill="#A26D44" fill-opacity="1.00" d="M169.30,132.15 L169.30,143.55 L167.55,134.65 L167.55,131.10 L169.30,132.15 Z"/>
        <path fill="#AB6430" fill-opacity="1.00" d="M199.75,159.30 L199.65,159.90 L181.60,161.95 L164.30,150.20 L161.85,146.30 L161.30,146.05 L158.80,142.80 L158.55,140.55 L161.60,142.05 L164.10,143.25 L165.00,143.70 L165.85,148.05 L181.25,155.30 L190.60,156.40 L195.50,153.05 L197.60,153.30 L197.60,155.30 L200.70,153.20 L200.90,158.65 L199.75,159.30 Z"/>
        <path fill="#B97338" fill-opacity="1.00" d="M165.00,143.70 L177.80,149.95 L179.00,150.50 L180.10,151.05 L195.50,153.05 L190.60,156.40 L181.25,155.30 L165.85,148.05 L165.00,143.70 Z"/>
        <path fill="#B17848" fill-opacity="1.00" d="M177.80,149.95 L176.35,143.90 L176.35,136.00 L177.85,136.15 L177.85,143.80 L179.00,150.50 L177.80,149.95 Z"/>
        <path fill="#CDA163" fill-opacity="1.00" d="M200.70,138.35 L200.70,153.20 L197.60,155.30 L197.60,153.30 L195.50,153.05 L180.10,151.05 L179.00,150.50 L177.85,143.80 L177.85,136.15 L187.85,137.15 L187.85,147.30 L188.70,142.05 L188.70,145.05 L189.85,137.35 L200.70,138.35 Z"/>
        <path fill="#9C663F" fill-opacity="1.00" d="M187.85,137.15 L189.85,137.35 L188.70,145.05 L188.70,142.05 L187.85,147.30 L187.85,137.15 Z"/>
        <path fill="#A8612D" fill-opacity="1.00" d="M202.40,138.50 L202.80,153.55 L202.95,157.50 L202.05,158.00 L200.90,158.65 L200.70,153.20 L200.70,138.35 L202.40,138.50 Z"/>
        <path fill="#4D4964" fill-opacity="1.00" d="M202.10,136.55 L175.00,132.15 L157.70,123.45 L157.70,113.85 L157.70,113.15 L157.70,111.90 L158.10,110.85 L158.25,110.55 L158.95,118.95 L176.10,130.30 L202.15,132.40 L202.10,136.55 Z"/>
        <path fill="#92B1C3" fill-opacity="1.00" d="M210.80,164.50 L209.75,165.15 L199.75,159.30 L200.90,158.65 L202.05,158.00 L210.80,164.50 Z"/>
        <path fill="#C39159" fill-opacity="1.00" d="M188.35,167.20 L182.85,170.30 L151.10,153.25 L156.85,150.50 L174.75,160.00 L188.35,167.20 Z"/>
        <path fill="#AE7240" fill-opacity="1.00" d="M188.35,167.20 L197.60,161.95 L199.10,162.85 L204.10,165.85 L182.50,177.65 L175.65,174.35 L176.70,173.75 L180.90,171.40 L182.85,170.30 L188.35,167.20 M204.90,166.30 L209.10,168.80 L194.95,177.70 L190.00,175.45 L204.90,166.30 Z"/>
        <path fill="#773F26" fill-opacity="1.00" d="M199.65,159.90 L199.10,162.85 L197.60,161.95 L188.35,167.20 L174.75,160.00 L164.10,151.55 L161.60,147.90 L161.85,146.30 L164.30,150.20 L181.60,161.95 L199.65,159.90 Z"/>
        <path fill="#7B738B" fill-opacity="1.00" d="M174.75,160.00 L156.85,150.50 L161.60,147.90 L164.10,151.55 L174.75,160.00 Z"/>
        <path fill="#425665" fill-opacity="1.00" d="M120.85,203.50 L121.20,201.00 L121.55,198.60 L122.25,193.85 L122.55,191.65 L123.15,191.35 L139.75,182.00 L140.30,197.50 L120.85,203.50 M176.70,173.75 L175.65,174.35 L174.60,174.95 L175.10,178.30 L169.05,180.55 L165.05,179.05 L154.80,182.65 L150.60,180.70 L150.55,176.80 L164.30,167.30 L176.70,173.75 Z"/>
        <path fill="#3A77A2" fill-opacity="1.00" d="M169.05,180.55 L175.90,192.45 L156.20,183.30 Q155.50,183.00 154.80,182.65 L165.05,179.05 L169.05,180.55 Z"/>
        <path fill="#93572E" fill-opacity="1.00" d="M175.10,178.30 L174.60,174.95 L182.50,179.45 L184.45,180.55 L189.35,183.30 L189.70,192.95 L187.95,193.70 L183.05,191.10 L176.35,187.45 L175.10,178.30 Z"/>
        <path fill="#46B2FA" fill-opacity="1.00" d="M175.10,178.30 L176.35,187.45 L183.05,191.10 L183.80,196.15 L175.90,192.45 L169.05,180.55 L175.10,178.30 Z"/>
        <path fill="#B88E5E" fill-opacity="1.00" d="M175.65,174.35 L182.50,177.65 L182.50,179.45 L174.60,174.95 L175.65,174.35 Z"/>
        <path fill="url(#G11)" d="M194.95,177.70 L194.95,179.95 L189.35,183.30 L184.45,180.55 L184.45,178.80 L190.00,175.45 L194.95,177.70 Z"/>
        <path fill="#73340D" fill-opacity="1.00" d="M204.10,165.85 L204.90,166.30 L190.00,175.45 L184.45,178.80 L184.45,180.55 L182.50,179.45 L182.50,177.65 L204.10,165.85 Z"/>
        <path fill="#4F1F11" fill-opacity="1.00" d="M183.80,196.15 L183.05,191.10 L187.95,193.70 L189.70,192.95 L190.20,198.95 L183.90,196.65 L183.80,196.15 Z"/>
        <path fill="#B27A4F" fill-opacity="1.00" d="M183.80,196.15 L183.90,196.65 L184.30,199.45 L150.60,185.20 L150.60,184.20 L156.20,183.30 L175.90,192.45 L183.80,196.15 Z"/>
        <path fill="#47AEF7" fill-opacity="1.00" d="M194.95,190.70 L194.95,186.80 L245.75,156.55 L245.75,165.40 L244.55,166.30 L243.35,167.20 L243.50,170.30 L227.70,179.90 L207.85,184.80 L212.45,189.15 L195.50,199.40 L195.35,197.30 L194.95,190.70 Z"/>
        <path fill="#502011" fill-opacity="1.00" d="M194.95,190.70 L195.35,197.30 L190.20,198.95 L189.70,192.95 L194.95,190.70 Z"/>
        <path fill="#854820" fill-opacity="1.00" d="M180.90,171.40 L176.70,173.75 L164.30,167.30 L150.45,160.05 L149.70,160.35 L149.35,154.70 L180.90,171.40 Z"/>
        <path fill="#C39F6B" fill-opacity="1.00" d="M180.90,171.40 L149.35,154.70 L149.25,153.20 L150.15,152.75 L151.10,153.25 L182.85,170.30 L180.90,171.40 Z"/>
        <path fill="#D9C592" fill-opacity="1.00" d="M222.85,152.30 L224.75,151.10 L229.45,153.95 L238.70,149.90 L229.70,156.05 L222.85,152.30 Z"/>
        <path fill="#B17A4B" fill-opacity="1.00" d="M224.75,151.10 L231.85,146.55 L238.70,149.90 L229.45,153.95 L224.75,151.10 Z"/>
        <path fill="#96592C" fill-opacity="1.00" d="M222.85,159.45 L222.85,152.30 L229.70,156.05 L229.70,163.05 L222.85,159.45 Z"/>
        <path fill="#423D58" fill-opacity="1.00" d="M238.70,149.90 L243.85,154.05 L229.70,163.05 L229.70,156.05 L238.70,149.90 Z"/>
        <path fill="#63688F" fill-opacity="1.00" d="M208.00,149.90 L208.00,145.55 L218.35,150.80 L218.35,159.80 L208.00,154.65 L208.00,149.90 Z"/>
        <path fill="#A6632E" fill-opacity="1.00" d="M208.00,149.90 L208.00,154.65 Q205.50,156.10 202.95,157.50 L202.80,153.55 L208.00,149.90 Z"/>
        <path fill="#80869C" fill-opacity="1.00" d="M218.35,159.80 L210.80,164.50 L202.05,158.00 L202.95,157.50 Q205.50,156.10 208.00,154.65 L218.35,159.80 Z"/>
        <path fill="#3A759E" fill-opacity="1.00" d="M212.45,189.15 L207.85,184.80 L227.70,179.90 L212.45,189.15 M253.10,173.60 L276.40,167.80 L264.90,186.05 L242.35,192.30 L236.10,190.55 L218.35,194.70 L243.95,179.35 L244.05,181.55 L244.20,184.95 L250.45,185.80 L253.10,175.30 L253.10,173.60 Z"/>
        <path fill="#47ADF6" fill-opacity="1.00" d="M253.10,173.60 L253.10,164.55 L250.25,163.65 L250.25,161.80 L281.65,162.30 L293.15,169.05 L296.15,179.05 L272.15,193.55 L228.35,195.80 L224.35,199.80 L214.15,221.05 L192.15,224.40 L192.10,222.60 L196.60,218.10 L211.85,217.05 L218.15,194.85 L218.35,194.70 L236.10,190.55 L242.35,192.30 L264.90,186.05 L276.40,167.80 L253.10,173.60 Z"/>
        <path fill="#673012" fill-opacity="1.00" d="M218.35,194.70 L218.15,194.85 L196.00,208.10 L195.60,201.55 L195.50,199.40 L212.45,189.15 L227.70,179.90 L243.50,170.30 L245.20,169.30 L248.45,170.05 L248.45,176.65 L243.95,179.35 L218.35,194.70 Z"/>
        <path fill="#5A2810" fill-opacity="1.00" d="M250.25,153.85 L250.25,161.80 L250.25,163.65 L253.10,164.55 L252.20,165.90 L244.55,166.30 L245.75,165.40 L245.75,156.55 L250.25,153.85 Z"/>
        <path fill="#6F3B17" fill-opacity="1.00" d="M253.10,164.55 L253.10,173.60 L253.10,175.30 L250.45,185.80 L250.40,179.05 L250.35,169.55 L250.35,168.55 L252.20,165.90 L253.10,164.55 Z"/>
        <path fill="#71360F" fill-opacity="1.00" d="M243.50,170.30 L243.35,167.20 L250.35,168.55 L250.35,169.55 L248.45,170.05 L245.20,169.30 L243.50,170.30 M250.45,185.80 L244.20,184.95 L244.05,181.55 L250.40,179.05 L250.45,185.80 Z"/>
        <path fill="#582710" fill-opacity="1.00" d="M243.95,179.35 L248.45,176.65 L248.45,170.05 L250.35,169.55 L250.40,179.05 L244.05,181.55 L243.95,179.35 Z"/>
        <path fill="#602B0F" fill-opacity="1.00" d="M243.35,167.20 L244.55,166.30 L252.20,165.90 L250.35,168.55 L243.35,167.20 Z"/>
        <path fill="#52C8E2" fill-opacity="1.00" d="M148.45,10.90 L152.15,12.00 L136.75,24.00 L134.55,6.80 L138.05,7.85 L139.35,18.00 L148.45,10.90 Z"/>
        <path fill="#DDAC5A" fill-opacity="1.00" d="M148.45,10.90 L139.35,18.00 L138.05,7.85 L148.45,10.90 Z"/>
        <path fill="#4ECEE4" fill-opacity="1.00" d="M116.30,15.15 L113.35,13.80 L128.55,4.20 L131.55,22.20 L128.15,20.65 L125.95,9.20 L116.30,15.15 Z"/>
        <path fill="#EEC257" fill-opacity="1.00" d="M116.30,15.15 L125.95,9.20 L128.15,20.65 L116.30,15.15 Z"/>
        <path fill="#56BBCB" fill-opacity="1.00" d="M156.45,28.35 L153.75,21.00 L146.55,26.00 L143.15,25.20 L154.35,18.20 L160.15,29.20 L156.45,28.35 Z"/>
        <path fill="#DAA75C" fill-opacity="1.00" d="M156.45,28.35 L146.55,26.00 L153.75,21.00 L156.45,28.35 Z"/>
        <path fill="#2575B5" fill-opacity="1.00" d="M115.80,72.20 L113.75,72.20 L112.55,72.15 L107.15,71.90 L105.65,71.75 L103.90,71.60 L102.85,71.50 L97.45,70.65 L95.70,70.30 Q91.30,69.30 87.95,67.80 L82.00,71.25 L78.15,66.05 L94.15,66.05 L107.55,69.20 L109.30,69.00 L126.55,70.50 L126.55,72.00 L124.70,72.10 L123.10,72.15 L121.60,72.20 L115.80,72.20 Z"/>
        <path fill="#D48F4A" fill-opacity="1.00" d="M115.80,72.20 L115.80,84.65 L114.00,84.50 L113.85,83.70 L113.75,72.20 L115.80,72.20 Z"/>
        <path fill="#CE7C49" fill-opacity="1.00" d="M107.15,71.90 L112.55,72.15 L111.70,84.30 L100.45,83.45 L107.15,71.90 Z"/>
        <path fill="#D1874A" fill-opacity="1.00" d="M107.15,71.90 L100.45,83.45 L97.15,83.20 L105.65,71.75 L107.15,71.90 Z"/>
        <path fill="#8E552F" fill-opacity="1.00" d="M103.90,71.60 L105.65,71.75 L97.15,83.20 L96.25,83.00 L103.90,71.60 Z"/>
        <path fill="#AC6C3C" fill-opacity="1.00" d="M103.90,71.60 L96.25,83.00 L89.55,81.60 L95.75,81.60 L102.85,71.50 L103.90,71.60 Z"/>
        <path fill="#2A5BB5" fill-opacity="1.00" d="M112.95,61.40 L124.75,62.80 L163.75,61.40 L161.85,63.30 L109.30,69.00 L107.55,69.20 L94.15,66.05 L78.15,66.05 L70.50,55.60 L82.75,62.40 L112.95,61.40 Z"/>
        <path fill="#2680B7" fill-opacity="1.00" d="M112.95,61.40 L82.75,62.40 L70.50,55.60 L63.55,39.70 L63.15,37.45 L63.15,37.40 L64.95,37.05 L75.95,47.60 L106.35,60.60 L112.95,61.40 Z"/>
        <path fill="#9C5E38" fill-opacity="1.00" d="M112.55,72.15 L113.75,72.20 L113.85,83.70 L114.00,84.50 L112.35,84.35 L111.70,84.30 L112.55,72.15 Z"/>
        <path fill="#88522E" fill-opacity="1.00" d="M95.70,70.30 L97.45,70.65 L86.20,80.90 L84.75,80.60 L84.40,80.50 L91.40,74.15 L95.70,70.30 Z"/>
        <path fill="#CC7A49" fill-opacity="1.00" d="M95.70,70.30 L91.40,74.15 L84.95,78.30 L73.75,76.00 L77.30,73.95 Q77.70,74.50 77.45,73.90 L82.00,71.25 L87.95,67.80 Q91.30,69.30 95.70,70.30 Z"/>
        <path fill="#69341F" fill-opacity="1.00" d="M97.15,83.20 L100.45,83.45 L111.70,84.30 L112.35,84.35 L113.00,89.00 L101.75,89.00 L100.15,88.20 L97.25,88.20 L97.15,83.20 Z"/>
        <path fill="#592A17" fill-opacity="1.00" d="M97.15,83.20 L97.25,88.20 L94.35,88.20 L84.95,85.60 L84.75,80.60 L86.20,80.90 L89.55,81.60 L96.25,83.00 L97.15,83.20 Z"/>
        <path fill="#6C3A20" fill-opacity="1.00" d="M84.75,80.60 L84.95,85.60 L84.55,85.45 L81.95,84.35 L80.85,83.90 L78.35,82.85 L73.95,81.00 L72.35,76.80 L84.40,80.50 L84.75,80.60 Z"/>
        <path fill="#A8663C" fill-opacity="1.00" d="M97.45,70.65 L102.85,71.50 L95.75,81.60 L89.55,81.60 L86.20,80.90 L97.45,70.65 Z"/>
        <path fill="#785794" fill-opacity="1.00" d="M84.95,85.60 L94.35,88.20 L90.95,89.20 L90.95,93.40 L84.55,85.45 L84.95,85.60 Z"/>
        <path fill="#CC456D" fill-opacity="1.00" d="M84.55,85.45 L90.95,93.40 L90.95,99.20 L94.65,102.05 L107.35,120.35 L97.20,125.55 L89.55,110.20 L88.70,108.55 L87.20,105.55 L86.80,105.70 L90.45,103.20 L88.35,100.30 L83.00,102.70 L73.25,91.35 L72.35,90.30 L73.00,89.90 L81.95,84.35 L84.55,85.45 Z"/>
        <path fill="#6C3C1E" fill-opacity="1.00" d="M90.95,93.40 L90.95,89.20 L98.95,92.00 L98.95,94.40 L102.55,94.40 L104.75,95.40 L104.70,96.25 L104.35,104.05 L94.65,102.05 L90.95,99.20 L90.95,93.40 Z"/>
        <path fill="#A45C35" fill-opacity="1.00" d="M94.35,88.20 L97.25,88.20 L100.15,88.20 L101.75,89.00 L109.35,92.80 L109.25,92.90 L104.70,96.25 L104.75,95.40 L102.55,94.40 L98.95,94.40 L98.95,92.00 L90.95,89.20 L94.35,88.20 Z"/>
        <path fill="#653621" fill-opacity="1.00" d="M114.00,84.50 L115.80,84.65 L125.95,85.40 L126.95,89.00 L117.75,89.00 L114.65,89.00 L114.00,84.50 Z"/>
        <path fill="#5C2F1C" fill-opacity="1.00" d="M114.00,84.50 L114.65,89.00 L113.00,89.00 L112.35,84.35 L114.00,84.50 Z"/>
        <path fill="#592819" fill-opacity="1.00" d="M101.75,89.00 L113.00,89.00 L114.65,89.00 L117.75,89.00 L109.35,92.80 L101.75,89.00 Z"/>
        <path fill="#5B2A17" fill-opacity="1.00" d="M104.70,96.25 L109.25,92.90 L116.45,100.60 L129.40,95.55 L129.60,96.35 L115.55,101.95 L114.35,102.40 L110.95,105.40 L104.35,104.05 L104.70,96.25 Z"/>
        <path fill="url(#G12)" d="M109.25,92.90 L109.35,92.80 L117.75,89.00 L126.95,89.00 L128.50,89.00 L141.35,89.00 L141.80,88.95 Q136.45,91.95 131.05,94.90 L129.40,95.55 L116.45,100.60 L109.25,92.90 Z"/>
        <path fill="#CE7C48" fill-opacity="1.00" d="M115.80,72.20 L121.60,72.20 L125.95,85.40 L115.80,84.65 L115.80,72.20 Z"/>
        <path fill="#E1AB51" fill-opacity="1.00" d="M73.75,76.00 L84.95,78.30 L91.40,74.15 L84.40,80.50 L72.35,76.80 L73.75,76.00 Z"/>
        <path fill="#D58F4C" fill-opacity="1.00" d="M142.85,70.20 L143.30,70.10 L145.00,70.10 L157.30,79.90 L155.50,80.75 L142.85,70.20 Z"/>
        <path fill="#558CA2" fill-opacity="1.00" d="M142.85,70.20 L142.45,70.30 L142.45,69.20 L139.45,69.45 L132.25,70.05 L130.50,70.20 L129.40,70.30 L126.55,70.50 L109.30,69.00 L161.85,63.30 L158.85,66.35 L143.30,70.10 L142.85,70.20 Z"/>
        <path fill="#905731" fill-opacity="1.00" d="M142.85,70.20 L155.50,80.75 L157.65,82.50 L155.75,82.75 L139.45,69.45 L142.45,69.20 L142.45,70.30 L142.85,70.20 Z"/>
        <path fill="#CD7848" fill-opacity="1.00" d="M156.75,69.85 Q160.45,73.15 166.65,75.55 L157.30,79.90 L145.00,70.10 L156.75,69.85 Z"/>
        <path fill="#D08349" fill-opacity="1.00" d="M123.10,72.15 L124.70,72.10 L130.05,85.40 L127.55,85.40 L123.10,72.15 Z"/>
        <path fill="#CD7B49" fill-opacity="1.00" d="M124.70,72.10 L126.55,72.00 L126.55,70.50 L129.40,70.30 L142.05,85.40 L130.05,85.40 L124.70,72.10 Z"/>
        <path fill="#956033" fill-opacity="1.00" d="M143.10,85.10 L142.75,85.40 L142.05,85.40 L129.40,70.30 L130.50,70.20 L143.10,85.10 Z"/>
        <path fill="#DA974E" fill-opacity="1.00" d="M143.10,85.10 L130.50,70.20 L132.25,70.05 L144.75,84.10 L143.95,84.20 L143.10,85.10 Z"/>
        <path fill="#9C5D36" fill-opacity="1.00" d="M121.60,72.20 L123.10,72.15 L127.55,85.40 L125.95,85.40 L121.60,72.20 Z"/>
        <path fill="#CD7949" fill-opacity="1.00" d="M155.75,82.75 L144.75,84.10 L132.25,70.05 L139.45,69.45 L155.75,82.75 Z"/>
        <path fill="#512C1A" fill-opacity="1.00" d="M126.95,89.00 L125.95,85.40 L127.55,85.40 L128.50,89.00 L126.95,89.00 Z"/>
        <path fill="#5B3522" fill-opacity="1.00" d="M142.75,85.40 L143.50,88.75 L141.80,88.95 L141.35,89.00 L128.50,89.00 L127.55,85.40 L130.05,85.40 L142.05,85.40 L142.75,85.40 Z"/>
        <path fill="#612254" fill-opacity="1.00" d="M145.20,88.60 L148.65,88.20 L149.40,90.30 L142.00,93.10 L140.45,93.70 L132.00,99.00 L129.75,96.80 L129.60,96.35 L142.25,91.30 L145.20,88.60 Z"/>
        <path fill="#76285E" fill-opacity="1.00" d="M140.45,93.70 L143.65,101.90 L145.85,101.40 L147.65,103.40 L160.75,96.80 L163.40,101.75 L149.85,105.10 L148.90,106.40 L148.45,106.00 L144.30,104.25 L141.55,103.05 L132.00,99.00 L131.35,99.40 L130.70,99.80 L120.95,105.90 L119.45,106.80 L119.15,106.30 L115.55,101.95 L129.60,96.35 L129.75,96.80 L132.00,99.00 L140.45,93.70 Z"/>
        <path fill="#4F1124" fill-opacity="1.00" d="M143.50,88.75 L145.20,88.60 L142.25,91.30 L129.60,96.35 L129.40,95.55 L131.05,94.90 Q136.45,91.95 141.80,88.95 L143.50,88.75 Z"/>
        <path fill="#74245F" fill-opacity="1.00" d="M153.10,89.15 L157.25,96.00 L146.55,100.70 L142.00,93.10 L149.40,90.30 L153.10,89.15 Z"/>
        <path fill="#CA7E4D" fill-opacity="1.00" d="M52.60,34.50 L54.75,32.20 L63.15,37.40 L63.15,37.45 L59.70,38.55 L52.60,34.50 Z"/>
        <path fill="#9D5E34" fill-opacity="1.00" d="M52.60,34.50 L59.70,38.55 L59.70,43.20 L59.45,43.30 L49.90,38.55 L52.60,34.50 Z"/>
        <path fill="#5C2C16" fill-opacity="1.00" d="M31.75,45.40 L33.90,44.60 L41.10,49.30 L59.45,43.30 L59.70,43.20 L59.70,38.55 L63.15,37.45 L63.55,39.70 L65.45,51.35 L43.20,61.75 L33.35,66.30 L32.50,71.05 L29.35,72.60 L28.45,69.20 L23.95,52.55 L36.20,47.80 L31.75,45.40 Z"/>
        <path fill="#BF7240" fill-opacity="1.00" d="M33.90,44.60 L49.90,38.55 L59.45,43.30 L41.10,49.30 L33.90,44.60 Z"/>
        <path fill="#C17443" fill-opacity="1.00" d="M9.10,48.30 L12.30,43.45 L13.15,46.60 L17.50,45.60 L27.15,43.40 L31.75,45.40 L36.20,47.80 L23.95,52.55 L9.10,48.30 Z"/>
        <path fill="#82366A" fill-opacity="1.00" d="M32.50,71.05 L33.35,66.30 L43.20,61.75 L47.20,72.05 L36.00,73.60 L33.90,73.90 L32.50,71.05 Z"/>
        <path fill="#A94371" fill-opacity="1.00" d="M33.90,73.90 L36.00,73.60 L37.85,76.30 L47.35,90.20 L45.20,92.05 L44.90,91.60 L33.90,73.90 Z"/>
        <path fill="#753816" fill-opacity="1.00" d="M33.90,73.90 L34.45,75.10 L33.30,76.45 Q32.25,77.65 31.95,78.20 L29.35,72.60 L32.50,71.05 L33.90,73.90 Z"/>
        <path fill="#532B17" fill-opacity="1.00" d="M28.45,69.20 L29.35,72.60 L18.95,71.05 L18.70,70.40 L17.25,67.15 L28.45,69.20 Z"/>
        <path fill="#69371E" fill-opacity="1.00" d="M28.45,69.20 L17.25,67.15 L13.95,59.55 L13.15,57.70 L9.10,48.30 L23.95,52.55 L28.45,69.20 Z"/>
        <path fill="#C14C77" fill-opacity="1.00" d="M-2.90,86.20 L-2.75,85.95 L-4.65,84.05 Q3.05,78.60 4.60,74.55 L3.35,73.05 L11.75,61.55 L10.50,60.45 L13.15,57.70 L13.95,59.55 L13.10,62.20 L13.70,62.95 L6.35,74.30 L8.35,76.75 L-1.65,85.30 L-0.70,86.90 L-2.90,86.20 Z"/>
        <path fill="#5E301A" fill-opacity="1.00" d="M-18.90,119.85 L-19.15,119.55 L-19.80,119.00 L-6.50,106.05 L6.10,90.80 Q12.15,81.75 15.50,73.55 L7.50,85.80 L-7.90,105.20 L-23.70,115.80 L-27.15,112.95 Q-19.90,108.95 -13.90,103.70 L-13.45,103.35 Q-10.20,100.85 -7.40,98.00 Q-4.15,94.55 -1.10,89.70 L-0.85,89.70 L-0.65,89.45 L-0.30,89.05 L-0.10,88.80 L0.20,88.40 Q4.65,82.75 8.35,76.75 Q12.05,70.75 15.00,64.45 L13.70,62.95 L13.10,62.20 L13.95,59.55 L17.25,67.15 L18.70,70.40 L18.20,73.05 L6.60,93.05 L-4.60,106.05 L-6.80,108.65 L-11.85,113.85 L-18.90,119.85 Z"/>
        <path fill="#71325D" fill-opacity="1.00" d="M-27.15,112.95 L-30.45,112.05 L-17.40,104.20 L-18.25,102.20 L-7.40,98.00 L-9.10,95.10 L-1.10,89.70 Q-4.15,94.55 -7.40,98.00 Q-10.20,100.85 -13.45,103.35 L-13.90,103.70 Q-19.90,108.95 -27.15,112.95 M13.70,62.95 L15.00,64.45 Q12.05,70.75 8.35,76.75 Q4.65,82.75 0.20,88.40 L-0.70,86.90 L-1.65,85.30 L8.35,76.75 L6.35,74.30 L13.70,62.95 Z"/>
        <path fill="#93978D" fill-opacity="1.00" d="M-4.60,106.05 L6.60,93.05 L18.20,73.05 L18.70,70.40 L18.95,71.05 L29.35,72.60 L31.95,78.20 L33.15,80.80 L19.95,75.15 L16.35,81.80 L8.95,93.65 L-1.55,107.55 L-4.60,106.05 Z"/>
        <path fill="#F7CCA5" fill-opacity="1.00" d="M-1.55,107.55 L8.95,93.65 L16.35,81.80 L19.95,75.15 L33.15,80.80 L55.10,128.55 L56.65,130.75 L-1.55,107.55 M35.70,116.65 L37.70,115.30 L37.10,93.30 L32.60,84.70 L32.00,84.50 L30.95,84.20 L23.45,81.80 L14.95,91.05 L16.35,109.90 L35.70,116.65 Z"/>
        <path fill="#9EA893" fill-opacity="1.00" d="M35.70,116.65 L35.70,93.40 L31.40,85.40 L32.00,84.50 L32.60,84.70 L37.10,93.30 L37.70,115.30 L35.70,116.65 Z"/>
        <path fill="#92572E" fill-opacity="1.00" d="M31.95,78.20 Q32.25,77.65 33.30,76.45 L34.45,75.10 L43.75,94.55 L43.25,95.80 L43.10,96.05 L50.75,110.75 L60.45,129.25 L70.35,141.85 L69.80,145.35 L69.70,145.40 L69.45,149.05 L62.80,139.60 L59.60,134.95 L56.65,130.75 L55.10,128.55 L33.15,80.80 L31.95,78.20 Z"/>
        <path fill="#908E77" fill-opacity="1.00" d="M30.95,84.20 L32.00,84.50 L31.40,85.40 L29.45,88.35 L29.20,88.65 L29.20,90.40 L28.30,89.80 L28.30,87.55 L28.40,87.45 L30.95,84.20 Z"/>
        <path fill="#6C6A63" fill-opacity="1.00" d="M28.30,89.80 Q27.35,89.20 26.25,89.00 L22.95,89.15 L19.95,92.40 L19.95,106.80 L17.70,107.90 L17.70,91.80 L21.85,87.05 L26.20,86.05 L28.40,87.45 L28.30,87.55 L28.30,89.80 Z"/>
        <path fill="#877E6D" fill-opacity="1.00" d="M31.90,93.55 Q30.65,91.50 29.20,90.40 L29.20,88.65 L29.45,88.35 Q31.40,90.75 31.90,93.55 Z"/>
        <path fill="#713523" fill-opacity="1.00" d="M31.90,93.55 L32.05,93.75 L32.20,94.05 L32.20,94.40 L27.45,90.05 L25.60,90.60 L24.85,90.80 L22.20,93.15 L22.20,98.30 L22.20,100.05 L22.20,105.65 L25.20,106.60 L26.75,107.10 L32.60,108.90 L32.65,111.15 L19.95,106.80 L19.95,92.40 L22.95,89.15 L26.25,89.00 Q27.35,89.20 28.30,89.80 L29.20,90.40 Q30.65,91.50 31.90,93.55 Z"/>
        <path fill="#783C15" fill-opacity="1.00" d="M25.60,90.60 L27.45,90.05 L27.10,99.40 L32.40,100.60 L32.45,102.70 L27.00,101.30 L26.75,107.10 L25.20,106.60 L25.35,100.85 L22.20,100.05 L22.20,98.30 L25.40,99.05 L25.60,90.60 Z"/>
        <path fill="#9BB4CB" fill-opacity="1.00" d="M25.60,90.60 L25.40,99.05 L22.20,98.30 L22.20,93.15 L24.85,90.80 L25.60,90.60 M27.45,90.05 L32.20,94.40 L32.40,100.60 L27.10,99.40 L27.45,90.05 M32.60,108.90 L26.75,107.10 L27.00,101.30 L32.45,102.70 L32.60,108.90 M25.20,106.60 L22.20,105.65 L22.20,100.05 L25.35,100.85 L25.20,106.60 Z"/>
        <path fill="#BFB883" fill-opacity="1.00" d="M35.70,116.65 L16.35,109.90 L14.95,91.05 L23.45,81.80 L30.95,84.20 L28.40,87.45 L26.20,86.05 L21.85,87.05 L17.70,91.80 L17.70,107.90 L32.70,112.80 L32.65,111.15 L32.60,108.90 L32.45,102.70 L32.40,100.60 L32.20,94.40 L32.20,94.05 L32.05,93.75 L31.90,93.55 Q31.40,90.75 29.45,88.35 L31.40,85.40 L35.70,93.40 L35.70,116.65 Z"/>
        <path fill="#832D56" fill-opacity="1.00" d="M33.90,73.90 L44.90,91.60 L45.35,95.30 L43.45,96.10 L43.25,95.80 L43.75,94.55 L34.45,75.10 L33.90,73.90 Z"/>
        <path fill="#D2588B" fill-opacity="1.00" d="M36.00,73.60 L47.20,72.05 L49.70,71.70 L53.50,77.35 L56.50,81.75 L58.20,84.30 L48.60,87.80 L37.85,76.30 L36.00,73.60 Z"/>
        <path fill="#9E5D33" fill-opacity="1.00" d="M-19.80,119.00 L-23.70,115.80 L-7.90,105.20 L7.50,85.80 L15.50,73.55 Q12.15,81.75 6.10,90.80 L-6.50,106.05 L-19.80,119.00 Z"/>
        <path fill="#7C265D" fill-opacity="1.00" d="M43.20,61.75 L65.45,51.35 L65.55,52.00 L74.10,67.50 L70.85,67.85 L61.15,68.85 L59.85,69.00 L50.35,69.95 L49.70,71.70 L47.20,72.05 L43.20,61.75 Z"/>
        <path fill="#74458B" fill-opacity="1.00" d="M78.15,66.05 L82.00,71.25 L77.45,73.90 L75.10,69.35 L74.10,67.50 L65.55,52.00 L65.45,51.35 L63.55,39.70 L70.50,55.60 L78.15,66.05 Z"/>
        <path fill="#8A316E" fill-opacity="1.00" d="M81.95,84.35 L73.00,89.90 L64.50,77.05 L56.50,81.75 L53.50,77.35 L62.60,74.30 L59.85,69.00 L61.15,68.85 L64.45,73.80 L71.60,69.65 L70.85,67.85 L74.10,67.50 L75.10,69.35 L65.85,74.90 L72.95,86.15 L73.85,87.55 L80.85,83.90 L81.95,84.35 Z"/>
        <path fill="#D0558B" fill-opacity="1.00" d="M61.15,68.85 L70.85,67.85 L71.60,69.65 L64.45,73.80 L61.15,68.85 Z"/>
        <path fill="#C8446B" fill-opacity="1.00" d="M72.35,76.80 L73.95,81.00 L78.35,82.85 L72.95,86.15 L65.85,74.90 L75.10,69.35 L77.45,73.90 L77.30,73.95 L73.75,76.00 L72.35,76.80 Z"/>
        <path fill="#D0578A" fill-opacity="1.00" d="M59.85,69.00 L62.60,74.30 L53.50,77.35 L49.70,71.70 L50.35,69.95 L59.85,69.00 Z"/>
        <path fill="url(#G13)" d="M73.00,89.90 L72.35,90.30 L73.25,91.35 L64.75,95.80 L57.60,87.70 L58.20,87.30 L58.20,84.30 L56.50,81.75 L64.50,77.05 L73.00,89.90 Z"/>
        <path fill="#B36C32" fill-opacity="1.00" d="M50.75,110.75 L43.10,96.05 L43.25,95.80 L43.45,96.10 L52.05,109.95 L50.75,110.75 Z"/>
        <path fill="#93336B" fill-opacity="1.00" d="M44.90,91.60 L45.20,92.05 L47.35,90.20 L58.20,84.30 L58.20,87.30 L57.60,87.70 L45.35,95.30 L44.90,91.60 Z"/>
        <path fill="#963964" fill-opacity="1.00" d="M52.05,109.95 L43.45,96.10 L45.35,95.30 L53.95,108.70 L54.30,110.30 L53.50,110.70 L52.75,111.10 L52.05,109.95 Z"/>
        <path fill="#D47D95" fill-opacity="1.00" d="M47.35,90.20 L37.85,76.30 L48.60,87.80 L58.20,84.30 L47.35,90.20 Z"/>
        <path fill="#CD436C" fill-opacity="1.00" d="M45.35,95.30 L57.60,87.70 L66.25,101.65 L54.00,106.20 L45.35,95.30 Z"/>
        <path fill="#9D375B" fill-opacity="1.00" d="M78.35,82.85 L80.85,83.90 L73.85,87.55 L72.95,86.15 L78.35,82.85 Z"/>
        <path fill="#D2598B" fill-opacity="1.00" d="M86.80,105.70 L87.20,105.55 L88.70,108.55 L76.35,113.70 L67.25,98.45 L73.25,94.95 L83.85,106.80 L86.80,105.70 Z"/>
        <path fill="#913066" fill-opacity="1.00" d="M86.80,105.70 L83.85,106.80 L73.25,94.95 L67.25,98.45 L76.35,113.70 L77.25,115.45 L89.55,110.20 L97.20,125.55 L107.35,120.35 L107.95,121.25 L98.10,126.80 L98.95,128.30 L97.75,130.80 L86.35,136.55 L84.80,135.40 L72.40,118.95 L75.35,116.90 L75.15,116.60 L67.20,105.80 L53.50,110.70 L54.30,110.30 L67.35,103.55 L66.45,101.95 L66.25,101.65 L57.60,87.70 L64.75,95.80 L73.25,91.35 L83.00,102.70 L88.35,100.30 L90.45,103.20 L86.80,105.70 M89.25,115.35 L87.75,113.20 L78.60,117.20 L79.85,119.55 L87.45,116.40 L80.35,120.55 L87.10,133.45 L96.85,128.20 L89.35,115.30 L89.25,115.35 M77.20,118.30 L74.20,120.20 L80.60,126.20 L77.20,118.30 Z"/>
        <path fill="#DA99A0" fill-opacity="1.00" d="M66.45,101.95 L53.95,108.70 L45.35,95.30 L54.00,106.20 L66.25,101.65 L66.45,101.95 Z"/>
        <path fill="#9E3D62" fill-opacity="1.00" d="M66.45,101.95 L67.35,103.55 L54.30,110.30 L53.95,108.70 L66.45,101.95 Z"/>
        <path fill="#E5ACA8" fill-opacity="1.00" d="M75.15,116.60 L75.35,116.90 L72.40,118.95 L71.05,119.90 L69.20,121.20 L64.05,124.85 L63.70,125.05 L53.50,110.70 L63.95,121.80 L75.15,116.60 Z"/>
        <path fill="#B05384" fill-opacity="1.00" d="M72.40,118.95 L84.80,135.40 L84.50,135.20 L74.25,140.90 L75.75,137.95 L64.05,124.85 L69.20,121.20 L79.60,135.05 L81.25,133.40 L71.05,119.90 L72.40,118.95 Z"/>
        <path fill="#A73D62" fill-opacity="1.00" d="M88.70,108.55 L89.55,110.20 L77.25,115.45 L76.35,113.70 L88.70,108.55 Z"/>
        <path fill="#D2588A" fill-opacity="1.00" d="M77.20,118.30 L80.60,126.20 L74.20,120.20 L77.20,118.30 Z"/>
        <path fill="#CB436D" fill-opacity="1.00" d="M87.45,116.40 L79.85,119.55 L78.60,117.20 L87.75,113.20 L89.25,115.35 L87.45,116.40 Z"/>
        <path fill="#CD476F" fill-opacity="1.00" d="M53.50,110.70 L67.20,105.80 L75.15,116.60 L63.95,121.80 L53.50,110.70 Z"/>
        <path fill="#973275" fill-opacity="1.00" d="M69.20,121.20 L71.05,119.90 L81.25,133.40 L79.60,135.05 L69.20,121.20 Z"/>
        <path fill="url(#G14)" d="M50.75,110.75 L52.05,109.95 L52.75,111.10 L63.50,128.40 L74.25,140.90 L70.40,141.85 L70.35,141.85 L60.45,129.25 L50.75,110.75 Z"/>
        <path fill="#873361" fill-opacity="1.00" d="M64.05,124.85 L75.75,137.95 L74.25,140.90 L63.50,128.40 L52.75,111.10 L53.50,110.70 L63.70,125.05 L64.05,124.85 Z"/>
        <path fill="#C3AF7B" fill-opacity="1.00" d="M-1.55,107.55 L56.65,130.75 L59.60,134.95 L41.00,127.60 L38.10,125.55 L36.85,125.05 L34.40,124.00 L29.85,122.05 L27.85,121.20 L21.10,119.05 L19.75,119.20 L-6.80,108.65 L-4.60,106.05 L-1.55,107.55 Z"/>
        <path fill="#7F737E" fill-opacity="1.00" d="M42.20,131.85 L45.40,131.40 L46.25,132.65 Q49.45,138.25 48.70,149.50 L48.70,149.55 L46.10,151.40 Q47.35,146.30 45.45,140.60 Q44.60,135.40 42.20,131.85 Z"/>
        <path fill="#686F6C" fill-opacity="1.00" d="M42.20,131.85 L41.25,130.60 Q39.40,128.35 36.85,126.90 L36.85,125.05 L38.10,125.55 L41.00,127.60 L45.40,131.40 L42.20,131.85 Z"/>
        <path fill="#96978D" fill-opacity="1.00" d="M-17.35,121.60 L-18.90,119.85 L-11.85,113.85 L-6.80,108.65 L19.75,119.20 L18.10,119.30 L16.25,120.15 L-4.40,111.55 L-12.00,119.80 L-17.35,121.60 M59.60,134.95 L62.80,139.60 L46.80,132.90 L45.40,131.40 L41.00,127.60 L59.60,134.95 Z"/>
        <path fill="#9A8D81" fill-opacity="1.00" d="M36.85,125.05 L36.85,126.90 Q39.40,128.35 41.25,130.60 L42.20,131.85 L39.80,132.15 Q38.30,130.30 36.35,128.90 L33.85,132.95 L30.10,133.45 L34.40,124.00 L36.85,125.05 Z"/>
        <path fill="#8A9897" fill-opacity="1.00" d="M48.70,149.55 L48.70,149.50 Q49.45,138.25 46.25,132.65 L45.40,131.40 L46.80,132.90 Q49.10,135.55 50.35,138.30 L53.65,179.50 L53.70,180.40 L53.40,180.20 L48.75,177.55 L48.75,151.20 L48.75,149.90 L48.70,149.55 Z"/>
        <path fill="#B5B181" fill-opacity="1.00" d="M42.20,131.85 Q44.60,135.40 45.45,140.60 Q47.35,146.30 46.10,151.40 L40.20,149.40 L39.45,146.95 L38.80,145.25 Q36.85,140.05 34.20,136.90 L33.25,135.90 Q31.75,134.40 30.10,133.45 L33.85,132.95 L33.70,133.15 Q40.35,137.55 41.30,148.05 L44.85,149.15 Q44.55,138.15 39.80,132.15 L42.20,131.85 Z"/>
        <path fill="#FCD9BA" fill-opacity="1.00" d="M-10.40,136.70 Q-12.85,129.30 -16.60,122.65 L-16.95,122.05 L-17.35,121.60 L-12.00,119.80 L-4.40,111.55 L16.25,120.15 Q7.20,124.70 2.00,134.75 L1.60,135.55 L-0.25,136.80 L-0.25,153.50 L-0.80,153.15 L-3.65,148.40 L-7.25,149.25 L-7.30,149.25 L-7.70,147.15 L-8.05,145.50 Q-8.75,142.10 -9.75,138.85 L-10.40,136.70 M62.80,139.60 L69.45,149.05 L69.40,149.60 L68.20,167.80 L66.95,167.80 L64.85,180.20 L58.60,175.30 L53.65,179.50 L50.35,138.30 Q49.10,135.55 46.80,132.90 L62.80,139.60 Z"/>
        <path fill="#6A152F" fill-opacity="1.00" d="M84.80,135.40 L86.35,136.55 L97.75,130.80 L98.95,128.30 L99.10,127.95 L105.40,124.95 L102.80,130.40 L69.80,145.35 L70.35,141.85 L70.40,141.85 L74.25,140.90 L84.50,135.20 L84.80,135.40 Z"/>
        <path fill="#5B2C18" fill-opacity="1.00" d="M69.80,145.35 L102.80,130.40 L111.55,126.40 L109.75,129.80 L108.30,130.55 L101.45,134.10 L97.75,136.00 L93.85,137.90 L69.40,149.60 L69.45,149.05 L69.70,145.40 L69.80,145.35 Z"/>
        <path fill="#C5BB89" fill-opacity="1.00" d="M27.85,121.20 L29.85,122.05 L28.50,123.95 L27.25,132.30 L27.00,133.80 L23.60,132.75 L21.70,132.15 L18.00,130.95 L17.85,128.75 L17.75,126.60 L17.50,122.60 L17.40,121.10 L17.35,120.20 L18.10,119.30 L19.75,119.20 L21.10,119.05 L19.35,120.55 L19.75,128.55 L24.75,129.80 L26.00,123.05 L27.85,121.20 M9.55,138.95 L11.55,137.10 L39.45,146.95 L38.25,148.90 L9.55,138.95 Z"/>
        <path fill="#897E82" fill-opacity="1.00" d="M21.10,119.05 L27.85,121.20 L26.00,123.05 L19.35,120.55 L21.10,119.05 Z"/>
        <path fill="#B6AB89" fill-opacity="1.00" d="M19.95,106.80 L32.65,111.15 L32.70,112.80 L17.70,107.90 L19.95,106.80 Z"/>
        <path fill="#C9BF8A" fill-opacity="1.00" d="M18.10,119.30 L17.35,120.20 L17.40,121.10 Q9.80,125.60 6.00,132.65 L6.75,133.35 L8.10,134.55 Q12.35,129.30 17.75,126.60 L17.85,128.75 Q11.60,131.05 8.85,137.30 L2.00,134.75 Q7.20,124.70 16.25,120.15 L18.10,119.30 Z"/>
        <path fill="#918380" fill-opacity="1.00" d="M17.40,121.10 L17.50,122.60 Q11.20,127.10 6.75,133.35 L6.00,132.65 Q9.80,125.60 17.40,121.10 Z"/>
        <path fill="#675F58" fill-opacity="1.00" d="M7.75,171.95 L5.50,172.40 L5.70,162.80 L5.75,161.30 L6.10,143.90 L6.75,139.45 L8.15,138.00 L8.85,137.30 Q11.60,131.05 17.85,128.75 L18.00,130.95 L16.30,132.55 L15.10,133.75 L12.95,135.75 L11.55,137.10 L9.55,138.95 L9.00,139.45 L9.00,140.40 L7.75,171.95 Z"/>
        <path fill="#7C7374" fill-opacity="1.00" d="M33.25,135.90 L34.20,136.90 L30.70,139.85 Q32.10,141.40 32.80,143.10 L30.10,142.15 L29.40,140.95 L28.55,141.60 L27.00,141.05 L28.35,139.95 Q26.95,138.80 24.60,137.70 L24.10,137.55 L24.40,140.15 L22.60,139.50 L22.35,137.20 L18.60,137.40 L19.00,138.25 L15.25,136.90 Q15.80,136.60 16.30,136.40 L15.10,133.75 L16.30,132.55 L17.85,135.85 L22.15,135.45 L21.70,132.15 L23.60,132.75 L23.90,135.80 Q26.60,136.50 29.35,138.45 L29.70,138.80 L33.25,135.90 Z"/>
        <path fill="#93ADC6" fill-opacity="1.00" d="M33.25,135.90 L29.70,138.80 L29.35,138.45 Q26.60,136.50 23.90,135.80 L23.60,132.75 L27.00,133.80 L27.25,132.30 Q28.75,132.70 30.10,133.45 Q31.75,134.40 33.25,135.90 M34.20,136.90 Q36.85,140.05 38.80,145.25 L32.80,143.10 Q32.10,141.40 30.70,139.85 L34.20,136.90 M18.00,130.95 L21.70,132.15 L22.15,135.45 L17.85,135.85 L16.30,132.55 L18.00,130.95 M15.10,133.75 L16.30,136.40 Q15.80,136.60 15.25,136.90 L12.95,135.75 L15.10,133.75 M19.00,138.25 L18.60,137.40 L22.35,137.20 L22.60,139.50 L19.00,138.25 M24.40,140.15 L24.10,137.55 L24.60,137.70 Q26.95,138.80 28.35,139.95 L27.00,141.05 L24.40,140.15 M28.55,141.60 L29.40,140.95 L30.10,142.15 L28.55,141.60 Z"/>
        <path fill="#88808A" fill-opacity="1.00" d="M1.60,135.55 L2.00,134.75 L8.85,137.30 L8.15,138.00 L1.60,135.55 Z"/>
        <path fill="#A4957F" fill-opacity="1.00" d="M17.50,122.60 L17.75,126.60 Q12.35,129.30 8.10,134.55 L6.75,133.35 Q11.20,127.10 17.50,122.60 Z"/>
        <path fill="#C5B987" fill-opacity="1.00" d="M6.75,139.45 L6.10,143.90 L5.75,161.30 L-0.25,157.95 L-0.25,156.25 L-0.25,153.50 L-0.25,136.80 L6.75,139.45 Z"/>
        <path fill="#BDB186" fill-opacity="1.00" d="M6.75,139.45 L-0.25,136.80 L1.60,135.55 L8.15,138.00 L6.75,139.45 Z"/>
        <path fill="#807274" fill-opacity="1.00" d="M39.45,146.95 L40.20,149.40 L38.85,150.55 L12.85,141.70 L11.40,141.20 L9.00,140.40 L9.00,139.45 L9.55,138.95 L38.25,148.90 L39.45,146.95 Z"/>
        <path fill="#663D35" fill-opacity="1.00" d="M11.40,141.20 L12.85,141.70 L12.75,143.80 L12.70,145.50 L12.40,154.80 L12.35,155.55 L12.30,157.65 L12.20,159.60 L11.85,169.80 L11.20,170.00 L10.55,170.20 L11.40,141.20 Z"/>
        <path fill="#787488" fill-opacity="1.00" d="M38.80,145.25 L39.45,146.95 L11.55,137.10 L12.95,135.75 L15.25,136.90 L19.00,138.25 L22.60,139.50 L24.40,140.15 L27.00,141.05 L28.55,141.60 L30.10,142.15 L32.80,143.10 L38.80,145.25 Z"/>
        <path fill="#5B3B32" fill-opacity="1.00" d="M12.75,143.80 L35.85,152.45 L35.70,154.10 L12.70,145.50 L12.75,143.80 Z"/>
        <path fill="#A25F23" fill-opacity="1.00" d="M12.75,143.80 L12.85,141.70 L38.85,150.55 L37.50,176.05 L35.85,177.20 L34.10,185.30 L10.45,173.30 L10.50,171.30 L33.10,181.30 L33.25,179.60 L34.25,169.40 L34.40,167.70 L34.70,164.90 L34.85,163.35 L35.70,154.10 L35.85,152.45 L12.75,143.80 Z"/>
        <path fill="#76463E" fill-opacity="1.00" d="M10.45,173.30 L7.75,171.95 L9.00,140.40 L11.40,141.20 L10.55,170.20 L10.50,171.30 L10.45,173.30 Z"/>
        <path fill="#7E7688" fill-opacity="1.00" d="M33.85,132.95 L36.35,128.90 Q38.30,130.30 39.80,132.15 L33.85,132.95 Z"/>
        <path fill="#A1937E" fill-opacity="1.00" d="M33.85,132.95 L39.80,132.15 Q44.55,138.15 44.85,149.15 L41.30,148.05 Q40.35,137.55 33.70,133.15 L33.85,132.95 Z"/>
        <path fill="#7B7486" fill-opacity="1.00" d="M29.85,122.05 L34.40,124.00 L30.10,133.45 Q28.75,132.70 27.25,132.30 L28.50,123.95 L29.85,122.05 Z"/>
        <path fill="#9B8E7F" fill-opacity="1.00" d="M26.00,123.05 L24.75,129.80 L19.75,128.55 L19.35,120.55 L26.00,123.05 Z"/>
        <path fill="#7D4B27" fill-opacity="1.00" d="M30.50,155.15 L30.60,155.20 L32.50,154.05 L30.15,161.60 L28.80,161.05 L30.50,155.15 Z"/>
        <path fill="#B56E11" fill-opacity="1.00" d="M30.50,155.15 L28.80,154.45 L23.80,152.40 L22.50,151.90 L18.70,150.30 L17.65,149.90 L16.60,149.45 L16.60,148.30 L32.50,154.05 L30.60,155.20 L30.50,155.15 Z"/>
        <path fill="#6E7678" fill-opacity="1.00" d="M46.10,151.40 L48.70,149.55 L48.75,149.90 L48.75,151.20 L46.25,153.05 L38.85,150.55 L40.20,149.40 L46.10,151.40 Z"/>
        <path fill="#955C29" fill-opacity="1.00" d="M22.50,151.90 L23.80,152.40 L23.75,153.85 L23.70,155.20 L23.55,157.60 L22.20,157.10 L22.35,154.65 L22.40,153.35 L22.50,151.90 Z"/>
        <path fill="#809BB1" fill-opacity="1.00" d="M22.50,151.90 L22.40,153.35 L18.80,151.95 L18.70,150.30 L22.50,151.90 M23.80,152.40 L28.80,154.45 L28.45,155.70 L23.75,153.85 L23.80,152.40 M22.35,154.65 L22.20,157.10 L18.95,156.00 L18.85,153.20 L22.35,154.65 M23.55,157.60 L23.70,155.20 L28.10,157.00 L27.55,158.95 L23.55,157.60 Z"/>
        <path fill="#8F7256" fill-opacity="1.00" d="M22.40,153.35 L22.35,154.65 L18.85,153.20 L17.75,152.75 L17.70,151.50 L18.80,151.95 L22.40,153.35 M23.70,155.20 L23.75,153.85 L28.45,155.70 L28.10,157.00 L23.70,155.20 Z"/>
        <path fill="#A46324" fill-opacity="1.00" d="M30.50,155.15 L28.80,161.05 L16.60,156.40 L16.60,149.45 L17.65,149.90 L17.70,151.50 L17.75,152.75 L17.85,155.60 L18.95,156.00 L22.20,157.10 L23.55,157.60 L27.55,158.95 L28.10,157.00 L28.45,155.70 L28.80,154.45 L30.50,155.15 Z"/>
        <path fill="#C99044" fill-opacity="1.00" d="M34.85,163.35 L34.70,164.90 L12.35,155.55 L12.40,154.80 L16.60,156.40 L28.80,161.05 L30.15,161.60 L34.85,163.35 Z"/>
        <path fill="#9A5C25" fill-opacity="1.00" d="M34.70,164.90 L34.40,167.70 L12.30,157.65 L12.35,155.55 L34.70,164.90 Z"/>
        <path fill="#72452F" fill-opacity="1.00" d="M34.40,167.70 L34.25,169.40 L18.95,162.60 L17.55,161.95 L12.20,159.60 L12.30,157.65 L34.40,167.70 Z"/>
        <path fill="#894F1F" fill-opacity="1.00" d="M35.70,154.10 L34.85,163.35 L30.15,161.60 L32.50,154.05 L16.60,148.30 L16.60,149.45 L16.60,156.40 L12.40,154.80 L12.70,145.50 L35.70,154.10 Z"/>
        <path fill="#7D5D4D" fill-opacity="1.00" d="M17.65,149.90 L18.70,150.30 L18.80,151.95 L17.70,151.50 L17.65,149.90 M17.75,152.75 L18.85,153.20 L18.95,156.00 L17.85,155.60 L17.75,152.75 Z"/>
        <path fill="#8EB1B4" fill-opacity="1.00" d="M5.75,161.30 L5.70,162.80 L4.75,163.55 L-2.40,159.20 L-0.25,157.95 L5.75,161.30 Z"/>
        <path fill="#6B7274" fill-opacity="1.00" d="M5.50,172.40 L4.10,173.15 L4.05,173.15 L4.75,163.55 L5.70,162.80 L5.50,172.40 Z"/>
        <path fill="#6D808B" fill-opacity="1.00" d="M4.05,173.15 L-3.40,169.45 L-3.10,166.50 L-2.40,159.20 L4.75,163.55 L4.05,173.15 Z"/>
        <path fill="#7A4825" fill-opacity="1.00" d="M17.55,161.95 L18.95,162.60 L19.05,173.55 L17.45,172.85 L17.55,161.95 Z"/>
        <path fill="#884E1E" fill-opacity="1.00" d="M17.55,161.95 L17.45,172.85 L11.20,170.00 L11.85,169.80 L12.20,159.60 L17.55,161.95 M34.25,169.40 L33.25,179.60 L19.05,173.55 L18.95,162.60 L34.25,169.40 Z"/>
        <path fill="#A26318" fill-opacity="1.00" d="M33.25,179.60 L33.10,181.30 L10.50,171.30 L10.55,170.20 L11.20,170.00 L17.45,172.85 L19.05,173.55 L33.25,179.60 Z"/>
        <path fill="#6D818D" fill-opacity="1.00" d="M99.20,198.10 L95.00,196.60 L93.55,196.10 L92.75,195.35 L93.75,189.30 L99.20,191.65 L99.20,198.10 M42.20,192.05 L33.55,187.75 L34.10,185.30 L35.85,177.20 L43.45,181.80 L42.20,192.05 M90.45,180.60 L122.25,193.85 L121.55,198.60 L93.80,186.75 L90.45,180.60 M90.25,192.95 L88.05,190.85 L89.55,182.70 L91.30,186.05 L90.25,192.95 Z"/>
        <path fill="#8DAFB1" fill-opacity="1.00" d="M35.85,177.20 L37.50,176.05 L44.50,178.95 L48.75,177.55 L53.40,180.20 L52.75,179.90 L52.65,179.95 L50.45,179.45 L43.45,181.80 L35.85,177.20 Z"/>
        <path fill="#C3B884" fill-opacity="1.00" d="M44.50,178.95 L37.50,176.05 L38.85,150.55 L46.25,153.05 L44.50,178.95 Z"/>
        <path fill="#6FBAC6" fill-opacity="1.00" d="M53.65,179.50 L58.60,175.30 L64.85,180.20 L66.95,167.80 L68.20,167.80 L66.95,187.00 L53.70,180.40 L53.65,179.50 Z"/>
        <path fill="#6E6786" fill-opacity="1.00" d="M68.20,167.80 L69.40,149.60 L93.85,137.90 L88.60,178.80 L66.95,187.00 L68.20,167.80 M73.55,175.60 L82.95,171.80 L82.95,166.40 L73.55,169.80 L73.55,175.60 Z"/>
        <path fill="#7D7389" fill-opacity="1.00" d="M48.75,177.55 L44.50,178.95 L46.25,153.05 L48.75,151.20 L48.75,177.55 Z"/>
        <path fill="#6F808D" fill-opacity="1.00" d="M52.65,179.95 L52.75,179.90 L53.40,180.20 L53.70,180.40 L66.95,187.00 L88.60,178.80 L91.50,177.65 L91.35,178.60 L89.95,180.40 L74.65,186.50 L67.75,189.20 L59.10,184.90 L57.10,183.90 L50.95,180.80 L52.65,179.95 Z"/>
        <path fill="#51646B" fill-opacity="1.00" d="M52.65,179.95 L50.95,180.80 L50.95,185.60 L50.95,187.80 L50.95,192.50 L47.75,190.80 L50.45,179.45 L52.65,179.95 Z"/>
        <path fill="#6C808D" fill-opacity="1.00" d="M66.95,200.80 L50.95,192.50 L50.95,187.80 L67.30,196.00 L67.10,198.55 L66.95,200.80 M50.95,185.60 L50.95,180.80 L57.10,183.90 L56.35,188.20 L50.95,185.60 M59.10,184.90 L67.75,189.20 L67.45,193.55 L58.10,189.05 L59.10,184.90 Z"/>
        <path fill="#4E606B" fill-opacity="1.00" d="M59.10,184.90 L58.10,189.05 L67.45,193.55 L67.30,196.00 L50.95,187.80 L50.95,185.60 L56.35,188.20 L57.10,183.90 L59.10,184.90 Z"/>
        <path fill="#586A73" fill-opacity="1.00" d="M47.75,190.80 L42.20,192.05 L43.45,181.80 L50.45,179.45 L47.75,190.80 Z"/>
        <path fill="#475963" fill-opacity="1.00" d="M67.75,189.20 L74.65,186.50 L67.10,198.55 L67.30,196.00 L67.45,193.55 L67.75,189.20 Z"/>
        <path fill="#724F22" fill-opacity="1.00" d="M73.55,175.60 L73.55,169.80 L82.95,166.40 L82.95,171.80 L73.55,175.60 Z"/>
        <path fill="#9A4074" fill-opacity="1.00" d="M148.90,106.40 L155.25,112.20 L143.35,118.30 L135.45,107.80 L144.30,104.25 L148.45,106.00 L148.90,106.40 Z"/>
        <path fill="#6C2551" fill-opacity="1.00" d="M148.90,106.40 L149.85,105.10 L155.95,111.90 L158.10,110.85 L157.70,111.90 L157.70,113.15 L155.25,112.20 L148.90,106.40 Z"/>
        <path fill="#BE4975" fill-opacity="1.00" d="M157.70,113.85 L157.70,123.45 L157.40,124.35 L155.75,124.40 L155.75,127.00 L151.75,129.60 L144.25,121.00 L157.70,113.85 Z"/>
        <path fill="#802258" fill-opacity="1.00" d="M157.70,113.85 L144.25,121.00 L151.75,129.60 L155.75,127.00 L155.15,130.00 L151.35,132.25 L142.45,121.20 L133.20,126.05 L132.05,126.70 L131.95,126.70 L141.05,139.50 L140.85,141.50 L130.75,129.50 L130.75,126.70 L122.85,117.00 L122.85,113.60 L118.65,108.40 L119.15,106.30 L119.45,106.80 L121.05,109.60 L133.45,104.90 L130.70,99.80 L131.35,99.40 L135.35,105.80 L141.55,103.05 L144.30,104.25 L135.45,107.80 L143.35,118.30 L155.25,112.20 L157.70,113.15 L157.70,113.85 M157.40,124.35 L156.80,125.95 L156.95,127.00 L155.75,127.00 L155.75,124.40 L157.40,124.35 M122.95,112.20 L131.05,125.10 L140.75,119.90 L133.95,109.00 L122.95,112.20 Z"/>
        <path fill="#993175" fill-opacity="1.00" d="M131.35,99.40 L132.00,99.00 L141.55,103.05 L135.35,105.80 L131.35,99.40 Z"/>
        <path fill="url(#G15)" d="M156.95,127.00 L157.60,132.55 L154.35,134.00 L154.35,137.20 L139.95,145.00 L121.55,117.40 L120.35,113.80 L114.35,102.40 L115.55,101.95 L119.15,106.30 L118.65,108.40 L122.85,113.60 L122.85,117.00 L130.75,126.70 L130.75,129.50 L140.85,141.50 L149.95,136.90 L150.50,134.70 L151.05,132.40 L151.35,132.25 L155.15,130.00 L155.75,127.00 L156.95,127.00 Z"/>
        <path fill="#C7507D" fill-opacity="1.00" d="M130.70,99.80 L133.45,104.90 L122.25,108.00 L120.95,105.90 L130.70,99.80 Z"/>
        <path fill="#CB456D" fill-opacity="1.00" d="M122.95,112.20 L133.95,109.00 L140.75,119.90 L131.05,125.10 L122.95,112.20 Z"/>
        <path fill="#D9899B" fill-opacity="1.00" d="M120.95,105.90 L122.25,108.00 L133.45,104.90 L121.05,109.60 L119.45,106.80 L120.95,105.90 Z"/>
        <path fill="#C75380" fill-opacity="1.00" d="M131.95,126.70 L132.05,126.70 L133.20,126.05 L150.50,134.70 L141.20,136.80 L131.95,126.70 Z"/>
        <path fill="#F9D7B9" fill-opacity="1.00" d="M91.35,178.60 L91.50,177.65 L97.75,136.00 L101.45,134.10 L128.95,147.30 L128.85,147.95 L126.35,165.20 L120.45,184.40 L115.45,183.90 L112.40,187.05 L91.35,178.60 M115.75,178.80 L118.55,178.00 L118.55,152.20 L112.15,143.00 L98.75,146.80 L96.35,170.40 L115.75,178.80 Z"/>
        <path fill="#572009" fill-opacity="1.00" d="M157.60,132.55 L157.85,134.70 L154.35,137.20 L154.85,139.80 L139.00,147.15 L139.95,145.00 L154.35,137.20 L154.35,134.00 L157.60,132.55 M128.85,147.95 L128.95,147.30 L129.40,144.15 L130.15,139.10 L130.25,138.40 L135.30,147.00 L128.85,147.95 Z"/>
        <path fill="url(#G16)" d="M128.95,147.30 L101.45,134.10 L108.30,130.55 L109.80,131.15 L112.35,132.15 L107.15,134.40 L129.40,144.15 L128.95,147.30 Z"/>
        <path fill="#F8D7B7" fill-opacity="1.00" d="M112.35,132.15 L109.80,131.15 L115.15,130.00 L99.95,105.20 L115.20,112.65 L130.25,138.40 L130.15,139.10 L112.35,132.15 Z"/>
        <path fill="#C6BD88" fill-opacity="1.00" d="M112.35,132.15 L130.15,139.10 L129.40,144.15 L107.15,134.40 L112.35,132.15 Z"/>
        <path fill="#945125" fill-opacity="1.00" d="M114.35,102.40 L120.35,113.80 L121.55,117.40 L139.95,145.00 L139.00,147.15 Q138.20,147.55 137.35,147.90 L136.15,148.45 L135.30,147.00 L130.25,138.40 L115.20,112.65 L110.95,105.40 L114.35,102.40 Z"/>
        <path fill="#6B3F37" fill-opacity="1.00" d="M158.25,138.20 L158.55,140.55 L158.80,142.80 L161.30,146.05 L156.60,143.80 L146.95,147.90 L137.35,147.90 Q138.20,147.55 139.00,147.15 L154.85,139.80 L158.25,138.20 Z"/>
        <path fill="#696487" fill-opacity="1.00" d="M158.25,138.20 L154.85,139.80 L154.35,137.20 L157.85,134.70 L158.25,138.20 M136.15,148.45 L135.55,148.70 L135.55,151.20 L135.55,156.80 L138.85,158.85 L139.00,162.45 L139.75,182.00 L123.15,191.35 L122.65,191.15 L126.35,165.20 L128.85,147.95 L135.30,147.00 L136.15,148.45 M150.45,160.05 L164.30,167.30 L150.55,176.80 L150.55,170.55 L150.45,160.05 Z"/>
        <path fill="#973C52" fill-opacity="1.00" d="M140.85,141.50 L141.05,139.50 L150.50,134.70 L149.95,136.90 L140.85,141.50 Z"/>
        <path fill="#B0794D" fill-opacity="1.00" d="M136.15,148.45 L137.35,147.90 L146.95,147.90 L156.60,143.80 L161.30,146.05 L161.85,146.30 L154.35,150.45 L150.70,151.70 L145.35,153.40 L145.35,153.20 L148.65,150.50 L148.45,150.50 L143.90,152.15 L142.95,152.15 L143.15,151.00 L140.65,151.85 L135.55,148.70 L136.15,148.45 Z"/>
        <path fill="#D98C9A" fill-opacity="1.00" d="M141.05,139.50 L131.95,126.70 L141.20,136.80 L150.50,134.70 L141.05,139.50 Z"/>
        <path fill="#B17952" fill-opacity="1.00" d="M157.70,123.45 L159.85,126.30 L161.10,127.10 L160.20,130.15 L161.60,142.05 L158.55,140.55 L158.25,138.20 L157.85,134.70 L157.60,132.55 L156.95,127.00 L156.80,125.95 L157.40,124.35 L157.70,123.45 Z"/>
        <path fill="#A16C49" fill-opacity="1.00" d="M162.10,127.70 L161.95,135.15 L164.10,143.25 L161.60,142.05 L160.20,130.15 L161.10,127.10 L162.10,127.70 Z"/>
        <path fill="#CC446C" fill-opacity="1.00" d="M133.20,126.05 L142.45,121.20 L151.35,132.25 L151.05,132.40 L150.50,134.70 L133.20,126.05 Z"/>
        <path fill="#64331D" fill-opacity="1.00" d="M156.85,150.50 L151.10,153.25 L150.15,152.75 L154.35,150.45 L161.85,146.30 L161.60,147.90 L156.85,150.50 Z"/>
        <path fill="#999C8E" fill-opacity="1.00" d="M107.35,120.35 L94.65,102.05 L104.35,104.05 L110.95,105.40 L115.20,112.65 L99.95,105.20 L115.15,130.00 L109.80,131.15 L108.30,130.55 L109.75,129.80 L111.55,126.40 L109.25,123.10 L107.95,121.25 L107.35,120.35 Z"/>
        <path fill="#C24069" fill-opacity="1.00" d="M98.95,128.30 L98.10,126.80 L107.95,121.25 L109.25,123.10 L105.40,124.95 L99.10,127.95 L98.95,128.30 Z"/>
        <path fill="#D2598A" fill-opacity="1.00" d="M87.45,116.40 L89.25,115.35 L89.35,115.30 L96.85,128.20 L87.10,133.45 L80.35,120.55 L87.45,116.40 Z"/>
        <path fill="#94978C" fill-opacity="1.00" d="M91.50,177.65 L88.60,178.80 L93.85,137.90 L97.75,136.00 L91.50,177.65 Z"/>
        <path fill="#7E2943" fill-opacity="1.00" d="M102.80,130.40 L105.40,124.95 L109.25,123.10 L111.55,126.40 L102.80,130.40 Z"/>
        <path fill="#93A69F" fill-opacity="1.00" d="M115.75,178.80 L116.55,152.60 L111.15,144.40 L112.15,143.00 L118.55,152.20 L118.55,178.00 L115.75,178.80 Z"/>
        <path fill="#D3C0B0" fill-opacity="1.00" d="M115.75,178.80 L96.35,170.40 L98.75,146.80 L112.15,143.00 L111.15,144.40 L116.55,152.60 L115.75,178.80 M113.70,174.95 L114.35,152.70 L109.15,146.30 Q105.15,146.65 100.85,149.30 L98.95,169.50 L113.65,176.10 L113.70,174.95 Z"/>
        <path fill="#854F20" fill-opacity="1.00" d="M113.70,174.95 L112.00,174.20 L112.20,169.35 L112.25,168.50 L112.40,165.45 L112.60,160.45 L112.65,160.15 L112.75,157.30 L112.95,153.10 L109.35,150.80 L109.10,155.60 L108.95,158.60 L108.70,163.85 L108.50,166.90 L108.35,169.65 L108.20,172.45 L105.65,171.30 L105.90,167.05 L106.00,165.75 L106.15,162.80 L106.45,157.50 L106.65,154.45 L106.95,148.60 L108.85,147.60 L114.35,152.70 L113.70,174.95 Z"/>
        <path fill="#FBFEFD" fill-opacity="1.00" d="M109.10,155.60 L109.35,150.80 L112.95,153.10 L112.75,157.30 L109.10,155.60 Z"/>
        <path fill="#ECF2F6" fill-opacity="1.00" d="M112.65,160.15 L112.60,160.45 L109.00,164.00 L108.70,163.85 L108.95,158.60 L112.65,160.15 M112.25,168.50 L112.20,169.35 L108.75,172.70 L108.20,172.45 L108.35,169.65 L110.65,167.85 L112.25,168.50 M106.45,157.50 L106.15,162.80 L101.65,160.85 L105.45,157.05 L106.45,157.50 M106.00,165.75 L105.90,167.05 L102.85,170.05 L100.35,168.90 L100.80,163.50 L106.00,165.75 Z"/>
        <path fill="#AC6425" fill-opacity="1.00" d="M106.00,165.75 L100.80,163.50 L101.05,160.60 L101.65,160.85 L106.15,162.80 L106.00,165.75 M112.75,157.30 L112.65,160.15 L108.95,158.60 L109.10,155.60 L112.75,157.30 M112.40,165.45 L112.25,168.50 L110.65,167.85 L108.50,166.90 L108.70,163.85 L109.00,164.00 L112.40,165.45 M106.65,154.45 L106.45,157.50 L105.45,157.05 L101.50,155.35 L101.80,152.20 L106.65,154.45 Z"/>
        <path fill="#4D7EA4" fill-opacity="1.00" d="M106.65,154.45 L101.80,152.20 L101.85,151.20 L106.95,148.60 L106.65,154.45 M101.50,155.35 L105.45,157.05 L101.65,160.85 L101.05,160.60 L101.50,155.35 Z"/>
        <path fill="#733C2C" fill-opacity="1.00" d="M101.50,155.35 L101.05,160.60 L100.80,163.50 L100.35,168.90 L98.95,169.50 L100.85,149.30 Q105.15,146.65 109.15,146.30 L114.35,152.70 L108.85,147.60 L106.95,148.60 L101.85,151.20 L101.80,152.20 L101.50,155.35 Z"/>
        <path fill="#6B8DA3" fill-opacity="1.00" d="M105.90,167.05 L105.65,171.30 L102.85,170.05 L105.90,167.05 M108.35,169.65 L108.50,166.90 L110.65,167.85 L108.35,169.65 Z"/>
        <path fill="#C8B78C" fill-opacity="1.00" d="M112.00,174.20 L113.70,174.95 L113.65,176.10 L98.95,169.50 L100.35,168.90 L102.85,170.05 L105.65,171.30 L108.20,172.45 L108.75,172.70 L112.00,174.20 Z"/>
        <path fill="#97AFC4" fill-opacity="1.00" d="M112.60,160.45 L112.40,165.45 L109.00,164.00 L112.60,160.45 Z"/>
        <path fill="#99ADC0" fill-opacity="1.00" d="M112.20,169.35 L112.00,174.20 L108.75,172.70 L112.20,169.35 Z"/>
        <path fill="#8DB1B7" fill-opacity="1.00" d="M89.95,180.40 L91.35,178.60 L112.40,187.05 L122.65,191.15 L122.55,191.65 L122.25,193.85 L90.45,180.60 L89.95,180.40 Z"/>
        <path fill="#4A5B65" fill-opacity="1.00" d="M89.95,180.40 L90.45,180.60 L93.80,186.75 L121.55,198.60 L121.20,201.00 L101.00,192.40 L100.75,198.65 L99.20,198.10 L99.20,191.65 L93.75,189.30 L92.75,195.35 L90.25,192.95 L91.30,186.05 L89.55,182.70 L89.95,180.40 Z"/>
        <path fill="#3B4D59" fill-opacity="1.00" d="M89.95,180.40 L89.55,182.70 L88.05,190.85 L66.95,200.80 L67.10,198.55 L74.65,186.50 L89.95,180.40 Z"/>
        <path fill="#48ADF6" fill-opacity="1.00" d="M95.00,196.60 L66.95,200.80 L88.05,190.85 L90.25,192.95 L92.75,195.35 L93.55,196.10 L95.00,196.60 Z"/>
        <path fill="#5EB9C4" fill-opacity="1.00" d="M126.35,165.20 L122.65,191.15 L112.40,187.05 L115.45,183.90 L120.45,184.40 L126.35,165.20 Z"/>
        <path fill="#C7A678" fill-opacity="1.00" d="M135.55,148.70 L140.65,151.85 L143.15,151.00 L142.95,152.15 L143.90,152.15 L148.45,150.50 L148.65,150.50 L145.35,153.20 L145.35,153.40 L150.70,151.70 L154.35,150.45 L150.15,152.75 L149.25,153.20 L144.20,155.95 L135.55,151.20 L135.55,148.70 Z"/>
        <path fill="#5B250A" fill-opacity="1.00" d="M149.35,154.70 L149.70,160.35 L144.45,162.30 L144.20,155.95 L149.25,153.20 L149.35,154.70 Z"/>
        <path fill="#552B20" fill-opacity="1.00" d="M139.00,162.45 L138.85,158.85 L144.45,162.30 L149.70,160.35 L150.45,160.05 L150.55,170.55 L145.80,166.30 L142.05,164.20 L139.00,162.45 Z"/>
        <path fill="#99633C" fill-opacity="1.00" d="M146.20,184.10 L145.45,178.80 L144.30,171.50 L143.15,176.00 L142.95,176.00 Q142.50,175.65 142.15,172.35 L141.90,167.50 L142.05,164.20 L145.80,166.30 L146.20,184.10 Z"/>
        <path fill="url(#G17)" d="M146.20,184.10 L146.55,200.10 L140.30,197.50 L139.75,182.00 L139.00,162.45 L142.05,164.20 L141.90,167.50 L142.15,172.35 Q142.50,175.65 142.95,176.00 L143.15,176.00 L144.30,171.50 L145.45,178.80 L146.20,184.10 Z"/>
        <path fill="#78401C" fill-opacity="1.00" d="M146.20,184.10 L145.80,166.30 L150.55,170.55 L150.55,176.80 L150.60,180.70 L150.60,184.20 L150.60,185.20 L150.65,188.20 L150.70,198.80 L146.55,200.10 L146.20,184.10 Z"/>
        <path fill="#804622" fill-opacity="1.00" d="M138.85,158.85 L135.55,156.80 L135.55,151.20 L144.20,155.95 L144.45,162.30 L138.85,158.85 Z"/>
        <path fill="#63341D" fill-opacity="1.00" d="M154.80,182.65 Q155.50,183.00 156.20,183.30 L150.60,184.20 L150.60,180.70 L154.80,182.65 Z"/>
        <path fill="#79421C" fill-opacity="1.00" d="M184.30,199.45 L185.05,204.55 L179.05,201.70 L150.65,188.20 L150.60,185.20 L184.30,199.45 Z"/>
        <path fill="#518FBB" fill-opacity="1.00" d="M164.15,208.30 L155.30,210.10 L154.40,210.45 L122.60,210.15 L120.85,203.50 L140.30,197.50 L146.55,200.10 L147.60,200.55 L168.55,207.35 L164.15,208.30 Z"/>
        <path fill="#39739B" fill-opacity="1.00" d="M150.65,188.20 L179.05,201.70 L167.55,200.55 L147.60,200.55 L146.55,200.10 L150.70,198.80 L150.65,188.20 Z"/>
        <path fill="#54B2F5" fill-opacity="1.00" d="M154.40,210.45 L143.80,214.60 L137.55,214.60 L125.80,222.60 L122.60,210.15 L154.40,210.45 Z"/>
        <path fill="#5B2811" fill-opacity="1.00" d="M190.20,198.95 L195.35,197.30 L195.50,199.40 L195.60,201.55 L190.75,206.15 L190.20,198.95 Z"/>
        <path fill="#8A4E27" fill-opacity="1.00" d="M196.60,218.10 L192.10,222.60 L190.75,206.15 L195.60,201.55 L196.00,208.10 L196.60,218.10 Z"/>
        <path fill="#A1663C" fill-opacity="1.00" d="M192.10,222.60 L186.85,217.05 L186.65,215.50 L185.05,204.55 L184.30,199.45 L190.75,206.15 L192.10,222.60 Z"/>
        <path fill="#69320E" fill-opacity="1.00" d="M190.75,206.15 L184.30,199.45 L183.90,196.65 L190.20,198.95 L190.75,206.15 Z"/>
        <path fill="#4AADF3" fill-opacity="1.00" d="M186.65,215.50 L164.15,208.30 L168.55,207.35 L147.60,200.55 L167.55,200.55 L179.05,201.70 L185.05,204.55 L186.65,215.50 Z"/>
        <path fill="#3A78A5" fill-opacity="1.00" d="M218.15,194.85 L211.85,217.05 L196.60,218.10 L196.00,208.10 L218.15,194.85 Z"/>
        <path fill="#CB5179" fill-opacity="1.00" d="M-30.45,112.05 L-33.00,111.30 L-33.00,107.30 L-20.65,100.80 L-20.65,99.20 L-10.75,97.55 L-10.45,95.10 L-12.25,94.20 Q-6.80,91.10 -3.40,86.80 L-0.10,88.80 L-0.30,89.05 L-0.65,89.45 L-0.85,89.70 L-1.10,89.70 L-9.10,95.10 L-7.40,98.00 L-18.25,102.20 L-17.40,104.20 L-30.45,112.05 Z"/>
        <path fill="#89406D" fill-opacity="1.00" d="M-3.40,86.80 L-2.90,86.20 L-0.70,86.90 L0.20,88.40 L-0.10,88.80 L-3.40,86.80 Z"/>
        <path fill="#CA9161" fill-opacity="1.00" d="M-20.90,143.80 L-10.40,136.70 L-9.75,138.85 L-14.95,142.05 L-16.40,142.95 L-7.70,147.15 L-7.30,149.25 L-7.25,149.55 L-7.70,150.20 L-20.90,143.80 Z"/>
        <path fill="#8C5732" fill-opacity="1.00" d="M-7.70,147.15 L-16.40,142.95 L-14.95,142.05 L-8.05,145.50 L-7.70,147.15 Z"/>
        <path fill="#A97448" fill-opacity="1.00" d="M-14.95,142.05 L-9.75,138.85 Q-8.75,142.10 -8.05,145.50 L-14.95,142.05 Z"/>
        <path fill="#88A7AA" fill-opacity="1.00" d="M-7.30,149.25 L-7.25,149.25 L-0.80,153.15 L-0.25,153.50 L-0.25,156.25 L-8.40,151.25 L-8.40,151.15 L-7.70,150.20 L-7.25,149.55 L-7.30,149.25 Z"/>
        <path fill="#BA8458" fill-opacity="1.00" d="M-13.85,162.90 L-17.30,161.80 L-20.90,143.80 L-7.70,150.20 L-8.40,151.15 L-8.40,151.25 L-8.30,152.05 L-15.40,148.45 L-14.75,154.40 L-14.50,156.75 L-13.85,162.90 Z"/>
        <path fill="#627681" fill-opacity="1.00" d="M-3.10,166.50 L-7.15,164.15 L-7.15,163.95 L-7.50,160.25 L-7.70,158.40 L-8.30,152.05 L-8.40,151.25 L-0.25,156.25 L-0.25,157.95 L-2.40,159.20 L-3.10,166.50 Z"/>
        <path fill="#834C28" fill-opacity="1.00" d="M-7.70,158.40 L-7.50,160.25 L-14.50,156.75 L-14.75,154.40 L-7.70,158.40 Z"/>
        <path fill="#4BBFD6" fill-opacity="1.00" d="M-7.25,149.25 L-3.65,148.40 L-0.80,153.15 L-7.25,149.25 Z"/>
        <path fill="#97613B" fill-opacity="1.00" d="M-7.15,163.95 L-12.90,163.20 L-13.85,162.90 L-14.50,156.75 L-7.50,160.25 L-7.15,163.95 M-8.30,152.05 L-7.70,158.40 L-14.75,154.40 L-15.40,148.45 L-8.30,152.05 Z"/>
        <path fill="#A87048" fill-opacity="1.00" d="M111.95,188.65 L115.75,186.25 L133.75,191.45 L128.20,195.50 L111.95,188.65 M105.75,192.50 L110.20,189.75 L126.45,196.80 L122.30,199.75 L105.75,192.50 Z"/>
        <path fill="#DDA16F" fill-opacity="1.00" d="M105.75,192.50 L104.55,193.25 L122.15,201.05 L134.75,191.75 L133.75,191.45 L115.75,186.25 L111.95,188.65 L110.20,189.75 L105.75,192.50 M99.95,193.45 L114.85,183.95 L138.70,190.75 L121.05,202.80 L99.95,193.45 Z"/>
        <path fill="#834F2B" fill-opacity="1.00" d="M111.95,188.65 L128.20,195.50 L133.75,191.45 L134.75,191.75 L122.15,201.05 L104.55,193.25 L105.75,192.50 L122.30,199.75 L126.45,196.80 L110.20,189.75 L111.95,188.65 Z"/>
        <path fill="#CDAD81" fill-opacity="1.00" d="M121.05,202.80 L138.70,190.75 L139.45,190.95 L123.10,203.70 L121.05,202.80 Z"/>
        <path fill="#87522E" fill-opacity="1.00" d="M135.15,210.75 L134.20,210.25 L134.20,207.50 L134.20,201.25 L134.95,200.60 L135.15,210.75 Z"/>
        <path fill="#76411F" fill-opacity="1.00" d="M134.20,207.50 L126.35,213.10 L126.35,207.80 L134.20,201.25 L134.20,207.50 Z"/>
        <path fill="#96603A" fill-opacity="1.00" d="M139.45,190.95 L137.85,209.95 L136.20,211.30 L135.15,210.75 L134.95,200.60 L134.20,201.25 L126.35,207.80 L126.35,213.10 L126.35,220.60 L125.35,221.95 L123.00,220.15 L123.05,215.45 L123.05,211.35 L123.10,203.70 L139.45,190.95 Z"/>
        <path fill="#7B4321" fill-opacity="1.00" d="M134.20,210.25 L134.10,210.20 L126.35,220.60 L126.35,213.10 L134.20,207.50 L134.20,210.25 Z"/>
        <path fill="#855234" fill-opacity="1.00" d="M123.05,211.35 L123.05,215.45 L122.40,215.70 L121.65,215.35 L121.65,211.35 L123.05,211.35 Z"/>
        <path fill="#B98359" fill-opacity="1.00" d="M123.05,211.35 L121.65,211.35 L121.65,215.35 L122.40,215.70 L123.05,215.45 L123.00,220.15 L118.50,216.75 L118.60,212.70 L118.60,210.85 L118.70,204.95 L105.75,199.10 L105.85,204.25 L105.90,206.15 L106.05,212.55 L104.10,211.95 L99.95,193.45 L121.05,202.80 L123.10,203.70 L123.05,211.35 Z"/>
        <path fill="#7D4725" fill-opacity="1.00" d="M118.60,210.85 L118.60,212.70 L105.90,206.15 L105.85,204.25 L118.60,210.85 Z"/>
        <path fill="#97613B" fill-opacity="1.00" d="M118.60,210.85 L105.85,204.25 L105.75,199.10 L118.70,204.95 L118.60,210.85 M118.50,216.75 L113.95,213.30 L108.60,213.30 L106.05,212.55 L105.90,206.15 L118.60,212.70 L118.50,216.75 Z"/>
    </g>
</svg>