<svg version="1.1" xmlns="http://www.w3.org/2000/svg" width="1024" height="768">
    <defs>
        <linearGradient x1="5.78" y1="149.60" x2="25.33" y2="149.60" gradientUnits="userSpaceOnUse" spreadMethod="pad" id="G1">
            <stop offset="0.00" stop-color="#861E1D" stop-opacity="1.00"/>
            <stop offset="0.35" stop-color="#8A1F1E" stop-opacity="1.00"/>
            <stop offset="0.71" stop-color="#A32221" stop-opacity="1.00"/>
            <stop offset="1.00" stop-color="#B52223" stop-opacity="1.00"/>
        </linearGradient>
        <linearGradient x1="172.21" y1="176.90" x2="103.99" y2="137.50" gradientUnits="userSpaceOnUse" spreadMethod="pad" id="G2">
            <stop offset="0.00" stop-color="#861E1D" stop-opacity="1.00"/>
            <stop offset="0.35" stop-color="#8A1F1E" stop-opacity="1.00"/>
            <stop offset="0.71" stop-color="#A32221" stop-opacity="1.00"/>
            <stop offset="1.00" stop-color="#B52223" stop-opacity="1.00"/>
        </linearGradient>
        <linearGradient x1="18.86" y1="149.75" x2="105.74" y2="149.75" gradientUnits="userSpaceOnUse" spreadMethod="pad" id="G3">
            <stop offset="0.00" stop-color="#861E1D" stop-opacity="1.00"/>
            <stop offset="0.04" stop-color="#8A1F1E" stop-opacity="1.00"/>
            <stop offset="0.27" stop-color="#A32221" stop-opacity="1.00"/>
            <stop offset="0.52" stop-color="#B52223" stop-opacity="1.00"/>
            <stop offset="0.76" stop-color="#BF2123" stop-opacity="1.00"/>
            <stop offset="1.00" stop-color="#C32123" stop-opacity="1.00"/>
        </linearGradient>
        <linearGradient x1="113.36" y1="100.18" x2="128.14" y2="120.63" gradientUnits="userSpaceOnUse" spreadMethod="pad" id="G4">
            <stop offset="0.00" stop-color="#861E1D" stop-opacity="1.00"/>
            <stop offset="0.04" stop-color="#8A1F1E" stop-opacity="1.00"/>
            <stop offset="0.27" stop-color="#A32221" stop-opacity="1.00"/>
            <stop offset="0.52" stop-color="#B52223" stop-opacity="1.00"/>
            <stop offset="0.76" stop-color="#BF2123" stop-opacity="1.00"/>
            <stop offset="1.00" stop-color="#C32123" stop-opacity="1.00"/>
        </linearGradient>
        <linearGradient x1="128.55" y1="119.10" x2="116.25" y2="97.80" gradientUnits="userSpaceOnUse" spreadMethod="pad" id="G5">
            <stop offset="0.00" stop-color="#FFFF00" stop-opacity="1.00"/>
            <stop offset="0.51" stop-color="#FFDF00" stop-opacity="1.00"/>
            <stop offset="1.00" stop-color="#FFC600" stop-opacity="1.00"/>
        </linearGradient>
        <linearGradient x1="125.04" y1="66.10" x2="136.66" y2="66.10" gradientUnits="userSpaceOnUse" spreadMethod="pad" id="G6">
            <stop offset="0.00" stop-color="#861E1D" stop-opacity="1.00"/>
            <stop offset="0.35" stop-color="#8A1F1E" stop-opacity="1.00"/>
            <stop offset="0.71" stop-color="#A32221" stop-opacity="1.00"/>
            <stop offset="1.00" stop-color="#B52223" stop-opacity="1.00"/>
        </linearGradient>
        <linearGradient x1="110.35" y1="65.95" x2="125.25" y2="65.95" gradientUnits="userSpaceOnUse" spreadMethod="pad" id="G7">
            <stop offset="0.00" stop-color="#861E1D" stop-opacity="1.00"/>
            <stop offset="0.04" stop-color="#8A1F1E" stop-opacity="1.00"/>
            <stop offset="0.27" stop-color="#A32221" stop-opacity="1.00"/>
            <stop offset="0.52" stop-color="#B52223" stop-opacity="1.00"/>
            <stop offset="0.76" stop-color="#BF2123" stop-opacity="1.00"/>
            <stop offset="1.00" stop-color="#C32123" stop-opacity="1.00"/>
        </linearGradient>
        <linearGradient x1="46.79" y1="197.52" x2="61.91" y2="140.98" gradientUnits="userSpaceOnUse" spreadMethod="pad" id="G8">
            <stop offset="0.00" stop-color="#AB5523" stop-opacity="1.00"/>
            <stop offset="1.00" stop-color="#C07623" stop-opacity="1.00"/>
        </linearGradient>
        <linearGradient x1="53.73" y1="158.64" x2="53.77" y2="140.86" gradientUnits="userSpaceOnUse" spreadMethod="pad" id="G9">
            <stop offset="0.00" stop-color="#FFFF00" stop-opacity="1.00"/>
            <stop offset="0.51" stop-color="#FFDF00" stop-opacity="1.00"/>
            <stop offset="1.00" stop-color="#FFC600" stop-opacity="1.00"/>
        </linearGradient>
        <linearGradient x1="151.14" y1="183.51" x2="141.06" y2="221.09" gradientUnits="userSpaceOnUse" spreadMethod="pad" id="G10">
            <stop offset="0.00" stop-color="#872D1F" stop-opacity="1.00"/>
            <stop offset="1.00" stop-color="#C07623" stop-opacity="1.00"/>
        </linearGradient>
    </defs>
    <g transform="scale(3.53,3.53) translate(51.22,2.83)">
        <path fill="#D7ECF4" fill-opacity="1.00" d="M110.65,122.05 L110.45,122.05 Q109.70,122.05 108.65,120.60 Q107.45,118.90 106.35,118.45 Q105.20,118.00 103.75,115.20 Q101.20,110.35 100.90,108.20 Q100.45,105.65 98.40,100.70 Q96.65,96.35 96.65,91.30 Q96.60,86.20 97.15,86.40 L97.15,86.20 L97.25,85.55 L97.30,84.65 L97.55,88.20 L97.65,89.95 Q97.70,92.35 99.45,95.55 Q101.20,98.65 101.50,98.80 L103.10,101.85 L104.90,105.65 L105.50,106.80 L107.65,108.25 Q109.70,109.40 110.10,108.75 L109.80,111.75 Q109.45,113.90 108.50,115.20 L109.40,116.55 Q110.10,117.50 110.20,119.30 Q110.25,120.50 110.65,122.05 Z"/>
        <path fill="#9FB0B5" fill-opacity="1.00" d="M110.65,122.05 L111.00,123.55 L111.05,123.60 L111.60,125.00 Q111.90,125.50 113.80,126.60 L113.35,126.45 L113.30,126.45 L112.60,126.15 Q109.00,124.55 107.85,122.70 L106.85,120.80 L104.55,119.35 Q102.50,117.80 102.25,115.95 Q102.05,114.45 100.25,111.05 L98.40,108.75 Q97.15,107.10 97.10,105.55 L96.60,100.45 Q96.10,96.75 96.10,94.70 L96.35,91.05 L96.25,89.90 L96.10,89.35 L96.05,87.50 Q95.95,85.75 97.25,85.00 L97.30,84.65 L97.25,85.55 L97.15,86.20 L97.15,86.40 Q96.60,86.20 96.65,91.30 Q96.65,96.35 98.40,100.70 Q100.45,105.65 100.90,108.20 Q101.20,110.35 103.75,115.20 Q105.20,118.00 106.35,118.45 Q107.45,118.90 108.65,120.60 Q109.70,122.05 110.45,122.05 L110.65,122.05 Z"/>
        <path fill="#63211F" fill-opacity="1.00" d="M6.90,139.85 L5.80,139.75 Q6.90,138.75 8.05,136.70 Q11.05,131.55 12.25,130.65 Q12.90,130.20 16.25,128.45 Q17.75,127.55 18.50,126.35 L19.70,125.75 Q22.30,142.00 23.85,156.60 Q24.85,166.50 25.35,175.70 L23.35,174.55 L23.35,173.80 L23.30,167.80 L23.05,162.95 Q22.80,161.30 22.70,159.20 L22.40,154.90 L21.75,151.25 L20.95,146.80 L20.40,142.30 L19.50,138.20 Q18.80,135.50 17.20,134.50 Q15.60,133.45 13.95,134.25 Q12.25,135.05 10.60,137.55 L7.40,141.55 L6.90,139.85 Z"/>
        <path fill="url(#G1)" d="M7.40,141.55 L10.60,137.55 Q12.25,135.05 13.95,134.25 Q15.60,133.45 17.20,134.50 Q18.80,135.50 19.50,138.20 L20.40,142.30 L20.95,146.80 L21.75,151.25 L22.40,154.90 L22.70,159.20 Q22.80,161.30 23.05,162.95 L23.30,167.80 L23.35,173.80 L23.35,174.55 Q19.05,172.30 12.55,170.60 Q11.75,157.15 7.40,141.55 M19.70,125.75 L18.50,126.35 Q19.30,125.10 19.35,123.55 L19.70,125.75 M17.80,164.55 L18.05,164.70 Q19.85,165.70 21.40,165.45 L21.15,159.75 L20.45,153.35 L19.50,146.50 Q17.75,146.05 15.85,144.95 Q13.60,143.55 11.00,141.15 L13.05,149.95 L14.30,155.95 L15.35,162.80 Q16.50,163.90 17.65,164.50 L17.80,164.55 Z"/>
        <path stroke="#97201F" stroke-width="0.05" stroke-opacity="1.00" stroke-linecap="round" stroke-linejoin="round" stroke-miterlimit="3.00" fill="transparent" d="M177.45,102.60 L176.10,109.10 M6.90,139.85 L7.40,141.55 M23.35,174.55 L25.35,175.70 M19.35,123.55 L19.70,125.75 M23.35,174.55 Q19.05,172.30 12.55,170.60 Q11.75,157.15 7.40,141.55 M104.95,151.05 L105.70,145.60"/>
        <path stroke="#CA8D02" stroke-width="1.00" stroke-opacity="1.00" stroke-linecap="round" stroke-linejoin="round" stroke-miterlimit="3.00" fill="transparent" d="M17.80,164.55 L17.65,164.50"/>
        <path fill="#B10101" fill-opacity="1.00" d="M124.05,28.90 Q122.55,30.30 120.35,30.30 Q118.20,30.30 116.70,28.90 Q115.20,27.55 115.20,25.60 Q115.20,23.65 116.70,22.25 Q118.20,20.85 120.35,20.85 Q122.55,20.85 124.05,22.25 Q125.60,23.65 125.60,25.60 Q125.60,27.55 124.05,28.90 Z"/>
        <path stroke="#000000" stroke-width="0.05" stroke-opacity="1.00" stroke-linecap="round" stroke-linejoin="round" stroke-miterlimit="3.00" fill="transparent" d="M124.05,28.90 Q122.55,30.30 120.35,30.30 Q118.20,30.30 116.70,28.90 Q115.20,27.55 115.20,25.60 Q115.20,23.65 116.70,22.25 Q118.20,20.85 120.35,20.85 Q122.55,20.85 124.05,22.25 Q125.60,23.65 125.60,25.60 Q125.60,27.55 124.05,28.90"/>
        <path fill="#643735" fill-opacity="0.40" d="M16.30,125.90 L19.80,126.35 L20.90,133.50 L22.00,141.10 L16.65,139.90 L16.05,139.75 L8.05,138.10 L8.50,132.15 L8.45,131.65 L16.45,132.80 L16.30,125.90 M16.45,146.70 L22.80,147.55 L23.60,154.25 L18.10,153.05 L18.35,154.95 Q18.70,157.60 19.00,158.30 L18.20,158.10 L10.80,156.10 L9.75,151.00 L8.55,145.90 L8.55,145.30 L16.45,146.70 M20.90,133.50 L16.45,132.80 L20.90,133.50 M9.75,151.00 L18.10,153.05 L9.75,151.00 Z"/>
        <path fill="#EAD9D9" fill-opacity="0.40" d="M23.60,154.25 L23.85,156.60 L24.20,160.05 Q22.00,159.10 19.00,158.30 Q18.70,157.60 18.35,154.95 L18.10,153.05 L23.60,154.25 M8.55,145.90 L8.40,145.30 L8.55,145.30 L8.55,145.90 M11.95,163.75 L18.25,165.70 L18.40,165.75 L18.25,166.65 Q17.75,169.50 17.75,170.25 L17.75,171.45 L12.55,170.05 L11.95,163.75 Z"/>
        <path stroke="#CA9355" stroke-width="1.00" stroke-opacity="0.49" stroke-linecap="round" stroke-linejoin="round" stroke-miterlimit="3.00" fill="transparent" d="M22.00,141.10 L16.65,139.90 L16.05,139.75 L16.45,146.70 L22.80,147.55 M24.20,160.05 Q22.00,159.10 19.00,158.30 L18.20,158.10 L10.80,156.10 M8.40,145.30 L8.55,145.30 L16.45,146.70 M16.30,125.90 L16.45,132.80 L20.90,133.50 M16.05,139.75 L8.05,138.10 L8.50,132.15 L8.45,131.65 L16.45,132.80 M19.00,158.30 Q18.70,157.60 18.35,154.95 L18.10,153.05 L9.75,151.00 M12.55,170.05 L17.75,171.45 L17.75,170.25 Q17.75,169.50 18.25,166.65 L18.40,165.75 L18.25,165.70 L11.95,163.75 M17.75,171.45 Q24.25,173.65 24.80,174.75 L25.35,175.25 M18.10,153.05 L23.60,154.25 M18.40,165.75 L24.85,167.65"/>
        <path fill="url(#G2)" d="M176.10,109.10 L176.05,109.15 Q171.05,133.05 168.00,150.30 L166.20,160.90 L165.75,163.30 Q154.15,170.00 142.35,178.05 L142.25,178.05 Q128.30,187.50 114.15,198.85 L98.65,211.75 Q100.20,184.75 104.95,151.05 L106.00,151.45 Q109.05,155.60 123.35,146.05 Q137.65,136.50 176.10,109.10 Z"/>
        <path fill="#7A2727" fill-opacity="1.00" d="M176.10,109.10 Q137.65,136.50 123.35,146.05 Q109.05,155.60 106.00,151.45 L104.95,151.05 L105.70,145.60 L109.75,145.85 L113.55,145.55 Q119.70,144.90 151.65,121.45 L177.45,102.60 L176.10,109.10 Z"/>
        <path fill="#63211F" fill-opacity="1.00" d="M19.70,125.75 L19.35,123.55 L18.85,120.65 Q20.05,120.25 21.10,119.40 L30.25,112.65 Q36.90,107.55 44.10,98.50 Q51.25,89.45 54.75,87.70 Q78.55,122.45 91.65,136.30 Q99.70,144.70 105.70,145.60 L104.95,151.05 Q102.95,150.15 100.70,147.55 L95.30,140.95 L84.05,129.55 L74.30,119.95 Q72.65,118.20 69.80,113.60 L64.75,105.45 Q58.05,95.45 52.80,95.45 Q50.45,95.45 49.05,96.80 L45.30,100.20 Q43.70,101.25 42.55,103.85 Q41.35,106.65 39.80,107.95 Q37.95,109.45 36.10,111.85 L32.80,116.05 Q28.40,121.15 19.70,125.75 Z"/>
        <path fill="url(#G3)" d="M19.70,125.75 Q28.40,121.15 32.80,116.05 L36.10,111.85 Q37.95,109.45 39.80,107.95 Q41.35,106.65 42.55,103.85 Q43.70,101.25 45.30,100.20 L49.05,96.80 Q50.45,95.45 52.80,95.45 Q58.05,95.45 64.75,105.45 L69.80,113.60 Q72.65,118.20 74.30,119.95 L84.05,129.55 L95.30,140.95 L100.70,147.55 Q102.95,150.15 104.95,151.05 Q100.20,184.75 98.65,211.75 Q81.40,207.65 65.35,202.50 Q73.20,156.50 64.20,144.20 Q55.25,131.90 47.20,138.10 Q39.20,144.20 39.75,157.95 Q40.30,171.60 41.60,181.25 Q42.90,190.80 43.70,194.95 L25.80,188.10 L25.35,175.70 Q24.85,166.50 23.85,156.60 Q22.30,142.00 19.70,125.75 M62.45,123.70 Q62.30,120.10 62.50,117.00 Q62.75,111.50 63.90,107.50 L54.50,106.15 Q49.95,105.15 45.35,103.75 L46.75,112.70 L47.95,121.00 Q51.00,122.75 54.15,123.50 Q58.15,124.45 62.45,123.70 Z"/>
        <path stroke="#AC5142" stroke-width="0.05" stroke-opacity="1.00" stroke-linecap="round" stroke-linejoin="round" stroke-miterlimit="3.00" fill="transparent" d="M176.10,109.10 L176.05,109.15 Q171.05,133.05 168.00,150.30 L166.20,160.90 L165.75,163.30"/>
        <path stroke="#97201F" stroke-width="0.05" stroke-opacity="1.00" stroke-linecap="round" stroke-linejoin="round" stroke-miterlimit="3.00" fill="transparent" d="M165.75,163.30 Q154.15,170.00 142.35,178.05 L142.25,178.05 Q128.30,187.50 114.15,198.85 L98.65,211.75 Q81.40,207.65 65.35,202.50 M43.70,194.95 L25.80,188.10 L25.35,175.70 Q24.85,166.50 23.85,156.60 Q22.30,142.00 19.70,125.75 M104.95,151.05 Q100.20,184.75 98.65,211.75"/>
        <path fill="#EAD9D9" fill-opacity="0.40" d="M170.45,117.85 L169.90,121.45 L169.55,123.95 L167.15,125.90 L163.25,128.85 L161.35,130.20 L161.75,126.85 L161.55,123.95 L155.45,128.15 L155.30,119.35 L160.75,115.50 L164.10,113.50 L164.50,121.95 L170.45,117.85 M168.00,137.75 L167.80,144.05 L161.70,148.60 L157.35,151.50 L157.50,145.85 L161.65,142.90 L168.00,137.75 M148.10,162.25 L148.20,163.65 L148.30,166.40 L148.10,166.50 L142.95,169.75 L139.55,171.85 L138.25,172.65 L138.10,169.00 L142.80,165.85 L143.30,165.50 L148.10,162.25 M54.10,98.70 L58.30,99.35 L64.75,100.00 L64.30,106.10 L60.30,105.70 L57.85,105.45 L53.55,104.85 Q53.75,101.75 54.10,98.70 M47.00,111.15 L47.05,111.15 L53.25,112.05 L53.25,118.25 L53.20,118.50 L41.60,116.70 L41.20,113.05 L40.95,109.95 L46.35,111.05 L47.00,111.15 M55.10,125.75 L55.65,131.25 L48.75,130.15 L48.50,130.00 L48.50,130.10 L41.25,128.80 L41.40,123.25 L47.50,124.55 L55.10,125.75 M63.50,132.40 L70.60,133.45 L71.30,133.55 L79.10,134.60 L79.90,137.60 Q80.55,140.45 80.50,141.60 L71.75,140.40 L71.30,140.35 L69.80,140.15 L63.85,139.30 Q63.55,137.50 63.50,132.40 M71.75,146.95 L72.50,147.00 L81.15,148.00 L81.20,151.30 L81.10,155.80 L71.50,154.45 L71.30,154.45 L64.60,153.45 L64.40,153.45 L64.50,151.00 Q64.55,147.50 63.80,145.85 L71.30,146.90 L71.75,146.95 M41.90,162.25 L49.20,163.80 L50.00,164.00 L49.85,158.10 L56.80,159.20 L64.50,160.30 L64.35,166.75 L57.65,165.50 L58.40,171.15 L66.25,173.05 L66.50,173.10 L71.30,174.20 L73.05,174.55 L82.05,176.40 L82.20,181.85 L74.75,179.95 L71.30,179.05 L69.30,178.50 L66.15,177.70 L59.75,176.00 L50.75,173.75 L50.75,169.35 L50.70,169.30 L42.00,167.25 L41.90,162.25 M58.40,171.15 L50.75,169.35 L58.40,171.15 M57.65,165.50 L50.00,164.00 L57.65,165.50 M66.25,173.05 L66.15,177.70 L66.25,173.05 M75.05,198.05 L75.00,197.00 L75.00,192.05 L73.75,191.75 L71.30,191.30 L67.35,190.60 L67.15,190.60 L66.95,186.35 L66.85,182.65 L71.30,183.75 L74.90,184.65 L75.25,184.75 L82.80,186.80 L83.40,194.25 L91.75,196.80 L91.90,196.85 L91.75,197.75 Q91.25,200.60 91.25,201.35 L91.25,202.55 L75.50,198.30 L75.05,198.15 L75.05,198.05 M92.50,189.40 Q92.20,188.70 91.85,186.05 L91.60,184.15 L100.70,186.05 L104.30,184.20 L106.10,183.20 L106.25,189.15 L104.30,190.25 L102.30,191.40 Q102.05,191.50 100.25,192.50 Q97.50,190.75 92.50,189.40 M111.25,149.30 L123.30,143.30 L123.85,143.00 L124.00,149.15 L117.15,153.30 L115.35,154.25 L111.10,156.15 L111.25,149.30 M134.90,142.05 L140.50,138.30 L140.50,143.55 L135.40,147.20 L135.30,147.25 L130.00,151.00 L129.85,145.35 L134.90,142.05 M164.50,121.95 L161.55,123.95 L164.50,121.95 M103.75,166.35 L104.30,166.15 Q107.10,165.15 110.50,163.40 L110.40,168.05 L104.30,171.80 L102.35,173.10 L98.10,172.70 L98.25,168.55 L98.35,165.30 Q102.25,166.00 102.95,166.40 L103.25,166.50 L103.75,166.35 M116.50,164.40 L124.85,159.30 L130.50,155.75 L135.65,152.45 L140.90,149.05 L141.15,151.80 L141.50,156.15 L143.40,155.00 L146.70,152.95 L146.35,158.20 L146.25,158.25 L142.50,160.65 L142.30,160.75 L137.20,163.95 L137.10,158.75 L130.75,162.45 L130.65,162.55 L125.30,165.65 L116.85,170.55 L116.50,164.40 M100.50,191.40 L100.25,192.50 Q101.20,191.55 100.50,191.40 M112.70,185.30 L117.50,182.35 L126.40,176.70 L126.50,180.15 L118.10,185.75 L113.25,189.15 L112.90,186.55 L112.70,185.30 M130.75,162.45 L130.50,155.75 L130.75,162.45 M83.40,194.25 L75.00,192.05 L83.40,194.25 Z"/>
        <path fill="#643735" fill-opacity="0.60" d="M167.15,125.90 L166.65,130.95 L162.00,134.35 L161.75,134.55 L155.75,138.90 L156.45,133.45 L156.70,133.30 L161.35,130.20 L156.70,133.30 L156.45,133.45 L153.00,135.40 L150.30,136.90 L150.50,131.50 L150.65,131.45 L155.45,128.15 L161.55,123.95 L161.75,126.85 L161.35,130.20 L163.25,128.85 L167.15,125.90 M146.00,145.60 L151.30,142.00 L151.50,145.85 L151.25,149.60 L151.15,150.15 L157.50,145.85 L157.35,151.50 L152.75,154.40 Q152.95,155.90 152.80,159.05 L148.10,162.25 L143.30,165.50 L142.80,165.85 L142.30,160.75 L142.50,160.65 L146.25,158.25 L146.35,158.25 L146.35,158.20 L146.70,152.95 L143.40,155.00 L141.50,156.15 L141.15,151.80 L140.90,149.05 L146.00,145.60 M162.20,152.60 L168.35,148.35 L168.75,153.60 L162.55,157.50 L162.75,161.00 L162.50,161.10 Q158.50,163.50 153.20,167.15 L153.10,163.40 L158.00,160.35 L162.55,157.50 L158.00,160.35 L157.85,155.60 L162.20,152.60 M134.55,136.35 L134.60,136.35 L134.60,136.30 L141.50,131.00 L143.95,129.00 L144.15,131.65 L144.45,135.65 L140.75,138.10 L140.50,138.30 L134.90,142.05 L135.00,139.85 L134.55,136.35 M117.15,153.30 L124.00,149.15 L129.85,145.35 L130.00,151.00 L135.30,147.25 L135.65,152.45 L130.50,155.75 L124.85,159.30 L124.55,154.80 L117.40,159.40 L117.35,155.35 L117.15,153.30 M110.40,168.05 L116.50,164.40 L116.85,170.55 Q114.40,171.95 111.75,173.50 L104.30,177.65 L101.80,179.00 L102.35,173.10 L104.30,171.80 L110.40,168.05 M99.60,199.05 L100.25,192.50 Q102.05,191.50 102.30,191.40 L104.30,190.25 L106.25,189.15 L112.70,185.30 L112.90,186.55 L113.25,189.15 L118.10,185.75 Q118.35,189.30 118.10,192.55 L107.20,200.70 L107.00,196.60 Q107.25,194.75 107.00,193.65 L104.30,195.65 L99.65,199.05 L99.60,199.05 L99.65,199.05 L99.60,199.05 M117.50,182.35 L117.60,179.30 L117.60,176.30 L121.20,174.00 L125.55,171.30 L125.40,167.35 L125.30,165.65 L130.65,162.55 L130.75,162.45 L137.10,158.75 L137.20,163.95 Q134.95,165.35 132.20,167.10 L132.00,167.20 L132.20,172.95 L126.40,176.70 L117.50,182.35 M132.15,182.15 L132.50,176.30 L138.25,172.65 L139.55,171.85 L142.95,169.75 Q143.50,171.50 143.50,173.90 Q140.45,176.05 137.10,178.50 Q134.75,180.20 132.15,182.15 M113.25,189.15 L107.00,193.65 L113.25,189.15 M151.15,150.15 L146.70,152.95 L151.15,150.15 M152.75,154.40 L146.35,158.20 L152.75,154.40 M124.55,154.80 L124.50,154.25 L124.55,154.80 M125.55,171.30 L132.00,167.20 L125.55,171.30 Z"/>
        <path fill="#643735" fill-opacity="0.40" d="M60.30,105.70 L61.10,112.75 L65.95,113.15 L67.80,113.30 L68.15,119.70 L61.30,119.20 L61.55,122.30 L61.75,126.50 L55.10,125.75 L47.50,124.55 L41.40,123.25 L34.50,121.40 L34.25,117.20 L34.05,114.80 L41.60,116.70 L41.75,117.25 L41.60,116.70 L53.20,118.50 L53.50,118.50 L53.25,118.25 L53.25,112.05 L47.05,111.15 L47.00,111.15 L47.00,110.50 L47.65,104.10 L53.55,104.85 L57.85,105.45 L60.30,105.70 M70.25,127.25 L71.30,127.35 L77.35,127.85 L85.25,128.45 L86.60,135.60 L79.10,134.60 L71.30,133.55 L70.60,133.45 Q70.30,132.55 70.20,129.55 L70.25,127.25 M61.10,112.75 L58.25,112.50 L53.25,112.05 L58.25,112.50 L61.10,112.75 M61.30,119.20 L55.50,118.70 L53.50,118.50 L55.50,118.70 L61.30,119.20 M55.65,131.25 L62.10,132.20 L63.50,132.40 Q63.55,137.50 63.85,139.30 L56.30,138.25 L48.90,137.10 L48.75,135.15 L48.50,131.25 L48.50,130.15 L48.75,130.15 L55.65,131.25 M49.00,143.05 L56.35,144.50 L63.80,145.85 Q64.55,147.50 64.50,151.00 L64.40,153.45 L57.65,152.40 L57.20,155.65 L56.80,159.20 L49.85,158.10 L50.00,164.00 L49.20,163.80 L41.90,162.25 L35.00,160.80 Q35.00,157.55 34.50,155.50 L41.50,156.75 L49.85,158.10 L41.50,156.75 L34.50,155.50 L28.55,154.30 L28.40,154.25 Q28.10,153.50 27.55,150.75 Q26.90,147.80 26.80,146.25 L34.25,148.10 L41.10,149.55 L49.40,151.05 Q49.05,146.25 49.00,143.05 M42.00,136.00 L42.20,141.60 L33.60,139.80 L25.60,138.10 L25.50,138.10 L25.00,134.60 L24.70,132.75 L42.00,136.00 M81.15,148.00 L89.00,149.50 L89.10,142.85 L96.70,143.95 L104.30,145.25 L104.75,145.35 L104.75,152.60 L104.30,152.55 L97.05,151.20 L97.20,154.05 Q97.40,156.95 97.70,158.05 L103.90,158.85 L104.25,158.75 Q104.20,163.95 103.75,166.35 L103.25,166.50 L102.95,166.40 Q102.25,166.00 98.35,165.30 L98.25,168.55 L98.10,172.70 L90.15,171.00 L89.55,170.85 L81.55,169.20 L82.00,163.25 L81.95,162.75 L89.95,163.90 L98.35,165.30 L89.95,163.90 L89.80,157.00 L81.10,155.80 L81.20,151.30 L81.15,148.00 M47.25,118.25 L47.50,124.55 L47.25,118.25 M35.95,170.40 Q35.50,168.40 35.60,165.70 L42.00,167.25 L50.70,169.30 L50.75,169.35 L50.75,173.75 L59.75,176.00 L66.15,177.70 L69.30,178.50 L71.30,179.05 L74.75,179.95 L82.20,181.85 L91.60,184.15 L82.20,181.85 L82.05,176.40 L89.95,177.80 L101.80,179.00 L100.70,186.05 L91.60,184.15 L91.85,186.05 Q92.20,188.70 92.50,189.40 L91.70,189.20 L82.80,186.80 L75.25,184.75 L74.90,184.65 L74.75,183.50 L74.75,179.95 L74.75,183.50 L74.90,184.65 L71.30,183.75 L66.85,182.65 L66.95,186.35 L67.15,190.60 L67.35,190.60 L71.30,191.30 L73.75,191.75 L75.00,192.05 L75.00,197.00 L75.05,198.05 L75.05,198.15 L72.35,197.40 L71.30,197.15 L59.75,193.95 L59.75,189.25 L63.50,189.95 L67.15,190.60 L63.50,189.95 L59.75,189.25 L52.75,187.50 L43.85,184.80 L44.15,187.35 L44.45,189.80 L31.55,186.30 L30.90,183.65 L30.40,181.10 L36.50,182.75 L37.80,183.10 L43.85,184.80 L37.80,183.10 L37.35,180.75 L36.55,176.25 L43.25,177.50 L43.10,175.05 L42.85,171.90 L35.95,170.40 M73.05,174.55 L71.30,174.20 L66.50,173.10 L66.25,173.05 L58.40,171.15 L57.65,165.50 L64.35,166.75 L71.30,167.90 L72.75,168.10 L72.75,169.75 L73.00,173.75 L73.05,174.55 M41.50,156.75 L41.10,149.55 L41.50,156.75 M51.05,179.10 L49.55,178.80 L43.25,177.50 L49.55,178.80 L51.05,179.10 L59.40,180.95 L66.85,182.65 L59.40,180.95 L51.05,179.10 L51.25,181.25 L50.75,186.25 L51.25,181.25 L51.05,179.10 M59.40,180.95 L59.50,177.75 L59.75,176.00 L59.50,177.75 L59.40,180.95 M57.65,152.40 L49.40,151.05 L57.65,152.40 M50.75,173.75 L42.85,171.90 L50.75,173.75 M97.05,151.20 L89.70,149.65 L89.10,149.55 L89.00,149.50 L89.10,149.55 L89.70,149.65 L97.05,151.20 M97.70,158.05 L89.80,157.00 L97.70,158.05 Z"/>
        <path stroke="#CA9355" stroke-width="1.00" stroke-opacity="0.49" stroke-linecap="round" stroke-linejoin="round" stroke-miterlimit="3.00" fill="transparent" d="M164.10,113.50 Q168.15,111.15 173.20,108.70 Q177.10,106.80 178.00,105.00 M170.45,117.85 L170.65,117.70 L174.90,114.75 M170.45,117.85 L169.90,121.45 L169.55,123.95 L173.85,119.80 M164.10,113.50 L164.50,121.95 L170.45,117.85 M167.15,125.90 L169.55,123.95 M156.45,133.45 L155.75,138.90 L161.75,134.55 L162.00,134.35 L166.65,130.95 L167.15,125.90 L163.25,128.85 L161.35,130.20 L156.70,133.30 L156.45,133.45 L153.00,135.40 L150.30,136.90 L146.50,139.35 L146.25,139.55 L146.00,145.60 L151.30,142.00 L151.50,141.85 L155.75,138.90 M167.80,144.05 L171.25,140.75 M168.00,137.75 L167.80,144.05 L161.70,148.60 L162.20,152.60 L168.35,148.35 L172.75,145.25 M168.00,137.75 Q170.95,135.00 172.25,133.00 M166.65,130.95 L173.50,125.75 M158.00,160.35 L153.10,163.40 L153.20,167.15 Q158.50,163.50 162.50,161.10 L162.75,161.00 L162.55,157.50 L158.00,160.35 L157.85,155.60 L152.80,159.05 L148.10,162.25 L148.20,163.65 L148.30,166.40 L153.10,163.40 M168.75,153.60 L171.25,152.00 M168.75,153.60 L162.55,157.50 M162.75,161.00 Q167.90,157.85 170.80,156.85 M168.35,148.35 L168.75,153.60 M50.50,94.05 L50.05,98.10 L54.10,98.70 L58.30,99.35 L58.60,96.75 L59.15,94.55 L56.00,94.30 L47.75,92.75 M59.15,94.55 L61.50,94.50 M40.50,102.25 L44.00,103.30 L43.55,101.45 Q43.30,100.65 44.25,97.25 L50.05,98.10 M54.75,87.75 Q54.40,88.80 54.25,93.25 M64.30,106.10 L68.75,106.50 M58.30,99.35 L64.75,100.00 L64.30,106.10 L60.30,105.70 L61.10,112.75 L65.95,113.15 L67.80,113.30 L71.30,113.50 L72.00,113.50 M67.80,113.30 L68.15,119.70 L71.30,119.85 L76.75,120.15 L79.50,120.25 M68.15,119.70 L61.30,119.20 L61.55,122.30 L61.75,126.50 L61.80,126.50 L62.35,126.55 L70.25,127.25 L71.30,127.35 L77.35,127.85 L76.95,123.30 L76.75,120.15 M53.55,104.85 L57.85,105.45 L60.30,105.70 M47.65,104.10 L44.00,103.30 M47.00,111.15 L47.00,110.50 L47.65,104.10 L53.55,104.85 Q53.75,101.75 54.10,98.70 M47.00,111.15 L47.05,111.15 L53.25,112.05 L58.25,112.50 L61.10,112.75 M40.95,109.95 L46.35,111.05 L47.00,111.15 M41.60,116.70 L41.75,117.25 M40.95,109.95 L41.20,113.05 L41.60,116.70 L53.20,118.50 L53.50,118.50 L53.25,118.25 L53.25,112.05 M53.50,118.50 L55.50,118.70 L61.30,119.20 M55.10,125.75 L55.65,131.25 L62.10,132.20 L63.50,132.40 L70.60,133.45 Q70.30,132.55 70.20,129.55 L70.25,127.25 M48.75,130.15 L48.50,130.10 L48.50,130.15 L48.50,131.25 L48.75,135.15 L48.90,137.10 L56.30,138.25 L63.85,139.30 Q63.55,137.50 63.50,132.40 M41.40,123.25 L41.25,128.80 L48.50,130.10 L48.50,130.00 L48.75,130.15 L55.65,131.25 M42.20,141.60 L46.70,142.55 L49.00,143.05 L56.35,144.50 L56.35,141.00 L56.30,138.25 M42.00,136.00 L42.20,141.60 L33.60,139.80 L33.80,143.40 Q33.95,146.70 34.25,148.10 L41.10,149.55 L49.40,151.05 Q49.05,146.25 49.00,143.05 M42.00,136.00 L48.90,137.10 M47.50,124.55 L55.10,125.75 L61.75,126.50 M79.10,134.60 L71.30,133.55 L70.60,133.45 M63.85,139.30 L69.80,140.15 L71.30,140.35 L71.75,140.40 L80.50,141.60 Q80.55,140.45 79.90,137.60 L79.10,134.60 L86.60,135.60 L85.25,128.45 L77.35,127.85 M71.75,146.95 L72.50,147.00 L81.15,148.00 L89.00,149.50 L89.10,142.85 L80.50,141.60 M71.75,146.95 L71.75,140.40 M63.80,145.85 L71.30,146.90 L71.75,146.95 M56.35,144.50 L63.80,145.85 Q64.55,147.50 64.50,151.00 L64.40,153.45 L64.60,153.45 L71.30,154.45 L71.50,154.45 L81.10,155.80 L81.20,151.30 L81.15,148.00 M41.40,123.25 L47.50,124.55 L47.25,118.25 M23.75,117.50 L28.05,119.25 L34.50,121.40 L34.25,117.20 L34.05,114.80 L29.75,113.25 M28.05,119.25 L28.10,122.80 L28.30,126.05 L35.05,127.60 L41.25,128.80 M35.05,127.60 L35.25,130.35 L35.50,134.25 M21.15,132.00 L24.70,132.75 L42.00,136.00 M24.70,132.75 L25.00,134.60 L25.50,138.10 L25.60,138.10 L33.60,139.80 M21.85,137.40 L25.50,138.10 M23.25,144.85 Q24.15,145.50 26.80,146.25 L34.25,148.10 M19.75,123.50 Q23.00,124.75 28.30,126.05 M34.50,155.50 Q35.00,157.55 35.00,160.80 L41.90,162.25 L49.20,163.80 L50.00,164.00 L49.85,158.10 L41.50,156.75 L34.50,155.50 L28.55,154.30 L28.40,154.25 L23.65,153.00 M24.75,158.50 L28.45,159.45 L35.00,160.80 M26.80,146.25 Q26.90,147.80 27.55,150.75 Q28.10,153.50 28.40,154.25 M35.60,165.70 L29.25,164.20 L25.25,163.10 M25.50,168.25 L29.45,169.10 L29.60,169.15 L35.95,170.40 Q35.50,168.40 35.60,165.70 L42.00,167.25 L41.90,162.25 M28.45,159.45 L28.90,162.10 L29.25,164.20 M29.60,169.15 L30.50,175.15 L36.45,176.20 L36.55,176.25 L43.25,177.50 L43.10,175.05 L42.85,171.90 L35.95,170.40 M37.80,183.10 L36.50,182.75 L30.40,181.10 L30.90,183.65 L31.55,186.30 L44.45,189.80 L44.15,187.35 L43.85,184.80 L37.80,183.10 L37.35,180.75 L36.55,176.25 M26.60,185.00 L31.55,186.30 M25.75,174.40 L30.50,175.15 M26.25,180.10 L30.40,181.10 M71.50,154.45 L71.75,160.75 M64.35,166.75 L57.65,165.50 L58.40,171.15 L66.25,173.05 L66.50,173.10 L71.30,174.20 L73.05,174.55 L73.00,173.75 L72.75,169.75 L72.75,168.10 L71.30,167.90 L64.35,166.75 L64.50,160.30 L56.80,159.20 L49.85,158.10 M72.75,168.10 L74.60,168.30 L81.55,169.20 L82.00,163.25 L81.95,162.75 L72.30,161.40 L71.30,161.30 L64.50,160.30 M64.40,153.45 L57.65,152.40 L57.20,155.65 L56.80,159.20 M41.10,149.55 L41.50,156.75 M50.75,169.35 L58.40,171.15 M42.00,167.25 L50.70,169.30 L50.75,169.35 L50.75,173.75 L59.75,176.00 L66.15,177.70 L66.25,173.05 M50.00,164.00 L57.65,165.50 M49.40,151.05 L57.65,152.40 M66.85,182.65 L59.40,180.95 L51.05,179.10 L51.25,181.25 L50.75,186.25 M59.75,176.00 L59.50,177.75 L59.40,180.95 M43.25,177.50 L49.55,178.80 L51.05,179.10 M59.75,189.25 L59.75,193.95 L71.30,197.15 L72.35,197.40 L75.05,198.15 L75.05,198.05 L75.00,197.00 L75.00,192.05 L73.75,191.75 L71.30,191.30 L67.35,190.60 L67.15,190.60 L63.50,189.95 L59.75,189.25 L52.75,187.50 L43.85,184.80 M44.45,189.80 L59.75,193.95 M74.90,184.65 L75.25,184.75 L82.80,186.80 L91.70,189.20 L92.50,189.40 Q92.20,188.70 91.85,186.05 L91.60,184.15 L82.20,181.85 L74.75,179.95 L74.75,183.50 L74.90,184.65 L71.30,183.75 L66.85,182.65 L66.95,186.35 L67.15,190.60 M74.75,179.95 L71.30,179.05 L69.30,178.50 L66.15,177.70 M42.85,171.90 L50.75,173.75 M34.50,121.40 L41.40,123.25 M34.05,114.80 L41.60,116.70 M35.75,108.00 Q37.40,109.05 40.95,109.95 M143.95,129.00 L150.20,123.50 L155.30,119.35 L160.75,115.50 L164.10,113.50 M111.25,149.30 L123.30,143.30 L123.85,143.00 Q129.20,140.10 134.55,136.35 L134.60,136.35 L134.60,136.30 L141.50,131.00 L143.95,129.00 L144.15,131.65 L144.45,135.65 L150.50,131.50 L150.65,131.45 L155.45,128.15 L155.30,119.35 M140.50,138.30 L140.75,138.10 L144.45,135.65 M134.55,136.35 L135.00,139.85 L134.90,142.05 L140.50,138.30 L140.50,143.55 L142.40,142.20 L146.25,139.55 M135.30,147.25 L135.40,147.20 L140.50,143.55 M129.85,145.35 L134.90,142.05 M155.45,128.15 L161.55,123.95 L164.50,121.95 M161.55,123.95 L161.75,126.85 L161.35,130.20 M151.30,142.00 L151.50,145.85 L151.25,149.60 L151.15,150.15 L157.50,145.85 L161.65,142.90 L161.75,134.55 M150.50,131.50 L150.30,136.90 M85.25,128.45 L90.75,128.85 M86.60,135.60 L95.65,136.70 L95.70,136.80 L96.00,139.10 L96.70,143.95 L104.30,145.25 L104.75,145.35 L104.75,152.60 L104.80,152.60 L111.25,149.30 L111.10,156.15 L115.35,154.25 L117.15,153.30 L124.00,149.15 L123.85,143.00 M89.10,142.85 L96.70,143.95 M110.50,163.40 L115.45,160.55 L117.00,159.60 L117.40,159.40 L117.35,155.35 L117.15,153.30 M104.75,152.60 L104.30,152.55 L97.05,151.20 L97.20,154.05 Q97.40,156.95 97.70,158.05 L103.90,158.85 L104.25,158.75 L111.10,156.15 M103.75,166.35 L104.30,166.15 Q107.10,165.15 110.50,163.40 L110.40,168.05 L116.50,164.40 L124.85,159.30 L124.55,154.80 L117.40,159.40 M98.35,165.30 Q102.25,166.00 102.95,166.40 L103.25,166.50 L103.75,166.35 Q104.20,163.95 104.25,158.75 M110.40,168.05 L104.30,171.80 L102.35,173.10 L101.80,179.00 L104.30,177.65 L111.75,173.50 Q114.40,171.95 116.85,170.55 L116.50,164.40 M89.00,149.50 L89.10,149.55 L89.70,149.65 L97.05,151.20 M81.10,155.80 L89.80,157.00 L97.70,158.05 M81.55,169.20 L89.55,170.85 L90.15,171.00 L98.10,172.70 L98.25,168.55 L98.35,165.30 L89.95,163.90 L81.95,162.75 M89.80,157.00 L89.95,163.90 M82.05,176.40 L82.20,181.85 M82.05,176.40 L89.95,177.80 L89.55,170.85 M82.80,186.80 L83.40,194.25 L91.75,196.80 L91.90,196.85 L99.60,199.05 L100.25,192.50 Q97.50,190.75 92.50,189.40 M91.60,184.15 L100.70,186.05 L101.80,179.00 L89.95,177.80 M91.90,196.85 L91.75,197.75 Q91.25,200.60 91.25,201.35 L91.25,202.55 Q97.75,204.75 98.30,205.85 Q98.80,206.95 100.45,205.75 L104.30,202.90 L107.20,200.70 L107.00,196.60 Q107.25,194.75 107.00,193.65 L104.30,195.65 L99.65,199.05 L99.70,199.05 L100.00,199.10 L99.60,199.05 L99.65,199.05 L99.60,199.05 L99.70,199.05 M112.70,185.30 L117.50,182.35 L117.60,179.30 L117.60,176.30 L111.75,179.85 L111.60,179.95 L106.10,183.20 L106.25,189.15 L112.70,185.30 L112.90,186.55 L113.25,189.15 L118.10,185.75 L126.50,180.15 L126.40,176.70 L117.50,182.35 M117.60,176.30 L121.20,174.00 L125.55,171.30 L125.40,167.35 L125.30,165.65 L116.85,170.55 M111.75,179.85 L111.75,173.50 M100.70,186.05 L104.30,184.20 L106.10,183.20 M100.25,192.50 Q102.05,191.50 102.30,191.40 L104.30,190.25 L106.25,189.15 M118.10,185.75 Q118.35,189.30 118.10,192.55 L132.15,182.15 L132.50,176.30 L126.50,180.15 M107.00,193.65 L113.25,189.15 M98.10,172.70 L102.35,173.10 M157.35,151.50 L161.70,148.60 M157.35,151.50 L152.75,154.40 Q152.95,155.90 152.80,159.05 M142.30,160.75 L142.50,160.65 L146.25,158.25 L146.35,158.20 L146.70,152.95 L151.15,150.15 M141.50,156.15 L141.15,151.80 L140.90,149.05 L135.65,152.45 L130.50,155.75 L130.75,162.45 L137.10,158.75 L137.20,163.95 L142.30,160.75 L142.80,165.85 L143.30,165.50 L148.10,162.25 M146.35,158.20 L146.35,158.25 M142.95,169.75 L148.10,166.50 L148.30,166.40 M146.35,158.20 L152.75,154.40 M124.85,159.30 L130.50,155.75 M124.50,154.25 L124.55,154.80 M125.30,165.65 L130.65,162.55 L130.75,162.45 M132.20,172.95 L138.10,169.00 L142.80,165.85 M132.00,167.20 L132.20,167.10 Q134.95,165.35 137.20,163.95 M126.40,176.70 L132.20,172.95 L132.00,167.20 L125.55,171.30 M138.25,172.65 L139.55,171.85 L142.95,169.75 Q143.50,171.50 143.50,173.90 Q148.80,170.10 153.20,167.15 M138.10,169.00 L138.25,172.65 L132.50,176.30 M132.15,182.15 Q134.75,180.20 137.10,178.50 Q140.45,176.05 143.50,173.90 M140.90,149.05 L146.00,145.60 M135.30,147.25 L135.65,152.45 M124.00,149.15 L129.85,145.35 L130.00,151.00 L135.30,147.25 M157.50,145.85 L157.35,151.50 M75.00,192.05 L83.40,194.25 M73.05,174.55 L82.05,176.40 M75.05,198.15 L75.50,198.30 L91.25,202.55 M107.20,200.70 L118.10,192.55 M161.65,142.90 L168.00,137.75 M162.20,152.60 L157.85,155.60"/>
        <path fill="#D7ECF4" fill-opacity="1.00" d="M18.05,120.90 L15.45,121.25 Q12.35,121.10 10.90,118.85 L22.05,110.45 L23.15,109.50 Q37.95,96.30 42.05,89.60 Q46.15,82.85 51.75,79.35 Q57.30,75.80 62.30,85.60 Q67.20,95.30 74.45,101.45 Q81.70,107.55 87.85,119.55 Q93.95,131.55 106.45,137.10 Q110.65,138.95 112.85,140.55 L114.50,140.80 Q116.80,140.80 122.35,138.00 Q129.50,134.40 138.10,127.80 L146.30,121.35 Q150.95,117.75 153.25,116.40 L161.05,111.85 L166.50,108.55 L173.65,103.10 L180.75,97.80 L184.10,94.80 L185.35,93.10 Q185.70,92.85 186.50,92.85 Q187.45,95.45 185.05,97.10 L177.45,102.60 L151.65,121.45 Q119.70,144.90 113.55,145.55 L109.75,145.85 Q109.40,144.10 106.05,142.30 L102.25,140.65 Q99.15,140.55 96.65,137.75 Q95.25,136.20 92.25,131.15 Q90.65,128.55 87.15,123.90 Q82.55,117.85 79.85,115.65 Q75.50,112.10 72.90,108.25 L68.25,101.15 L63.25,94.55 Q61.75,92.50 60.85,89.65 Q60.15,87.55 58.10,86.65 L55.60,85.70 L53.75,85.05 L53.35,85.05 Q51.20,85.25 46.55,91.15 L41.00,98.65 L38.95,101.30 L37.00,103.80 Q34.65,106.55 30.75,109.65 L24.10,114.45 L19.85,117.30 L16.80,118.05 Q15.25,118.35 15.25,119.85 Q15.25,120.65 18.05,120.90 M112.00,57.90 Q116.65,58.00 117.55,60.70 Q118.45,63.40 123.45,62.70 L128.75,62.45 L135.30,62.90 L138.00,63.15 Q138.95,63.55 140.00,65.50 Q140.50,66.45 142.00,67.00 Q143.20,67.45 143.20,68.20 Q143.20,68.45 140.90,69.30 Q138.50,70.20 138.30,70.50 L136.90,72.75 Q136.35,73.50 134.80,73.50 L131.05,73.60 Q129.20,74.15 125.60,77.70 L121.85,73.95 Q120.35,72.70 118.80,73.10 Q117.20,73.50 115.75,74.70 L114.25,75.90 Q113.25,75.90 110.85,73.85 Q108.40,71.75 107.15,72.05 L104.40,72.20 Q102.95,72.10 103.90,71.25 L105.05,69.95 Q105.40,69.30 104.85,68.65 L101.50,65.10 Q98.65,62.20 100.80,61.20 Q102.90,60.20 103.05,59.65 Q103.20,59.10 103.80,59.30 L107.05,58.85 Q107.35,57.75 112.00,57.90 M108.90,70.40 Q108.80,71.50 110.40,72.65 Q112.00,73.75 114.00,73.80 Q114.65,70.55 117.45,70.85 L126.85,71.50 L131.90,71.70 Q135.20,71.75 136.00,71.00 L136.85,69.85 Q137.35,69.10 138.10,68.60 L139.50,68.00 L140.65,67.35 Q140.80,67.10 138.80,66.90 Q136.80,66.70 135.75,66.15 Q134.70,65.60 129.80,66.65 L122.75,67.70 L119.70,67.30 L117.45,66.90 Q114.45,66.90 111.75,68.10 Q109.00,69.30 108.90,70.40 Z"/>
        <path fill="#E9F9FC" fill-opacity="1.00" d="M186.50,92.85 Q185.70,92.85 185.35,93.10 L184.10,94.80 L180.75,97.80 L173.65,103.10 L166.50,108.55 L161.05,111.85 L153.25,116.40 Q150.95,117.75 146.30,121.35 L138.10,127.80 Q129.50,134.40 122.35,138.00 Q116.80,140.80 114.50,140.80 L112.85,140.55 Q110.65,138.95 106.45,137.10 Q93.95,131.55 87.85,119.55 Q81.70,107.55 74.45,101.45 Q67.20,95.30 62.30,85.60 Q57.30,75.80 51.75,79.35 Q46.15,82.85 42.05,89.60 Q37.95,96.30 23.15,109.50 Q28.05,104.65 33.35,96.95 L37.65,90.60 L37.80,90.35 L44.55,81.30 Q49.50,74.10 55.45,74.90 Q61.40,75.70 65.85,79.95 Q70.25,84.15 76.50,92.30 Q78.75,95.20 84.65,101.00 Q90.55,106.75 92.40,107.65 Q94.25,108.55 94.75,107.35 Q95.25,106.10 94.70,102.95 L94.15,99.80 L94.15,96.30 L93.60,94.50 Q93.15,93.00 93.15,91.90 L93.40,88.30 Q93.65,86.05 93.90,85.45 Q94.25,84.50 96.45,83.70 Q98.55,82.95 100.55,82.95 L102.45,83.45 L104.25,83.35 Q111.25,83.25 118.95,85.30 Q126.60,87.25 131.10,93.85 Q135.60,100.50 135.15,101.90 Q134.60,103.65 133.70,103.65 L133.50,103.65 L133.15,103.55 L132.70,103.15 L132.65,103.10 L130.55,100.80 L127.40,97.45 L126.10,96.25 L124.20,94.55 L123.70,94.15 L125.35,94.35 Q126.80,94.75 127.75,96.15 Q128.65,97.55 130.85,99.30 Q133.95,100.55 130.10,95.45 Q126.25,90.35 123.10,89.70 L118.80,87.25 Q115.45,85.55 111.60,84.95 L105.05,84.45 Q101.00,84.10 100.80,83.60 Q98.60,83.85 97.65,84.45 Q97.15,86.20 98.30,88.35 Q99.40,90.50 101.40,90.80 L104.30,91.15 Q105.20,91.20 106.85,91.95 Q108.50,92.65 111.40,92.90 Q114.30,93.15 115.20,95.45 Q113.85,96.50 113.00,98.60 L111.35,102.95 Q110.60,104.70 110.25,107.40 L110.20,107.80 L110.10,108.75 Q109.70,109.40 107.65,108.25 L105.50,106.80 L104.90,105.65 L103.10,101.85 L101.50,98.80 Q101.20,98.65 99.45,95.55 Q97.70,92.35 97.65,89.95 L97.55,88.20 L97.30,84.65 L97.25,85.00 Q95.95,85.75 96.05,87.50 L96.10,89.35 L96.25,89.90 L96.35,91.05 L96.10,94.70 Q96.10,96.75 96.60,100.45 L97.10,105.55 Q97.15,107.10 98.40,108.75 L100.25,111.05 Q102.05,114.45 102.25,115.95 Q102.50,117.80 104.55,119.35 L106.85,120.80 L107.85,122.70 Q109.00,124.55 112.60,126.15 L113.30,126.45 L113.35,126.45 L113.80,126.60 Q115.00,126.95 115.25,127.35 L115.40,127.90 L115.55,127.80 L115.65,127.95 Q119.10,125.40 125.55,122.05 L132.05,118.75 L132.15,115.25 L132.20,115.25 Q133.15,116.50 133.15,117.70 Q133.15,122.20 126.50,123.20 Q124.30,123.55 121.35,126.20 Q118.75,128.55 118.75,129.25 L119.00,129.80 L118.35,130.90 Q117.65,132.00 117.65,132.30 L117.75,132.90 L120.30,133.90 Q122.40,133.90 137.45,123.65 Q148.65,116.05 155.30,111.10 Q159.20,108.15 176.55,97.15 Q183.00,93.05 183.65,89.00 L185.95,91.75 L186.50,92.85 M112.00,57.90 Q107.35,57.75 107.05,58.85 L103.80,59.30 Q103.20,59.10 103.05,59.65 Q102.90,60.20 100.80,61.20 Q98.65,62.20 101.50,65.10 L104.85,68.65 Q105.40,69.30 105.05,69.95 L103.90,71.25 Q102.95,72.10 104.40,72.20 L107.15,72.05 Q108.40,71.75 110.85,73.85 Q113.25,75.90 114.25,75.90 L115.75,74.70 Q117.20,73.50 118.80,73.10 Q120.35,72.70 121.85,73.95 L125.60,77.70 Q129.20,74.15 131.05,73.60 L134.80,73.50 Q136.35,73.50 136.90,72.75 L138.30,70.50 Q138.50,70.20 140.90,69.30 Q143.20,68.45 143.20,68.20 Q143.20,67.45 142.00,67.00 Q140.50,66.45 140.00,65.50 Q138.95,63.55 138.00,63.15 L135.30,62.90 L128.75,62.45 L123.45,62.70 Q118.45,63.40 117.55,60.70 Q116.65,58.00 112.00,57.90 M95.15,63.05 Q93.00,57.50 99.30,54.75 Q105.60,51.95 115.10,56.25 Q124.55,60.50 128.70,61.10 L131.20,60.70 Q133.40,60.25 139.30,62.50 Q145.20,64.70 146.75,66.95 Q148.25,69.20 142.35,69.30 Q136.45,69.35 138.40,76.60 Q131.25,73.05 125.85,80.10 Q121.35,69.80 114.65,79.45 Q109.25,69.55 101.85,73.70 Q100.80,73.25 99.05,70.95 Q97.25,68.60 95.15,63.05 Z"/>
        <path fill="#FFFFFF" fill-opacity="1.00" d="M95.15,63.05 Q97.25,68.60 99.05,70.95 Q100.80,73.25 101.85,73.70 Q109.25,69.55 114.65,79.45 Q121.35,69.80 125.85,80.10 Q131.25,73.05 138.40,76.60 Q136.45,69.35 142.35,69.30 Q148.25,69.20 146.75,66.95 Q145.20,64.70 139.30,62.50 Q133.40,60.25 131.20,60.70 L128.70,61.10 Q124.55,60.50 115.10,56.25 Q105.60,51.95 99.30,54.75 Q93.00,57.50 95.15,63.05 M183.65,89.00 Q183.00,93.05 176.55,97.15 Q159.20,108.15 155.30,111.10 Q148.65,116.05 137.45,123.65 Q122.40,133.90 120.30,133.90 L117.75,132.90 L117.65,132.30 Q117.65,132.00 118.35,130.90 L119.00,129.80 L118.75,129.25 Q118.75,128.55 121.35,126.20 Q124.30,123.55 126.50,123.20 Q133.15,122.20 133.15,117.70 Q133.15,116.50 132.20,115.25 L132.15,115.25 L132.15,115.15 L132.15,113.05 L132.15,109.95 L132.55,107.90 L133.00,105.15 L132.80,103.40 L132.75,103.25 L132.85,103.35 L133.05,103.50 L133.15,103.55 L133.50,103.65 L133.70,103.65 Q134.60,103.65 135.15,101.90 Q135.60,100.50 131.10,93.85 Q126.60,87.25 118.95,85.30 Q111.25,83.25 104.25,83.35 L102.45,83.45 L100.55,82.95 Q98.55,82.95 96.45,83.70 Q94.25,84.50 93.90,85.45 Q93.65,86.05 93.40,88.30 L93.15,91.90 Q93.15,93.00 93.60,94.50 L94.15,96.30 L94.15,99.80 L94.70,102.95 Q95.25,106.10 94.75,107.35 Q94.25,108.55 92.40,107.65 Q90.55,106.75 84.65,101.00 Q78.75,95.20 76.50,92.30 Q70.25,84.15 65.85,79.95 Q61.40,75.70 55.45,74.90 Q49.50,74.10 44.55,81.30 L37.80,90.35 L42.10,83.05 Q45.55,76.80 48.80,74.15 Q52.05,71.45 70.90,59.95 Q89.65,48.50 102.40,44.55 Q110.85,41.95 133.45,54.00 Q156.00,66.05 169.95,77.25 Q179.70,85.00 183.65,89.00 M115.20,95.45 Q114.30,93.15 111.40,92.90 Q108.50,92.65 106.85,91.95 Q105.20,91.20 104.30,91.15 L101.40,90.80 Q99.40,90.50 98.30,88.35 Q97.15,86.20 97.65,84.45 Q98.60,83.85 100.80,83.60 Q101.00,84.10 105.05,84.45 L111.60,84.95 Q115.45,85.55 118.80,87.25 L123.10,89.70 Q126.25,90.35 130.10,95.45 Q133.95,100.55 130.85,99.30 Q128.65,97.55 127.75,96.15 Q126.80,94.75 125.35,94.35 L123.70,94.15 Q122.05,92.95 120.65,92.90 L119.05,93.05 Q116.60,94.45 115.35,95.35 L115.20,95.45 Z"/>
        <path fill="#9FB0B5" fill-opacity="1.00" d="M108.90,70.40 Q109.00,69.30 111.75,68.10 Q114.45,66.90 117.45,66.90 L119.70,67.30 L122.75,67.70 L129.80,66.65 Q134.70,65.60 135.75,66.15 Q136.80,66.70 138.80,66.90 Q140.80,67.10 140.65,67.35 L139.50,68.00 L138.10,68.60 Q137.35,69.10 136.85,69.85 L136.00,71.00 Q135.20,71.75 131.90,71.70 L126.85,71.50 L117.45,70.85 Q114.65,70.55 114.00,73.80 Q112.00,73.75 110.40,72.65 Q108.80,71.50 108.90,70.40 Z"/>
        <path fill="url(#G4)" d="M132.15,115.25 L132.05,118.75 L125.55,122.05 Q119.10,125.40 115.65,127.95 L115.55,127.80 Q123.30,122.25 131.30,117.95 Q131.40,113.20 129.20,103.65 Q128.30,100.00 126.85,97.90 L125.80,96.75 Q123.55,94.55 120.15,94.90 Q117.80,95.15 116.20,96.60 Q113.20,99.15 112.70,105.60 Q112.00,115.30 115.25,127.35 Q115.00,126.95 113.80,126.60 Q111.90,125.50 111.60,125.00 L111.05,123.60 L111.00,123.55 L110.65,122.05 Q110.25,120.50 110.20,119.30 Q110.10,117.50 109.40,116.55 L108.50,115.20 Q109.45,113.90 109.80,111.75 L110.10,108.75 L110.20,107.80 L110.25,107.40 Q110.60,104.70 111.35,102.95 L113.00,98.60 Q113.85,96.50 115.20,95.45 L115.35,95.35 Q116.60,94.45 119.05,93.05 L120.65,92.90 Q122.05,92.95 123.70,94.15 L124.20,94.55 L126.10,96.25 L127.40,97.45 L130.55,100.80 L132.65,103.10 L132.75,103.25 L132.80,103.40 L133.00,105.15 L132.55,107.90 L132.15,109.95 L132.15,113.05 L132.15,115.15 L132.15,115.25 Z"/>
        <path fill="#CA8D02" fill-opacity="1.00" d="M115.55,127.80 L115.40,127.90 L115.25,127.35 Q112.00,115.30 112.70,105.60 Q113.20,99.15 116.20,96.60 Q117.80,95.15 120.15,94.90 Q123.55,94.55 125.80,96.75 L126.85,97.90 Q128.30,100.00 129.20,103.65 Q131.40,113.20 131.30,117.95 Q123.30,122.25 115.55,127.80 M119.50,96.10 Q117.75,96.50 116.50,97.70 Q113.90,100.10 113.55,105.80 Q113.45,106.90 113.50,108.00 Q117.10,105.95 120.45,104.45 L119.50,96.10 M129.75,109.75 Q129.40,107.15 128.65,104.05 L128.35,102.85 Q125.10,103.70 121.90,105.05 L122.75,112.55 Q126.45,110.80 129.75,109.75 M128.05,101.85 Q125.80,95.55 120.75,95.90 L121.75,103.95 Q125.00,102.60 128.05,101.85 M120.60,105.55 Q117.05,107.20 113.45,109.40 Q113.45,113.10 114.10,117.00 Q118.05,114.80 121.45,113.10 L120.60,105.55 M122.45,121.80 L121.65,114.55 L114.35,118.90 L114.55,119.95 Q115.10,122.90 115.95,126.10 L122.45,121.80 M130.30,117.45 L130.05,112.00 L129.95,110.95 Q126.60,112.00 122.95,113.85 L123.75,121.00 L130.30,117.45 Z"/>
        <path fill="url(#G5)" d="M130.30,117.45 L123.75,121.00 L122.95,113.85 Q126.60,112.00 129.95,110.95 L130.05,112.00 L130.30,117.45 M119.50,96.10 L120.45,104.45 Q117.10,105.95 113.50,108.00 Q113.45,106.90 113.55,105.80 Q113.90,100.10 116.50,97.70 Q117.75,96.50 119.50,96.10 M129.75,109.75 Q126.45,110.80 122.75,112.55 L121.90,105.05 Q125.10,103.70 128.35,102.85 L128.65,104.05 Q129.40,107.15 129.75,109.75 M128.05,101.85 Q125.00,102.60 121.75,103.95 L120.75,95.90 Q125.80,95.55 128.05,101.85 M122.45,121.80 L115.95,126.10 Q115.10,122.90 114.55,119.95 L114.35,118.90 L121.65,114.55 L122.45,121.80 M120.60,105.55 L121.45,113.10 Q118.05,114.80 114.10,117.00 Q113.45,113.10 113.45,109.40 Q117.05,107.20 120.60,105.55 Z"/>
        <path fill="#B8D8E4" fill-opacity="1.00" d="M18.05,120.90 Q15.25,120.65 15.25,119.85 Q15.25,118.35 16.80,118.05 L19.85,117.30 L24.10,114.45 L30.75,109.65 Q34.65,106.55 37.00,103.80 L38.95,101.30 L41.00,98.65 L46.55,91.15 Q51.20,85.25 53.35,85.05 L53.75,85.05 L55.60,85.70 L58.10,86.65 Q60.15,87.55 60.85,89.65 Q61.75,92.50 63.25,94.55 L68.25,101.15 L72.90,108.25 Q75.50,112.10 79.85,115.65 Q82.55,117.85 87.15,123.90 Q90.65,128.55 92.25,131.15 Q95.25,136.20 96.65,137.75 Q99.15,140.55 102.25,140.65 L106.05,142.30 Q109.40,144.10 109.75,145.85 L105.70,145.60 Q99.70,144.70 91.65,136.30 Q78.55,122.45 54.75,87.70 Q51.25,89.45 44.10,98.50 Q36.90,107.55 30.25,112.65 L21.10,119.40 Q20.05,120.25 18.85,120.65 L18.05,120.90 Z"/>
        <path stroke="#A2BCCC" stroke-width="0.05" stroke-opacity="1.00" stroke-linecap="round" stroke-linejoin="round" stroke-miterlimit="3.00" fill="transparent" d="M186.50,92.85 L185.95,91.75 L183.65,89.00 M37.65,90.60 L33.35,96.95 Q28.05,104.65 23.15,109.50 L22.05,110.45 L10.90,118.85 Q12.35,121.10 15.45,121.25 L18.05,120.90 M109.75,145.85 L113.55,145.55 Q119.70,144.90 151.65,121.45 L177.45,102.60 L185.05,97.10 Q187.45,95.45 186.50,92.85 M37.80,90.35 L42.10,83.05 Q45.55,76.80 48.80,74.15 Q52.05,71.45 70.90,59.95 Q89.65,48.50 102.40,44.55 Q110.85,41.95 133.45,54.00 Q156.00,66.05 169.95,77.25 Q179.70,85.00 183.65,89.00 M109.75,145.85 L105.70,145.60 Q99.70,144.70 91.65,136.30 Q78.55,122.45 54.75,87.70 Q51.25,89.45 44.10,98.50 Q36.90,107.55 30.25,112.65 L21.10,119.40 Q20.05,120.25 18.85,120.65 L18.05,120.90"/>
        <path fill="#D7ECF4" fill-opacity="1.00" d="M104.40,58.90 Q107.50,58.85 109.20,58.95 Q110.85,59.00 112.15,60.15 L114.25,62.20 Q115.20,63.25 115.40,64.30 Q115.90,66.75 114.35,69.00 Q112.75,71.25 111.35,71.40 Q109.90,71.50 106.55,70.60 L100.75,70.20 L94.85,71.10 Q91.35,71.50 87.50,69.85 Q83.60,68.20 84.75,65.15 Q85.90,62.05 90.25,60.15 Q94.55,58.20 95.65,58.10 L99.00,58.45 L104.40,58.90 Z"/>
        <path fill="#E9F9FC" fill-opacity="1.00" d="M104.40,58.90 L99.00,58.45 L95.65,58.10 Q94.55,58.20 90.25,60.15 Q85.90,62.05 84.75,65.15 Q83.60,68.20 87.50,69.85 Q91.35,71.50 94.85,71.10 L100.75,70.20 L106.55,70.60 Q109.90,71.50 111.35,71.40 Q112.75,71.25 114.35,69.00 Q115.90,66.75 115.40,64.30 Q115.20,63.25 114.25,62.20 L112.15,60.15 Q110.85,59.00 109.20,58.95 Q107.50,58.85 104.40,58.90 M102.90,54.40 Q110.95,54.40 114.30,55.70 Q119.10,57.55 119.10,63.00 Q119.10,66.25 117.90,68.60 Q116.20,71.90 112.60,71.90 L109.35,71.70 L106.05,71.25 L105.90,71.20 Q104.05,71.25 102.30,72.60 L100.60,74.00 L94.75,74.35 L87.80,74.70 Q83.45,74.70 80.00,72.30 Q76.40,69.80 76.40,66.30 Q76.40,64.70 77.80,63.50 Q79.20,62.30 82.30,61.20 L89.25,58.10 Q90.90,57.30 91.90,56.85 L93.70,56.00 Q96.85,54.95 97.30,54.85 L102.90,54.40 Z"/>
        <path fill="#231916" fill-opacity="1.00" d="M96.85,29.65 L96.65,30.10 L96.55,30.70 L96.55,31.05 L96.65,31.05 L96.80,30.85 L97.55,28.95 L97.45,28.95 L96.85,29.65 M84.85,4.55 L85.10,4.05 L85.50,3.95 L85.75,3.95 L86.45,3.75 L86.60,3.35 L86.90,3.15 L87.30,3.05 L88.15,3.20 L89.30,3.75 L89.90,3.40 L90.10,3.45 L90.70,3.80 L91.65,4.55 L92.20,5.10 L92.75,4.80 L94.50,4.20 L95.50,3.60 L95.85,3.10 L96.50,1.70 L96.95,1.10 L97.50,0.65 L98.10,0.30 L98.75,0.10 L100.25,0.00 L101.10,0.10 L102.80,0.50 L102.80,0.65 L103.25,0.75 L104.65,1.35 L107.00,2.65 L107.55,3.05 L107.90,3.45 L107.80,3.45 L107.80,3.50 L107.90,3.55 L108.10,3.70 L108.20,3.80 L108.25,3.90 L108.35,4.00 L110.30,6.75 L110.90,6.20 L111.60,5.80 L112.30,5.55 L113.65,5.50 L114.50,5.65 L116.10,6.15 L116.10,6.20 L116.15,6.20 L113.80,6.65 L113.80,6.75 L115.30,6.65 L116.15,6.70 L117.05,7.10 L117.60,7.55 L118.65,9.35 L119.00,10.10 L119.25,11.70 L119.15,12.45 L118.75,13.05 L118.45,12.15 L117.65,11.00 L116.95,10.50 L116.55,10.35 L116.85,12.10 L116.85,12.75 L116.75,13.40 L116.50,13.90 L115.10,15.95 L115.10,16.00 L115.25,16.15 L115.05,16.15 L114.90,16.25 L114.85,16.30 L114.75,16.35 L114.70,16.40 L114.80,18.65 L115.60,18.60 L117.05,18.85 L118.10,19.60 L118.45,20.20 L118.65,20.95 L118.70,21.80 L117.80,22.90 L117.25,23.35 L116.95,23.50 L116.65,23.60 L116.65,23.70 L119.00,25.70 L119.50,26.30 L120.75,28.45 L120.90,29.80 L120.80,30.95 L120.65,31.50 L119.90,33.30 L119.90,33.75 L119.95,34.05 L119.80,34.05 L119.65,33.65 L119.50,33.00 L119.45,32.40 L119.50,31.45 L119.30,31.50 L118.45,32.45 L118.20,33.00 L118.20,33.10 L118.70,33.50 L119.05,34.05 L120.10,37.40 L120.50,38.10 L120.95,38.10 L121.15,37.20 L122.10,35.85 L128.65,35.85 L128.40,37.70 L128.50,38.10 L128.55,38.15 L128.55,38.35 L128.65,38.45 L128.80,38.25 L128.90,38.20 L129.05,38.15 L130.00,38.40 L130.05,38.25 L130.15,38.15 L130.50,38.15 L130.60,38.00 L130.70,37.95 L130.75,37.85 L130.85,37.75 L130.90,37.75 L130.95,37.80 L131.20,37.85 L131.45,37.55 L131.55,37.40 L131.85,37.40 L131.90,37.15 L132.25,36.50 L132.40,36.05 L132.35,35.85 L134.05,35.85 L133.60,37.30 L132.75,38.95 L131.15,40.25 L130.75,40.45 L130.25,40.55 L129.15,40.65 L129.10,41.25 L129.05,41.40 L129.05,41.90 L129.70,42.65 L130.05,43.50 L130.10,44.45 L129.95,45.45 L129.05,47.30 L128.40,48.05 L127.70,48.65 L126.50,49.05 L125.35,49.15 L124.80,49.10 L123.70,48.65 L123.20,48.25 L122.75,48.50 L122.10,49.00 L122.10,49.10 L120.35,49.95 L117.25,50.40 L116.60,50.15 L115.95,50.10 L115.70,50.25 L115.55,50.40 L114.75,51.35 L113.65,52.05 L113.40,52.45 L113.15,53.80 L112.15,55.40 L111.75,55.80 L109.65,57.25 L109.65,57.40 L109.70,57.55 L109.55,57.70 L109.25,58.25 L109.15,58.35 L109.10,58.45 L109.10,58.65 L109.25,59.15 L109.25,59.65 L109.15,59.90 L108.85,60.25 L108.50,61.20 L108.35,62.20 L108.45,63.75 L110.70,63.45 L112.10,63.70 L113.45,64.30 L114.10,64.90 L114.35,65.20 L114.50,65.30 L114.70,65.40 L114.70,65.50 L114.75,65.65 L114.80,65.65 L114.85,66.95 L114.65,67.90 L114.10,68.70 L113.20,69.70 L112.15,70.15 L111.20,70.35 L110.15,70.40 L109.25,70.30 L105.40,69.05 L105.30,69.00 L105.25,68.95 L105.10,68.95 L104.30,69.25 L104.10,69.35 L103.40,69.25 L102.70,69.00 L102.35,68.80 L101.85,68.35 L101.70,68.15 L101.45,68.15 L100.35,68.70 L99.60,68.80 L99.30,68.65 L99.15,68.30 L98.70,68.60 L98.15,69.25 L97.05,69.95 L96.40,70.15 L93.30,70.60 L91.85,70.45 L90.40,70.05 L89.70,69.70 L89.20,69.25 L88.80,68.65 L88.75,67.90 L88.80,67.30 L88.50,65.50 L88.50,65.25 L88.65,64.45 L89.05,63.85 L89.50,63.40 L90.15,63.05 L90.85,62.80 L92.35,62.60 L93.15,62.60 L94.35,62.85 L96.40,63.55 L96.40,63.40 L95.05,62.85 L94.60,62.45 L94.10,61.65 L94.00,61.10 L93.90,59.65 L93.70,59.35 L93.60,59.10 L93.45,58.35 L93.45,58.20 L93.55,58.15 L93.15,57.20 L93.15,56.55 L93.00,56.15 L92.85,55.95 L91.70,55.35 L91.35,55.10 L90.95,54.90 L90.35,54.45 L90.15,54.25 L90.05,54.10 L90.00,54.05 L89.80,53.90 L89.30,53.45 L88.35,52.00 L88.25,52.00 L88.25,52.30 L88.35,52.80 L88.65,53.25 L89.10,53.60 L89.45,53.80 L89.45,54.05 L88.00,53.80 L86.90,53.45 L86.15,52.85 L85.65,52.15 L85.40,51.20 L85.30,50.10 L85.45,48.90 L86.65,44.85 L86.75,43.75 L86.70,43.30 L86.60,43.30 L86.30,43.60 L85.55,44.70 L85.25,45.45 L85.15,45.90 L85.15,46.20 L85.40,46.75 L85.15,46.75 L84.55,45.50 L84.45,44.20 L84.65,42.85 L85.15,41.55 L85.90,40.35 L86.80,39.30 L87.85,38.40 L89.00,37.85 L89.05,37.70 L88.80,37.70 L88.05,37.85 L87.20,37.85 L87.20,37.65 L88.60,36.95 L89.35,36.75 L90.35,36.65 L90.95,36.65 L91.65,34.90 L92.30,34.05 L93.80,32.50 L95.50,31.40 L96.35,31.10 L96.25,30.25 L95.95,29.10 L95.90,28.35 L97.25,25.00 L97.35,24.90 L96.15,25.00 L95.70,24.95 L95.35,24.75 L95.05,24.45 L94.90,24.10 L94.75,23.05 L94.70,23.10 L94.65,23.10 L94.50,23.65 L94.55,24.00 L94.75,24.60 L94.65,24.60 L93.85,23.50 L93.55,23.20 L93.15,22.45 L92.90,21.80 L92.55,19.10 L92.75,17.85 L92.65,17.75 L92.85,17.50 L93.30,16.50 L93.40,16.45 L93.70,15.90 L94.40,15.15 L95.30,14.55 L96.90,13.90 L97.40,13.30 L97.10,13.30 L96.55,13.40 L96.15,13.60 L96.00,13.75 L95.75,14.25 L95.70,13.95 L95.75,13.45 L96.00,13.00 L96.55,12.40 L96.50,12.25 L96.50,12.20 L95.20,11.50 L94.95,11.20 L94.60,10.65 L94.50,10.35 L94.20,10.10 L93.85,10.00 L93.45,9.95 L91.70,10.05 L91.65,10.30 L91.65,10.40 L91.55,10.45 L91.30,10.65 L91.20,10.65 L91.10,10.95 L90.95,11.10 L90.70,11.20 L90.45,11.20 L90.25,11.50 L89.60,12.10 L89.30,12.30 L89.10,12.75 L88.60,12.95 L88.00,12.90 L87.30,12.75 L85.00,11.85 L84.75,11.50 L84.05,9.90 L83.85,9.75 L83.70,9.60 L83.65,9.50 L83.60,9.45 L83.45,9.35 L83.45,9.30 L83.35,8.90 L83.30,8.45 L83.35,8.00 L83.70,7.15 L84.25,6.45 L84.55,6.20 L84.40,5.60 L84.40,5.35 L84.60,5.15 L84.85,5.05 L84.85,4.55 Z"/>
        <path fill="#FFFCDB" fill-opacity="1.00" d="M111.80,69.20 L111.75,69.30 L112.20,69.15 L113.50,68.70 L113.75,68.70 L113.05,69.40 Q112.65,69.60 112.30,69.85 L110.45,70.15 L107.95,69.60 L105.55,68.80 L105.50,68.70 L105.50,68.65 L110.15,69.15 L111.80,69.20 Z"/>
        <path fill="#FFFCDB" fill-opacity="1.00" d="M96.65,68.95 L96.70,68.90 L97.20,68.85 L97.35,68.85 L96.25,69.45 L94.90,69.85 L92.25,70.10 L91.15,70.00 L90.10,69.70 L89.60,69.40 L89.25,69.10 L89.05,68.65 L89.00,68.10 L89.10,68.10 L89.20,68.15 L90.00,68.75 L90.80,69.15 L91.65,69.40 L92.55,69.55 L94.45,69.40 L96.40,69.05 L96.65,68.95 Z"/>
        <path fill="#FFFCDB" fill-opacity="1.00" d="M102.30,68.50 L101.95,68.15 L101.85,67.90 L101.85,67.70 L102.50,67.85 L102.70,67.95 L103.75,68.30 L103.70,68.60 L103.50,68.90 L103.40,68.90 L102.55,68.60 L102.30,68.50 Z"/>
        <path fill="#FFFCDB" fill-opacity="1.00" d="M104.25,68.50 L104.70,68.50 L104.85,68.60 L104.65,68.75 L104.45,68.85 L104.30,68.85 L104.00,68.90 L104.00,68.85 L104.25,68.50 Z"/>
        <path fill="#FFFCDB" fill-opacity="1.00" d="M100.25,68.15 L100.30,68.00 L100.20,68.00 L100.10,67.65 L101.15,67.45 L101.50,67.45 L101.30,67.80 L101.00,68.10 L100.65,68.25 L100.25,68.30 L100.25,68.15 Z"/>
        <path fill="#FFFCDB" fill-opacity="1.00" d="M99.35,67.80 L99.45,67.75 L99.55,67.75 L99.60,67.70 L99.90,67.70 L99.85,67.80 L99.85,67.95 L99.80,68.15 L99.70,68.25 L99.60,68.25 L99.55,68.30 L99.45,68.05 L99.40,67.95 L99.40,67.80 L99.35,67.80 Z"/>
        <path fill="#FFFFFF" fill-opacity="1.00" d="M102.25,67.10 L102.25,67.40 L102.15,67.40 L101.95,67.30 L101.95,67.20 L102.10,67.05 L102.25,67.00 L102.25,67.10 Z"/>
        <path fill="#EFEFF0" fill-opacity="1.00" d="M102.85,59.20 L102.85,59.10 L102.80,59.05 L102.70,59.05 L102.70,58.95 L102.90,58.95 L103.40,59.05 L103.50,59.10 L103.40,59.60 L103.40,60.15 L103.70,62.95 L103.70,63.55 L103.55,63.55 L103.00,59.20 L102.85,59.20 Z"/>
        <path fill="#E60013" fill-opacity="1.00" d="M104.55,57.20 L105.35,57.05 L105.90,57.15 L106.45,57.45 L106.75,57.60 L106.75,57.90 L106.65,58.05 L106.65,58.15 L106.50,58.35 L106.20,58.50 L106.50,58.60 L106.90,58.65 L107.65,58.40 L108.35,57.90 L108.90,57.45 L108.95,57.40 L109.25,57.40 L108.95,58.00 L108.40,58.40 L106.75,58.85 L103.45,59.00 L103.45,58.90 L103.50,58.85 L104.65,58.75 L105.25,58.60 L105.80,58.30 L105.60,58.25 L104.90,57.85 L104.70,57.70 L104.60,57.55 L104.55,57.35 L104.55,57.20 Z"/>
        <path fill="#E60013" fill-opacity="1.00" d="M93.45,57.30 L93.45,56.25 L95.85,57.00 L97.00,57.15 L98.40,57.05 L98.40,56.95 L96.45,55.95 L95.90,55.40 L95.75,55.25 L96.40,55.25 L97.00,55.40 L97.55,55.70 L99.45,57.45 L100.00,57.85 L100.15,58.00 L100.65,58.25 L102.05,58.75 L101.95,58.80 L101.85,58.85 L101.75,58.85 L101.65,58.90 L101.25,58.90 L99.10,58.60 L96.20,58.05 L94.00,57.85 L93.90,57.75 L93.90,57.70 L93.75,57.70 L93.70,57.70 L93.55,57.70 L93.45,57.45 L93.45,57.30 Z"/>
        <path fill="#FFFFFF" fill-opacity="1.00" d="M88.05,37.45 L88.25,37.25 L89.20,36.90 L89.80,36.80 L90.30,36.80 L90.65,36.90 L90.75,37.15 L90.25,38.55 L89.90,40.70 L89.75,43.05 L89.80,44.20 L90.00,45.20 L90.30,46.05 L90.40,46.35 L91.00,47.65 L91.65,48.65 L91.80,48.85 L91.95,48.95 L92.00,49.10 L92.20,49.35 L92.60,49.65 L92.45,49.70 L92.30,49.70 L91.65,49.40 L91.55,49.35 L91.65,49.80 L91.95,50.25 L93.00,50.95 L95.20,52.00 L97.10,52.40 L99.10,52.65 L100.10,52.65 L104.15,53.05 L105.45,53.00 L106.65,52.80 L107.60,52.30 L108.20,51.55 L110.40,51.90 L111.35,51.85 L112.60,51.40 L112.90,51.45 L113.15,51.75 L113.20,52.15 L113.20,52.55 L112.85,54.30 L112.60,54.60 L111.75,55.50 L110.55,56.55 L110.55,56.50 L110.40,56.55 L110.30,56.60 L110.15,56.70 L110.10,56.75 L109.75,56.95 L109.70,57.00 L109.70,56.75 L109.65,56.60 L109.65,56.55 L108.65,57.30 L108.35,57.55 L107.70,58.00 L106.85,58.35 L106.90,57.75 L106.75,57.35 L106.35,57.05 L105.90,56.85 L105.30,56.70 L104.25,56.75 L103.85,56.85 L103.85,57.00 L104.10,57.40 L104.70,58.00 L105.15,58.30 L105.15,58.45 L103.55,58.45 L101.85,58.15 L100.30,57.75 L97.55,55.50 L96.95,55.20 L96.25,55.00 L95.45,54.85 L95.35,54.80 L95.35,54.75 L95.35,55.10 L95.60,55.40 L96.20,56.00 L97.65,56.90 L97.10,57.00 L96.35,56.90 L94.60,56.40 L92.95,55.70 L91.10,54.70 L90.00,53.75 L88.90,52.15 L88.25,50.85 L88.20,50.85 L88.00,51.35 L87.85,52.05 L87.85,52.35 L88.15,52.95 L88.65,53.75 L88.50,53.80 L88.20,53.75 L86.30,52.45 L86.00,51.60 L85.80,50.60 L85.80,50.40 L85.70,50.40 L85.75,50.10 L85.75,50.00 L85.80,49.90 L85.70,49.70 L85.70,49.50 L85.80,49.55 L85.80,49.50 L85.80,49.15 L85.90,48.50 L86.70,46.05 L87.05,44.40 L87.00,43.70 L86.80,43.20 L86.80,43.00 L86.75,42.90 L86.75,42.80 L86.55,42.95 L85.45,44.25 L85.10,44.95 L84.95,45.25 L84.85,45.20 L84.85,44.70 L85.10,44.25 L84.95,44.25 L85.10,43.15 L85.80,41.15 L87.10,39.50 L87.90,38.85 L88.80,38.30 L89.80,37.90 L89.95,37.75 L90.15,37.60 L90.25,37.55 L90.50,37.30 L88.05,37.45 Z"/>
        <path fill="#FFF100" fill-opacity="1.00" d="M103.40,50.10 L105.75,50.00 L106.60,49.85 L106.80,49.80 L107.00,49.80 L107.25,49.85 L108.40,50.50 L108.35,50.55 L108.35,50.60 L107.55,50.60 L107.70,50.95 L107.80,51.05 L107.80,51.15 L107.95,51.25 L107.70,51.85 L107.25,52.30 L105.90,52.65 L103.10,52.70 L102.50,52.65 L102.35,52.65 L102.10,52.65 L102.15,52.45 L103.30,50.15 L103.40,50.10 Z"/>
        <path fill="#FFF100" fill-opacity="1.00" d="M101.45,50.55 L101.65,50.00 L101.70,50.00 L101.70,49.80 L102.40,49.90 L102.85,50.00 L102.30,51.55 L102.10,51.90 L101.80,52.20 L101.50,52.40 L101.10,52.45 L100.40,52.30 L100.40,52.20 L101.10,51.20 L101.45,50.55 Z"/>
        <path fill="#E60013" fill-opacity="1.00" d="M90.10,42.25 L90.30,43.10 L90.60,44.10 L92.20,47.35 L92.90,48.30 L93.60,49.05 L94.35,49.55 L94.40,49.80 L94.60,50.00 L95.60,50.80 L95.80,51.05 L95.95,51.40 L96.10,51.45 L99.00,52.30 L98.15,52.30 L94.90,51.45 L93.00,50.70 L92.40,50.35 L92.10,49.95 L92.95,50.00 L93.25,49.95 L93.25,49.80 L92.45,49.15 L91.80,48.35 L91.25,47.40 L90.45,45.20 L90.10,43.10 L90.05,42.25 L90.10,42.25 Z"/>
        <path fill="#231916" fill-opacity="1.00" d="M105.60,50.40 L106.20,50.40 L106.45,50.50 L106.75,50.70 L106.60,51.15 L106.60,51.20 L106.60,51.30 L106.60,51.55 L106.15,51.75 L105.50,51.90 L104.40,52.00 L104.25,51.75 L104.15,51.55 L104.10,51.40 L104.15,51.05 L104.30,50.70 L104.45,50.55 L105.60,50.40 Z"/>
        <path fill="#FFFFFF" fill-opacity="1.00" d="M113.95,50.55 L114.10,50.50 L113.85,51.10 L113.65,51.40 L113.50,51.60 L113.55,51.60 L113.55,51.70 L113.50,51.85 L113.50,51.90 L113.40,51.90 L113.10,51.30 L113.05,51.15 L113.65,50.65 L113.95,50.55 Z"/>
        <path fill="#FFFFFF" fill-opacity="1.00" d="M104.40,51.45 L104.55,51.45 L104.70,51.60 L104.55,51.60 L104.40,51.70 L104.40,51.45 Z"/>
        <path fill="#FFFFFF" fill-opacity="1.00" d="M108.50,50.60 L108.75,50.60 L108.80,50.65 L108.65,50.70 L108.55,50.65 L108.40,50.65 L108.50,50.60 Z"/>
        <path fill="#898989" fill-opacity="1.00" d="M126.00,42.80 L126.90,42.05 L127.40,41.80 L128.00,41.80 L128.75,42.10 L128.80,42.15 L128.85,42.20 L129.05,42.20 L129.40,42.65 L129.70,43.15 L129.90,44.45 L129.65,45.60 L129.40,46.25 L129.05,46.75 L129.05,46.90 L127.70,48.25 L127.35,48.50 L126.95,48.70 L126.45,48.85 L125.90,48.95 L123.70,48.35 L123.40,48.20 L123.40,48.00 L124.00,47.25 L124.45,46.30 L124.75,45.20 L124.85,44.30 L126.00,42.80 Z"/>
        <path fill="#E60013" fill-opacity="1.00" d="M117.15,42.50 L117.15,42.40 L117.45,41.95 L117.55,41.95 L117.55,42.40 L117.60,42.50 L117.50,42.60 L117.45,42.65 L117.25,42.65 L117.15,42.60 L117.15,42.50 Z"/>
        <path fill="#FFFFFF" fill-opacity="1.00" d="M90.00,41.85 L90.00,41.70 L90.05,41.75 L90.10,41.80 L90.10,42.05 L89.95,42.05 L89.95,41.95 L90.00,41.85 Z"/>
        <path fill="#FFFFFF" fill-opacity="1.00" d="M89.95,41.35 L90.05,41.35 L90.10,41.35 L90.05,41.45 L90.10,41.55 L89.95,41.55 L89.95,41.35 Z"/>
        <path fill="#E60013" fill-opacity="1.00" d="M117.50,40.60 L117.50,40.90 L117.45,40.95 L117.35,40.95 L116.70,41.20 L116.70,41.00 L116.85,40.75 L117.10,40.65 L117.35,40.60 L117.50,40.60 Z"/>
        <path fill="#E60013" fill-opacity="1.00" d="M119.05,37.05 L118.90,37.05 L118.30,38.25 L117.55,40.40 L117.00,40.35 L116.35,40.20 L116.15,40.15 L115.85,40.20 L115.65,40.30 L115.30,40.60 L114.90,41.05 L114.90,41.00 L114.85,41.00 L114.80,40.95 L114.80,40.90 L116.15,39.45 L117.15,37.85 L117.30,37.70 L117.35,37.40 L117.45,37.30 L117.45,37.10 L117.45,36.70 L117.70,35.75 L117.65,34.05 L117.70,33.75 L117.85,33.45 L118.05,33.30 L118.50,33.75 L119.05,34.65 L119.60,36.95 L119.90,37.60 L119.85,37.70 L119.85,37.75 L119.80,37.75 L119.80,37.80 L119.50,37.40 L119.40,37.25 L119.35,37.15 L119.25,37.10 L119.05,37.05 Z"/>
        <path fill="#FFFFFF" fill-opacity="1.00" d="M109.40,22.80 L111.20,22.50 L113.35,23.50 L114.50,23.80 L115.70,23.85 L115.85,23.80 L116.00,23.80 L116.10,23.75 L116.40,23.75 L116.65,24.05 L117.90,24.90 L118.30,25.25 L119.05,26.15 L119.70,27.20 L120.40,28.90 L120.50,28.90 L120.50,29.35 L120.60,29.55 L120.60,29.50 L120.65,29.50 L120.65,30.35 L120.50,31.25 L120.05,32.60 L119.80,33.00 L119.70,32.75 L119.65,32.10 L119.65,31.25 L119.60,30.95 L119.50,30.85 L117.90,32.85 L117.45,33.80 L117.30,34.35 L116.95,36.90 L115.80,39.30 L115.70,39.20 L115.80,39.00 L115.95,38.60 L115.95,38.45 L115.95,38.10 L115.85,37.75 L115.00,40.40 L114.80,40.50 L114.65,40.65 L114.50,40.75 L114.20,40.45 L113.80,40.25 L113.20,40.05 L112.85,40.05 L112.55,40.05 L111.80,40.35 L111.45,40.60 L111.30,40.65 L110.65,40.20 L108.95,39.45 L108.65,39.20 L107.95,38.80 L106.05,37.10 L104.15,35.65 L102.20,34.65 L100.30,33.90 L100.30,33.65 L99.80,33.55 L99.55,33.60 L99.30,33.65 L99.20,33.80 L99.10,34.15 L99.00,34.35 L98.85,34.50 L98.35,33.75 L97.65,32.15 L97.40,31.40 L97.25,30.60 L97.35,29.80 L97.65,29.05 L98.15,28.20 L98.15,28.05 L97.80,28.10 L97.50,28.25 L97.25,28.45 L96.40,29.95 L96.10,29.40 L96.05,28.75 L96.25,27.90 L97.45,25.35 L98.25,24.20 L98.40,24.10 L98.55,23.95 L99.20,23.45 L100.45,22.95 L100.90,22.70 L101.05,22.55 L101.15,22.50 L99.65,22.05 L99.55,21.95 L99.80,21.75 L101.05,21.55 L102.70,21.55 L103.95,21.70 L104.25,21.80 L106.15,22.10 L107.20,22.10 L108.10,21.95 L108.25,22.35 L108.55,22.65 L108.90,22.80 L109.40,22.80 Z"/>
        <path fill="#FFFCDB" fill-opacity="1.00" d="M124.05,38.75 L124.15,38.80 L124.40,39.00 L124.40,39.05 L124.35,39.05 L124.15,39.05 L124.05,38.95 L123.95,38.80 L123.95,38.75 L124.05,38.75 Z"/>
        <path fill="#FFFCDB" fill-opacity="1.00" d="M122.35,37.80 L122.50,37.75 L122.60,37.75 L122.65,37.80 L122.80,38.80 L122.55,38.80 L122.40,38.70 L122.25,38.45 L122.30,38.00 L122.35,37.80 Z"/>
        <path fill="#D5EAD8" fill-opacity="1.00" d="M128.80,38.65 L128.80,38.55 L128.90,38.45 L129.00,38.45 L129.15,38.45 L129.25,38.55 L129.35,38.60 L129.50,38.60 L129.60,38.55 L129.70,38.55 L129.75,38.60 L129.90,38.65 L129.85,38.65 L129.75,38.70 L129.45,38.70 L129.30,38.70 L128.80,38.65 Z"/>
        <path fill="#FFFCDB" fill-opacity="1.00" d="M120.40,38.45 L120.15,38.25 L120.10,38.15 L120.20,38.15 L120.60,38.45 L120.40,38.45 Z"/>
        <path fill="#FFFCDB" fill-opacity="1.00" d="M120.70,38.25 L120.80,38.25 L120.80,38.45 L120.75,38.40 L120.65,38.40 L120.60,38.40 L120.60,38.30 L120.65,38.25 L120.70,38.25 Z"/>
        <path fill="#FFFCDB" fill-opacity="1.00" d="M127.00,37.95 L126.95,37.85 L127.05,37.90 L127.15,38.00 L127.30,38.00 L127.40,38.10 L127.35,38.15 L127.30,38.15 L127.00,37.95 Z"/>
        <path fill="#231916" fill-opacity="1.00" d="M125.80,37.40 L125.75,37.60 L125.60,37.85 L125.35,38.00 L125.00,38.15 L124.75,37.95 L124.75,37.85 L124.75,37.55 L124.85,37.30 L124.90,37.20 L125.30,37.05 L125.55,37.05 L125.75,37.15 L125.80,37.40 Z"/>
        <path fill="#FFFCDB" fill-opacity="1.00" d="M119.35,37.65 L119.25,37.40 L119.50,37.40 L119.50,37.55 L119.50,37.70 L119.60,37.80 L119.65,38.00 L119.60,38.00 L119.40,37.80 L119.35,37.65 Z"/>
        <path fill="#231916" fill-opacity="1.00" d="M127.15,35.20 L127.35,35.25 L127.50,35.50 L127.50,35.80 L127.50,36.10 L127.30,36.40 L127.10,36.70 L126.80,36.90 L126.45,36.95 L126.20,36.75 L126.10,36.50 L126.15,36.20 L126.45,35.70 L126.65,35.50 L127.15,35.20 Z"/>
        <path fill="#231916" fill-opacity="1.00" d="M109.40,30.35 L108.65,30.35 L108.50,30.35 L108.10,30.20 L107.95,30.10 L107.95,29.95 L107.95,29.80 L108.00,29.45 L108.10,29.30 L108.25,29.40 L108.25,29.55 L108.20,29.85 L108.25,30.00 L108.40,30.10 L109.40,30.35 Z"/>
        <path fill="#231916" fill-opacity="1.00" d="M109.60,28.20 L109.95,28.10 L110.15,28.10 L109.85,28.85 L109.65,29.10 L109.50,29.20 L109.30,29.30 L109.25,29.20 L109.20,29.20 L109.20,28.95 L109.30,28.55 L109.60,28.20 Z"/>
        <path fill="#FCD7A1" fill-opacity="1.00" d="M108.80,12.85 L108.95,12.85 L108.05,14.75 L107.95,15.05 L108.65,14.90 L109.55,14.60 L110.70,13.95 L111.00,13.75 L111.60,12.75 L111.75,12.55 L111.90,12.40 L112.45,12.40 L112.80,12.50 L113.50,13.15 L114.10,13.90 L114.50,14.75 L114.60,15.80 L114.50,15.70 L114.00,14.75 L113.90,14.45 L112.90,13.55 L112.15,13.40 L111.60,13.80 L111.15,14.60 L110.85,15.60 L110.65,18.70 L110.95,20.20 L110.95,20.60 L110.85,20.60 L110.80,20.60 L110.75,20.65 L110.70,20.75 L110.25,20.70 L109.95,20.55 L109.85,20.45 L109.85,20.35 L109.15,17.90 L108.40,16.20 L107.90,15.55 L107.30,15.05 L106.60,14.85 L105.90,15.30 L105.35,15.95 L104.90,16.75 L104.45,18.65 L104.35,21.35 L101.15,21.30 L99.45,21.60 L98.75,21.90 L98.15,22.35 L98.70,22.45 L100.00,22.35 L100.65,22.50 L100.60,22.55 L100.55,22.55 L100.45,22.60 L100.30,22.65 L100.10,22.75 L99.80,22.80 L98.95,23.25 L97.85,24.15 L97.10,24.55 L96.60,24.70 L96.00,24.75 L95.40,24.40 L95.05,23.85 L94.95,23.20 L95.00,22.60 L95.20,21.95 L95.65,21.45 L96.15,21.15 L96.80,21.00 L96.85,21.05 L96.85,21.15 L96.95,21.35 L96.95,21.45 L97.10,21.70 L97.35,21.60 L97.65,21.40 L98.05,20.70 L98.45,19.55 L98.55,19.30 L98.55,19.80 L98.40,21.00 L98.40,21.15 L98.45,21.15 L99.00,20.95 L99.30,20.90 L99.70,20.60 L100.05,20.20 L101.25,18.55 L102.05,16.90 L102.10,16.95 L102.20,17.25 L102.20,17.70 L102.10,18.60 L101.70,19.95 L101.55,20.30 L102.20,20.15 L102.80,19.60 L103.20,18.90 L104.45,15.45 L104.80,14.90 L105.25,14.55 L105.75,14.30 L107.80,13.50 L108.80,12.85 Z"/>
        <path fill="#FFFFFF" fill-opacity="1.00" d="M119.00,11.50 L119.00,12.00 L118.90,12.40 L118.70,11.90 L118.45,11.50 L117.65,10.85 L116.45,10.00 L116.20,9.75 L115.95,9.75 L116.50,11.50 L116.60,12.40 L116.45,13.45 L115.95,14.50 L115.30,15.50 L115.25,15.25 L115.10,15.55 L114.85,15.75 L114.65,14.60 L114.10,13.45 L113.75,12.95 L113.30,12.60 L112.85,12.30 L112.35,12.15 L112.35,12.10 L112.30,12.00 L112.55,11.85 L112.60,11.80 L112.70,11.80 L112.85,11.70 L112.50,11.75 L112.20,11.85 L111.90,12.10 L111.45,12.60 L110.85,13.50 L110.30,13.90 L109.75,14.20 L109.25,14.45 L108.55,14.60 L108.65,14.30 L109.15,12.95 L109.20,12.70 L109.20,12.40 L105.80,13.85 L104.60,14.60 L104.15,15.15 L103.40,17.70 L102.70,19.25 L102.35,19.75 L102.05,20.00 L102.35,18.10 L102.35,17.70 L102.15,16.40 L101.95,16.40 L101.85,16.75 L100.75,18.80 L99.80,20.15 L99.30,20.55 L98.90,20.85 L99.00,19.80 L99.00,19.55 L99.00,19.40 L98.85,19.20 L98.70,19.00 L98.75,18.70 L98.45,18.85 L98.15,19.55 L97.90,20.35 L97.55,21.00 L97.30,21.20 L96.95,20.70 L96.45,20.65 L95.95,20.90 L95.50,21.35 L95.05,21.95 L94.40,23.20 L94.35,23.70 L94.25,23.75 L94.20,23.75 L93.60,22.65 L93.20,21.55 L93.00,20.35 L92.95,19.25 L93.15,18.10 L93.55,17.00 L94.10,15.95 L94.95,15.05 L96.40,14.35 L97.20,13.80 L97.50,13.55 L97.65,13.25 L98.05,13.15 L96.80,13.15 L96.10,13.35 L96.25,13.05 L96.70,12.55 L97.25,12.00 L97.85,11.60 L98.40,11.40 L100.75,11.05 L101.10,10.95 L101.25,10.85 L101.35,10.95 L101.35,10.90 L101.35,10.85 L102.20,10.80 L103.05,10.40 L105.65,8.90 L106.50,8.60 L107.40,8.60 L108.25,9.05 L108.25,8.95 L107.35,8.35 L106.85,8.20 L105.90,8.05 L104.90,8.25 L104.45,8.50 L104.40,8.50 L104.30,8.45 L104.85,8.10 L106.30,7.40 L107.95,7.00 L108.75,7.00 L109.45,7.15 L110.00,7.60 L110.00,7.70 L110.75,8.00 L110.55,7.80 L110.55,7.70 L110.45,7.60 L110.40,7.45 L110.40,7.40 L110.60,7.30 L110.70,7.20 L110.75,7.10 L110.65,7.10 L110.55,7.10 L110.70,6.60 L111.15,6.25 L111.70,5.95 L113.00,5.65 L113.65,5.70 L114.25,5.80 L114.75,6.00 L114.50,6.10 L113.55,6.45 Q113.30,6.60 113.10,6.70 L112.90,6.85 L112.90,7.10 L114.10,7.10 L115.25,7.00 L115.70,7.00 L116.30,7.15 L116.95,7.45 L117.60,7.95 L117.85,8.25 L118.65,10.10 L119.00,11.50 Z"/>
        <path fill="#FCD7A1" fill-opacity="1.00" d="M113.15,19.35 L114.35,18.95 L115.70,18.90 L116.95,19.25 L117.60,19.50 L118.20,20.30 L118.45,21.05 L118.35,21.75 L118.00,22.35 L117.35,22.90 L116.60,23.25 L115.80,23.50 L114.90,23.60 L114.35,23.50 L111.20,22.35 L110.80,22.35 L109.70,22.60 L109.10,22.60 L108.75,22.50 L108.45,22.35 L108.50,21.90 L108.70,21.55 L109.00,21.30 L109.40,21.05 L109.85,20.95 L110.30,20.90 L110.70,21.00 L111.05,21.15 L111.50,21.30 L111.65,21.35 L111.75,21.40 L112.00,21.45 L111.90,21.30 L111.85,21.20 L111.75,21.10 L111.65,21.05 L111.50,21.00 L111.40,20.90 L111.15,20.85 L111.15,20.70 L111.35,20.55 L111.75,20.30 L112.00,20.20 L112.35,19.95 L112.60,19.70 L113.15,19.35 Z"/>
        <path fill="#D5EAD8" fill-opacity="1.00" d="M132.25,19.85 L132.20,19.85 L132.15,19.90 L132.05,19.85 L131.95,19.85 L131.90,19.80 L131.50,19.80 L131.50,19.90 L131.60,20.15 L131.65,20.20 L131.75,20.55 L131.75,20.65 L131.60,20.80 L131.50,21.00 L131.65,21.40 L131.90,21.90 L132.15,22.45 L132.00,22.45 L131.90,22.50 L131.85,22.50 L131.75,22.55 L131.75,22.25 L131.45,21.65 L131.30,21.45 L131.20,21.00 L131.20,20.75 L131.25,20.05 L131.05,18.30 L131.30,18.35 L131.70,18.60 L132.00,19.05 L132.15,19.30 L132.25,19.85 Z"/>
        <path fill="#FFFFFF" fill-opacity="1.00" d="M108.65,17.00 L108.85,17.85 L108.25,18.10 L107.90,18.45 L107.60,18.85 L107.50,19.40 L107.45,19.90 L107.60,20.45 L107.80,21.00 L108.20,21.50 L108.20,21.60 L108.10,21.60 L108.05,21.65 L107.65,21.65 L107.55,21.65 L105.25,21.60 L104.90,21.55 L104.70,21.30 L104.60,20.95 L104.60,20.35 L104.70,18.95 L105.15,16.85 L105.45,16.20 L105.85,15.60 L106.30,15.25 L106.90,15.15 L107.55,15.60 L108.10,16.25 L108.65,17.00 Z"/>
        <path fill="#FFFFFF" fill-opacity="1.00" d="M112.85,13.80 L113.40,14.20 L113.80,14.85 L114.20,15.60 L114.50,17.30 L114.50,18.70 L114.35,18.70 L114.25,18.80 L114.05,18.80 L113.55,19.00 L112.75,19.30 L112.60,17.85 L112.15,17.20 L111.75,17.00 L111.40,16.95 L110.85,17.05 L110.85,16.55 L111.00,15.60 L111.35,14.70 L111.85,13.90 Q112.10,13.75 112.30,13.65 L112.85,13.80 Z"/>
        <path fill="#FFFFFF" fill-opacity="1.00" d="M109.10,18.55 L109.20,19.00 L108.75,19.05 L108.55,19.10 L108.40,19.10 L108.05,19.15 L107.95,19.15 L107.80,19.10 L107.95,18.65 L108.10,18.55 L108.35,18.25 L108.75,18.15 L108.95,18.20 L109.00,18.30 L109.05,18.35 L109.05,18.45 L109.10,18.55 Z"/>
        <path fill="#FFFFFF" fill-opacity="1.00" d="M110.85,17.35 L111.05,17.25 L111.45,17.20 L111.65,17.20 L111.75,17.20 L112.00,17.35 L112.15,17.50 L112.30,17.80 L111.85,17.80 L111.75,17.80 L111.60,17.85 L111.50,18.00 L111.45,18.10 L111.35,18.30 L111.25,18.30 L111.00,18.10 L110.90,18.10 L110.85,18.05 L110.85,17.35 Z"/>
        <path fill="#FFFFFF" fill-opacity="1.00" d="M91.10,4.60 L91.30,4.65 L91.50,4.75 L91.65,4.95 L91.70,5.15 L91.85,5.50 L91.75,5.95 L90.70,7.75 L90.50,8.40 L90.55,9.05 L90.95,9.65 L90.95,9.75 L91.10,9.80 L91.25,9.85 L91.50,9.95 L91.50,10.20 L91.35,10.25 L91.25,10.30 L91.20,10.35 L91.15,10.40 L91.10,10.50 L91.00,10.55 L90.95,10.65 L90.50,10.80 L89.90,11.15 L89.70,11.55 L89.65,11.80 L89.50,11.85 L88.95,12.40 L88.95,12.30 L87.90,12.30 L87.30,12.25 L86.10,11.85 L85.60,11.60 L85.20,11.25 L83.90,9.30 L83.60,8.60 L83.60,8.45 L83.85,7.70 L84.15,7.05 L84.30,6.85 L84.55,6.70 L84.65,6.55 L84.70,6.40 L84.75,6.10 L84.70,5.95 L84.65,5.70 L84.65,5.55 L84.95,5.25 L85.05,4.95 L85.10,4.50 L85.15,4.35 L85.40,4.25 L86.10,4.15 L86.45,4.05 L86.60,3.90 L86.70,3.65 L87.10,3.65 L87.50,3.75 L87.85,3.75 L87.90,3.65 L87.65,3.60 L87.60,3.55 L87.60,3.50 L87.85,3.55 L88.35,3.65 L89.20,4.00 L89.65,4.35 L89.70,3.90 L90.25,3.90 L90.60,4.05 L90.80,4.20 L90.95,4.60 L91.10,4.60 Z"/>
        <path fill="#E60013" fill-opacity="1.00" d="M107.10,3.35 L107.20,3.55 L107.35,3.50 L107.55,3.50 L107.55,3.65 L108.55,4.75 L109.85,6.55 L110.00,7.00 L110.00,7.30 L109.20,6.95 L108.25,6.80 L107.35,6.90 L106.35,7.15 L104.55,8.00 L103.85,8.60 L103.25,9.15 L103.10,9.50 L104.00,9.15 L104.95,8.60 L105.20,8.65 L105.60,8.45 L105.90,8.35 L106.20,8.40 L106.35,8.45 L106.15,8.60 L104.70,9.20 L104.00,9.65 L102.80,10.25 L102.20,10.45 L99.55,10.80 L98.15,11.15 L97.65,11.35 L97.40,11.50 L97.10,11.75 L97.00,11.85 L96.95,11.95 L96.80,12.00 L96.70,12.05 L96.65,12.10 L96.50,11.85 L96.35,11.65 L95.25,10.80 L94.90,10.45 L94.50,9.80 L94.05,9.50 L93.45,9.45 L91.65,9.55 L91.15,9.35 L90.85,8.90 L90.85,8.50 L91.25,7.55 L92.40,5.55 L92.60,5.25 L94.35,4.80 L94.60,4.80 L94.60,4.70 L94.65,4.60 L95.05,4.55 L95.35,4.30 L96.00,3.50 L96.65,2.10 L96.85,1.75 L97.15,1.40 L97.80,1.00 L98.40,0.70 L99.60,0.55 L102.65,1.00 L102.70,1.10 L102.80,1.15 L103.75,1.55 L103.90,1.60 L103.90,1.75 L104.15,1.65 L104.15,1.70 L104.15,1.75 L105.60,2.45 L106.05,2.60 L106.05,2.70 L106.20,2.80 L106.95,3.20 L107.10,3.35 Z"/>
        <path fill="#FFFFFF" fill-opacity="1.00" d="M111.05,36.60 L111.15,36.60 L117.60,34.90 Q123.80,33.15 124.45,33.15 Q126.00,33.10 130.20,35.25 L134.15,37.50 Q134.80,38.20 136.05,38.60 L138.25,39.25 Q140.65,40.15 140.70,43.10 L140.85,45.85 L141.00,49.50 L140.45,52.25 L140.25,53.00 L140.10,53.45 L136.65,56.10 L134.15,57.90 Q130.20,60.50 126.30,60.70 L125.05,60.70 L124.60,60.70 Q125.00,59.80 125.00,58.55 Q124.70,56.90 124.85,55.95 L125.10,54.00 Q125.25,52.40 124.35,52.25 Q123.45,52.10 124.15,51.10 L124.85,50.10 L127.65,49.70 Q129.35,49.20 132.25,47.20 Q134.45,45.65 136.90,44.15 Q138.25,43.15 138.25,41.80 Q138.25,40.70 136.10,40.05 Q132.65,39.00 131.25,38.20 Q129.35,36.90 127.65,36.10 Q125.95,35.30 125.15,35.05 L120.80,35.40 L120.60,35.45 L117.60,36.90 Q115.45,37.95 113.70,38.30 Q111.95,38.65 111.10,38.30 Q110.20,37.95 110.50,37.55 L111.15,36.65 L111.05,36.60 M113.10,43.95 L116.00,45.05 L116.95,45.90 L118.00,46.70 Q119.20,47.00 120.60,48.40 Q121.85,49.70 121.85,50.40 L121.35,51.20 Q120.80,51.70 120.25,51.70 Q119.55,51.70 116.05,49.65 Q112.05,47.35 111.00,46.95 Q108.35,46.00 107.25,45.25 Q104.75,43.55 104.75,41.00 L104.85,40.30 Q105.00,40.05 105.40,40.05 L105.85,40.25 L107.50,40.50 L108.75,41.30 L113.10,43.95 Z"/>
        <path fill="url(#G6)" d="M125.05,60.70 L126.30,60.70 Q130.20,60.50 134.15,57.90 L136.65,56.10 Q134.55,67.75 135.15,72.00 L131.95,72.20 Q129.45,71.80 125.75,76.15 L125.05,60.70 Z"/>
        <path fill="url(#G7)" d="M125.05,60.70 L125.75,76.15 L123.30,73.65 Q120.20,71.10 117.60,71.25 Q115.95,71.30 115.55,72.60 Q115.15,73.95 113.90,74.00 L112.80,73.90 Q112.55,66.00 110.30,56.45 L114.70,57.90 L120.35,60.00 L124.60,60.70 L125.05,60.70 Z"/>
        <path fill="#D7ECF4" fill-opacity="1.00" d="M111.80,40.10 L112.40,39.70 Q113.70,39.15 115.25,39.10 L117.25,39.25 L119.25,39.35 Q119.95,39.35 121.40,38.60 Q122.80,37.75 123.80,37.70 Q124.35,37.70 126.40,39.75 L129.10,42.05 L133.05,42.55 Q134.30,42.70 135.05,43.20 L133.05,44.20 L131.30,44.40 Q130.30,44.60 128.55,43.55 L123.55,43.35 Q120.30,44.20 117.60,42.00 Q114.85,39.80 113.55,39.85 L111.80,40.10 Z"/>
        <path fill="#E9F9FC" fill-opacity="1.00" d="M111.80,40.10 L111.75,40.10 L109.85,41.15 Q113.20,41.55 117.50,44.55 L121.25,47.00 Q123.25,48.10 124.65,48.05 Q125.25,48.05 129.65,45.90 L133.05,44.20 L135.05,43.20 Q134.30,42.70 133.05,42.55 L129.10,42.05 L126.40,39.75 Q124.35,37.70 123.80,37.70 Q122.80,37.75 121.40,38.60 Q119.95,39.35 119.25,39.35 L117.25,39.25 L115.25,39.10 Q113.70,39.15 112.40,39.70 L111.80,40.10 M111.05,36.60 L111.15,36.65 L110.50,37.55 Q110.20,37.95 111.10,38.30 Q111.95,38.65 113.70,38.30 Q115.45,37.95 117.60,36.90 L120.60,35.45 L120.80,35.40 L125.15,35.05 Q125.95,35.30 127.65,36.10 Q129.35,36.90 131.25,38.20 Q132.65,39.00 136.10,40.05 Q138.25,40.70 138.25,41.80 Q138.25,43.15 136.90,44.15 Q134.45,45.65 132.25,47.20 Q129.35,49.20 127.65,49.70 L124.85,50.10 L124.15,51.10 Q123.45,52.10 124.35,52.25 Q125.25,52.40 125.10,54.00 L124.85,55.95 Q124.70,56.90 125.00,58.55 Q125.00,59.80 124.60,60.70 L120.35,60.00 L114.70,57.90 L110.30,56.45 L109.35,56.00 Q105.95,54.40 105.15,51.80 L104.85,51.15 L103.95,46.85 Q103.45,43.55 103.40,40.90 Q103.40,38.05 105.85,37.25 L111.05,36.60 M113.10,43.95 L108.75,41.30 L107.50,40.50 L105.85,40.25 L105.40,40.05 Q105.00,40.05 104.85,40.30 L104.75,41.00 Q104.75,43.55 107.25,45.25 Q108.35,46.00 111.00,46.95 Q112.05,47.35 116.05,49.65 Q119.55,51.70 120.25,51.70 Q120.80,51.70 121.35,51.20 L121.85,50.40 Q121.85,49.70 120.60,48.40 Q119.20,47.00 118.00,46.70 L116.95,45.90 L116.00,45.05 L113.10,43.95 Z"/>
        <path fill="#9FB0B5" fill-opacity="1.00" d="M133.05,44.20 L129.65,45.90 Q125.25,48.05 124.65,48.05 Q123.25,48.10 121.25,47.00 L117.50,44.55 Q113.20,41.55 109.85,41.15 L111.75,40.10 L111.80,40.10 L113.55,39.85 Q114.85,39.80 117.60,42.00 Q120.30,44.20 123.55,43.35 L128.55,43.55 Q130.30,44.60 131.30,44.40 L133.05,44.20 Z"/>
        <path stroke="#A2BCCC" stroke-width="1.00" stroke-opacity="1.00" stroke-linecap="round" stroke-linejoin="round" stroke-miterlimit="3.00" fill="transparent" d="M136.65,56.10 L140.10,53.45 L140.25,53.00 L140.45,52.25 L141.00,49.50 L140.85,45.85 L140.70,43.10 Q140.65,40.15 138.25,39.25 L136.05,38.60 Q134.80,38.20 134.15,37.50 L130.20,35.25 Q126.00,33.10 124.45,33.15 Q123.80,33.15 117.60,34.90 L111.15,36.60 L111.05,36.60 L105.85,37.25 Q103.40,38.05 103.40,40.90 Q103.45,43.55 103.95,46.85 L104.85,51.15 L105.15,51.80 Q105.95,54.40 109.35,56.00 L110.30,56.45 L114.70,57.90 L120.35,60.00 L124.60,60.70 L125.05,60.70 L126.30,60.70 Q130.20,60.50 134.15,57.90 L136.65,56.10 M135.15,72.00 Q136.00,72.40 137.35,70.30 Q138.75,68.25 140.95,67.50 M104.85,51.15 L105.00,51.80 L105.15,51.80 M125.75,76.15 Q129.45,71.80 131.95,72.20 L135.15,72.00 M112.80,73.90 L113.90,74.00 Q115.15,73.95 115.55,72.60 Q115.95,71.30 117.60,71.25 Q120.20,71.10 123.30,73.65 L125.75,76.15 M104.75,72.00 Q107.20,70.70 109.60,72.20 L112.80,73.90"/>
        <path stroke="#97201F" stroke-width="1.00" stroke-opacity="1.00" stroke-linecap="round" stroke-linejoin="round" stroke-miterlimit="3.00" fill="transparent" d="M112.80,73.90 Q112.55,66.00 110.30,56.45 M136.65,56.10 Q134.55,67.75 135.15,72.00 M125.75,76.15 L125.05,60.70"/>
        <path fill="#E2BC25" fill-opacity="1.00" d="M67.60,135.95 L67.40,135.75 L67.65,135.95 L67.60,135.95 Z"/>
        <path fill="#DAB430" fill-opacity="1.00" d="M67.60,135.95 L67.65,135.95 L67.60,135.95 Z"/>
        <path fill="#F8AD12" fill-opacity="1.00" d="M33.60,132.40 L33.65,132.40 L33.70,132.40 L33.60,132.40 Z"/>
        <path fill="#FFD303" fill-opacity="1.00" d="M33.60,132.40 L31.50,131.60 L29.55,130.75 Q28.50,130.10 27.55,129.00 Q26.60,127.85 26.60,127.15 L26.60,127.00 L29.55,129.30 Q31.90,131.55 33.65,132.40 L33.60,132.40 M86.60,141.70 L85.90,142.10 L84.00,142.65 L81.55,143.10 L78.70,143.25 L74.70,142.70 Q72.35,142.25 72.35,141.20 Q72.35,141.05 72.65,141.05 L72.90,141.05 L73.45,141.30 L75.45,141.60 Q77.10,141.75 77.80,141.10 Q74.70,141.10 72.60,139.85 L69.30,137.40 L67.60,135.95 L67.65,135.95 L68.30,136.20 L70.70,137.15 Q73.25,138.00 75.55,139.00 Q77.80,140.05 82.10,140.35 L86.40,140.90 L86.60,141.70 M61.85,132.80 Q60.45,132.95 60.45,134.55 Q60.45,134.85 61.55,136.40 L63.00,138.45 L64.30,140.10 L65.95,142.30 Q66.70,143.20 67.60,143.80 L69.30,144.65 Q66.30,143.75 64.65,142.20 Q62.70,140.30 60.70,137.55 Q59.05,135.40 57.60,134.20 L59.15,131.75 L59.55,131.75 L61.85,132.80 M73.65,145.35 L72.05,144.80 Q71.40,144.50 69.80,143.40 Q68.05,142.10 67.25,140.85 Q65.95,139.30 65.95,139.00 L66.15,138.85 L66.50,139.00 L66.65,139.15 L67.20,139.35 Q68.35,139.85 70.35,141.50 Q72.20,143.10 73.35,143.45 L77.05,144.75 L79.60,145.10 L83.00,144.80 L84.75,144.45 L83.10,145.10 L78.55,145.75 L76.15,145.25 L73.65,145.35 M72.90,141.05 Q73.90,142.30 75.45,142.50 L77.80,142.65 L82.90,141.90 L86.40,140.90 L82.90,141.90 L77.80,142.65 L75.45,142.50 Q73.90,142.30 72.90,141.05 M67.20,139.35 Q69.85,142.40 73.45,144.15 L76.15,145.25 L73.45,144.15 Q69.85,142.40 67.20,139.35 M79.35,140.85 Q74.80,139.95 68.90,136.60 L68.30,136.20 L68.90,136.60 Q74.80,139.95 79.35,140.85 M45.55,135.10 L44.10,135.35 L40.80,135.50 L38.80,135.40 L35.20,135.90 L32.80,135.95 L31.60,135.60 Q30.90,135.40 29.75,134.40 L27.55,132.45 L26.45,131.05 L26.55,130.50 L27.05,130.50 Q27.65,130.60 28.95,131.45 L31.15,132.85 L34.25,134.15 Q37.20,135.10 40.45,135.15 L41.90,135.00 L44.20,134.85 L45.55,135.10 M28.85,126.60 L31.00,127.20 L32.25,127.70 L33.00,128.25 L33.50,129.00 L34.75,130.40 L36.45,131.80 Q37.10,132.25 37.90,132.50 L40.00,132.90 L41.75,132.85 Q41.55,133.20 40.95,133.20 L40.85,133.20 L38.65,133.00 L35.55,132.10 Q34.15,131.45 33.00,130.10 Q31.15,127.90 28.85,126.60 M44.45,130.50 L50.10,130.30 Q51.70,130.00 52.35,131.30 L51.90,131.20 L50.90,130.95 L48.05,131.35 L42.85,131.80 L37.95,131.15 Q38.10,130.80 38.55,130.70 L40.05,130.60 Q41.00,130.65 42.05,131.05 L44.25,131.40 Q45.40,131.35 44.45,130.50 M38.80,135.40 Q30.45,134.95 26.95,130.95 Q30.45,134.95 38.80,135.40 Z"/>
        <path fill="#FFF200" fill-opacity="1.00" d="M86.60,141.70 Q86.80,142.95 85.65,143.85 L84.75,144.45 L83.00,144.80 L79.60,145.10 L77.05,144.75 L73.35,143.45 Q72.20,143.10 70.35,141.50 Q68.35,139.85 67.20,139.35 L66.65,139.15 L66.50,139.00 L66.15,138.85 L65.95,139.00 Q65.95,139.30 67.25,140.85 Q68.05,142.10 69.80,143.40 Q71.40,144.50 72.05,144.80 L73.65,145.35 L69.95,144.85 L69.30,144.65 L67.60,143.80 Q66.70,143.20 65.95,142.30 L64.30,140.10 L63.00,138.45 L61.55,136.40 Q60.45,134.85 60.45,134.55 Q60.45,132.95 61.85,132.80 L62.55,133.15 L66.50,135.25 L67.40,135.75 L67.60,135.95 L69.30,137.40 L72.60,139.85 Q74.70,141.10 77.80,141.10 Q77.10,141.75 75.45,141.60 L73.45,141.30 L72.90,141.05 L72.65,141.05 Q72.35,141.05 72.35,141.20 Q72.35,142.25 74.70,142.70 L78.70,143.25 L81.55,143.10 L84.00,142.65 L85.90,142.10 L86.60,141.70 M52.35,131.30 Q51.60,133.30 48.85,134.20 L45.55,135.10 L44.20,134.85 L41.90,135.00 L40.45,135.15 Q37.20,135.10 34.25,134.15 L31.15,132.85 L28.95,131.45 Q27.65,130.60 27.05,130.50 L26.55,130.50 L26.45,131.05 L27.55,132.45 L29.75,134.40 Q30.90,135.40 31.60,135.60 L32.80,135.95 L32.05,135.90 Q30.45,135.70 27.60,133.15 Q24.70,130.60 24.30,128.65 Q23.85,126.65 24.55,125.65 Q25.20,124.60 28.85,126.60 Q31.15,127.90 33.00,130.10 Q34.15,131.45 35.55,132.10 L38.65,133.00 L40.85,133.20 L40.95,133.20 Q41.55,133.20 41.75,132.85 L40.00,132.90 L37.90,132.50 Q37.10,132.25 36.45,131.80 L34.75,130.40 L33.50,129.00 L33.00,128.25 L32.25,127.70 L34.50,128.85 Q35.80,129.55 39.05,130.00 L44.45,130.50 Q45.40,131.35 44.25,131.40 L42.05,131.05 Q41.00,130.65 40.05,130.60 L38.55,130.70 Q38.10,130.80 37.95,131.15 L42.85,131.80 L48.05,131.35 L50.90,130.95 L51.90,131.20 L52.35,131.30 M33.65,132.40 Q31.90,131.55 29.55,129.30 L26.60,127.00 L26.60,127.15 Q26.60,127.85 27.55,129.00 Q28.50,130.10 29.55,130.75 L31.50,131.60 L33.60,132.40 L33.70,132.40 L33.65,132.40 Z"/>
        <path stroke="#BF8B15" stroke-width="0.05" stroke-opacity="1.00" stroke-linecap="round" stroke-linejoin="round" stroke-miterlimit="3.00" fill="transparent" d="M84.75,144.45 L85.65,143.85 Q86.80,142.95 86.60,141.70 L86.40,140.90 L82.90,141.90 L77.80,142.65 L75.45,142.50 Q73.90,142.30 72.90,141.05 M66.50,135.25 L62.55,133.15 L61.85,132.80 L59.55,131.75 L59.15,131.75 M69.30,144.65 L69.95,144.85 L73.65,145.35 M84.75,144.45 L83.10,145.10 L78.55,145.75 L76.15,145.25 L73.65,145.35 M67.65,135.95 L68.30,136.20 L70.70,137.15 Q73.25,138.00 75.55,139.00 Q77.80,140.05 82.10,140.35 L86.40,140.90 M76.15,145.25 L73.45,144.15 Q69.85,142.40 67.20,139.35 M67.40,135.75 L67.65,135.95 M68.30,136.20 L68.90,136.60 Q74.80,139.95 79.35,140.85 M57.60,134.20 Q59.05,135.40 60.70,137.55 Q62.70,140.30 64.65,142.20 Q66.30,143.75 69.30,144.65 M52.35,131.30 Q51.60,133.30 48.85,134.20 L45.55,135.10 L44.10,135.35 L40.80,135.50 L38.80,135.40 L35.20,135.90 L32.80,135.95 L32.05,135.90 Q30.45,135.70 27.60,133.15 Q24.70,130.60 24.30,128.65 Q23.85,126.65 24.55,125.65 Q25.20,124.60 28.85,126.60 L31.00,127.20 L32.25,127.70 L34.50,128.85 Q35.80,129.55 39.05,130.00 L44.45,130.50 L50.10,130.30 Q51.70,130.00 52.35,131.30 L51.90,131.20 L50.90,130.95 L48.05,131.35 L42.85,131.80 L37.95,131.15 M38.65,133.00 L35.55,132.10 Q34.15,131.45 33.00,130.10 Q31.15,127.90 28.85,126.60 M26.95,130.95 Q30.45,134.95 38.80,135.40"/>
        <path fill="url(#G8)" d="M65.20,159.25 Q64.90,150.80 61.15,144.70 Q58.45,140.35 54.30,139.50 L51.40,139.25 L50.85,139.40 Q44.40,140.00 42.50,153.55 L43.60,154.20 Q43.40,177.65 47.20,196.25 Q43.40,177.65 43.60,154.20 Q46.20,155.60 48.85,156.65 L51.55,157.60 L53.85,158.25 L59.50,159.20 Q62.30,159.40 65.20,159.25 Q65.20,183.05 62.10,201.45 Q65.20,183.05 65.20,159.25 M47.20,196.25 L43.70,194.95 Q42.90,190.80 41.60,181.25 Q40.30,171.60 39.75,157.95 Q39.20,144.20 47.20,138.10 Q55.25,131.90 64.20,144.20 Q73.20,156.50 65.35,202.50 L62.10,201.45 L57.45,199.85 L54.00,198.65 L50.65,197.50 Q48.60,179.40 48.85,156.65 Q48.60,179.40 50.65,197.50 L47.20,196.25 M53.85,158.25 Q52.75,180.80 54.00,198.65 Q52.75,180.80 53.85,158.25 M57.45,199.85 Q59.20,183.50 59.50,159.20 Q59.20,183.50 57.45,199.85 Z"/>
        <path fill="url(#G9)" d="M54.30,139.50 Q58.45,140.35 61.15,144.70 Q64.90,150.80 65.20,159.25 Q62.30,159.40 59.50,159.20 L53.85,158.25 Q52.60,150.65 54.30,139.50 M43.60,154.20 L42.50,153.55 Q44.40,140.00 50.85,139.40 L51.40,139.25 Q50.55,150.15 51.55,157.60 L48.85,156.65 Q46.20,155.60 43.60,154.20 Z"/>
        <path fill="#872D1F" fill-opacity="1.00" d="M51.40,139.25 L54.30,139.50 Q52.60,150.65 53.85,158.25 L51.55,157.60 Q50.55,150.15 51.40,139.25 Z"/>
        <path stroke="#872D1F" stroke-width="1.00" stroke-opacity="1.00" stroke-linecap="round" stroke-linejoin="round" stroke-miterlimit="3.00" fill="transparent" d="M54.30,139.50 Q58.45,140.35 61.15,144.70 Q64.90,150.80 65.20,159.25 M43.60,154.20 L42.50,153.55 Q44.40,140.00 50.85,139.40 L51.40,139.25 L54.30,139.50 M53.85,158.25 L59.50,159.20 Q62.30,159.40 65.20,159.25 M48.85,156.65 Q46.20,155.60 43.60,154.20 M51.55,157.60 L48.85,156.65 M53.85,158.25 L51.55,157.60"/>
        <path stroke="#97201F" stroke-width="0.05" stroke-opacity="1.00" stroke-linecap="round" stroke-linejoin="round" stroke-miterlimit="3.00" fill="transparent" d="M62.10,201.45 L65.35,202.50 Q73.20,156.50 64.20,144.20 Q55.25,131.90 47.20,138.10 Q39.20,144.20 39.75,157.95 Q40.30,171.60 41.60,181.25 Q42.90,190.80 43.70,194.95 L47.20,196.25 M50.65,197.50 L54.00,198.65 M50.65,197.50 L47.20,196.25 M62.10,201.45 L57.45,199.85 L54.00,198.65"/>
        <path stroke="url(#G10)" fill="transparent" d="M54.00,198.65 Q52.75,180.80 53.85,158.25 M65.20,159.25 Q65.20,183.05 62.10,201.45 M47.20,196.25 Q43.40,177.65 43.60,154.20 M48.85,156.65 Q48.60,179.40 50.65,197.50 M59.50,159.20 Q59.20,183.50 57.45,199.85"/>
    </g>
</svg>
