<svg version="1.1" xmlns="http://www.w3.org/2000/svg" width="1024" height="768">
    <defs>
        <radialGradient cx="-0.60" cy="7.70" fx="-0.60" fy="7.70" r="27.54" gradientUnits="userSpaceOnUse" spreadMethod="pad" id="G1">
            <stop offset="0.00" stop-color="#A4E40A" stop-opacity="1.00"/>
            <stop offset="1.00" stop-color="#86683E" stop-opacity="1.00"/>
        </radialGradient>
        <radialGradient cx="-0.60" cy="7.70" fx="-0.60" fy="7.70" r="27.54" gradientUnits="userSpaceOnUse" spreadMethod="pad" id="G2">
            <stop offset="0.00" stop-color="#9ECD13" stop-opacity="1.00"/>
            <stop offset="1.00" stop-color="#5A3A2E" stop-opacity="1.00"/>
        </radialGradient>
        <linearGradient x1="32.09" y1="-29.54" x2="-4.49" y2="7.04" gradientUnits="userSpaceOnUse" spreadMethod="pad" id="G3">
            <stop offset="0.00" stop-color="#A9DC0E" stop-opacity="1.00"/>
            <stop offset="0.38" stop-color="#8ED40D" stop-opacity="1.00"/>
            <stop offset="0.95" stop-color="#59A012" stop-opacity="1.00"/>
        </linearGradient>
        <linearGradient x1="32.09" y1="-29.54" x2="-4.49" y2="7.04" gradientUnits="userSpaceOnUse" spreadMethod="pad" id="G4">
            <stop offset="0.00" stop-color="#DAEF18" stop-opacity="1.00"/>
            <stop offset="0.54" stop-color="#A7E80F" stop-opacity="1.00"/>
            <stop offset="1.00" stop-color="#59A012" stop-opacity="1.00"/>
        </linearGradient>
        <linearGradient x1="9.80" y1="-38.13" x2="2.80" y2="-19.48" gradientUnits="userSpaceOnUse" spreadMethod="pad" id="G5">
            <stop offset="0.08" stop-color="#DDF028" stop-opacity="1.00"/>
            <stop offset="0.34" stop-color="#8ED40D" stop-opacity="1.00"/>
            <stop offset="1.00" stop-color="#518B0F" stop-opacity="1.00"/>
        </linearGradient>
        <linearGradient x1="9.80" y1="-38.13" x2="2.80" y2="-19.48" gradientUnits="userSpaceOnUse" spreadMethod="pad" id="G6">
            <stop offset="0.00" stop-color="#BCE20F" stop-opacity="1.00"/>
            <stop offset="0.19" stop-color="#8ED40D" stop-opacity="1.00"/>
            <stop offset="1.00" stop-color="#498110" stop-opacity="1.00"/>
        </linearGradient>
        <linearGradient x1="9.80" y1="-38.13" x2="2.80" y2="-19.48" gradientUnits="userSpaceOnUse" spreadMethod="pad" id="G7">
            <stop offset="0.00" stop-color="#BCE20F" stop-opacity="1.00"/>
            <stop offset="0.19" stop-color="#91C80D" stop-opacity="1.00"/>
            <stop offset="1.00" stop-color="#37620D" stop-opacity="1.00"/>
        </linearGradient>
        <radialGradient cx="0.00" cy="6.70" fx="0.00" fy="6.70" r="52.80" gradientUnits="userSpaceOnUse" spreadMethod="pad" id="G8">
            <stop offset="0.03" stop-color="#8CC409" stop-opacity="1.00"/>
            <stop offset="0.60" stop-color="#BACC11" stop-opacity="1.00"/>
            <stop offset="1.00" stop-color="#E9F479" stop-opacity="1.00"/>
        </radialGradient>
        <radialGradient cx="0.00" cy="6.70" fx="0.00" fy="6.70" r="52.80" gradientUnits="userSpaceOnUse" spreadMethod="pad" id="G9">
            <stop offset="0.03" stop-color="#399C0E" stop-opacity="1.00"/>
            <stop offset="0.32" stop-color="#72AD16" stop-opacity="1.00"/>
            <stop offset="0.85" stop-color="#E0F04A" stop-opacity="1.00"/>
        </radialGradient>
        <radialGradient cx="0.00" cy="6.70" fx="0.00" fy="6.70" r="52.80" gradientUnits="userSpaceOnUse" spreadMethod="pad" id="G10">
            <stop offset="0.03" stop-color="#A4E40A" stop-opacity="1.00"/>
            <stop offset="0.60" stop-color="#D0E412" stop-opacity="1.00"/>
            <stop offset="1.00" stop-color="#E9F479" stop-opacity="1.00"/>
        </radialGradient>
        <linearGradient x1="-41.15" y1="1.88" x2="-37.05" y2="-22.38" gradientUnits="userSpaceOnUse" spreadMethod="pad" id="G11">
            <stop offset="0.00" stop-color="#3F6B0C" stop-opacity="1.00"/>
            <stop offset="0.95" stop-color="#569911" stop-opacity="1.00"/>
        </linearGradient>
        <linearGradient x1="29.68" y1="1.92" x2="42.23" y2="28.48" gradientUnits="userSpaceOnUse" spreadMethod="pad" id="G12">
            <stop offset="0.00" stop-color="#B0DE0E" stop-opacity="1.00"/>
            <stop offset="0.19" stop-color="#8ED40D" stop-opacity="1.00"/>
            <stop offset="0.84" stop-color="#59A012" stop-opacity="1.00"/>
        </linearGradient>
        <linearGradient x1="29.68" y1="1.92" x2="42.23" y2="28.48" gradientUnits="userSpaceOnUse" spreadMethod="pad" id="G13">
            <stop offset="0.00" stop-color="#BCE20F" stop-opacity="1.00"/>
            <stop offset="0.44" stop-color="#8ED40D" stop-opacity="1.00"/>
            <stop offset="0.95" stop-color="#59A012" stop-opacity="1.00"/>
        </linearGradient>
        <linearGradient x1="-41.15" y1="1.88" x2="-37.05" y2="-22.38" gradientUnits="userSpaceOnUse" spreadMethod="pad" id="G14">
            <stop offset="0.44" stop-color="#4E8A0F" stop-opacity="1.00"/>
            <stop offset="1.00" stop-color="#73CE17" stop-opacity="1.00"/>
        </linearGradient>
        <linearGradient x1="29.68" y1="1.92" x2="42.23" y2="28.48" gradientUnits="userSpaceOnUse" spreadMethod="pad" id="G15">
            <stop offset="0.00" stop-color="#A7DB0D" stop-opacity="1.00"/>
            <stop offset="0.25" stop-color="#7DC40E" stop-opacity="1.00"/>
            <stop offset="0.82" stop-color="#519111" stop-opacity="1.00"/>
        </linearGradient>
        <linearGradient x1="29.68" y1="1.92" x2="42.23" y2="28.48" gradientUnits="userSpaceOnUse" spreadMethod="pad" id="G16">
            <stop offset="0.00" stop-color="#B0DE0E" stop-opacity="1.00"/>
            <stop offset="0.44" stop-color="#8ED40D" stop-opacity="1.00"/>
            <stop offset="0.95" stop-color="#59A012" stop-opacity="1.00"/>
        </linearGradient>
        <linearGradient x1="29.68" y1="1.92" x2="42.23" y2="28.48" gradientUnits="userSpaceOnUse" spreadMethod="pad" id="G17">
            <stop offset="0.00" stop-color="#A7DB0D" stop-opacity="1.00"/>
            <stop offset="0.44" stop-color="#7DC40E" stop-opacity="1.00"/>
            <stop offset="0.95" stop-color="#519111" stop-opacity="1.00"/>
        </linearGradient>
        <linearGradient x1="-41.15" y1="1.88" x2="-37.05" y2="-22.38" gradientUnits="userSpaceOnUse" spreadMethod="pad" id="G18">
            <stop offset="0.00" stop-color="#DFEF4B" stop-opacity="1.00"/>
            <stop offset="0.44" stop-color="#B7F523" stop-opacity="1.00"/>
            <stop offset="0.95" stop-color="#73CE17" stop-opacity="1.00"/>
        </linearGradient>
        <linearGradient x1="-41.15" y1="1.88" x2="-37.05" y2="-22.38" gradientUnits="userSpaceOnUse" spreadMethod="pad" id="G19">
            <stop offset="0.00" stop-color="#CEE214" stop-opacity="1.00"/>
            <stop offset="0.44" stop-color="#A4E40A" stop-opacity="1.00"/>
            <stop offset="0.95" stop-color="#66B814" stop-opacity="1.00"/>
        </linearGradient>
        <radialGradient cx="-0.60" cy="7.70" fx="-0.60" fy="7.70" r="27.54" gradientUnits="userSpaceOnUse" spreadMethod="pad" id="G20">
            <stop offset="0.00" stop-color="#BFF73C" stop-opacity="1.00"/>
            <stop offset="1.00" stop-color="#8E7D3D" stop-opacity="1.00"/>
        </radialGradient>
        <radialGradient cx="0.00" cy="6.70" fx="0.00" fy="6.70" r="52.80" gradientUnits="userSpaceOnUse" spreadMethod="pad" id="G21">
            <stop offset="0.03" stop-color="#638A06" stop-opacity="1.00"/>
            <stop offset="0.60" stop-color="#BACC11" stop-opacity="1.00"/>
            <stop offset="1.00" stop-color="#E9F479" stop-opacity="1.00"/>
        </radialGradient>
        <linearGradient x1="10.66" y1="8.44" x2="28.34" y2="29.96" gradientUnits="userSpaceOnUse" spreadMethod="pad" id="G22">
            <stop offset="0.00" stop-color="#8BC00C" stop-opacity="1.00"/>
            <stop offset="0.95" stop-color="#4D8811" stop-opacity="1.00"/>
        </linearGradient>
        <linearGradient x1="10.66" y1="8.44" x2="28.34" y2="29.96" gradientUnits="userSpaceOnUse" spreadMethod="pad" id="G23">
            <stop offset="0.00" stop-color="#BCE20F" stop-opacity="1.00"/>
            <stop offset="0.27" stop-color="#8BC00C" stop-opacity="1.00"/>
            <stop offset="0.95" stop-color="#4D8811" stop-opacity="1.00"/>
        </linearGradient>
        <linearGradient x1="10.66" y1="8.44" x2="28.34" y2="29.96" gradientUnits="userSpaceOnUse" spreadMethod="pad" id="G24">
            <stop offset="0.00" stop-color="#DBEF21" stop-opacity="1.00"/>
            <stop offset="0.28" stop-color="#A2E00E" stop-opacity="1.00"/>
            <stop offset="0.95" stop-color="#559614" stop-opacity="1.00"/>
        </linearGradient>
        <radialGradient cx="-0.60" cy="7.70" fx="-0.60" fy="7.70" r="27.54" gradientUnits="userSpaceOnUse" spreadMethod="pad" id="G25">
            <stop offset="0.02" stop-color="#F9F939" stop-opacity="1.00"/>
            <stop offset="1.00" stop-color="#8E7D3D" stop-opacity="1.00"/>
        </radialGradient>
        <linearGradient x1="-32.17" y1="-35.62" x2="-8.23" y2="-11.68" gradientUnits="userSpaceOnUse" spreadMethod="pad" id="G26">
            <stop offset="0.00" stop-color="#BCE20F" stop-opacity="1.00"/>
            <stop offset="0.44" stop-color="#8ED40D" stop-opacity="1.00"/>
            <stop offset="0.95" stop-color="#59A012" stop-opacity="1.00"/>
        </linearGradient>
        <linearGradient x1="-32.17" y1="-35.62" x2="-8.23" y2="-11.68" gradientUnits="userSpaceOnUse" spreadMethod="pad" id="G27">
            <stop offset="0.00" stop-color="#BBCE0F" stop-opacity="1.00"/>
            <stop offset="0.44" stop-color="#85B80C" stop-opacity="1.00"/>
            <stop offset="0.95" stop-color="#4D8811" stop-opacity="1.00"/>
        </linearGradient>
        <linearGradient x1="-34.03" y1="-16.60" x2="-3.97" y2="-2.70" gradientUnits="userSpaceOnUse" spreadMethod="pad" id="G28">
            <stop offset="0.00" stop-color="#DFF138" stop-opacity="1.00"/>
            <stop offset="0.20" stop-color="#ADF00F" stop-opacity="1.00"/>
            <stop offset="0.67" stop-color="#41710F" stop-opacity="1.00"/>
        </linearGradient>
        <linearGradient x1="-34.03" y1="-16.60" x2="-3.97" y2="-2.70" gradientUnits="userSpaceOnUse" spreadMethod="pad" id="G29">
            <stop offset="0.00" stop-color="#E6F361" stop-opacity="1.00"/>
            <stop offset="0.27" stop-color="#8ED40D" stop-opacity="1.00"/>
            <stop offset="1.00" stop-color="#629B0E" stop-opacity="1.00"/>
        </linearGradient>
        <linearGradient x1="-47.11" y1="13.63" x2="-7.39" y2="-4.52" gradientUnits="userSpaceOnUse" spreadMethod="pad" id="G30">
            <stop offset="0.17" stop-color="#E0F141" stop-opacity="1.00"/>
            <stop offset="0.58" stop-color="#A7E80F" stop-opacity="1.00"/>
            <stop offset="1.00" stop-color="#70C518" stop-opacity="1.00"/>
        </linearGradient>
        <linearGradient x1="-47.11" y1="13.63" x2="-7.39" y2="-4.52" gradientUnits="userSpaceOnUse" spreadMethod="pad" id="G31">
            <stop offset="0.00" stop-color="#BCE20F" stop-opacity="1.00"/>
            <stop offset="0.44" stop-color="#8ED40D" stop-opacity="1.00"/>
            <stop offset="0.95" stop-color="#59A012" stop-opacity="1.00"/>
        </linearGradient>
        <linearGradient x1="-32.17" y1="-35.62" x2="-8.23" y2="-11.68" gradientUnits="userSpaceOnUse" spreadMethod="pad" id="G32">
            <stop offset="0.00" stop-color="#EAF578" stop-opacity="1.00"/>
            <stop offset="0.57" stop-color="#B7E21F" stop-opacity="1.00"/>
            <stop offset="1.00" stop-color="#82BF15" stop-opacity="1.00"/>
        </linearGradient>
        <linearGradient x1="-34.03" y1="-16.60" x2="-3.97" y2="-2.70" gradientUnits="userSpaceOnUse" spreadMethod="pad" id="G33">
            <stop offset="0.00" stop-color="#BCE20F" stop-opacity="1.00"/>
            <stop offset="0.15" stop-color="#8ED40D" stop-opacity="1.00"/>
            <stop offset="0.27" stop-color="#54890E" stop-opacity="1.00"/>
            <stop offset="0.67" stop-color="#335A0C" stop-opacity="1.00"/>
        </linearGradient>
        <linearGradient x1="-34.03" y1="-16.60" x2="-3.97" y2="-2.70" gradientUnits="userSpaceOnUse" spreadMethod="pad" id="G34">
            <stop offset="0.00" stop-color="#BCE20F" stop-opacity="1.00"/>
            <stop offset="0.27" stop-color="#8ED40D" stop-opacity="1.00"/>
            <stop offset="1.00" stop-color="#629B0E" stop-opacity="1.00"/>
        </linearGradient>
        <radialGradient cx="0.00" cy="6.70" fx="0.00" fy="6.70" r="52.80" gradientUnits="userSpaceOnUse" spreadMethod="pad" id="G35">
            <stop offset="0.03" stop-color="#7AAB07" stop-opacity="1.00"/>
            <stop offset="0.60" stop-color="#9DC10B" stop-opacity="1.00"/>
            <stop offset="1.00" stop-color="#C1D511" stop-opacity="1.00"/>
        </radialGradient>
        <linearGradient x1="-14.56" y1="9.32" x2="-29.04" y2="34.58" gradientUnits="userSpaceOnUse" spreadMethod="pad" id="G36">
            <stop offset="0.15" stop-color="#3D690E" stop-opacity="1.00"/>
            <stop offset="0.82" stop-color="#8ED40D" stop-opacity="1.00"/>
        </linearGradient>
        <linearGradient x1="-14.56" y1="9.32" x2="-29.04" y2="34.58" gradientUnits="userSpaceOnUse" spreadMethod="pad" id="G37">
            <stop offset="0.00" stop-color="#498110" stop-opacity="1.00"/>
            <stop offset="0.82" stop-color="#8ED40D" stop-opacity="1.00"/>
        </linearGradient>
        <linearGradient x1="-47.11" y1="13.63" x2="-7.39" y2="-4.52" gradientUnits="userSpaceOnUse" spreadMethod="pad" id="G38">
            <stop offset="0.09" stop-color="#BCE20F" stop-opacity="1.00"/>
            <stop offset="0.59" stop-color="#8ED40D" stop-opacity="1.00"/>
            <stop offset="0.95" stop-color="#59A012" stop-opacity="1.00"/>
        </linearGradient>
        <linearGradient x1="-17.51" y1="-47.32" x2="-27.59" y2="-29.77" gradientUnits="userSpaceOnUse" spreadMethod="pad" id="G39">
            <stop offset="0.00" stop-color="#BCE20F" stop-opacity="1.00"/>
            <stop offset="0.44" stop-color="#8ED40D" stop-opacity="1.00"/>
            <stop offset="0.95" stop-color="#59A012" stop-opacity="1.00"/>
        </linearGradient>
        <linearGradient x1="-3.59" y1="-8.06" x2="-14.21" y2="-47.74" gradientUnits="userSpaceOnUse" spreadMethod="pad" id="G40">
            <stop offset="0.00" stop-color="#BCE20F" stop-opacity="1.00"/>
            <stop offset="0.44" stop-color="#8ED40D" stop-opacity="1.00"/>
            <stop offset="0.95" stop-color="#59A012" stop-opacity="1.00"/>
        </linearGradient>
        <linearGradient x1="-2.32" y1="-17.86" x2="-14.98" y2="-47.64" gradientUnits="userSpaceOnUse" spreadMethod="pad" id="G41">
            <stop offset="0.00" stop-color="#CEF042" stop-opacity="1.00"/>
            <stop offset="1.00" stop-color="#71B510" stop-opacity="1.00"/>
        </linearGradient>
    </defs>
    <g transform="scale(6.95,6.95) translate(71.67,55.24)">
        <path fill="url(#G1)" d="M1.75,9.45 L1.65,11.25 L1.65,12.65 Q2.65,8.00 3.55,8.75 L0.60,17.90 Q2.90,17.65 1.85,20.25 Q3.50,23.90 -0.65,23.85 L-1.15,23.50 Q1.60,23.00 -0.90,14.20 Q-0.70,14.55 -0.10,11.15 Q0.85,5.00 1.65,3.15 L2.05,2.35 L2.40,1.80 Q-0.50,15.05 0.30,15.75 L1.75,9.45 M-4.00,7.35 L-4.05,6.00 Q-2.80,6.70 -1.65,10.45 L-1.60,10.75 Q-4.85,2.65 -2.90,9.55 L-4.00,7.35 M-1.70,14.65 Q-0.35,16.85 -1.40,21.50 L-0.65,22.40 Q-3.25,22.60 -1.10,26.70 Q-2.80,27.70 -1.55,28.40 Q-1.50,35.65 -2.55,37.95 Q1.15,40.95 -2.65,41.50 Q0.05,45.00 -3.45,46.25 Q-2.20,47.75 2.70,46.35 Q-5.00,46.65 -0.10,44.70 Q-1.40,44.80 3.25,43.70 Q-4.35,43.50 2.30,40.30 Q-0.30,39.80 0.10,38.50 Q6.20,37.95 0.75,37.20 Q0.20,34.95 2.20,34.45 Q-0.15,34.00 0.75,29.20 Q0.55,28.75 0.35,28.70 Q2.90,27.15 -0.65,23.90 Q4.35,23.35 2.60,35.70 Q5.60,37.75 2.50,40.85 Q5.10,42.25 3.70,43.30 Q5.65,44.50 -0.45,45.40 Q2.20,45.55 4.55,46.05 Q3.60,46.55 3.70,46.85 Q5.80,49.60 -0.55,49.35 Q-5.20,53.90 -3.15,33.95 Q-4.45,35.55 -1.70,14.65 Z"/>
        <path fill="url(#G2)" d="M-1.70,14.65 Q-4.45,35.55 -3.15,33.95 Q-5.20,53.90 -0.55,49.35 Q5.80,49.60 3.70,46.85 Q3.60,46.55 4.55,46.05 Q2.20,45.55 -0.45,45.40 Q5.65,44.50 3.70,43.30 Q5.10,42.25 2.50,40.85 Q5.60,37.75 2.60,35.70 Q4.35,23.35 -0.65,23.90 L-0.75,23.85 L-0.65,23.85 Q3.50,23.90 1.85,20.25 Q2.90,17.65 0.60,17.90 L3.55,8.75 Q3.60,9.20 3.60,9.30 Q3.70,8.60 3.45,10.75 Q3.35,10.90 3.30,12.10 Q2.95,9.10 6.05,48.10 Q5.90,51.65 -2.65,50.45 Q-4.40,50.00 -4.85,48.80 L-4.90,48.95 Q-2.90,5.00 -4.00,7.35 L-2.90,9.55 Q-1.60,13.00 -1.70,14.65 Z"/>
        <path fill="#2EC51E" fill-opacity="1.00" d="M30.30,-35.10 L27.50,-34.35 Q28.75,-32.80 29.95,-30.30 L29.85,-30.15 Q25.50,-33.15 24.15,-33.10 Q25.55,-31.40 26.15,-30.40 Q21.90,-34.95 14.00,-25.40 L18.60,-23.00 Q7.55,-25.10 7.20,-16.00 L6.05,-15.85 L6.45,-16.35 Q7.60,-21.65 14.60,-28.15 L15.95,-29.35 L17.40,-30.45 Q27.25,-37.30 30.30,-35.10 M45.95,-37.20 Q51.30,-39.35 52.60,-39.15 Q47.95,-40.35 38.95,-34.60 Q39.80,-37.90 31.45,-35.40 L30.60,-36.40 Q61.85,-44.10 51.90,-36.00 Q48.45,-33.95 46.25,-29.75 Q41.20,-20.45 39.70,-22.80 Q43.75,-27.25 39.10,-31.80 Q46.30,-26.70 43.75,-33.00 Q41.75,-36.55 47.40,-33.40 Q51.05,-37.05 52.85,-37.45 Q51.60,-37.95 46.00,-37.10 L45.95,-37.20 M39.25,-22.25 Q38.90,-16.90 34.30,-24.70 Q37.05,-18.00 28.30,-13.75 L25.95,-11.80 L25.95,-11.75 L24.05,-10.50 L23.70,-10.35 Q22.45,-9.60 19.65,-9.25 L18.20,-9.30 Q14.80,-10.15 13.30,-8.65 L12.90,-8.25 L11.65,-7.20 Q10.85,-6.70 10.00,-6.50 Q9.20,-6.40 8.20,-6.35 L8.10,-6.45 Q12.80,-9.40 12.80,-9.60 Q13.35,-7.75 11.70,-13.30 L11.80,-13.35 Q18.05,-9.90 15.95,-11.05 Q22.15,-10.65 21.75,-11.35 Q15.45,-21.20 22.25,-13.30 Q21.75,-13.85 23.25,-12.15 Q22.15,-20.05 20.35,-21.05 L20.40,-21.10 Q23.55,-21.35 30.00,-15.80 Q35.75,-19.20 32.95,-27.70 Q38.40,-19.75 39.25,-22.25 M40.80,-6.25 L41.00,-6.15 Q39.50,-5.15 38.50,-2.60 Q42.65,-4.45 44.55,-4.35 L41.45,-0.75 Q42.85,-2.15 45.20,-3.95 L47.85,-2.30 L44.90,1.80 L49.25,-1.25 L49.75,-0.90 Q47.45,0.50 47.50,2.05 Q47.80,1.10 50.30,0.10 L48.25,2.20 Q53.15,-0.20 51.50,0.65 L52.25,1.40 Q50.50,2.30 49.20,3.55 Q51.75,3.55 55.10,6.45 Q55.20,7.20 54.90,7.75 Q42.85,10.55 43.30,3.00 Q43.55,14.30 41.20,1.90 Q40.80,4.20 40.85,7.90 L39.45,7.35 Q39.50,4.05 39.25,3.60 L38.75,7.00 Q36.85,8.15 38.10,1.75 Q35.55,7.95 31.60,6.10 L32.10,3.75 Q31.85,4.05 31.15,6.00 L29.00,5.40 Q29.50,1.80 30.10,0.90 Q29.30,1.20 27.70,4.95 Q27.30,4.80 30.20,-0.40 Q22.65,8.55 28.00,-0.80 Q23.90,4.25 23.55,3.70 L23.45,3.70 Q23.40,3.05 27.30,-1.50 Q22.40,4.65 19.15,5.10 L20.45,-0.60 Q18.70,2.85 16.75,5.45 L16.65,5.55 Q14.20,6.00 8.40,1.90 Q10.75,2.45 12.25,3.45 Q12.75,0.35 13.70,-0.15 L13.70,-0.05 Q12.90,3.25 13.15,2.20 Q15.10,7.00 19.15,-1.60 Q29.80,-3.40 50.00,3.90 Q29.15,-4.60 19.10,-2.40 Q29.25,-10.60 21.40,-3.00 Q23.80,-2.35 25.95,-5.85 L26.00,-5.85 Q28.25,-8.25 30.20,-9.60 Q28.95,-8.40 25.60,-3.25 Q27.60,-5.95 32.60,-9.35 L35.60,-8.45 Q31.50,-5.50 31.55,-2.50 Q33.85,-3.90 40.80,-6.25 M31.55,27.20 Q31.10,33.20 17.85,27.70 Q5.35,18.95 15.65,15.95 L15.65,16.00 Q8.20,20.20 13.00,22.75 Q18.40,12.75 21.30,20.10 Q18.45,14.20 14.10,23.50 Q29.45,36.70 21.65,20.65 Q22.85,20.50 23.70,21.40 L27.10,25.50 L23.10,19.65 Q18.95,15.05 23.55,15.00 Q16.90,15.30 19.25,15.20 L19.15,15.10 Q21.95,13.85 25.25,14.05 Q24.15,12.55 19.05,13.95 L19.00,13.90 L23.25,12.20 Q17.10,12.95 15.85,11.95 L21.80,10.30 Q8.35,10.30 17.55,8.05 Q28.25,12.10 31.55,27.20 M-24.05,14.75 Q-27.25,15.80 -27.15,13.50 Q-19.70,13.30 -31.50,4.65 L-31.50,4.60 L-18.60,12.50 Q-12.05,5.85 -24.55,1.85 L-22.70,1.45 Q-17.20,0.40 -11.20,1.80 Q-14.35,2.90 -16.05,9.45 Q-16.35,11.65 -18.10,12.70 L-19.35,13.40 Q-20.80,14.05 -24.05,14.75 M-28.30,13.70 Q-27.20,17.80 -35.35,13.35 Q-41.25,17.40 -46.20,17.30 Q-57.75,20.55 -51.45,10.10 Q-46.95,9.60 -53.75,17.05 L-44.25,15.65 L-46.65,13.80 Q-40.05,17.15 -37.40,12.00 L-36.10,12.50 L-36.00,12.50 L-39.05,8.85 Q-37.05,10.00 -34.15,13.05 L-34.05,13.15 L-34.05,13.05 L-35.20,6.85 Q-32.60,14.85 -28.30,13.70 M-46.85,3.00 L-47.55,3.30 L-47.25,3.00 Q-45.35,1.00 -42.40,0.75 L-38.50,4.25 L-38.50,4.35 Q-42.05,2.75 -45.25,2.25 L-43.65,3.70 Q-46.00,2.70 -46.85,3.00 Q-46.90,2.95 -47.25,3.00 Q-46.90,2.95 -46.85,3.00 M-34.60,-2.05 L-33.95,-2.70 L-32.25,-0.45 Q-34.35,-1.95 -34.60,-2.05 M-29.85,-6.35 L-28.50,-7.20 Q-26.50,-4.80 -25.90,-2.00 L-25.95,-1.95 Q-27.15,-4.35 -29.90,-6.25 L-29.85,-6.35 M41.45,-0.75 L41.45,-0.75 M6.40,13.10 Q11.90,8.85 13.30,12.70 Q12.30,12.70 8.05,15.80 Q8.05,15.90 8.10,15.90 Q13.35,13.15 13.85,13.35 Q9.80,16.35 8.80,17.40 Q21.45,9.20 9.65,19.40 Q2.50,9.40 10.35,9.90 L6.35,13.00 Q6.35,13.10 6.40,13.10 Z"/>
        <path fill="#67D117" fill-opacity="1.00" d="M6.40,13.10 L6.35,13.00 L10.35,9.90 Q2.50,9.40 9.65,19.40 Q21.45,9.20 8.80,17.40 Q9.80,16.35 13.85,13.35 Q13.35,13.15 8.10,15.90 L8.05,15.80 Q12.30,12.70 13.30,12.70 Q11.90,8.85 6.40,13.10 M29.95,-30.30 Q28.75,-32.80 27.50,-34.35 L30.30,-35.10 Q33.75,-32.35 31.45,-35.40 Q39.80,-37.90 38.95,-34.60 Q47.95,-40.35 52.60,-39.15 Q51.30,-39.35 45.95,-37.20 L45.70,-37.05 L46.00,-37.10 Q51.60,-37.95 52.85,-37.45 Q51.05,-37.05 47.40,-33.40 Q41.75,-36.55 43.75,-33.00 Q46.30,-26.70 39.10,-31.80 Q43.75,-27.25 39.70,-22.80 Q36.55,-24.85 39.25,-22.25 Q38.40,-19.75 32.95,-27.70 Q35.75,-19.20 30.00,-15.80 Q23.55,-21.35 20.40,-21.10 L20.25,-21.10 L20.35,-21.05 Q22.15,-20.05 23.25,-12.15 Q21.75,-13.85 22.25,-13.30 Q15.45,-21.20 21.75,-11.35 Q22.15,-10.65 15.95,-11.05 Q18.05,-9.90 11.80,-13.35 L11.65,-13.35 L11.70,-13.30 Q13.35,-7.75 12.80,-9.60 Q12.80,-9.40 8.10,-6.45 L7.95,-6.35 L6.65,-6.30 L5.30,-6.30 Q9.35,-12.00 13.80,-16.20 Q23.10,-25.15 42.65,-35.60 Q13.85,-21.50 3.60,-7.00 Q2.35,-11.05 6.05,-15.85 L7.20,-16.00 Q7.55,-25.10 18.60,-23.00 L14.00,-25.40 Q21.90,-34.95 26.15,-30.40 Q25.55,-31.40 24.15,-33.10 Q25.50,-33.15 29.85,-30.15 L30.00,-30.05 L29.95,-30.30 M29.60,-26.35 L29.75,-26.35 L29.70,-26.45 L29.60,-26.35 M38.55,-7.25 L40.80,-6.25 Q33.85,-3.90 31.55,-2.50 Q31.50,-5.50 35.60,-8.45 L38.55,-7.25 M44.55,-4.35 L45.20,-3.95 Q42.85,-2.15 41.45,-0.75 L44.55,-4.35 M47.85,-2.30 L49.25,-1.25 L44.90,1.80 L47.85,-2.30 M49.75,-0.90 L51.50,0.65 Q53.15,-0.20 48.25,2.20 L50.30,0.10 Q47.80,1.10 47.50,2.05 Q47.45,0.50 49.75,-0.90 M52.25,1.40 Q54.60,3.90 55.10,6.45 Q51.75,3.55 49.20,3.55 Q50.50,2.30 52.25,1.40 M54.90,7.75 Q54.25,8.95 51.85,9.00 Q37.85,9.75 39.45,7.35 L40.85,7.90 Q40.80,4.20 41.20,1.90 Q43.55,14.30 43.30,3.00 Q42.85,10.55 54.90,7.75 M38.75,7.00 Q31.15,7.60 31.60,6.10 Q35.55,7.95 38.10,1.75 Q36.85,8.15 38.75,7.00 M31.15,6.00 Q28.60,7.85 29.00,5.40 L31.15,6.00 M27.70,4.95 Q27.70,6.10 22.80,4.65 Q16.20,8.40 7.90,2.35 Q6.75,1.70 6.50,1.45 Q7.55,0.85 7.20,1.05 Q11.30,-0.75 19.15,-1.60 Q15.10,7.00 13.15,2.20 Q12.90,3.25 13.70,-0.05 L13.90,-0.25 L13.70,-0.15 Q12.75,0.35 12.25,3.45 Q10.75,2.45 8.40,1.90 Q14.20,6.00 16.65,5.55 Q16.75,5.50 16.80,5.50 Q16.75,5.50 16.75,5.45 Q18.70,2.85 20.45,-0.60 L19.15,5.10 Q22.40,4.65 27.30,-1.50 Q23.40,3.05 23.45,3.70 L23.55,3.70 Q23.90,4.25 28.00,-0.80 Q22.65,8.55 30.20,-0.40 Q27.30,4.80 27.70,4.95 M3.70,7.00 Q3.80,6.50 4.35,6.10 L4.40,6.15 L5.30,6.55 Q3.60,7.45 6.75,7.75 Q3.05,10.90 9.50,9.30 Q10.20,9.15 12.60,10.60 Q18.25,15.20 23.70,21.40 Q22.85,20.50 21.65,20.65 Q29.45,36.70 14.10,23.50 Q18.45,14.20 21.30,20.10 Q18.40,12.75 13.00,22.75 Q8.20,20.20 15.65,16.00 L15.70,15.95 L15.65,15.95 Q5.35,18.95 17.85,27.70 Q7.75,21.55 4.45,9.15 Q3.50,7.10 3.70,7.00 M5.35,5.60 Q7.90,4.55 10.05,5.90 Q8.25,5.75 6.85,6.15 L5.35,5.60 M13.30,7.30 Q27.40,7.15 31.55,27.20 Q28.25,12.10 17.55,8.05 Q8.35,10.30 21.80,10.30 L15.85,11.95 Q17.10,12.95 23.25,12.20 L19.00,13.90 L18.90,13.95 L19.05,13.95 Q24.15,12.55 25.25,14.05 Q21.95,13.85 19.15,15.10 Q16.45,12.25 12.60,9.40 Q12.25,8.05 13.30,7.30 M-27.15,13.50 Q-28.65,8.85 -31.95,6.65 Q-29.95,8.50 -28.30,13.70 Q-32.60,14.85 -35.20,6.85 L-34.05,13.05 L-34.15,13.05 Q-37.05,10.00 -39.05,8.85 L-36.00,12.50 L-36.10,12.50 L-37.40,12.00 Q-40.05,17.15 -46.65,13.80 L-44.25,15.65 L-53.75,17.05 Q-46.95,9.60 -51.45,10.10 Q-49.80,3.05 -42.75,4.85 Q-44.25,3.50 -46.85,3.00 Q-46.00,2.70 -43.65,3.70 L-45.25,2.25 Q-42.05,2.75 -38.50,4.35 L-38.50,4.25 L-42.40,0.75 Q-36.70,0.40 -34.60,-2.05 Q-34.35,-1.95 -32.25,-0.45 L-33.95,-2.70 L-30.00,-6.30 L-29.90,-6.25 Q-27.15,-4.35 -25.95,-1.95 L-25.90,-2.00 Q-26.50,-4.80 -28.50,-7.20 L-27.90,-7.60 Q-21.20,-7.10 -18.35,-2.45 Q-37.65,0.60 -53.75,17.05 Q-38.30,4.15 -25.80,0.55 L-22.70,1.45 L-24.55,1.85 Q-12.05,5.85 -18.60,12.50 L-31.50,4.60 L-31.65,4.50 L-31.50,4.65 Q-19.70,13.30 -27.15,13.50 M6.10,-0.70 Q6.70,-2.05 9.35,-3.40 Q10.05,-3.95 15.35,-3.90 Q16.00,-4.10 19.10,-6.25 L19.10,-6.30 Q20.45,-7.25 21.95,-8.05 Q23.55,-8.85 25.25,-9.35 L26.00,-9.50 Q25.90,-9.50 26.40,-9.55 L26.35,-9.60 Q26.70,-9.90 30.40,-9.80 L30.45,-9.75 L30.45,-9.80 L30.60,-9.80 L32.60,-9.35 Q27.60,-5.95 25.60,-3.25 Q28.95,-8.40 30.20,-9.60 Q28.25,-8.25 26.00,-5.85 Q25.95,-5.95 25.85,-5.80 Q25.90,-5.80 25.95,-5.85 Q23.80,-2.35 21.40,-3.00 Q29.25,-10.60 19.10,-2.40 Q9.00,-1.10 5.65,0.85 L5.60,0.80 Q5.70,0.00 6.10,-0.70 M-20.70,-32.40 Q-19.90,-27.50 -20.05,-27.75 L-20.20,-27.75 Q-39.80,-44.35 -20.00,-27.05 L-19.30,-26.35 L-18.20,-25.30 Q-18.60,-24.90 -18.10,-24.05 Q-20.25,-22.25 -24.20,-21.50 Q-22.40,-27.75 -23.10,-28.25 L-23.35,-28.65 L-23.15,-28.25 Q-25.95,-28.10 -29.95,-27.30 Q-29.40,-28.10 -26.75,-29.65 L-26.70,-29.70 L-26.75,-29.70 Q-37.95,-28.95 -28.05,-32.15 Q-32.90,-32.50 -33.25,-33.55 Q-36.95,-42.80 -32.65,-39.30 Q-32.75,-39.20 -32.45,-39.00 Q-31.85,-37.95 -32.30,-38.90 Q-31.75,-37.85 -33.35,-40.75 L-33.30,-40.75 L-20.40,-28.55 Q-20.85,-31.35 -20.75,-32.40 L-20.70,-32.40 M-19.45,-15.75 L-19.30,-15.75 L-19.45,-15.75 M25.25,2.65 L25.25,2.65 M19.25,15.20 Q16.90,15.30 23.55,15.00 Q18.95,15.05 23.10,19.65 Q25.00,21.85 19.25,15.20 M9.70,19.40 L9.65,19.40 L9.60,19.45 L9.70,19.40 Z"/>
        <path fill="url(#G3)" d="M29.60,-26.35 L29.70,-26.45 L29.75,-26.35 L29.60,-26.35 Z"/>
        <path fill="url(#G4)" d="M29.85,-30.15 L29.95,-30.30 L30.00,-30.05 L29.85,-30.15 M20.40,-21.10 L20.35,-21.05 L20.25,-21.10 L20.40,-21.10 M11.80,-13.35 L11.70,-13.30 L11.65,-13.35 L11.80,-13.35 M8.10,-6.45 L8.20,-6.35 L7.95,-6.35 L8.10,-6.45 M46.00,-37.10 L45.70,-37.05 L45.95,-37.20 L46.00,-37.10 Z"/>
        <path fill="url(#G5)" d="M-0.25,-39.00 L2.30,-39.65 L2.40,-39.60 L-0.25,-39.00 M12.70,-37.25 L12.70,-37.20 L12.60,-37.25 L12.70,-37.25 M10.60,-34.05 L10.60,-34.00 L10.50,-34.05 L10.60,-34.05 M-0.20,-35.75 L-0.20,-35.60 L-0.30,-35.65 L-0.20,-35.75 Z"/>
        <path fill="#18810B" fill-opacity="1.00" d="M-0.20,-35.75 L-0.30,-35.65 L-0.20,-35.60 Q8.10,-33.50 6.00,-32.15 L4.75,-29.60 Q1.60,-31.50 -0.75,-31.50 Q2.90,-30.10 4.25,-28.80 L4.20,-28.70 Q3.75,-29.25 2.25,-29.30 Q3.80,-28.35 4.10,-27.95 L3.50,-26.25 Q-1.05,-26.05 -1.50,-25.75 L-3.60,-28.05 Q-3.45,-41.20 8.15,-37.70 Q6.20,-38.70 -0.25,-39.00 L2.40,-39.60 Q5.05,-40.25 9.00,-38.80 Q8.60,-40.05 5.15,-41.20 Q11.20,-40.50 18.00,-36.30 Q15.70,-36.95 12.70,-37.25 L12.60,-37.25 L12.70,-37.20 Q19.55,-35.30 17.50,-32.80 Q16.95,-29.90 10.60,-34.05 L10.50,-34.05 L10.60,-34.00 Q13.10,-32.95 15.95,-29.35 L14.60,-28.15 Q10.95,-29.75 8.85,-30.00 Q16.25,-27.50 4.20,-18.85 Q3.40,-23.25 8.05,-22.75 Q-0.05,-26.45 8.65,-24.80 L8.70,-24.80 L8.65,-24.85 Q7.25,-25.50 4.45,-26.15 Q7.10,-33.90 11.05,-38.00 Q9.05,-36.85 7.35,-34.35 Q5.50,-35.90 -0.20,-35.75 M-26.15,-19.65 Q-25.60,-19.40 -24.85,-18.80 Q-20.05,-17.50 -19.45,-15.75 Q-27.45,-19.40 -31.25,-18.45 Q-26.85,-19.80 -25.45,-18.60 Q-26.05,-19.55 -26.15,-19.65 Z"/>
        <path fill="#1E9210" fill-opacity="1.00" d="M-26.15,-19.65 Q-26.05,-19.55 -25.45,-18.60 Q-26.85,-19.80 -31.25,-18.45 L-32.25,-18.25 L-31.80,-18.30 L-36.40,-15.05 Q-34.05,-15.20 -28.35,-17.50 L-28.30,-17.45 L-31.40,-15.45 Q-24.75,-13.15 -22.10,-15.55 Q-26.80,-11.15 -21.80,-14.45 Q-23.50,-9.85 -19.05,-13.40 Q-21.05,-11.75 -16.35,-7.30 L-16.40,-7.30 Q-19.80,-10.65 -28.05,-13.85 Q-35.10,-15.50 -40.15,-12.70 Q-33.85,-21.35 -26.15,-19.65 M17.40,-30.45 L15.95,-29.35 Q13.10,-32.95 10.60,-34.00 L10.60,-34.05 Q16.95,-29.90 17.50,-32.80 Q19.55,-35.30 12.70,-37.20 L12.70,-37.25 Q15.70,-36.95 18.00,-36.30 Q11.20,-40.50 5.15,-41.20 Q8.60,-40.05 9.00,-38.80 Q5.05,-40.25 2.40,-39.60 L2.30,-39.65 L3.35,-39.90 Q2.60,-40.95 -0.30,-41.00 Q6.10,-42.90 13.10,-40.80 Q24.75,-37.45 17.40,-30.45 M28.30,-13.75 Q34.95,-13.30 37.70,-10.20 Q35.90,-10.80 25.95,-11.80 L28.30,-13.75 M-9.25,8.05 Q-8.85,11.65 -13.85,15.90 Q-15.00,16.55 -14.50,19.15 L-14.60,19.10 Q-21.70,10.85 -14.05,14.50 Q-13.95,14.50 -13.95,14.45 Q-17.80,11.70 -14.25,8.35 Q-11.65,5.55 -9.25,8.05 M-14.50,19.70 Q-27.40,34.15 -24.45,15.95 Q-23.55,14.95 -20.70,14.70 Q-21.25,16.00 -24.15,17.90 L-21.20,16.45 Q-21.80,18.95 -24.80,21.55 L-24.90,21.75 L-24.70,21.60 Q-23.50,20.55 -22.60,20.35 Q-24.10,23.20 -23.30,26.25 Q-21.10,15.65 -18.35,20.10 Q-18.25,19.50 -19.55,17.10 Q-17.20,16.85 -14.60,19.65 L-14.50,19.70 M-3.60,-23.65 Q-5.15,-34.80 -0.25,-39.00 Q6.20,-38.70 8.15,-37.70 Q-3.45,-41.20 -3.60,-28.05 L-3.60,-23.65 M8.20,-6.35 Q9.20,-6.40 10.00,-6.50 Q9.60,-5.25 9.35,-3.40 Q6.70,-2.05 6.10,-0.70 L7.40,-5.50 L8.20,-6.35 M13.30,-8.65 Q14.80,-10.15 18.20,-9.30 L19.10,-6.30 L19.10,-6.25 Q16.00,-4.10 15.35,-3.90 Q14.25,-7.45 13.30,-8.65 M19.65,-9.25 Q22.45,-9.60 23.70,-10.35 L25.25,-9.35 Q23.55,-8.85 21.95,-8.05 L19.65,-9.25 M24.05,-10.50 L25.95,-11.75 Q27.85,-11.40 30.50,-9.85 L30.45,-9.80 L30.40,-9.80 Q26.70,-9.90 26.35,-9.60 L24.05,-10.50 M5.15,-41.20 Q5.10,-41.25 5.00,-41.25 L5.15,-41.20 M6.00,-32.15 Q8.10,-33.50 -0.20,-35.60 L-0.20,-35.75 Q5.50,-35.90 7.35,-34.35 Q8.05,-35.55 6.00,-32.15 M4.25,-28.80 Q2.90,-30.10 -0.75,-31.50 Q1.60,-31.50 4.75,-29.60 L4.10,-27.95 Q3.80,-28.35 2.25,-29.30 Q3.75,-29.25 4.20,-28.70 L4.25,-28.65 L4.25,-28.80 Z"/>
        <path fill="url(#G6)" d="M4.25,-28.80 L4.25,-28.65 L4.20,-28.70 L4.25,-28.80 M5.15,-41.20 L5.00,-41.25 Q5.10,-41.25 5.15,-41.20 Z"/>
        <path fill="#DAF567" fill-opacity="1.00" d="M3.95,3.00 Q3.00,3.90 2.55,5.05 Q3.35,2.65 3.90,1.60 L5.60,0.85 L5.65,0.85 Q9.00,-1.10 19.10,-2.40 Q29.15,-4.60 50.00,3.90 Q29.80,-3.40 19.15,-1.60 Q11.30,-0.75 7.20,1.05 Q7.55,0.85 6.50,1.45 Q5.90,1.70 5.60,1.90 Q5.10,2.05 3.95,3.00 M4.40,6.10 L5.35,5.60 L6.85,6.15 Q9.60,7.25 12.60,9.40 Q16.45,12.25 19.15,15.10 L19.25,15.20 Q25.00,21.85 23.10,19.65 L27.10,25.50 L23.70,21.40 Q18.25,15.20 12.60,10.60 Q8.80,7.50 5.30,6.55 L4.40,6.15 L4.40,6.10 M6.00,-32.15 Q8.05,-35.55 7.35,-34.35 Q9.05,-36.85 11.05,-38.00 Q7.10,-33.90 4.45,-26.15 Q2.70,-20.60 1.50,-13.45 L0.15,-2.60 L0.05,-2.60 L-0.35,-7.00 Q-0.20,-10.40 0.40,-14.00 Q1.45,-19.95 3.50,-26.25 L4.10,-27.95 L4.75,-29.60 L6.00,-32.15 M3.60,-7.00 Q13.85,-21.50 42.65,-35.60 Q23.10,-25.15 13.80,-16.20 Q5.20,-10.20 0.80,1.30 Q0.60,0.65 1.30,-3.20 Q3.15,-6.50 3.60,-7.00 M-18.20,-25.30 L-19.30,-26.35 L-18.45,-26.20 L-17.85,-25.65 L-13.65,-21.55 L-12.10,-20.00 Q-4.95,-12.05 -2.25,-6.65 L-2.30,-3.50 L-2.40,-3.50 Q-2.85,-6.80 -4.40,-9.05 L-9.70,-16.25 Q-13.50,-20.80 -18.20,-25.30 M-20.00,-27.05 Q-39.80,-44.35 -20.20,-27.75 L-20.05,-27.60 L-20.00,-27.05 M-9.40,-2.15 Q-4.00,-0.65 -1.65,5.35 Q-0.85,7.60 -0.35,9.70 Q-0.25,10.65 -0.40,10.25 Q-3.45,3.10 -6.40,1.50 L-6.50,1.40 L-6.65,1.35 Q-15.00,-2.50 -25.80,0.55 Q-38.30,4.15 -53.75,17.05 Q-37.65,0.60 -18.35,-2.45 L-9.40,-2.15 M-2.45,-17.40 Q-0.40,-8.80 -0.65,1.40 Q-2.90,-19.15 -4.50,-23.85 Q-3.80,-22.95 -2.45,-17.40 Z"/>
        <path fill="url(#G7)" d="M-3.60,-23.20 L-3.60,-23.65 L-3.60,-28.05 L-1.50,-25.75 Q-1.05,-26.05 3.50,-26.25 Q1.45,-19.95 0.40,-14.00 Q0.65,-15.00 -2.00,-18.05 L-3.60,-23.20 M8.65,-24.85 L8.70,-24.80 L8.65,-24.80 L8.65,-24.85 Z"/>
        <path fill="#175607" fill-opacity="1.00" d="M8.65,-24.85 L8.65,-24.80 Q-0.05,-26.45 8.05,-22.75 Q3.40,-23.25 4.20,-18.85 Q16.25,-27.50 8.85,-30.00 Q10.95,-29.75 14.60,-28.15 Q7.60,-21.65 6.45,-16.35 Q5.65,-15.85 4.85,-15.55 L4.55,-15.45 Q2.30,-15.10 1.50,-13.45 Q2.70,-20.60 4.45,-26.15 Q7.25,-25.50 8.65,-24.85 M-11.40,3.35 Q-9.55,5.85 -9.25,8.05 Q-11.65,5.55 -14.25,8.35 Q-17.80,11.70 -13.95,14.45 L-14.05,14.50 Q-21.70,10.85 -14.60,19.10 L-14.60,19.65 Q-17.20,16.85 -19.55,17.10 Q-18.25,19.50 -18.35,20.10 Q-21.10,15.65 -23.30,26.25 Q-24.10,23.20 -22.60,20.35 Q-23.50,20.55 -24.70,21.60 L-24.80,21.55 Q-21.80,18.95 -21.20,16.45 L-24.15,17.90 Q-21.25,16.00 -20.70,14.70 Q-23.55,14.95 -24.45,15.95 L-24.05,14.75 Q-20.80,14.05 -19.35,13.40 Q-20.50,14.65 -22.60,22.35 Q-21.05,17.65 -18.10,12.70 Q-16.35,11.65 -16.05,9.45 Q-13.90,6.25 -11.45,3.35 L-11.40,3.35 M-28.05,-13.85 Q-43.25,-5.65 -40.15,-12.70 Q-35.10,-15.50 -28.05,-13.85 M-22.60,22.35 Q-22.70,22.55 -22.70,22.60 L-22.60,22.35 M-22.60,20.35 Q-22.55,20.35 -22.55,20.25 L-22.60,20.35 Z"/>
        <path fill="url(#G8)" d="M-4.05,6.00 Q-4.25,5.20 -5.25,3.15 Q-5.85,2.05 -6.40,1.50 Q-3.45,3.10 -0.40,10.25 Q-0.40,11.80 -1.65,10.45 Q-2.80,6.70 -4.05,6.00 M13.80,-16.20 Q9.35,-12.00 5.30,-6.30 L3.40,-3.20 Q2.30,-1.10 1.90,0.65 L1.75,1.25 Q0.30,4.40 0.05,6.85 L0.05,4.65 L0.20,2.70 L0.20,0.45 L0.20,2.70 L0.05,4.65 Q0.05,0.55 0.15,0.20 Q0.15,0.50 0.20,0.45 Q0.30,-1.20 1.30,-3.20 Q0.60,0.65 0.80,1.30 Q5.20,-10.20 13.80,-16.20 M-1.65,5.35 L-2.35,-3.00 L-2.30,-3.50 L-2.25,-6.65 L-1.95,-5.50 L-1.60,2.05 L-1.10,3.50 Q-1.40,2.70 0.05,7.00 L-0.35,9.70 Q-0.85,7.60 -1.65,5.35 L-1.60,2.05 L-1.65,5.35 Z"/>
        <path fill="url(#G9)" d="M6.65,-6.30 L7.95,-6.35 L8.20,-6.35 L7.40,-5.50 Q4.20,-2.85 1.90,0.65 Q2.30,-1.10 3.40,-3.20 Q4.85,-4.90 6.65,-6.30 Z"/>
        <path fill="url(#G10)" d="M-2.20,-8.60 Q-3.95,-23.70 -7.75,-30.05 L-3.60,-23.20 L-2.00,-18.05 Q-1.15,-14.70 -0.35,-7.00 L0.05,-2.60 L0.15,-2.60 L0.15,-0.10 L0.15,0.10 L0.15,0.15 L0.15,0.20 Q0.05,0.55 0.05,4.65 L0.05,6.85 L0.05,7.00 Q-1.40,2.70 -1.10,3.50 L-1.60,2.05 L-1.95,-5.50 L-2.05,-6.65 L-2.20,-8.60 M0.05,-2.60 L0.15,-0.10 L0.05,-2.60 M-2.35,-3.00 L-2.40,-3.50 L-2.30,-3.50 L-2.35,-3.00 M-2.45,-17.40 Q-3.80,-22.95 -4.50,-23.85 Q-2.90,-19.15 -0.65,1.40 Q-0.40,-8.80 -2.45,-17.40 Z"/>
        <path fill="#1E6D0A" fill-opacity="1.00" d="M37.70,-10.20 Q38.75,-8.85 38.55,-7.25 L35.60,-8.45 L32.60,-9.35 L30.60,-9.80 L30.50,-9.85 Q27.85,-11.40 25.95,-11.75 L25.95,-11.80 Q35.90,-10.80 37.70,-10.20 M10.00,-6.50 Q10.85,-6.70 11.65,-7.20 L12.90,-8.25 L13.30,-8.65 Q14.25,-7.45 15.35,-3.90 Q10.05,-3.95 9.35,-3.40 Q9.60,-5.25 10.00,-6.50 M18.20,-9.30 L19.65,-9.25 L21.95,-8.05 Q20.45,-7.25 19.10,-6.30 L18.20,-9.30 M23.70,-10.35 L24.05,-10.50 L26.35,-9.60 L26.00,-9.50 L25.25,-9.35 L23.70,-10.35 M1.75,1.25 L1.90,0.65 Q4.20,-2.85 7.40,-5.50 L6.10,-0.70 Q5.70,0.00 5.60,0.80 L5.60,0.85 L3.90,1.60 L4.40,0.65 Q3.30,0.55 2.40,1.80 L2.05,2.35 L1.65,2.30 Q1.65,2.00 1.75,1.25 M-28.30,-17.45 L-28.25,-17.50 L-28.35,-17.50 Q-34.05,-15.20 -36.40,-15.05 L-31.80,-18.30 Q-26.15,-18.75 -19.00,-14.85 Q-17.25,-11.35 -11.15,-9.95 Q-6.95,-6.55 -3.45,-0.20 Q-6.35,-7.05 -9.20,-9.20 L-9.10,-9.30 Q-2.20,-7.80 -2.40,-3.50 L-2.35,-3.00 L-1.65,5.35 Q-4.00,-0.65 -9.40,-2.15 Q-10.15,-5.05 -16.35,-7.30 Q-21.05,-11.75 -19.05,-13.40 Q-23.50,-9.85 -21.80,-14.45 Q-26.80,-11.15 -22.10,-15.55 Q-24.75,-13.15 -31.40,-15.45 L-28.30,-17.45 Z"/>
        <path fill="url(#G11)" d="M19.10,-6.30 L19.10,-6.25 L19.10,-6.30 Z"/>
        <path fill="url(#G12)" d="M13.70,-0.15 L13.90,-0.25 L13.70,-0.05 L13.70,-0.15 M23.45,3.70 L23.55,3.70 L23.45,3.70 Z"/>
        <path fill="url(#G13)" d="M26.35,-9.60 L26.40,-9.55 Q25.90,-9.50 26.00,-9.50 L26.35,-9.60 M30.40,-9.80 L30.45,-9.80 L30.45,-9.75 L30.40,-9.80 M26.00,-5.85 L25.95,-5.85 Q25.90,-5.80 25.85,-5.80 Q25.95,-5.95 26.00,-5.85 Z"/>
        <path fill="url(#G14)" d="M30.45,-9.80 L30.50,-9.85 L30.60,-9.80 L30.45,-9.80 Z"/>
        <path fill="url(#G15)" d="M41.45,-0.75 L41.45,-0.75 Z"/>
        <path fill="url(#G16)" d="M25.25,2.65 L25.25,2.65 Z"/>
        <path fill="url(#G17)" d="M16.75,5.45 Q16.75,5.50 16.80,5.50 Q16.75,5.50 16.65,5.55 L16.75,5.45 Z"/>
        <path fill="#7BDE18" fill-opacity="1.00" d="M10.05,5.90 Q12.35,7.05 13.30,7.30 Q12.25,8.05 12.60,9.40 Q9.60,7.25 6.85,6.15 Q8.25,5.75 10.05,5.90 M12.60,10.60 Q10.20,9.15 9.50,9.30 Q3.05,10.90 6.75,7.75 Q3.60,7.45 5.30,6.55 Q8.80,7.50 12.60,10.60 Z"/>
        <path fill="url(#G18)" d="M7.90,2.35 Q6.25,4.55 5.30,3.80 L5.60,1.90 Q5.90,1.70 6.50,1.45 Q6.75,1.70 7.90,2.35 Z"/>
        <path fill="url(#G19)" d="M5.30,3.80 Q3.35,2.50 3.95,3.00 Q5.10,2.05 5.60,1.90 L5.30,3.80 M5.65,0.85 L5.60,0.85 L5.60,0.80 L5.65,0.85 Z"/>
        <path fill="url(#G20)" d="M2.55,5.05 Q2.30,5.90 1.75,9.45 L0.30,15.75 Q-0.50,15.05 2.40,1.80 Q3.30,0.55 4.40,0.65 L3.90,1.60 Q3.35,2.65 2.55,5.05 Z"/>
        <path fill="url(#G21)" d="M0.05,6.85 Q0.30,4.40 1.75,1.25 Q1.65,2.00 1.65,2.30 L1.65,3.15 Q0.85,5.00 -0.10,11.15 Q-0.70,14.55 -0.90,14.20 Q0.20,20.10 -1.60,10.75 L-1.65,10.45 Q-0.40,11.80 -0.40,10.25 Q-0.25,10.65 -0.35,9.70 L0.05,7.00 L0.05,6.85 M-0.30,10.25 L-0.10,11.15 L-0.30,10.25 Z"/>
        <path fill="url(#G22)" d="M3.25,7.60 L3.70,7.00 Q3.50,7.10 4.45,9.15 Q3.75,10.05 3.45,10.75 Q3.70,8.60 3.60,9.30 Q4.05,8.45 3.25,7.60 Z"/>
        <path fill="url(#G23)" d="M3.25,7.60 Q4.05,8.45 3.60,9.30 Q3.60,9.20 3.55,8.75 Q2.65,8.00 1.65,12.65 L1.65,11.25 Q1.65,10.45 3.25,7.60 M19.00,13.90 L19.05,13.95 L18.90,13.95 L19.00,13.90 M15.65,16.00 L15.65,15.95 L15.70,15.95 L15.65,16.00 M9.70,19.40 L9.60,19.45 L9.65,19.40 L9.70,19.40 Z"/>
        <path fill="url(#G24)" d="M9.70,19.40 L9.65,19.40 L9.70,19.40 M8.05,15.80 L8.10,15.90 Q8.05,15.90 8.05,15.80 M6.35,13.00 L6.40,13.10 Q6.35,13.10 6.35,13.00 Z"/>
        <path fill="url(#G25)" d="M-1.70,14.65 Q-1.60,13.00 -2.90,9.55 Q-4.85,2.65 -1.60,10.75 Q0.20,20.10 -0.90,14.20 Q1.60,23.00 -1.15,23.50 L-0.65,23.85 L-0.75,23.85 L-0.65,23.90 Q2.90,27.15 0.35,28.70 Q0.55,28.75 0.75,29.20 Q-0.15,34.00 2.20,34.45 Q0.20,34.95 0.75,37.20 Q6.20,37.95 0.10,38.50 Q-0.30,39.80 2.30,40.30 Q-4.35,43.50 3.25,43.70 Q-1.40,44.80 -0.10,44.70 Q-5.00,46.65 2.70,46.35 Q-2.20,47.75 -3.45,46.25 Q0.05,45.00 -2.65,41.50 Q1.15,40.95 -2.55,37.95 Q-1.50,35.65 -1.55,28.40 Q-2.80,27.70 -1.10,26.70 Q-3.25,22.60 -0.65,22.40 L-1.40,21.50 Q-0.35,16.85 -1.70,14.65 Z"/>
        <path fill="url(#G26)" d="M-33.50,-40.90 Q-33.40,-40.85 -33.35,-40.80 L-33.30,-40.75 L-33.35,-40.75 L-33.50,-40.90 M-20.70,-32.40 L-20.75,-32.40 L-20.75,-33.10 L-20.70,-32.40 M-32.45,-39.00 Q-32.75,-39.20 -32.65,-39.30 L-32.45,-39.00 M-26.75,-29.70 L-26.70,-29.70 L-26.75,-29.65 L-26.75,-29.70 M-23.15,-28.25 L-23.35,-28.65 L-23.10,-28.25 L-23.15,-28.25 M-19.30,-26.35 L-20.00,-27.05 L-20.05,-27.60 L-18.45,-26.20 Q-16.60,-26.00 -17.85,-25.65 L-18.45,-26.20 L-19.30,-26.35 M-20.20,-27.75 L-20.05,-27.75 L-20.05,-27.60 L-20.20,-27.75 M-13.65,-21.55 L-12.10,-20.00 L-13.65,-21.55 Z"/>
        <path fill="#249C16" fill-opacity="1.00" d="M-13.65,-21.55 L-17.85,-25.65 Q-16.60,-26.00 -18.45,-26.20 L-20.05,-27.60 L-20.05,-27.75 Q-19.90,-27.50 -20.70,-32.40 L-20.75,-33.10 L-20.75,-32.40 Q-20.85,-31.35 -20.40,-28.55 L-33.30,-40.75 L-33.30,-40.80 Q-16.45,-35.90 -2.20,-8.60 L-2.05,-6.65 L-2.25,-6.65 Q-4.95,-12.05 -12.10,-20.00 L-13.65,-21.55 M-19.30,-15.75 Q-20.35,-16.60 -17.25,-23.00 Q-11.85,-16.95 -9.70,-16.25 L-4.40,-9.05 Q-19.00,-11.90 -19.30,-15.75 Z"/>
        <path fill="url(#G27)" d="M-33.35,-40.80 L-33.30,-40.80 L-33.30,-40.75 L-33.35,-40.80 M-33.35,-40.75 Q-31.75,-37.85 -32.30,-38.90 Q-31.85,-37.95 -32.45,-39.00 L-32.65,-39.30 L-33.35,-40.75 M-18.10,-24.05 Q-18.60,-24.90 -18.20,-25.30 Q-13.50,-20.80 -9.70,-16.25 Q-11.85,-16.95 -17.25,-23.00 L-18.10,-24.05 M-2.25,-6.65 L-2.05,-6.65 L-1.95,-5.50 L-2.25,-6.65 Z"/>
        <path fill="#2DB81D" fill-opacity="1.00" d="M-24.85,-18.80 Q-25.65,-18.30 -26.20,-24.80 Q-34.50,-23.35 -37.55,-37.75 Q-39.05,-41.70 -33.50,-40.90 L-33.35,-40.75 L-32.65,-39.30 Q-36.95,-42.80 -33.25,-33.55 Q-32.90,-32.50 -28.05,-32.15 Q-37.95,-28.95 -26.75,-29.70 L-26.75,-29.65 Q-29.40,-28.10 -29.95,-27.30 Q-25.95,-28.10 -23.15,-28.25 L-23.10,-28.25 Q-22.40,-27.75 -24.20,-21.50 Q-20.25,-22.25 -18.10,-24.05 L-17.25,-23.00 Q-20.35,-16.60 -19.30,-15.75 L-19.45,-15.75 Q-20.05,-17.50 -24.85,-18.80 Z"/>
        <path fill="url(#G28)" d="M-28.35,-17.50 L-28.25,-17.50 L-28.30,-17.45 L-28.35,-17.50 M-16.40,-7.30 L-16.35,-7.30 L-16.40,-7.30 Z"/>
        <path fill="url(#G29)" d="M-19.00,-14.85 Q-26.15,-18.75 -31.80,-18.30 L-32.25,-18.25 L-31.25,-18.45 Q-27.45,-19.40 -19.45,-15.75 Q-19.25,-15.15 -19.00,-14.85 Z"/>
        <path fill="#27B018" fill-opacity="1.00" d="M-27.90,-7.60 Q-23.65,-9.70 -16.40,-7.30 L-16.35,-7.30 Q-10.15,-5.05 -9.40,-2.15 L-18.35,-2.45 Q-21.20,-7.10 -27.90,-7.60 M-25.80,0.55 Q-15.00,-2.50 -6.65,1.35 L-6.65,1.40 Q-9.35,0.95 -11.20,1.80 Q-17.20,0.40 -22.70,1.45 L-25.80,0.55 Z"/>
        <path fill="url(#G30)" d="M-30.00,-6.30 L-29.85,-6.35 L-29.90,-6.25 L-30.00,-6.30 M-25.95,-1.95 L-25.90,-2.00 L-25.95,-1.95 M-31.50,4.60 L-31.50,4.65 L-31.65,4.50 L-31.50,4.60 M-38.50,4.25 L-38.50,4.35 L-38.50,4.25 Z"/>
        <path fill="url(#G31)" d="M-6.65,1.35 L-6.50,1.40 Q-6.35,1.40 -6.65,1.40 L-6.65,1.35 L-6.55,1.40 L-6.65,1.35 Z"/>
        <path fill="url(#G32)" d="M-2.40,-3.50 Q-2.20,-7.80 -9.10,-9.30 L-9.55,-9.45 L-11.15,-9.95 Q-17.25,-11.35 -19.00,-14.85 Q-19.25,-15.15 -19.45,-15.75 L-19.30,-15.75 Q-19.00,-11.90 -4.40,-9.05 Q-2.85,-6.80 -2.40,-3.50 Z"/>
        <path fill="url(#G33)" d="M-9.10,-9.30 L-9.20,-9.20 L-9.55,-9.45 L-9.10,-9.30 Z"/>
        <path fill="url(#G34)" d="M-9.20,-9.20 Q-6.35,-7.05 -3.45,-0.20 Q-6.95,-6.55 -11.15,-9.95 L-9.55,-9.45 L-9.20,-9.20 Z"/>
        <path fill="url(#G35)" d="M-5.25,3.15 Q-8.50,0.75 -11.40,3.30 L-11.40,3.25 L-11.45,3.35 L-11.40,3.25 L-11.40,3.30 L-11.45,3.35 Q-13.90,6.25 -16.05,9.45 Q-14.35,2.90 -11.20,1.80 Q-9.35,0.95 -6.65,1.40 Q-6.35,1.40 -6.50,1.40 L-6.40,1.50 L-6.55,1.40 L-6.40,1.50 Q-5.85,2.05 -5.25,3.15 M-19.35,13.40 L-18.10,12.70 Q-21.05,17.65 -22.60,22.35 Q-20.50,14.65 -19.35,13.40 Z"/>
        <path fill="url(#G36)" d="M-11.40,3.30 L-11.40,3.35 L-11.45,3.35 L-11.40,3.30 M-14.05,14.50 L-13.95,14.45 Q-13.95,14.50 -14.05,14.50 M-24.80,21.55 L-24.70,21.60 L-24.90,21.75 L-24.80,21.55 Z"/>
        <path fill="url(#G37)" d="M-14.50,19.15 L-14.50,19.70 L-14.60,19.65 L-14.60,19.10 L-14.50,19.15 M-22.60,20.35 L-22.55,20.25 Q-22.55,20.35 -22.60,20.35 Z"/>
        <path fill="url(#G38)" d="M-36.00,12.50 L-36.10,12.50 L-36.00,12.50 M-34.05,13.05 L-34.05,13.15 L-34.15,13.05 L-34.05,13.05 Z"/>
        <path stroke="#1F6916" stroke-width="0.30" stroke-opacity="0.60" stroke-linecap="round" stroke-linejoin="round" stroke-miterlimit="3.00" fill="transparent" d="M30.30,-35.10 Q27.25,-37.30 17.40,-30.45 L15.95,-29.35 L14.60,-28.15 Q7.60,-21.65 6.45,-16.35 L6.05,-15.85 M31.45,-35.40 Q33.75,-32.35 30.30,-35.10 M31.45,-35.40 L30.60,-36.40 Q61.85,-44.10 51.90,-36.00 Q48.45,-33.95 46.25,-29.75 Q41.20,-20.45 39.70,-22.80 Q36.55,-24.85 39.25,-22.25 Q38.90,-16.90 34.30,-24.70 Q37.05,-18.00 28.30,-13.75 Q34.95,-13.30 37.70,-10.20 Q38.75,-8.85 38.55,-7.25 L40.80,-6.25 L41.00,-6.15 Q39.50,-5.15 38.50,-2.60 Q42.65,-4.45 44.55,-4.35 L45.20,-3.95 L47.85,-2.30 L49.25,-1.25 L49.75,-0.90 L51.50,0.65 L52.25,1.40 Q54.60,3.90 55.10,6.45 Q55.20,7.20 54.90,7.75 Q54.25,8.95 51.85,9.00 Q37.85,9.75 39.45,7.35 Q39.50,4.05 39.25,3.60 L38.75,7.00 Q31.15,7.60 31.60,6.10 L32.10,3.75 Q31.85,4.05 31.15,6.00 Q28.60,7.85 29.00,5.40 Q29.50,1.80 30.10,0.90 Q29.30,1.20 27.70,4.95 Q27.70,6.10 22.80,4.65 Q16.20,8.40 7.90,2.35 Q6.25,4.55 5.30,3.80 Q3.35,2.50 3.95,3.00 M2.55,5.05 Q2.30,5.90 1.75,9.45 L1.65,11.25 Q1.65,10.45 3.25,7.60 L3.70,7.00 Q3.80,6.50 4.35,6.10 L4.20,6.10 Q4.30,6.00 4.40,6.10 M5.35,5.60 Q7.90,4.55 10.05,5.90 Q12.35,7.05 13.30,7.30 Q27.40,7.15 31.55,27.20 Q31.10,33.20 17.85,27.70 Q7.75,21.55 4.45,9.15 Q3.75,10.05 3.45,10.75 Q3.70,8.60 3.60,9.30 M-4.05,6.00 Q-4.25,5.20 -5.25,3.15 Q-8.50,0.75 -11.40,3.30 L-11.40,3.35 Q-9.55,5.85 -9.25,8.05 Q-8.85,11.65 -13.85,15.90 Q-15.00,16.55 -14.50,19.15 L-14.50,19.70 Q-27.40,34.15 -24.45,15.95 L-24.05,14.75 Q-27.25,15.80 -27.15,13.50 Q-28.65,8.85 -31.95,6.65 Q-29.95,8.50 -28.30,13.70 Q-27.20,17.80 -35.35,13.35 Q-41.25,17.40 -46.20,17.30 Q-57.75,20.55 -51.45,10.10 Q-49.80,3.05 -42.75,4.85 Q-44.25,3.50 -46.85,3.00 Q-46.90,2.95 -47.25,3.00 Q-45.35,1.00 -42.40,0.75 Q-36.70,0.40 -34.60,-2.05 L-33.95,-2.70 L-30.00,-6.30 L-29.85,-6.35 L-28.50,-7.20 L-27.90,-7.60 Q-23.65,-9.70 -16.40,-7.30 Q-19.80,-10.65 -28.05,-13.85 Q-43.25,-5.65 -40.15,-12.70 Q-33.85,-21.35 -26.15,-19.65 Q-25.60,-19.40 -24.85,-18.80 Q-25.65,-18.30 -26.20,-24.80 Q-34.50,-23.35 -37.55,-37.75 Q-39.05,-41.70 -33.50,-40.90 Q-33.40,-40.85 -33.35,-40.80 L-33.30,-40.80 Q-16.45,-35.90 -2.20,-8.60 M-3.60,-23.20 L-3.60,-23.65 Q-5.15,-34.80 -0.25,-39.00 L2.30,-39.65 L3.35,-39.90 Q2.60,-40.95 -0.30,-41.00 Q6.10,-42.90 13.10,-40.80 Q24.75,-37.45 17.40,-30.45 M8.20,-6.35 Q9.20,-6.40 10.00,-6.50 Q10.85,-6.70 11.65,-7.20 M12.90,-8.25 L13.30,-8.65 Q14.80,-10.15 18.20,-9.30 L19.65,-9.25 Q22.45,-9.60 23.70,-10.35 L24.05,-10.50 L25.95,-11.75 L25.95,-11.80 L28.30,-13.75 M5.30,-6.30 L6.65,-6.30 L7.95,-6.35 L8.20,-6.35 M1.50,-13.45 Q2.30,-15.10 4.55,-15.45 M4.85,-15.55 Q5.65,-15.85 6.45,-16.35 M0.40,-14.00 Q0.65,-15.00 -2.00,-18.05 M6.10,-0.70 Q6.70,-2.05 9.35,-3.40 M3.60,-7.00 Q2.35,-11.05 6.05,-15.85 M0.15,-2.60 L0.15,-0.10 M0.15,0.20 L0.20,0.45 Q0.15,0.50 0.15,0.20 M6.65,-6.30 Q4.85,-4.90 3.40,-3.20 M19.10,-6.25 L19.10,-6.30 M19.10,-6.25 Q16.00,-4.10 15.35,-3.90 Q10.05,-3.95 9.35,-3.40 M6.50,1.45 Q6.75,1.70 7.90,2.35 M3.90,1.60 Q3.35,2.65 2.55,5.05 M26.35,-9.60 L26.00,-9.50 L25.25,-9.35 Q23.55,-8.85 21.95,-8.05 Q20.45,-7.25 19.10,-6.30 M26.35,-9.60 Q26.70,-9.90 30.40,-9.80 L30.45,-9.80 L30.60,-9.80 L32.60,-9.35 L35.60,-8.45 L38.55,-7.25 M-16.35,-7.30 Q-10.15,-5.05 -9.40,-2.15 M-1.65,5.35 L-2.35,-3.00 L-2.40,-3.50 Q-2.20,-7.80 -9.10,-9.30 M-11.15,-9.95 Q-17.25,-11.35 -19.00,-14.85 M-19.45,-15.75 Q-20.05,-17.50 -24.85,-18.80 M-40.15,-12.70 Q-35.10,-15.50 -28.05,-13.85 M-2.25,-6.65 L-1.95,-5.50 M-19.45,-15.75 Q-19.25,-15.15 -19.00,-14.85 M-16.35,-7.30 L-16.40,-7.30 M-9.55,-9.45 L-9.10,-9.30 M-6.65,1.35 L-6.50,1.40 L-6.40,1.50 Q-5.85,2.05 -5.25,3.15 M-0.40,10.25 Q-0.25,10.65 -0.35,9.70 Q-0.85,7.60 -1.65,5.35 L-1.60,2.05 M-11.15,-9.95 L-9.55,-9.45 M-6.55,1.40 L-6.65,1.35 M-6.65,1.40 Q-6.35,1.40 -6.50,1.40 M-6.55,1.40 L-6.40,1.50 M-1.65,10.45 L-1.60,10.75 Q0.20,20.10 -0.90,14.20 Q-0.70,14.55 -0.10,11.15 L-0.30,10.25 M-4.05,6.00 Q-2.80,6.70 -1.65,10.45 M-11.40,3.30 L-11.40,3.25 L-11.45,3.35 L-11.40,3.30 M-16.05,9.45 Q-14.35,2.90 -11.20,1.80 Q-9.35,0.95 -6.65,1.40 M-18.10,12.70 Q-16.35,11.65 -16.05,9.45 Q-13.90,6.25 -11.45,3.35 M-19.35,13.40 L-18.10,12.70 Q-21.05,17.65 -22.60,22.35 L-22.70,22.60 Q-22.70,22.55 -22.60,22.35 Q-20.50,14.65 -19.35,13.40 Q-20.80,14.05 -24.05,14.75 M3.55,8.75 Q2.65,8.00 1.65,12.65 L1.65,11.25 M4.40,6.15 L4.35,6.10 L4.40,6.10 M5.60,0.85 L5.60,0.80 Q5.70,0.00 6.10,-0.70 M2.40,1.80 Q3.30,0.55 4.40,0.65 L3.90,1.60 M2.05,2.35 L2.40,1.80 M1.65,2.30 L2.05,2.35 L1.65,3.15 Q0.85,5.00 -0.10,11.15 M1.75,1.25 Q1.65,2.00 1.65,2.30 L1.65,3.15 M4.45,9.15 Q3.50,7.10 3.70,7.00 M3.55,8.75 Q3.60,9.20 3.60,9.30"/>
        <path stroke="#1F6916" stroke-width="0.30" stroke-opacity="0.30" stroke-linecap="round" stroke-linejoin="round" stroke-miterlimit="3.00" fill="transparent" d="M3.95,3.00 Q3.00,3.90 2.55,5.05 M4.40,6.10 L5.35,5.60 M-2.20,-8.60 Q-3.95,-23.70 -7.75,-30.05 L-3.60,-23.20 M6.00,-32.15 Q8.05,-35.55 7.35,-34.35 Q9.05,-36.85 11.05,-38.00 Q7.10,-33.90 4.45,-26.15 M4.75,-29.60 L6.00,-32.15 M4.10,-27.95 L4.75,-29.60 M0.40,-14.00 Q1.45,-19.95 3.50,-26.25 L4.10,-27.95 M13.80,-16.20 Q9.35,-12.00 5.30,-6.30 M3.60,-7.00 Q13.85,-21.50 42.65,-35.60 Q23.10,-25.15 13.80,-16.20 M1.30,-3.20 Q0.30,-1.20 0.20,0.45 L0.20,2.70 L0.05,4.65 M1.75,1.25 L1.90,0.65 Q2.30,-1.10 3.40,-3.20 L5.30,-6.30 M-0.35,-7.00 Q-0.20,-10.40 0.40,-14.00 M-2.00,-18.05 Q-1.15,-14.70 -0.35,-7.00 L0.05,-2.60 M0.15,-2.60 L1.50,-13.45 Q2.70,-20.60 4.45,-26.15 M1.30,-3.20 Q3.15,-6.50 3.60,-7.00 M0.15,-0.10 L0.05,-2.60 M0.15,-0.10 L0.15,0.10 M0.15,0.15 L0.15,0.20 M19.15,-1.60 Q11.30,-0.75 7.20,1.05 Q7.55,0.85 6.50,1.45 M19.15,-1.60 Q29.80,-3.40 50.00,3.90 Q29.15,-4.60 19.10,-2.40 Q9.00,-1.10 5.65,0.85 L5.60,0.85 L3.90,1.60 M-18.20,-25.30 L-19.30,-26.35 L-20.00,-27.05 Q-39.80,-44.35 -20.20,-27.75 L-20.05,-27.60 L-18.45,-26.20 L-17.85,-25.65 L-13.65,-21.55 L-12.10,-20.00 Q-4.95,-12.05 -2.25,-6.65 M-2.05,-6.65 L-2.20,-8.60 M-9.40,-2.15 Q-4.00,-0.65 -1.65,5.35 M-2.00,-18.05 L-3.60,-23.20 M-4.40,-9.05 L-9.70,-16.25 M-4.40,-9.05 Q-2.85,-6.80 -2.40,-3.50 M-1.95,-5.50 L-2.05,-6.65 M-1.95,-5.50 L-1.60,2.05 M-18.20,-25.30 Q-13.50,-20.80 -9.70,-16.25 M-9.40,-2.15 L-18.35,-2.45 Q-37.65,0.60 -53.75,17.05 Q-38.30,4.15 -25.80,0.55 Q-15.00,-2.50 -6.65,1.35 M19.15,15.10 L19.25,15.20 M23.10,19.65 L27.10,25.50 L23.70,21.40 M12.60,10.60 Q18.25,15.20 23.70,21.40 M23.10,19.65 Q25.00,21.85 19.25,15.20 M12.60,10.60 Q8.80,7.50 5.30,6.55 L4.40,6.15 M4.40,6.10 L4.40,6.15 M19.15,15.10 Q16.45,12.25 12.60,9.40 Q9.60,7.25 6.85,6.15 L5.35,5.60 M5.60,1.90 Q5.90,1.70 6.50,1.45 M3.95,3.00 Q5.10,2.05 5.60,1.90"/>
        <path fill="url(#G39)" d="M-23.90,-46.70 L-23.85,-46.60 Q-23.90,-46.60 -23.90,-46.70 Z"/>
        <path fill="url(#G40)" d="M1.60,-24.70 L1.70,-24.60 L1.65,-24.60 L1.60,-24.70 M-15.00,-26.55 L-15.00,-26.60 L-14.75,-26.50 L-15.00,-26.55 M-19.65,-32.65 L-19.75,-32.65 L-19.65,-32.65 Z"/>
        <path fill="url(#G41)" d="M-3.30,-35.20 L-3.25,-35.20 L-3.30,-35.20 M-16.45,-25.55 L-16.40,-25.50 L-16.95,-25.20 L-17.00,-25.25 L-16.45,-25.55 M-16.40,-36.20 L-16.35,-36.25 L-16.20,-36.30 L-16.40,-36.20 Z"/>
        <path fill="#67D117" fill-opacity="1.00" d="M-16.40,-36.20 L-16.20,-36.30 L-16.35,-36.25 L-18.90,-35.55 Q-20.95,-39.45 -12.85,-42.60 Q5.05,-3.60 -16.95,-25.20 L-16.40,-25.50 Q-15.20,-26.20 -7.75,-27.90 Q-9.60,-29.05 -19.00,-29.05 Q-21.95,-31.45 -12.40,-33.15 Q-14.15,-33.45 -19.65,-32.65 L-19.75,-32.65 Q-19.45,-33.80 -16.40,-36.20 M-3.90,-43.65 Q-7.45,-42.70 -10.10,-39.90 Q-1.50,-38.45 -1.05,-36.20 Q4.85,-29.15 -1.05,-29.80 Q-7.25,-29.65 1.60,-24.70 L1.65,-24.60 Q-4.55,-25.80 1.55,-23.70 Q2.50,-9.75 -8.65,-33.90 L-3.30,-35.20 L-3.25,-35.20 Q-10.25,-34.75 -12.65,-44.05 Q-14.75,-47.55 -6.95,-47.55 L-5.65,-46.25 L-8.80,-44.70 L-4.90,-45.30 L-3.90,-43.65 M-13.65,-44.20 Q-17.70,-39.10 -20.25,-41.95 L-20.40,-42.40 Q-15.80,-47.15 -13.65,-44.20 Z"/>
        <path fill="#2EC51E" fill-opacity="1.00" d="M-13.65,-44.20 Q-14.70,-45.85 -16.10,-47.00 L-15.30,-47.40 L-12.65,-44.05 Q-10.25,-34.75 -3.25,-35.20 L-3.30,-35.20 L-8.65,-33.90 Q2.50,-9.75 1.55,-23.70 Q-4.55,-25.80 1.65,-24.60 L1.70,-24.60 L1.60,-24.70 Q-7.25,-29.65 -1.05,-29.80 Q4.85,-29.15 -1.05,-36.20 Q-1.50,-38.45 -10.10,-39.90 Q-7.45,-42.70 -3.90,-43.65 Q-3.55,-38.65 0.15,-35.35 Q3.25,-32.05 2.70,-29.45 Q1.70,-25.55 2.90,-23.30 Q4.95,-18.20 -1.80,-17.60 Q-13.20,-16.40 -18.20,-24.85 Q-17.85,-24.80 -17.00,-25.25 L-16.95,-25.20 Q5.05,-3.60 -12.85,-42.60 Q-20.95,-39.45 -18.90,-35.55 L-16.35,-36.25 L-16.40,-36.20 Q-19.45,-33.80 -19.75,-32.65 L-19.65,-32.65 Q-14.15,-33.45 -12.40,-33.15 Q-21.95,-31.45 -19.00,-29.05 Q-9.60,-29.05 -7.75,-27.90 Q-15.20,-26.20 -16.40,-25.50 L-16.45,-25.55 L-15.00,-26.55 Q-20.25,-27.40 -20.15,-30.15 Q-19.75,-42.45 -20.25,-41.95 Q-17.70,-39.10 -13.65,-44.20 M-15.00,-26.55 L-14.75,-26.50 L-15.00,-26.60 L-15.00,-26.55 Z"/>
        <path fill="#1E9210" fill-opacity="1.00" d="M-12.65,-44.05 L-15.30,-47.40 Q-14.75,-47.80 -9.15,-49.30 L-6.95,-47.55 Q-14.75,-47.55 -12.65,-44.05 M-16.10,-47.00 Q-14.70,-45.85 -13.65,-44.20 Q-15.80,-47.15 -20.40,-42.40 L-21.10,-43.20 Q-23.70,-41.10 -16.10,-47.00 M-4.90,-45.30 L-8.80,-44.70 L-5.65,-46.25 L-4.90,-45.30 Z"/>
        <path fill="#B4E87D" fill-opacity="1.00" d="M-23.90,-46.70 Q-17.50,-52.30 -23.05,-44.50 Q-18.55,-53.15 -11.05,-49.25 Q-12.00,-49.50 -20.30,-47.15 Q-15.35,-47.50 -24.30,-42.60 Q-24.80,-45.60 -22.60,-47.10 L-23.85,-46.60 L-23.90,-46.70 Z"/>
        <path fill="#6BD260" fill-opacity="1.00" d="M-23.90,-46.70 Q-23.90,-46.60 -23.85,-46.60 L-22.60,-47.10 Q-24.80,-45.60 -24.30,-42.60 Q-15.35,-47.50 -20.30,-47.15 Q-12.00,-49.50 -11.05,-49.25 Q-18.55,-53.15 -23.05,-44.50 Q-17.50,-52.30 -23.90,-46.70 M-15.30,-47.40 L-16.10,-47.00 Q-23.70,-41.10 -21.10,-43.20 Q-24.60,-40.20 -24.90,-42.70 Q-26.10,-53.80 -9.15,-49.30 Q-14.75,-47.80 -15.30,-47.40 Z"/>
        <path stroke="#1F6916" stroke-width="0.20" stroke-opacity="0.60" stroke-linecap="round" stroke-linejoin="round" stroke-miterlimit="3.00" fill="transparent" d="M-17.00,-25.25 Q-17.85,-24.80 -18.20,-24.85 Q-13.20,-16.40 -1.80,-17.60 Q4.95,-18.20 2.90,-23.30 Q1.70,-25.55 2.70,-29.45 Q3.25,-32.05 0.15,-35.35 Q-3.55,-38.65 -3.90,-43.65 L-4.90,-45.30 L-5.65,-46.25 L-6.95,-47.55 L-9.15,-49.30 Q-14.75,-47.80 -15.30,-47.40 L-16.10,-47.00 M-20.25,-41.95 Q-19.75,-42.45 -20.15,-30.15 Q-20.25,-27.40 -15.00,-26.55 L-15.00,-26.60 L-14.75,-26.50 L-15.00,-26.55 L-16.45,-25.55 M-17.00,-25.25 L-16.45,-25.55 M-9.15,-49.30 Q-26.10,-53.80 -24.90,-42.70 Q-24.60,-40.20 -21.10,-43.20 Q-23.70,-41.10 -16.10,-47.00 M-21.10,-43.20 L-20.40,-42.40 L-20.25,-41.95"/>
    </g>
</svg>
